<svg width="35" height="36" viewBox="0 0 35 36" fill="none" xmlns="http://www.w3.org/2000/svg">
<path fill-rule="evenodd" clip-rule="evenodd" d="M0 4.88135C0 2.67221 1.79086 0.881348 4 0.881348H30.3729C32.582 0.881348 34.3729 2.67221 34.3729 4.88135V31.2542C34.3729 33.4634 32.582 35.2542 30.3729 35.2542H4C1.79086 35.2542 0 33.4634 0 31.2542V4.88135ZM2.86441 4.70056H31.5085V10.4294H2.86441V4.70056ZM5.72881 24.7514C6.78345 24.7514 7.63841 23.8965 7.63841 22.8418C7.63841 21.7872 6.78345 20.9322 5.72881 20.9322C4.67416 20.9322 3.8192 21.7872 3.8192 22.8418C3.8192 23.8965 4.67416 24.7514 5.72881 24.7514ZM7.63841 28.5706C7.63841 29.6253 6.78345 30.4802 5.72881 30.4802C4.67416 30.4802 3.8192 29.6253 3.8192 28.5706C3.8192 27.516 4.67416 26.661 5.72881 26.661C6.78345 26.661 7.63841 27.516 7.63841 28.5706ZM11.4576 19.0226C12.5123 19.0226 13.3672 18.1677 13.3672 17.113C13.3672 16.0584 12.5123 15.2034 11.4576 15.2034C10.403 15.2034 9.54802 16.0584 9.54802 17.113C9.54802 18.1677 10.403 19.0226 11.4576 19.0226ZM13.3672 22.8418C13.3672 23.8965 12.5123 24.7514 11.4576 24.7514C10.403 24.7514 9.54802 23.8965 9.54802 22.8418C9.54802 21.7872 10.403 20.9322 11.4576 20.9322C12.5123 20.9322 13.3672 21.7872 13.3672 22.8418ZM11.4576 30.4802C12.5123 30.4802 13.3672 29.6253 13.3672 28.5706C13.3672 27.516 12.5123 26.661 11.4576 26.661C10.403 26.661 9.54802 27.516 9.54802 28.5706C9.54802 29.6253 10.403 30.4802 11.4576 30.4802ZM19.096 17.113C19.096 18.1677 18.2411 19.0226 17.1864 19.0226C16.1318 19.0226 15.2768 18.1677 15.2768 17.113C15.2768 16.0584 16.1318 15.2034 17.1864 15.2034C18.2411 15.2034 19.096 16.0584 19.096 17.113ZM17.1864 24.7514C18.2411 24.7514 19.096 23.8965 19.096 22.8418C19.096 21.7872 18.2411 20.9322 17.1864 20.9322C16.1318 20.9322 15.2768 21.7872 15.2768 22.8418C15.2768 23.8965 16.1318 24.7514 17.1864 24.7514ZM19.096 28.5706C19.096 29.6253 18.2411 30.4802 17.1864 30.4802C16.1318 30.4802 15.2768 29.6253 15.2768 28.5706C15.2768 27.516 16.1318 26.661 17.1864 26.661C18.2411 26.661 19.096 27.516 19.096 28.5706ZM22.9152 19.0226C23.9699 19.0226 24.8249 18.1677 24.8249 17.113C24.8249 16.0584 23.9699 15.2034 22.9152 15.2034C21.8606 15.2034 21.0056 16.0584 21.0056 17.113C21.0056 18.1677 21.8606 19.0226 22.9152 19.0226ZM24.8249 22.8418C24.8249 23.8965 23.9699 24.7514 22.9152 24.7514C21.8606 24.7514 21.0056 23.8965 21.0056 22.8418C21.0056 21.7872 21.8606 20.9322 22.9152 20.9322C23.9699 20.9322 24.8249 21.7872 24.8249 22.8418ZM22.9152 30.4802C23.9699 30.4802 24.8249 29.6253 24.8249 28.5706C24.8249 27.516 23.9699 26.661 22.9152 26.661C21.8606 26.661 21.0056 27.516 21.0056 28.5706C21.0056 29.6253 21.8606 30.4802 22.9152 30.4802ZM30.5537 17.113C30.5537 18.1677 29.6987 19.0226 28.6441 19.0226C27.5894 19.0226 26.7345 18.1677 26.7345 17.113C26.7345 16.0584 27.5894 15.2034 28.6441 15.2034C29.6987 15.2034 30.5537 16.0584 30.5537 17.113ZM28.6441 24.7514C29.6987 24.7514 30.5537 23.8965 30.5537 22.8418C30.5537 21.7872 29.6987 20.9322 28.6441 20.9322C27.5894 20.9322 26.7345 21.7872 26.7345 22.8418C26.7345 23.8965 27.5894 24.7514 28.6441 24.7514Z" fill="#E2D9CB"/>
</svg>
