<svg width="39" height="39" viewBox="0 0 39 39" fill="none" xmlns="http://www.w3.org/2000/svg">
<path fill-rule="evenodd" clip-rule="evenodd" d="M19.5 39C30.2696 39 39 30.2696 39 19.5C39 8.73045 30.2696 0 19.5 0C8.73045 0 0 8.73045 0 19.5C0 30.2696 8.73045 39 19.5 39ZM16.5 9C15.6716 9 15 9.67158 15 10.5C15 11.3284 15.6716 12 16.5 12L30 12C30.8284 12 31.5 11.3284 31.5 10.5C31.5 9.67158 30.8284 9 30 9L16.5 9ZM15 18.75C15 17.9216 15.6716 17.25 16.5 17.25L30 17.25C30.8284 17.25 31.5 17.9216 31.5 18.75C31.5 19.5784 30.8284 20.25 30 20.25L16.5 20.25C15.6716 20.25 15 19.5784 15 18.75ZM16.5 25.5C15.6716 25.5 15 26.1716 15 27C15 27.8284 15.6716 28.5 16.5 28.5L30 28.5C30.8284 28.5 31.5 27.8284 31.5 27C31.5 26.1716 30.8284 25.5 30 25.5L16.5 25.5ZM9.375 27.75C9.58211 27.75 9.75 27.5821 9.75 27.375C9.75 27.1679 9.58211 27 9.375 27C9.16789 27 9 27.1679 9 27.375C9 27.5821 9.16789 27.75 9.375 27.75ZM9.375 30.75C11.239 30.75 12.75 29.239 12.75 27.375C12.75 25.511 11.239 24 9.375 24C7.51104 24 6 25.511 6 27.375C6 29.239 7.51104 30.75 9.375 30.75ZM12.7963 9.18705C13.3138 8.54016 13.2089 7.59622 12.562 7.0787C11.9152 6.56119 10.9712 6.66607 10.4537 7.31296L8.50062 9.75431L8.18566 9.43935C7.59987 8.85356 6.65013 8.85356 6.06434 9.43935C5.47855 10.0251 5.47855 10.9749 6.06434 11.5607L7.56434 13.0607C7.86604 13.3624 8.28194 13.5213 8.70795 13.4977C9.13396 13.4741 9.52977 13.2702 9.7963 12.937L12.7963 9.18705ZM12.7963 17.437C13.3138 16.7902 13.2089 15.8462 12.562 15.3287C11.9152 14.8112 10.9712 14.9161 10.4537 15.563L8.50062 18.0043L8.18566 17.6893C7.59987 17.1036 6.65013 17.1036 6.06434 17.6893C5.47855 18.2751 5.47855 19.2249 6.06434 19.8107L7.56434 21.3107C7.86604 21.6124 8.28194 21.7713 8.70795 21.7477C9.13396 21.7241 9.52977 21.5202 9.7963 21.187L12.7963 17.437Z" fill="#E2D9CB"/>
</svg>
