<svg width="38" height="39" viewBox="0 0 38 39" fill="none" xmlns="http://www.w3.org/2000/svg">
<path d="M11.8003 19.2301C7.87102 19.8731 -0.364679 17.9764 0.0125291 3.31779C6.45649 2.99633 18.59 5.72876 15.5723 15.3726L18.4014 19.2301H19.3444C18.0871 11.8365 20.0045 -2.66138 37.7333 0.424651C38.6763 6.37168 37.639 18.555 25.9456 19.7123H24.2223C24.4853 18.8105 24.8325 17.8223 25.2783 16.8109C26.3333 14.4177 27.8985 11.9893 30.1086 10.2507C30.7278 9.76359 30.8436 8.85537 30.3673 8.22212C29.891 7.58888 29.0029 7.47041 28.3837 7.95752C25.69 10.0765 23.8761 12.9522 22.6992 15.6219C21.5524 18.2236 20.9708 20.7197 20.7815 22.3235C20.7553 22.4165 20.7276 22.5107 20.6984 22.6055L17.4584 22.6055L17.3693 22.5523C14.4761 16.8471 9.31036 12.0972 6.97865 10.3485C6.34867 9.87609 5.46346 10.0154 5.00147 10.6596C4.53948 11.3039 4.67567 12.2091 5.30565 12.6816C6.77893 13.7865 9.4818 16.2095 11.8785 19.2768L11.8003 19.2301Z" fill="#E2D9CB"/>
<path d="M8.9712 25.4986C8.45039 25.4986 8.02818 25.9304 8.02818 26.463V28.3918C8.02818 28.9244 8.45039 29.3562 8.9712 29.3562H9.91422L10.6025 36.3947C10.7471 37.8737 11.9641 39 13.4175 39H24.3283C25.7817 39 26.9987 37.8737 27.1433 36.3947L27.8316 29.3562H28.7746C29.2954 29.3562 29.7176 28.9244 29.7176 28.3918V26.463C29.7176 25.9304 29.2954 25.4986 28.7746 25.4986H8.9712Z" fill="#E2D9CB"/>
</svg>
