<svg width="41" height="41" viewBox="0 0 41 41" fill="none" xmlns="http://www.w3.org/2000/svg">
<path fill-rule="evenodd" clip-rule="evenodd" d="M19.2809 1.71695C19.3613 1.23476 19.7785 0.881348 20.2673 0.881348H21.5404C22.0292 0.881348 22.4464 1.23476 22.5268 1.71695L22.8451 3.62655C22.8639 3.73976 22.863 3.85397 22.8435 3.96449C24.7784 4.24485 26.606 4.85678 28.2667 5.74081L29.4781 4.26932C29.7888 3.89191 30.3268 3.79444 30.7501 4.03886L31.8526 4.6754C32.276 4.91982 32.4606 5.43448 32.2891 5.89225L31.6099 7.70515C31.5753 7.79744 31.5277 7.88306 31.4693 7.95985C32.6847 9.03099 33.7432 10.2761 34.6058 11.6561C34.7023 11.5646 34.8171 11.4922 34.9446 11.4447L36.7586 10.7683C37.2166 10.5975 37.731 10.7829 37.9748 11.2066L38.6096 12.3101C38.8534 12.7338 38.7551 13.2716 38.3772 13.5817L36.8807 14.8099C36.694 14.963 36.4598 15.0424 36.2219 15.0366C36.6601 16.3037 36.9501 17.64 37.0713 19.0247C37.147 19.0198 37.2237 19.0235 37.2999 19.0362L39.2095 19.3545C39.6917 19.4348 40.0451 19.852 40.0451 20.3409V21.6139C40.0451 22.1028 39.6917 22.52 39.2095 22.6003L37.2999 22.9186C37.1867 22.9375 37.0725 22.9365 36.962 22.917C36.7419 24.4357 36.3176 25.8882 35.7178 27.2458C35.7831 27.2788 35.8451 27.3191 35.9025 27.3664L37.3971 28.5968C37.7745 28.9075 37.872 29.4455 37.6276 29.8688L36.9911 30.9713C36.7466 31.3947 36.232 31.5793 35.7742 31.4078L33.9613 30.7286C33.8794 30.6979 33.8028 30.657 33.733 30.6074C32.8161 31.8126 31.7391 32.8896 30.5339 33.8065C30.5835 33.8763 30.6244 33.953 30.6551 34.0348L31.3343 35.8477C31.5058 36.3055 31.3212 36.8202 30.8978 37.0646L29.7953 37.7011C29.372 37.9455 28.834 37.8481 28.5233 37.4707L27.2929 35.976C27.2456 35.9186 27.2053 35.8566 27.1723 35.7914C25.8147 36.3911 24.3622 36.8154 22.8435 37.0355C22.863 37.146 22.8639 37.2602 22.8451 37.3734L22.5268 39.283C22.4464 39.7652 22.0292 40.1186 21.5404 40.1186H20.2673C19.7785 40.1186 19.3613 39.7652 19.2809 39.283L18.9627 37.3734C18.95 37.2972 18.9463 37.2205 18.9511 37.1448C17.567 37.0237 16.2312 36.7338 14.9645 36.2959C14.9643 36.5257 14.8849 36.7505 14.7365 36.9307L13.5061 38.4254C13.1954 38.8028 12.6574 38.9003 12.234 38.6558L11.1315 38.0193C10.7082 37.7749 10.5236 37.2602 10.6951 36.8024L11.3742 34.9896C11.4188 34.8705 11.4851 34.7626 11.5683 34.6704C10.1833 33.8028 8.93464 32.7377 7.86165 31.5147C7.79065 31.5655 7.71263 31.6073 7.62917 31.6384L5.81523 32.3148C5.3572 32.4856 4.84282 32.3002 4.59905 31.8765L3.96421 30.773C3.72044 30.3493 3.81874 29.8114 4.19662 29.5013L5.65035 28.3083C4.77544 26.6561 4.16954 24.8396 3.89097 22.917C3.78046 22.9365 3.66626 22.9375 3.55307 22.9186L1.64346 22.6003C1.16127 22.52 0.807861 22.1028 0.807861 21.6139V20.3409C0.807861 19.852 1.16127 19.4348 1.64346 19.3545L3.55307 19.0362C3.62929 19.0235 3.70597 19.0198 3.78167 19.0247C3.93572 17.2638 4.36289 15.5813 5.02057 14.0196C4.9183 13.9813 4.8219 13.9262 4.7357 13.8552L3.24107 12.6248C2.86366 12.3141 2.76619 11.7761 3.01061 11.3527L3.64715 10.2502C3.89157 9.82687 4.40623 9.64228 4.864 9.81377L6.67689 10.4929C6.77136 10.5283 6.85884 10.5774 6.93701 10.6377C7.95276 9.25075 9.17724 8.02627 10.5642 7.01053C10.5039 6.93235 10.4548 6.84487 10.4194 6.7504L9.74026 4.9375C9.56877 4.47974 9.75336 3.96508 10.1767 3.72066L11.2792 3.08412C11.7026 2.8397 12.2406 2.93717 12.5513 3.31458L13.7817 4.80921C13.8527 4.89541 13.9078 4.99181 13.9461 5.09408C15.5078 4.43641 17.1903 4.00924 18.9511 3.85519C18.9463 3.77948 18.95 3.70279 18.9627 3.62655L19.2809 1.71695ZM19.4039 33.1685V26.5078C18.6261 26.2974 17.9139 25.9272 17.3047 25.4347L11.0301 29.0574C13.1396 31.3724 16.093 32.9049 19.4039 33.1685ZM9.27724 26.6053L15.5387 22.9903C15.3036 22.364 15.1751 21.6857 15.1751 20.9774C15.1751 20.525 15.2275 20.0849 15.3266 19.6628L8.61876 15.79C8.03725 17.2466 7.71743 18.8359 7.71743 20.5C7.71743 22.7127 8.28291 24.7934 9.27724 26.6053ZM10.0539 13.1545C12.1714 10.1698 15.5448 8.13875 19.4039 7.8315V15.447C18.3793 15.7242 17.4686 16.2786 16.7572 17.0246L10.0539 13.1545ZM33.1355 20.5C33.1355 22.396 32.7203 24.1951 31.9759 25.8112L26.4017 22.593C26.552 22.0806 26.6327 21.5384 26.6327 20.9774C26.6327 20.6752 26.6093 20.3784 26.5642 20.0888L32.5386 16.6395C32.9263 17.8569 33.1355 19.154 33.1355 20.5ZM24.8298 25.1495L30.4068 28.3694C28.4661 30.8272 25.6369 32.551 22.4039 33.0561V26.5078C23.3253 26.2585 24.1547 25.785 24.8298 25.1495ZM31.288 13.8974L25.3285 17.3381C24.5838 16.4338 23.5672 15.7617 22.4039 15.447V7.94387C26.1673 8.5318 29.3835 10.7712 31.288 13.8974ZM23.6327 20.9774C23.6327 22.4845 22.411 23.7062 20.9039 23.7062C19.3968 23.7062 18.1751 22.4845 18.1751 20.9774C18.1751 19.4703 19.3968 18.2486 20.9039 18.2486C22.411 18.2486 23.6327 19.4703 23.6327 20.9774Z" fill="#E2D9CB"/>
</svg>
