<svg xmlns="http://www.w3.org/2000/svg" viewBox="0 0 425.2 425.2"><defs><style>.cls-1{fill:#545041;}.cls-2{fill:#f7be91;}.cls-3{opacity:0.1;}.cls-4{fill:#5c7c4b;}.cls-5{fill:#3c673f;}.cls-6{fill:none;}.cls-7{fill:#295a38;}.cls-8{fill:#3e6d3f;}.cls-9{fill:#406e3e;}.cls-10{fill:#467542;}.cls-11{fill:#2c633b;}.cls-12{fill:#315435;}.cls-13{fill:#416b3b;}.cls-14{fill:#fff;opacity:0.07;}.cls-15{fill:#235536;}.cls-16{fill:#40693b;}.cls-17{fill:#244c2e;}.cls-18{fill:#526e41;}.cls-19,.cls-20{opacity:0.15;}.cls-20{fill:#2a4e30;}</style></defs><g id="Monsterka_Monkey_Mask" data-name="Monsterka Monkey Mask"><g id="Cienie"><g id="Doniczka"><path class="cls-1" d="M242.08,156.46c-.41,2.7-4.78,3.24-6.83,3.72-3.32.77-6.68,1.34-10.05,1.79a131.58,131.58,0,0,1-20.43.93,188.74,188.74,0,0,1-20.28-1.64c-6.15-.82-12.82-1.41-18.19-4.82a1.57,1.57,0,0,1,0-2.68,48.11,48.11,0,0,1,8.7-3.23c2.88-.74,6.05-.8,8.8-2,2.45-1,4.57-2.36,7.33-2.29s5.32.89,8.07.69,5.71-.86,8.61-.95a37.43,37.43,0,0,1,8,.67,41.23,41.23,0,0,1,6.24,1.88l1.6.13c.83.08,1.64.16,2.42.31.32-.08.66-.16,1-.22a9,9,0,0,1,3.62.07,15.7,15.7,0,0,1,6.31,3.42l.42.32c.85.32,1.69.67,2.51,1C241.07,154.17,242.3,155,242.08,156.46Z"/><path class="cls-2" d="M179.13,217.43c.23,1,12.26,1.95,13.68,2.11a140.16,140.16,0,0,0,15.05.86c7.52,0,14.82-1.26,22.16-1.94,2-9.62,3.65-19.46,5.64-29.13q1.89-9.18,3.55-18.41c.94-5.3,2.46-10.49,3-15.88-.14,1.59-12.24,5.06-13.94,5.16-5,.29-10.22,0-15.28.24-15.65.61-32.71,1.16-47.32-5.37,3,8.77,4.91,17.85,6.71,26.93C174.69,193.8,176.68,205.66,179.13,217.43Z"/><path class="cls-3" d="M239.21,170.92c.94-5.3,2.46-10.49,3-15.88-.08.92-4.17,2.47-7.93,3.63a41.46,41.46,0,0,0-1.93,4.8c-2.8,8.14-4.48,16.61-6.93,24.85a31.65,31.65,0,0,1-11.48,16.44,47.67,47.67,0,0,1-18.85,8.39c-4,.84-8.45.95-12.16-1.09a9.69,9.69,0,0,1-3.91-3.73,52.71,52.71,0,0,0-2.57-4.82c.87,4.64,1.75,9.29,2.72,13.92.23,1,12.26,1.95,13.68,2.11a140.16,140.16,0,0,0,15.05.86c7.52,0,14.82-1.26,22.16-1.94,2-9.62,3.65-19.46,5.64-29.13Q237.55,180.15,239.21,170.92Z"/></g><g id="MonkeyMask"><path class="cls-4" d="M246,141.2a30,30,0,0,0,.33-4.24c-.15-2.84-.32-5.81-1.93-8.26-1.36-2-4-5.35-6.56-5.63a18.17,18.17,0,0,1-2.85-.67,6.57,6.57,0,0,0-4.29-.2,6.17,6.17,0,0,0-1.9,1.14,5.34,5.34,0,0,0-1.23,1.51c-.57,1.07-.26,2.12-.29,3.19-3.09.09-5.11,3.67-6.32,6.2a33.16,33.16,0,0,0-2.07,5.53,22.19,22.19,0,0,0-.76,4c0,.2-.09.39-.12.59l0,.28c-.17-1-.33-2-.51-3q-1-5.72-2.5-11.32c-.07-.26-.15-.52-.22-.79.18-1.49.12-3,.16-4.52a43.79,43.79,0,0,1,.59-5.93c.31-1.82.74-3.6,1.21-5.39.36-1.33.89-4.85,2.63-5,.28,0,.29-.45,0-.44-1.37,0-2,1.34-2.5,2.45a37.58,37.58,0,0,0-2.12,6.57,41.81,41.81,0,0,0-.89,6.39c-.05.73-.09,1.47-.11,2.22q-.93-3.24-1.89-6.46a73.31,73.31,0,0,0-3.72-10.28,23.49,23.49,0,0,0-2.83-4.65,8.48,8.48,0,0,0-1.82-1.63,3.07,3.07,0,0,0-.34-.38l-.6-.57a.51.51,0,0,0-.06-.25l-.13-.23a1.13,1.13,0,0,0-.24-.3l-.37-.35a6.12,6.12,0,0,0-.48-.41,1.12,1.12,0,0,0-.64-.3.46.46,0,0,0-.45.46.59.59,0,0,0,.07.29,1.33,1.33,0,0,0,.14.19l.18.21.1.1,0,.06c.13.19.27.37.41.54a.26.26,0,0,0,0,.24,21.9,21.9,0,0,0,2.05,2.37,7.06,7.06,0,0,0,.48.8c.91,1.34,1.78,2.71,2.57,4.12a48.75,48.75,0,0,1,3.82,9.86c1.12,3.73,2.2,7.48,3.18,11.26-.74-1.76-1.53-3.51-2.41-5.2a53.83,53.83,0,0,0-3.43-5.75,22.88,22.88,0,0,0-4.27-5c-.09-.08-.25,0-.17.13,1.19,1.79,2.59,3.44,3.8,5.23a55.28,55.28,0,0,1,3.28,5.62c1,2,1.88,4,2.69,6,.62,1.59,1.17,3.23,1.9,4.78.31,1.43.61,2.87.87,4.32.37,2,.76,4.1,1,6.16q.17,1.6.36,3.21a8.5,8.5,0,0,0,.41,3,1.14,1.14,0,0,0,2.07-.27,3.48,3.48,0,0,0-.12-1.65,13.4,13.4,0,0,0,.05-3c0-1.22,0-2.45.11-3.66a31.43,31.43,0,0,1,.44-3.75.89.89,0,0,0,0-.14,31.13,31.13,0,0,1,1.65-4.91c1-2.41,2.77-6.43,5.72-6.88v0c-.46,1.55-1.75,2-1.44,3.94.81,4.82,6.24,7.56,10.55,8.51,2,.44,4.18.18,6.1.8a8.86,8.86,0,0,1,2.87,2.18C246.38,143.6,245.92,142.34,246,141.2Zm-7.31-14.51c-.18,1-2.33,1.15-3.2,1.29s-2.74.89-3.2.3c.11-.36.25-.72-.23-.2C232.26,125.43,237.28,124.52,238.72,126.69Zm-8.16,9.61c-1.91-1.26-3.14-3.39-1.79-5.5.71-1.11,2.11-1.57,2.56,0s.28,2.89.93,4.32c.4.86,1.31,1.51,1.23,2.57C232.5,137.77,231.34,136.81,230.56,136.3Zm5.75.14c-.19,1.4-2.19.3-1.94-1.5.35-2.48,1.69.34,1.94,1.48Zm6.65,3.39a7.21,7.21,0,0,1-3.46-.28c-1.23-.47-1.66-1.6-2-2.81-.11-.46-.42-1.41,0-1.8s.66.26,1,.66a12.22,12.22,0,0,0,3.18,2.61C241.25,137.87,244.69,139,243,139.83Zm1.33-5.84c-.77.41-2.53-1.09-3.27-1.33-1.11-.37-4.44,0-4.12-2,.09-.54,2.62-1.21,3.09-1.27a2.64,2.64,0,0,1,2.6,1c.11.13.37.39.66.7C244.1,132,245.24,133.49,244.29,134Z"/><path class="cls-4" d="M109.37,327.85c1.21-.73,2.3-1.74,3.77-2,2.37-.37,4.9.28,7.32.11a24.81,24.81,0,0,0,5.14-.89,16,16,0,0,0,6.18-3.15c1.74-1.53,3.16-3.79,2.59-6.12a6.61,6.61,0,0,0-.63-1.65,2.93,2.93,0,0,1-.54-1.9c.26-1.15.82-2.13.38-3.32a6.18,6.18,0,0,0-1.19-1.9,7.3,7.3,0,0,0-2-1.59,8.18,8.18,0,0,0-5.09-.49,22.25,22.25,0,0,1-3.47.28c-3-.1-6.75,3.16-8.7,5.23-2.33,2.47-3,5.77-3.71,8.92a32.43,32.43,0,0,0-.35,4.81C109,325.52,108.2,326.84,109.37,327.85ZM123,308.22c1.74.06,4.89,1.13,4.43,3.25-.34,1.53-2.85-.07-3.71-.32s-3.51-.82-3.55-2A3.71,3.71,0,0,1,123,308.22Zm1.43,14.1c.08-1.2,1.27-1.77,1.89-2.67,1-1.49,1.13-3.17,1.85-4.68s2.36-.9,3,.45c1.23,2.59-.59,4.77-3.06,5.87C127.1,321.73,125.55,322.61,124.42,322.32Zm-3.12-1.85c.5-1.24,2.56-4.17,2.54-1.33,0,2.06-2.56,2.95-2.54,1.35Zm-6.75,1.1a15,15,0,0,0,4.2-2.39c.53-.39.84-1.12,1.34-.57s-.08,1.52-.29,2c-.56,1.3-1.26,2.5-2.79,2.82-.88.18-3.41.18-4.13-.26C111,322,115.24,321.28,114.55,321.57Zm-.49-8.21.9-.68a3.23,3.23,0,0,1,3.24-.74c.55.14,3.41,1.31,3.42,1.92,0,2.33-3.84,1.39-5.21,1.62-.91.14-3.24,1.53-4.08.95C111.3,315.72,112.9,314.26,114.06,313.36Z"/><path class="cls-5" d="M254.25,96.37c-3.36-.31-6.58-.12-9.88-.9s-6.33-2.4-9.77-2.62a40.72,40.72,0,0,0-11.19.73c-3.92.9-10.76,1.52-9.74,7.26a8.26,8.26,0,0,0,4.08,6.21c1.83,1.19,1.7,1.67.92,2s-2.39.66-3.13,1.55c-1.21,1.48-.27,4,.57,5.32a26.68,26.68,0,0,0,4.38,5.91,6.33,6.33,0,0,0,3.92,1.35c1.48,0,2.93.1,4.42.12a6.17,6.17,0,0,1,1.9-1.14,6.57,6.57,0,0,1,4.29.2,26.7,26.7,0,0,0,6.91-4.42,30.49,30.49,0,0,0,8.94-12.35c1-2.47,1.7-5,3.74-6.83.38-.34,2.1-1.29,1.91-1.89C256.36,96.46,254.61,96.4,254.25,96.37Zm-16.46,3.09c1-1.19,4.63-4.06,6.17-2.68,1.83,1.63-5.71,5.62-6.9,4.5C236.66,102.53,236.86,100.63,237.79,99.46Zm-11.2,2.11c.2-1.9,1.63-3.32,3.12-4.37a6.59,6.59,0,0,1,4.75-1.3l.35.06c.25,1.68-1.61,2.74-2.37,4.05s-1.17,3.19-2.68,4.14C227.6,105.5,226.38,103.61,226.59,101.57Zm-7,1.24c.52-1.41,4.17-6,5.92-5.14.35.18-.16,2-1,4-1.08,2.39-2.75,4.88-4.09,4.41S219.25,103.89,219.64,102.81ZM232,117c-.18,1.55-4.2,1.2-5.38,1-1.69-.23-4.48-1-5.56-2.46-.94-1.28-2-4.85.62-4.66,2,.15,3.25,2,4.68,3.07a3.12,3.12,0,0,0,.85.37C229,114.86,232.2,115.2,232,117Zm8.61-3.87c-1.87,2.19-11.07-.26-10.19-3.35a.9.9,0,0,1,.27-1.34c.47-.23,2,.7,2.47.85C234.34,109.6,242.53,110.8,240.59,113.08Zm2.31-4.7a.76.76,0,0,1-.59.13,2.42,2.42,0,0,1-1.41-.62c-.25-.29-.2-.77.23-.8a1.75,1.75,0,0,1,.87.16,1.46,1.46,0,0,1,.28.21l.09.06a.71.71,0,0,1,.18.08,1.4,1.4,0,0,1,.35.42C243,108.15,243,108.27,242.9,108.38Zm2.44-2.54c-.73.53-4.37,1.78-4.84.37-.35-1.06,3-1.94,3.83-1.89C245.52,104.39,246.67,104.87,245.34,105.84Z"/><path class="cls-6" d="M224.52,101.66c-1.08,2.39-2.75,4.88-4.09,4.41s-1.18-2.18-.79-3.26c.52-1.41,4.17-6,5.92-5.14C225.91,97.85,225.4,99.72,224.52,101.66Z"/><path class="cls-6" d="M232,117c-.18,1.55-4.2,1.2-5.38,1-1.69-.23-4.48-1-5.56-2.46-.94-1.28-2-4.85.62-4.66,2,.15,3.25,2,4.68,3.07a3.12,3.12,0,0,0,.85.37C229,114.86,232.2,115.2,232,117Z"/><path class="cls-6" d="M235,122.4a13.09,13.09,0,0,1-4.77,1c-.48,0-.95,0-1.42,0a6.17,6.17,0,0,1,1.9-1.14A6.57,6.57,0,0,1,235,122.4Z"/><path class="cls-6" d="M232.44,100c-.81,1.38-1.17,3.19-2.68,4.14-2.16,1.35-3.38-.54-3.17-2.58s1.63-3.32,3.12-4.37a6.59,6.59,0,0,1,4.75-1.3l.35.06C235.06,97.64,233.2,98.7,232.44,100Z"/><path class="cls-6" d="M240.59,113.08c-1.87,2.19-11.07-.26-10.19-3.35a.9.9,0,0,1,.27-1.34c.47-.23,2,.7,2.47.85C234.34,109.6,242.53,110.8,240.59,113.08Z"/><path class="cls-6" d="M224.52,101.66c-1.08,2.39-2.75,4.88-4.09,4.41s-1.18-2.18-.79-3.26c.52-1.41,4.17-6,5.92-5.14C225.91,97.85,225.4,99.72,224.52,101.66Z"/><path class="cls-6" d="M232.44,100c-.81,1.38-1.17,3.19-2.68,4.14-2.16,1.35-3.38-.54-3.17-2.58s1.63-3.32,3.12-4.37a6.59,6.59,0,0,1,4.75-1.3l.35.06C235.06,97.64,233.2,98.7,232.44,100Z"/><path class="cls-6" d="M232,117c-.18,1.55-4.2,1.2-5.38,1-1.69-.23-4.48-1-5.56-2.46-.94-1.28-2-4.85.62-4.66,2,.15,3.25,2,4.68,3.07a3.12,3.12,0,0,0,.85.37C229,114.86,232.2,115.2,232,117Z"/><path class="cls-6" d="M240.59,113.08c-1.87,2.19-11.07-.26-10.19-3.35a.9.9,0,0,1,.27-1.34c.47-.23,2,.7,2.47.85C234.34,109.6,242.53,110.8,240.59,113.08Z"/><path class="cls-7" d="M212.55,86.52c-1.16-3-2.86-5.87-4.23-8.81-1.12-2.44-2.85-4.21-4.19-6.48-2.09-3.56-5-6.71-9-8.13a19.25,19.25,0,0,0-7.68-.79,3.3,3.3,0,0,1-3.11-1.46c-1.61.78-1.56,3.35-1.76,4.93a39.91,39.91,0,0,1-1.89,8.1,17.29,17.29,0,0,0-1.35,7.33c.22,2.25.79,4.36.9,6.67.22,5.34.77,10.63,4.85,14.5,3.31,3.14,7.35,4.08,11.56,2.35,2-.8,3.46-2.32,5.67-2.68,1.27-.2,2.09.51,3.36.65,2.14.25,5-.25,6.25-2.12C214.34,97,214.05,90.42,212.55,86.52ZM187.76,67.06a1,1,0,0,1,.9-.27c1.13.18,2.39,1.93,2.89,2.69a15.24,15.24,0,0,1,1.51,3.94c.24.82.93,5-1.07,4-.42-.23-1.24-1.78-1.64-2.23a9.71,9.71,0,0,1-2-2.86C187.86,71.06,186.49,68.24,187.76,67.06Zm1.39,14.14a3.33,3.33,0,0,1-1.72-2.28c0-.17.07-2.52.4-2.27,1.31,1,2.87,1.78,3.72,3.38C193.14,80.36,191.23,82.33,189.15,81.2ZM184,85.78c-.46-1-2-5.43-.13-5.33,1.34.08,2,1.58,2.73,2.55.23.3.45.6.68.89A8,8,0,0,0,189.65,86c1.13.63,3.54,1.26,3.51,2.88,0,2-3.25,1.31-4.5,1C186.17,89.39,185,88.09,184,85.78Zm12.46,12.39c-.27,1.38-1.21,1.27-2.35,1.26a7.47,7.47,0,0,1-4.74-1.37,3.47,3.47,0,0,1-1.3-2.5c-.12-.7-.75-2-.52-2.65.46-1.38,3.44.4,4.38.86s3.48,1,3.82,2.2a.65.65,0,0,0,0-.19c-.13-.19-.28-.4-.4-.6.33.26.4.42.4.6A3,3,0,0,1,196.46,98.17Zm9.69-12.59c-.29-.16.36-.11,1-.08-.21,1.55-4.88,6.53-5.06,3.57C202,87.91,205,84.89,206.15,85.58Zm-6.53-7.07a37.27,37.27,0,0,0-.45-7.31c-.22-1.66.93-1.2,1.79-.43a7.62,7.62,0,0,1,2.15,3.6c.77,2.3,1.49,4.94.86,7.35-.34,1.28-1.85,4.49-3.46,2.88S199.5,80.43,199.62,78.51ZM206.78,95c-1,1.26-2.6,3.24-4.33,3.16s-1.25-1.55-.79-2.6c.69-1.5,1.62-1.88,2.86-2.84,1-.83,2.33-3,3.57-3.26C209.16,90.84,207.69,93.78,206.78,95Z"/><path class="cls-6" d="M189.15,81.2a3.33,3.33,0,0,1-1.72-2.28c0-.17.07-2.52.4-2.27,1.31,1,2.87,1.78,3.72,3.38C193.14,80.36,191.23,82.33,189.15,81.2Z"/><path class="cls-6" d="M192,77.38c-.42-.23-1.24-1.78-1.64-2.23a9.71,9.71,0,0,1-2-2.86c-.51-1.23-1.88-4.05-.61-5.23a1,1,0,0,1,.9-.27c1.13.18,2.39,1.93,2.89,2.69a15.24,15.24,0,0,1,1.51,3.94C193.3,74.24,194,78.46,192,77.38Z"/><path class="cls-6" d="M193.16,88.91c0,2-3.25,1.31-4.5,1-2.49-.55-3.64-1.85-4.66-4.16-.46-1-2-5.43-.13-5.33,1.34.08,2,1.58,2.73,2.55.23.3.45.6.68.89A8,8,0,0,0,189.65,86C190.78,86.66,193.19,87.29,193.16,88.91Z"/><path class="cls-6" d="M195.77,95.78c-.13-.19-.28-.4-.4-.6C195.7,95.44,195.77,95.6,195.77,95.78Z"/><path class="cls-6" d="M196.46,98.17c-.27,1.38-1.21,1.27-2.35,1.26a7.47,7.47,0,0,1-4.74-1.37,3.47,3.47,0,0,1-1.3-2.5c-.12-.7-.75-2-.52-2.65.46-1.38,3.44.4,4.38.86s3.48,1,3.82,2.2a.65.65,0,0,0,0-.19A3,3,0,0,1,196.46,98.17Z"/><path class="cls-6" d="M204,81.72c-.34,1.28-1.85,4.49-3.46,2.88s-1-4.17-.89-6.09a37.27,37.27,0,0,0-.45-7.31c-.22-1.66.93-1.2,1.79-.43a7.62,7.62,0,0,1,2.15,3.6C203.88,76.67,204.6,79.31,204,81.72Z"/><path class="cls-6" d="M207.12,85.5c-.21,1.55-4.88,6.53-5.06,3.57-.08-1.16,2.89-4.18,4.09-3.49C205.86,85.42,206.51,85.47,207.12,85.5Z"/><path class="cls-6" d="M206.78,95c-1,1.26-2.6,3.24-4.33,3.16s-1.25-1.55-.79-2.6c.69-1.5,1.62-1.88,2.86-2.84,1-.83,2.33-3,3.57-3.26C209.16,90.84,207.69,93.78,206.78,95Z"/><path class="cls-6" d="M204,81.72c-.34,1.28-1.85,4.49-3.46,2.88s-1-4.17-.89-6.09a37.27,37.27,0,0,0-.45-7.31c-.22-1.66.93-1.2,1.79-.43a7.62,7.62,0,0,1,2.15,3.6C203.88,76.67,204.6,79.31,204,81.72Z"/><path class="cls-6" d="M207.12,85.5c-.21,1.55-4.88,6.53-5.06,3.57-.08-1.16,2.89-4.18,4.09-3.49C205.86,85.42,206.51,85.47,207.12,85.5Z"/><path class="cls-6" d="M206.78,95c-1,1.26-2.6,3.24-4.33,3.16s-1.25-1.55-.79-2.6c.69-1.5,1.62-1.88,2.86-2.84,1-.83,2.33-3,3.57-3.26C209.16,90.84,207.69,93.78,206.78,95Z"/><path class="cls-6" d="M192,77.38c-.42-.23-1.24-1.78-1.64-2.23a9.71,9.71,0,0,1-2-2.86c-.51-1.23-1.88-4.05-.61-5.23a1,1,0,0,1,.9-.27c1.13.18,2.39,1.93,2.89,2.69a15.24,15.24,0,0,1,1.51,3.94C193.3,74.24,194,78.46,192,77.38Z"/><path class="cls-6" d="M189.15,81.2a3.33,3.33,0,0,1-1.72-2.28c0-.17.07-2.52.4-2.27,1.31,1,2.87,1.78,3.72,3.38C193.14,80.36,191.23,82.33,189.15,81.2Z"/><path class="cls-6" d="M193.16,88.91c0,2-3.25,1.31-4.5,1-2.49-.55-3.64-1.85-4.66-4.16-.46-1-2-5.43-.13-5.33,1.34.08,2,1.58,2.73,2.55.23.3.45.6.68.89A8,8,0,0,0,189.65,86C190.78,86.66,193.19,87.29,193.16,88.91Z"/><path class="cls-6" d="M195.77,95.78c-.13-.19-.28-.4-.4-.6C195.7,95.44,195.77,95.6,195.77,95.78Z"/><path class="cls-6" d="M196.46,98.17c-.27,1.38-1.21,1.27-2.35,1.26a7.47,7.47,0,0,1-4.74-1.37,3.47,3.47,0,0,1-1.3-2.5c-.12-.7-.75-2-.52-2.65.46-1.38,3.44.4,4.38.86s3.48,1,3.82,2.2a.65.65,0,0,0,0-.19A3,3,0,0,1,196.46,98.17Z"/><path class="cls-8" d="M206.81,115.71c-.58-1-1.76-1.2-2.64-1.85l-.11-.09c-1-.82-1.55-2.13-2.4-3.12-1-1.19-2.74-1.42-4.23-1.42-3,0-6.85,2.1-9.18,3.9-2.63,2-4.62,4.92-6.7,7.54a22.23,22.23,0,0,1-4.36,4.36c-2.24,1.62-4.27,2.92-5.49,5.58a20.59,20.59,0,0,0-1.51,7.7c-.07,1.5-.94,4.39,0,5.66,1.15-.45,1.81-.91,3.14-.74,1.79.22,3.22.74,5.1.57a41.39,41.39,0,0,0,6.45-1c2.42-.62,4.82-.78,7.06-2a28,28,0,0,0,5.36-3.25,28.67,28.67,0,0,0,4.54-5.62c1.16-1.76,2.84-3.11,3.91-4.94a17.05,17.05,0,0,0,1.8-5.83A8.68,8.68,0,0,0,206.81,115.71Zm-28.06,22.61c-.7.46-2.35,1.44-3.22,1.31-1.55-.23,0-1.72.52-2.4.78-1,1.77-2.44,3-2.91,1.42-.55,1.73,1.16,1.17,2.26C180.67,136.84,179.8,137.64,178.75,138.32Zm2.63-10.45c-.35,1.58-2.11,3.4-3.86,3.37.3,0-3.19,2.19-4.39,1.2-1.73-1.43,4.43-5.81,5.67-6.13C180.21,126,181.78,126.08,181.38,127.87Zm1.23-4.25c.5,0-1.59-.05-.87-1.26.35-.6,1.57-1,2.1-1.44,1.21-1.11,2-2.8,3.58-3.41,1.21-.47,3.8,0,4.51,1.31C193.79,122.19,183.09,124.7,182.61,123.62Zm10,9.5c-.4.42-1.84,1.65-2.46,1.17s-.1-1.75,0-2.23c.35-1.05,2.63-7,4.26-5.94C196.29,127.3,193.65,132.07,192.64,133.12Zm9.17-8.51a6.92,6.92,0,0,1-1.18,2.94c-.27.55-3.36,5.13-4.07,3.31-.61-1.57,1.12-3.56,1.53-5,.48-1.64.57-4.65,1.88-5.88s1.74.26,1.86,1.89A22.21,22.21,0,0,1,201.81,124.61Z"/><path class="cls-6" d="M181.38,127.87c-.35,1.58-2.11,3.4-3.86,3.37.3,0-3.19,2.19-4.39,1.2-1.73-1.43,4.43-5.81,5.67-6.13C180.21,126,181.78,126.08,181.38,127.87Z"/><path class="cls-6" d="M182.61,123.62c.5,0-1.59-.05-.87-1.26.35-.6,1.57-1,2.1-1.44,1.21-1.11,2-2.8,3.58-3.41,1.21-.47,3.8,0,4.51,1.31C193.79,122.19,183.09,124.7,182.61,123.62Z"/><path class="cls-6" d="M192.64,133.12c-.4.42-1.84,1.65-2.46,1.17s-.1-1.75,0-2.23c.35-1.05,2.63-7,4.26-5.94C196.29,127.3,193.65,132.07,192.64,133.12Z"/><path class="cls-6" d="M201.81,124.61a6.92,6.92,0,0,1-1.18,2.94c-.27.55-3.36,5.13-4.07,3.31-.61-1.57,1.12-3.56,1.53-5,.48-1.64.57-4.65,1.88-5.88s1.74.26,1.86,1.89A22.21,22.21,0,0,1,201.81,124.61Z"/><path class="cls-6" d="M201.81,124.61a6.92,6.92,0,0,1-1.18,2.94c-.27.55-3.36,5.13-4.07,3.31-.61-1.57,1.12-3.56,1.53-5,.48-1.64.57-4.65,1.88-5.88s1.74.26,1.86,1.89A22.21,22.21,0,0,1,201.81,124.61Z"/><path class="cls-6" d="M192.64,133.12c-.4.42-1.84,1.65-2.46,1.17s-.1-1.75,0-2.23c.35-1.05,2.63-7,4.26-5.94C196.29,127.3,193.65,132.07,192.64,133.12Z"/><path class="cls-6" d="M182.61,123.62c.5,0-1.59-.05-.87-1.26.35-.6,1.57-1,2.1-1.44,1.21-1.11,2-2.8,3.58-3.41,1.21-.47,3.8,0,4.51,1.31C193.79,122.19,183.09,124.7,182.61,123.62Z"/><path class="cls-6" d="M181.38,127.87c-.35,1.58-2.11,3.4-3.86,3.37.3,0-3.19,2.19-4.39,1.2-1.73-1.43,4.43-5.81,5.67-6.13C180.21,126,181.78,126.08,181.38,127.87Z"/><path class="cls-6" d="M230.25,123.36c-.48,0-.95,0-1.42,0a6.17,6.17,0,0,1,1.9-1.14,6.57,6.57,0,0,1,4.29.2A13.09,13.09,0,0,1,230.25,123.36Z"/><path class="cls-6" d="M232.26,135.09c.4.86,1.31,1.51,1.23,2.57-1,.11-2.15-.85-2.93-1.36-1.91-1.26-3.14-3.39-1.79-5.5.71-1.11,2.11-1.57,2.56,0S231.61,133.66,232.26,135.09Z"/><path class="cls-6" d="M238.72,126.69c-.18,1-2.33,1.15-3.2,1.29s-2.74.89-3.2.3c.11-.36.25-.72-.23-.2C232.26,125.43,237.28,124.52,238.72,126.69Z"/><path class="cls-6" d="M233.49,137.66c-1,.11-2.15-.85-2.93-1.36-1.91-1.26-3.14-3.39-1.79-5.5.71-1.11,2.11-1.57,2.56,0s.28,2.89.93,4.32C232.66,136,233.57,136.6,233.49,137.66Z"/><path class="cls-6" d="M238.72,126.69c-.18,1-2.33,1.15-3.2,1.29s-2.74.89-3.2.3c.11-.36.25-.72-.23-.2C232.26,125.43,237.28,124.52,238.72,126.69Z"/><path class="cls-4" d="M272.79,194.94c-.3-.93-.65-1.82-1-2.71a6,6,0,0,0-.06-2.78,16,16,0,0,0-.77-1.87c0-.12,0-.24,0-.35,0-.83,0-1.65.08-2.48.12-1.72.36-3.43.6-5.14.44-3.17,1-6.34.23-9.5-.09-.34-.54-.23-.58.08-.38,3.31-.69,6.63-1,10a43.24,43.24,0,0,0-.24,5c0,.21,0,.43,0,.66q-1.62-3.11-3.43-6.11a105.82,105.82,0,0,0-7.94-11.31v-.06a15.34,15.34,0,0,1-1.64-2.18l.09.35a105.88,105.88,0,0,0-8.58-9.14c-3.34-3.17-7.21-7.18-12.08-7.46a9.36,9.36,0,0,0-7,2.19,31.61,31.61,0,0,0-5.43,6.44c-.13.18.14.34.29.22,1-.78,2-1.53,2.89-2.38s1.7-1.71,2.58-2.52c1.7-1.54,3.83-2.66,6.19-2.21,4.4.85,8,4.72,11.08,7.7a108.54,108.54,0,0,1,16.69,20.79c.67,1.08,1.32,2.18,2,3.28l-.74-.17a16.38,16.38,0,0,1-4.27-1.81c-2.71-1.54-5.79-2.49-8.88-1.59a.29.29,0,0,0,0,.56c1.46.32,2.89.69,4.34,1.09a26.2,26.2,0,0,1,4.18,1.71,14.85,14.85,0,0,0,4,1.29c.65.11,1.3.2,1.95.33l.23.05.88,1.59c.58,1.11,1.15,2.23,1.69,3.36.27.55.53,1.06.84,1.58a9.44,9.44,0,0,1,1,1.66.38.38,0,0,0,.4.28,48.94,48.94,0,0,1,1.28,7.4,51,51,0,0,1-.38,10.1,43,43,0,0,1-6.94,18.86c-3.88,5.9-9.07,10.8-13,16.67-2,3-3.37,6.41-5.19,9.56a27.53,27.53,0,0,1-7,7.63c-2.7,2.16-5.61,4.07-8.35,6.19s-5.57,4.5-8.19,6.94a190.43,190.43,0,0,0-14.77,15.69c-4.69,5.48-9.22,11.1-13.88,16.61-4.18,4.94-9.21,11-16.47,9.24a22.66,22.66,0,0,1-9.2-5.28c-2.4-2.08-4.75-4.36-7.71-5.61-3.47-1.47-6.94-.68-10.46.18l-11.89,2.89a47.79,47.79,0,0,0-5.87,1.77c-.61.24-.61,1.35.17,1.26a95.81,95.81,0,0,0,12.17-2.59l5.95-1.43a22.19,22.19,0,0,1,6-1c3.47.11,6.27,2.46,8.75,4.64a34.75,34.75,0,0,0,8.7,6.13,13.79,13.79,0,0,0,9.86.79,20.05,20.05,0,0,0,7.91-5.49c2.48-2.6,4.74-5.44,7-8.2s4.68-5.65,7-8.47c4.74-5.65,9.57-11.23,14.81-16.43,2.58-2.57,5.26-5,8.05-7.37s5.83-4.44,8.82-6.57a42.4,42.4,0,0,0,7.86-6.72c2.42-2.81,3.85-6.15,5.56-9.41,3.39-6.47,8.65-11.63,13.15-17.3A43.41,43.41,0,0,0,274,215.3,40.56,40.56,0,0,0,272.79,194.94Z"/><path class="cls-9" d="M294.48,164.1a0,0,0,0,1,0-.08A0,0,0,0,1,294.48,164.1Z"/><path class="cls-9" d="M297.59,167h0l0,0A.15.15,0,0,0,297.59,167Z"/><path class="cls-9" d="M294.48,164a0,0,0,0,0,0,.08A0,0,0,0,0,294.48,164Z"/><path class="cls-5" d="M310.25,178.83h0a.1.1,0,0,0-.05,0Z"/><path class="cls-5" d="M328.56,180.5a1.5,1.5,0,0,1-.17-.23,5,5,0,0,0-.62-.83,7.29,7.29,0,0,1-1.31-1.91,16.08,16.08,0,0,1-.9-4.29,21.85,21.85,0,0,0-3.05-8.3,53.47,53.47,0,0,0-11.14-13.29c-4.85-4.06-10.71-6.1-16.83-7.43C289,143,282.8,143,278.06,146.49c-2.26,1.65-4.53,4.27-4.62,7.21s3.1,5,2.8,8c0,0,0,0,0,.07-.14,1.68-3,2-4,3-1.44,1.34-1.18,3.61-.56,5.3a22.27,22.27,0,0,0,8.5,10.21l.11.08a28.62,28.62,0,0,0,3.77,2.25,53,53,0,0,0,9.85,3.71A62.17,62.17,0,0,0,305,188.69a31.33,31.33,0,0,0,11-1c.64-.18,1.26-.38,1.89-.61a3.77,3.77,0,0,0,1.17-.44c.64-.37,1.4-.59,2.07-.92s1.41-.73,2.1-1.14,1.32-.82,1.95-1.27A14.52,14.52,0,0,1,327,182c.4-.21.8-.4,1.22-.58.16-.07.64-.25.65-.46A1.1,1.1,0,0,0,328.56,180.5Zm-32-17.87c.08-.25.18-.48.29-.74s.31-.84.49-1.25a4.59,4.59,0,0,1,1.58-2,10.49,10.49,0,0,1,2.68-1.17,24.72,24.72,0,0,1,2.54-.79,16.52,16.52,0,0,1,2.9-.09c.33,0,1.29-.15.85.45s-.83.92-1.14,1.43-.53.87-.83,1.29a6.56,6.56,0,0,1-2.05,2,25.46,25.46,0,0,1-2.38,1.23c-.83.37-1.69.65-2.51,1-.31.15-.6.31-.9.48s-1.15.75-1.49.31a1.25,1.25,0,0,1-.14-.66,6.31,6.31,0,0,1,0-.87A2.87,2.87,0,0,1,296.58,162.63Zm.93,4.43c-.25-.11-.33-.29.15-.48s1-.43,1.5-.68c.33-.17,1.34-.5,1.63-.14s-.62,1.24-.94,1.38a3.3,3.3,0,0,1-1.92,0A1.37,1.37,0,0,1,297.51,167.06Zm-18.4,5.52a8.79,8.79,0,0,1-.48-1.42,13.09,13.09,0,0,1-.47-3,6.07,6.07,0,0,1,.31-2.71c.24-.54.82-1.18,1.5-1a1,1,0,0,1,.63.55c0,.26.1.52.13.79a14.79,14.79,0,0,1,.09,3.12,14.16,14.16,0,0,1-.57,3.17c-.07.27-.37,1.21-.7,1.19S279.18,172.71,279.11,172.58Zm2.44-18.35a18,18,0,0,0-2.54,4.55c-.08.2-.11.42-.2.6-.58-.18-.43-1.67-.37-2.08a8.93,8.93,0,0,1,1-2.68,32.48,32.48,0,0,1,2-3.42,9,9,0,0,1,1.81-2.07c.26-.21,1.38-1,1.3-.13a5.84,5.84,0,0,1-.78,1.91A23.64,23.64,0,0,1,281.55,154.23Zm2.58,5a30.35,30.35,0,0,1,4.11-6.44,14.82,14.82,0,0,1,2.08-2,10.18,10.18,0,0,1,4-1.74c.37-.07,2.18-.73,2.11.07s-.74,1.44-1.08,2.13a17.75,17.75,0,0,1-1.74,2.86,29.49,29.49,0,0,1-5.3,5.29c-.83.65-1.9,1.54-3,1.5C284.3,160.84,283.71,160.15,284.13,159.25Zm4.56,18.64c-.16.23-.55.1-.75,0a4.66,4.66,0,0,1-1.73-1.82,7.43,7.43,0,0,1-1-2.39,7,7,0,0,1-.11-2.46,5.32,5.32,0,0,1,.29-1.24c.06-.18.24-.63.45-.67s.58.39.73.57a7.17,7.17,0,0,1,.45.63c.3,1.07.6,2.15.87,3.24s.57,2.28.76,3.44C288.71,177.37,288.81,177.74,288.69,177.89Zm5.55-14.23c-.29,1-1.67,1.31-2.57,1.08-.29-.08-1.46-.37-.84-.82a5.13,5.13,0,0,1,.81-.41c.5-.23,1.85-1,2.42-.56A.6.6,0,0,1,294.24,163.66Zm.24.44a0,0,0,0,1,0-.08A0,0,0,0,1,294.48,164.1ZM302,183.34a1.11,1.11,0,0,1,0,.19c0,.54,0,.79-.6.79A4.8,4.8,0,0,1,300,184c-.88-.31-1.67-.28-2.34-1a7.55,7.55,0,0,1-1.42-2.27A9.21,9.21,0,0,1,296,174a1.59,1.59,0,0,1,.88-1c.42-.13.67.21.91.53.48.61.88,1.34,1.35,2,.39.86.79,1.72,1.17,2.59a20.5,20.5,0,0,1,1,2.43c.1.34.25.65.36,1s.1.78.19,1.15A5.72,5.72,0,0,1,302,183.34Zm5.61-15.09a2.28,2.28,0,0,1-.85.43l-1.08.24c-.42.09-.88.12-1.31.18a2.27,2.27,0,0,1-1.36-.17c-.05-.43,1.11-1.2,1.4-1.41a10.76,10.76,0,0,1,2.88-1.43c.51-.17,1.35-.51,1.56.23a1.14,1.14,0,0,1-.3,1A4.61,4.61,0,0,1,307.6,168.25Zm2.77,10.28a2.11,2.11,0,0,1-.17.38v0a1.49,1.49,0,0,1-.12.14l-.1,0,0,0-.06,0s0,0,0,0l-.05,0h-.11a.33.33,0,0,0-.14,0l-.23-.14h0l-.06-.06-.27-.27-.08-.1c-.06-.08-.11-.17-.17-.26a4.89,4.89,0,0,1-.34-.64v0a.64.64,0,0,1-.06-.16,2.59,2.59,0,0,1-.09-.4c0-.05,0-.11,0-.17s0-.05,0-.08v0l0-.09,0-.06v0s0,0,0-.06a.22.22,0,0,0,.07-.07c.3-.3,1.18.18,1.38.4A1.9,1.9,0,0,1,310.37,178.53Zm8.38,5.92a5.15,5.15,0,0,1-1,.28,3.11,3.11,0,0,1-2.24.16,5.42,5.42,0,0,1-2.25-2,11.88,11.88,0,0,1-.79-1.45c-.11-.22-.39-.76,0-.83s.55.25.77.36.64.29,1,.44c.73.37,1.47.72,2.21,1.07.53.26,1.05.43,1.59.65.32.13,1,.35,1.05.75A.5.5,0,0,1,318.75,184.45Zm4-7.56a5.79,5.79,0,0,1-3-.12,6.91,6.91,0,0,1-2.32-1c-.51-.37-.94-.81-1.5-1.14a21.21,21.21,0,0,0-2.35-.85,21.17,21.17,0,0,1-3.07-1.4c-.55-.33-2.18-1.59-1.64-2.33a8.35,8.35,0,0,1,2.83-2.08,7.38,7.38,0,0,1,4.15-.82,5.88,5.88,0,0,1,.73.14,10.69,10.69,0,0,1,1.37.51,8.81,8.81,0,0,1,3.74,3.31,10.19,10.19,0,0,1,1.23,3C323.12,174.77,323.63,176.61,322.72,176.89Z"/><path class="cls-10" d="M307.27,218a45.35,45.35,0,0,0,.29-5.58c-.28-4.71-3.19-9-6.87-11.91a14.29,14.29,0,0,1-3.16-2.94c-1-1.52-1.44-3.39-2.37-5a18,18,0,0,0-3.13-3.83,19.69,19.69,0,0,0-9.41-5.45,10.58,10.58,0,0,0-6.51.54,6.9,6.9,0,0,0-4,5c-.18,1.17,0,2.39-.29,3.54-.25,1-2.35.32-2.82-.11a5.16,5.16,0,0,1-1.19-2.1,3,3,0,0,0-.62-1.16c-.83-.81-2.24-.37-3.18.32-2.83,2.07-4.12,5.76-4.12,9.28s1.14,6.91,2.33,10.22a29.44,29.44,0,0,0,3.41,7.24,26,26,0,0,0,3.38,3.74c8.62,8.16,19.49,14.19,31.23,15.9a8.39,8.39,0,0,1,2.53.63,3.85,3.85,0,0,1,2.05,2.95,4.44,4.44,0,0,0,1.89-4c.05-1.74.51-3.42.65-5.17C307.67,226.06,307,222,307.27,218Zm-43-16.87a4.39,4.39,0,0,1-.18-3.45,4.75,4.75,0,0,1,1.47-2.28,3.1,3.1,0,0,1,2.56-.67A12.62,12.62,0,0,1,266,199,7.93,7.93,0,0,1,264.24,201.1Zm6.19,4.63c-.37-1.18-1.33-2.22-1.48-3.46a4.13,4.13,0,0,1,0-1.11,11,11,0,0,1,1.05-3.61C271.78,199.59,274.3,204.34,270.43,205.73Zm3.29-6.15a.18.18,0,0,1-.14.1.22.22,0,0,1-.15-.1,3.68,3.68,0,0,1-.73-1.9,2.28,2.28,0,0,1,.7-1.84,2.08,2.08,0,0,0-.21-.21l.22.2h0A3,3,0,0,1,273.72,199.58Zm8.59,12.09a10.65,10.65,0,0,1-.67,2.19c-.26.61-.55,1.2-.81,1.8a1,1,0,0,1-.27.41.33.33,0,0,1-.44,0,.57.57,0,0,1-.1-.34c0-1.79-.1-3.58-.16-5.38a12.09,12.09,0,0,1,.12-2.62,1.85,1.85,0,0,1,.38-.91.81.81,0,0,1,.91-.24,1.07,1.07,0,0,1,.44.5A6.81,6.81,0,0,1,282.31,211.67Zm-.37-16.81a1.21,1.21,0,0,1,1.16-.8,4.14,4.14,0,0,1,1.46.3c3,.92,7.2.45,9.74,2.45,3.17,2.5-3.55,2.33-5,2.37a4.93,4.93,0,0,1-2.23-.33c-1-.47-1.64-1.5-2.63-2-.54-.26-1.14-.34-1.67-.61A1.33,1.33,0,0,1,281.94,194.86Zm4.49,18.19-.17.18a.66.66,0,0,1-.59.24c-.33-.07-.45-.48-.45-.82C285.28,209.92,287.59,211.6,286.43,213.05Zm4.46,11.81a13.49,13.49,0,0,1-3.76,4,.82.82,0,0,1-1.37-.23,6.79,6.79,0,0,1-1.09-5.82c.38-1.37,1.2-2.6,1.51-4a24,24,0,0,1,.58-3.39c.26-.67,1-1.34,1.62-1a1.47,1.47,0,0,1,.5.55,8.5,8.5,0,0,1,.57,1c.16.38.28.79.44,1.18s.18.57.28.85a12,12,0,0,0,.83,2,5.66,5.66,0,0,1,.72,1.7A4.56,4.56,0,0,1,290.89,224.86Zm-.7-17.86a2.5,2.5,0,0,1-1.06-1.1,31.22,31.22,0,0,1,6.9-.22c3.29.25,5.7,2.67,7,5.56a.75.75,0,0,1,.1.33c0,.43-.59.56-1,.55a18.79,18.79,0,0,1-3.52-.06,10.16,10.16,0,0,1-2.58-1.32C294,209.59,292.11,208.29,290.19,207Zm11.54,28.23c-.57.13-2.1-1.67-2.43-2.06a3.16,3.16,0,0,1-.72-1.2,3.5,3.5,0,0,1-.06-1.25c.08-1.06.07-3,.79-3.8a.44.44,0,0,1,.35-.2c.19,0,.32.19.42.35a16.12,16.12,0,0,1,2.1,6.21C302.24,233.82,302.41,235.07,301.73,235.23Zm3.36-7.62a.47.47,0,0,1-.6,0,1.83,1.83,0,0,1-.46-.46c-1-1.08-2.6-1.65-3.72-2.59a13.77,13.77,0,0,1-3.07-3.12,1.91,1.91,0,0,1-.34-1.3c.22-1.15,1.69-.84,2.49-.6a13.5,13.5,0,0,1,1.82.72c.26.12.51.28.78.38s.84.23,1.25.37a4,4,0,0,1,.57.23,2.74,2.74,0,0,1,1,1.45,7.75,7.75,0,0,1,.29,2.31c0,.71,0,1.42,0,2.13A.7.7,0,0,1,305.09,227.61Z"/><path class="cls-6" d="M245.09,233.59c-1.17-1-1.65-3.75-1.91-5.08-.57-2.95-.83-9,1.43-11.22,3.84,2.32,3,11.81,2.13,15.5C247.38,232.34,247,235.12,245.09,233.59Z"/><path class="cls-6" d="M244.06,207.82c-2.16-1.11,4.26-6,5.77-6.4a.69.69,0,0,1,.51,0C251.24,201.91,246.47,209.07,244.06,207.82Z"/><path class="cls-6" d="M260.27,241.48a6.44,6.44,0,0,1-.43.94c-2.17-1.83-3.65-5.42-4.4-8-.72-2.45-1.54-8.09.06-10.26,3.31,2,3.2,5.7,3.72,9C259.68,236.12,261.31,238.58,260.27,241.48Z"/><path class="cls-6" d="M265.2,206.74c-.1.71-.88,1.08-1.55,1.32l-12,4.26c-.77.27-3.19,1.13-3.67,0-.38-.93,2.06-2.49,2.66-2.9A27,27,0,0,1,261,205c1.36-.26,3-.31,3.87.77A1.41,1.41,0,0,1,265.2,206.74Z"/><path class="cls-6" d="M271.53,243.15c-3.5.89-7.78-6.77-5.43-9.47,1.75,1.44,4.3,4.76,4.83,7A2.66,2.66,0,0,1,271.53,243.15Z"/><path class="cls-6" d="M275.75,217.94c-2.47,1.79-5.63,1.91-8.56,2-1.69,0-7,1-8.15-.47s.64-3.67,1.81-4.35c2.44-1.43,6.59-1.14,9.25-.6C272.33,214.94,274.65,216,275.75,217.94Z"/><path class="cls-6" d="M280.36,232.76a4,4,0,0,1-1.82.29c-3.57,0-9.89.19-12.32-3.06-1.89-2.51-.15-3.21,1.91-3.35a23.25,23.25,0,0,1,3,.06l4.51.33a11.75,11.75,0,0,1,3.34.56,4,4,0,0,1,2.41,2.23A2.43,2.43,0,0,1,280.36,232.76Z"/><path class="cls-6" d="M283.16,241.61c-1.9.08-6.62-.08-6.7-3a1.94,1.94,0,0,1,.11-.76c.63-1.78,3.91-.72,5,.43C281.82,238.53,283.66,241.59,283.16,241.61Z"/><path class="cls-6" d="M244.06,207.82c-2.16-1.11,4.26-6,5.77-6.4a.69.69,0,0,1,.51,0C251.24,201.91,246.47,209.07,244.06,207.82Z"/><path class="cls-6" d="M265.2,206.74c-.1.71-.88,1.08-1.55,1.32l-12,4.26c-.77.27-3.19,1.13-3.67,0-.38-.93,2.06-2.49,2.66-2.9A27,27,0,0,1,261,205c1.36-.26,3-.31,3.87.77A1.41,1.41,0,0,1,265.2,206.74Z"/><path class="cls-6" d="M275.75,217.94c-2.47,1.79-5.63,1.91-8.56,2-1.69,0-7,1-8.15-.47s.64-3.67,1.81-4.35c2.44-1.43,6.59-1.14,9.25-.6C272.33,214.94,274.65,216,275.75,217.94Z"/><path class="cls-6" d="M280.36,232.76a4,4,0,0,1-1.82.29c-3.57,0-9.89.19-12.32-3.06-1.89-2.51-.15-3.21,1.91-3.35a23.25,23.25,0,0,1,3,.06l4.51.33a11.75,11.75,0,0,1,3.34.56,4,4,0,0,1,2.41,2.23A2.43,2.43,0,0,1,280.36,232.76Z"/><path class="cls-6" d="M283.16,241.61c-1.9.08-6.62-.08-6.7-3a1.94,1.94,0,0,1,.11-.76c.63-1.78,3.91-.72,5,.43C281.82,238.53,283.66,241.59,283.16,241.61Z"/><path class="cls-6" d="M271.53,243.15c-3.5.89-7.78-6.77-5.43-9.47,1.75,1.44,4.3,4.76,4.83,7A2.66,2.66,0,0,1,271.53,243.15Z"/><path class="cls-6" d="M260.27,241.48a6.44,6.44,0,0,1-.43.94c-2.17-1.83-3.65-5.42-4.4-8-.72-2.45-1.54-8.09.06-10.26,3.31,2,3.2,5.7,3.72,9C259.68,236.12,261.31,238.58,260.27,241.48Z"/><path class="cls-6" d="M245.09,233.59c-1.17-1-1.65-3.75-1.91-5.08-.57-2.95-.83-9,1.43-11.22,3.84,2.32,3,11.81,2.13,15.5C247.38,232.34,247,235.12,245.09,233.59Z"/><path class="cls-10" d="M260.12,277.81c-.29-1.85-.57-3.7-.88-5.56s-1.39-3.49-2-5.29c-1.05-3.11-2.7-6-3.83-9.11-.9-2.46-1.94-5.42-3.67-7.42a12.07,12.07,0,0,0-2.87-2.57c-1-.59-2.19-.83-3.21-1.49-2.7-1.74-4.47-4.83-7.12-6.55a9.3,9.3,0,0,0-5.39-1.4c-1.36.09-2.11.9-3.23,1.59s-2.36,1.67-3.57,2.5c-.94.64-2.09,1-3.06,1.56-.73.44-1.24,1.2-2,1.58-.05-.06-.13-.14-.13-.2a11.91,11.91,0,0,1-2.28.58,5.37,5.37,0,0,0-3.34,1.94,17.19,17.19,0,0,0-1.18,2.78c-.63,1.35-1.31,2.68-1.89,4.06a18.66,18.66,0,0,0,3.18,19.39,28.59,28.59,0,0,0,5.79,5.35,17.21,17.21,0,0,0,3.95,2.25c2,.65,4.06.82,6,1.5.95.32,1.93.69,2.91,1a36.32,36.32,0,0,0,12.09,1.94c4.16,0,8.6-2,12.39-3.48.36-.14,4.21-1.1,4.26-.79C260.83,280.58,260.34,279.23,260.12,277.81Zm-48.05-18.94,0,0c-.76-.69,1-4,1.42-4.6,1.07-1.53,2.75-3.87,4.41-4.66.24,1.33-.84,4.27-1.56,5.39C215.93,255.55,213,259.52,212.07,258.87Zm9.11,3.4c-.45,1.13-.49,2.2-.85,3.35-.41,1.36-1,2.65-1.39,4-.34,1.09-.47,3.16-1.37,3.91-2.12-1.24-1.33-6.1-1-8.07a27.36,27.36,0,0,1,3.08-8.91c.58-1.06,3.19-5.89,3.49-2.6C223.36,256.86,222.23,259.62,221.18,262.27Zm4.52,4.89a7.17,7.17,0,0,1-.18.82c-.09.26-.23.47-.43.43-.65-.14.08-2.26.12-2.62.12-1.09,0-2.06.11-3.13a25.3,25.3,0,0,1,.82-4c.25-1-.12-2.84.66-3.53a6.2,6.2,0,0,1,1.17,4.35,34.17,34.17,0,0,1-1.76,5.47A12.66,12.66,0,0,0,225.7,267.16Zm5.23,4.53a32.72,32.72,0,0,1-.65,4.59c-.28,1-.79,2.85-1.78,3.31a3.77,3.77,0,0,1-.75-3.22c.13-1.29.41-2.56.53-3.85a37.44,37.44,0,0,0,0-3.82,25.63,25.63,0,0,1,.26-4.72c.13-.73.82-2.63,1.72-3.17a.89.89,0,0,1,1.19.23,4.75,4.75,0,0,1,1,2.76C232.57,266.35,231.28,269.09,230.93,271.69Zm1-20c-.23-.12-2.47-1.55-3.38-2.09a1.77,1.77,0,0,0-.38-.22c.75-1,3.41-.33,4.52-.39a57.42,57.42,0,0,1,8.41-.22c1.55.15,5.06,1.7,4.86,3.7a10.34,10.34,0,0,1-3.06.23c-2.45.17-4.86.76-7.36.33A12.46,12.46,0,0,1,232,251.73Zm7.24,31.33a5.54,5.54,0,0,1-1.57-2c-.9-1.77-2.09-3.68-1.91-5.68a26.45,26.45,0,0,1,1.4-7.28c.23-.57,1.3,1.26,1.34,1.33a18.2,18.2,0,0,1,.66,3.1,28.18,28.18,0,0,1,.51,3.17,20.27,20.27,0,0,1,.06,2.93C239.63,279.9,239.92,282.05,239.19,283.06Zm-2.47-22.17c-.67-.58-1-1.25-.62-2,.71-1.32,5.17-1.37,6.44-1.42a10.18,10.18,0,0,1,4.73,1c1.56.71,4.73.8,5.72,2.35a9.44,9.44,0,0,1-5,1.82,27.46,27.46,0,0,1-6.79.1A10.79,10.79,0,0,1,236.72,260.89Zm11.59,23.44c-.58.3-1.85-.29-2.52-.62-2.93-1.42-4.11-4.94-3.61-8,.06-.42.35-2.37.74-2.61,1.08-.66,4.19,3.58,4.7,4.39.71,1.14.72,2.65.93,3.93C248.71,282.35,249.32,283.78,248.31,284.33Zm6.46-17.16a10,10,0,0,1-4.28,1.43,21.66,21.66,0,0,1-5.7-.16c-.77-.13-2.33-.36-2.64-1.25-.44-1.27,1.63-1.63,2.53-1.91a10.38,10.38,0,0,1,4.44,0c.47.07,5.85,1.35,5.67,1.73C254.74,267.09,254.74,267.08,254.77,267.17Z"/><path class="cls-6" d="M216.3,255c-.37.59-3.28,4.56-4.23,3.91l0,0c-.76-.69,1-4,1.42-4.6,1.07-1.53,2.75-3.87,4.41-4.66C218.1,250.9,217,253.84,216.3,255Z"/><path class="cls-6" d="M219.69,245.1a2.18,2.18,0,0,1-.54.35C219.14,245.33,219.25,245.22,219.69,245.1Z"/><path class="cls-6" d="M223.1,254c.26,2.9-.87,5.66-1.92,8.31-.45,1.13-.49,2.2-.85,3.35-.41,1.36-1,2.65-1.39,4-.34,1.09-.47,3.16-1.37,3.91-2.12-1.24-1.33-6.1-1-8.07a27.36,27.36,0,0,1,3.08-8.91C220.19,255.5,222.8,250.67,223.1,254Z"/><path class="cls-6" d="M228,259.52a34.17,34.17,0,0,1-1.76,5.47,12.66,12.66,0,0,0-.51,2.17,7.17,7.17,0,0,1-.18.82c-.09.26-.23.47-.43.43-.65-.14.08-2.26.12-2.62.12-1.09,0-2.06.11-3.13a25.3,25.3,0,0,1,.82-4c.25-1-.12-2.84.66-3.53A6.2,6.2,0,0,1,228,259.52Z"/><path class="cls-6" d="M231.45,261a4.75,4.75,0,0,1,1,2.76c.16,2.55-1.13,5.29-1.48,7.89a32.72,32.72,0,0,1-.65,4.59c-.28,1-.79,2.85-1.78,3.31a3.77,3.77,0,0,1-.75-3.22c.13-1.29.41-2.56.53-3.85a37.44,37.44,0,0,0,0-3.82,25.63,25.63,0,0,1,.26-4.72c.13-.73.82-2.63,1.72-3.17A.89.89,0,0,1,231.45,261Z"/><path class="cls-6" d="M239.68,278.67c-.05,1.23.24,3.38-.49,4.39a5.54,5.54,0,0,1-1.57-2c-.9-1.77-2.09-3.68-1.91-5.68a26.45,26.45,0,0,1,1.4-7.28c.23-.57,1.3,1.26,1.34,1.33a18.2,18.2,0,0,1,.66,3.1,28.18,28.18,0,0,1,.51,3.17A20.27,20.27,0,0,1,239.68,278.67Z"/><path class="cls-6" d="M235.56,253.07a12.46,12.46,0,0,1-3.61-1.34c-.23-.12-2.47-1.55-3.38-2.09a1.77,1.77,0,0,0-.38-.22c.75-1,3.41-.33,4.52-.39a57.42,57.42,0,0,1,8.41-.22c1.55.15,5.06,1.7,4.86,3.7a10.34,10.34,0,0,1-3.06.23C240.47,252.91,238.06,253.5,235.56,253.07Z"/><path class="cls-6" d="M248.55,281.38c.16,1,.77,2.4-.24,2.95-.58.3-1.85-.29-2.52-.62-2.93-1.42-4.11-4.94-3.61-8,.06-.42.35-2.37.74-2.61,1.08-.66,4.19,3.58,4.7,4.39C248.33,278.59,248.34,280.1,248.55,281.38Z"/><path class="cls-6" d="M241.23,262.81a10.79,10.79,0,0,1-4.51-1.92c-.67-.58-1-1.25-.62-2,.71-1.32,5.17-1.37,6.44-1.42a10.18,10.18,0,0,1,4.73,1c1.56.71,4.73.8,5.72,2.35a9.44,9.44,0,0,1-5,1.82A27.46,27.46,0,0,1,241.23,262.81Z"/><path class="cls-6" d="M254.77,267.17a10,10,0,0,1-4.28,1.43,21.66,21.66,0,0,1-5.7-.16c-.77-.13-2.33-.36-2.64-1.25-.44-1.27,1.63-1.63,2.53-1.91a10.38,10.38,0,0,1,4.44,0c.47.07,5.85,1.35,5.67,1.73C254.74,267.09,254.74,267.08,254.77,267.17Z"/><path class="cls-6" d="M221.18,262.27c-.45,1.13-.49,2.2-.85,3.35-.41,1.36-1,2.65-1.39,4-.34,1.09-.47,3.16-1.37,3.91-2.12-1.24-1.33-6.1-1-8.07a27.36,27.36,0,0,1,3.08-8.91c.58-1.06,3.19-5.89,3.49-2.6C223.36,256.86,222.23,259.62,221.18,262.27Z"/><path class="cls-6" d="M216.3,255c-.37.59-3.28,4.56-4.23,3.91l0,0c-.76-.69,1-4,1.42-4.6,1.07-1.53,2.75-3.87,4.41-4.66C218.1,250.9,217,253.84,216.3,255Z"/><path class="cls-6" d="M232.41,263.8c.16,2.55-1.13,5.29-1.48,7.89a32.72,32.72,0,0,1-.65,4.59c-.28,1-.79,2.85-1.78,3.31a3.77,3.77,0,0,1-.75-3.22c.13-1.29.41-2.56.53-3.85a37.44,37.44,0,0,0,0-3.82,25.63,25.63,0,0,1,.26-4.72c.13-.73.82-2.63,1.72-3.17a.89.89,0,0,1,1.19.23A4.75,4.75,0,0,1,232.41,263.8Z"/><path class="cls-6" d="M228,259.52a34.17,34.17,0,0,1-1.76,5.47,12.66,12.66,0,0,0-.51,2.17,7.17,7.17,0,0,1-.18.82c-.09.26-.23.47-.43.43-.65-.14.08-2.26.12-2.62.12-1.09,0-2.06.11-3.13a25.3,25.3,0,0,1,.82-4c.25-1-.12-2.84.66-3.53A6.2,6.2,0,0,1,228,259.52Z"/><path class="cls-6" d="M239.19,283.06a5.54,5.54,0,0,1-1.57-2c-.9-1.77-2.09-3.68-1.91-5.68a26.45,26.45,0,0,1,1.4-7.28c.23-.57,1.3,1.26,1.34,1.33a18.2,18.2,0,0,1,.66,3.1,28.18,28.18,0,0,1,.51,3.17,20.27,20.27,0,0,1,.06,2.93C239.63,279.9,239.92,282.05,239.19,283.06Z"/><path class="cls-6" d="M248.31,284.33c-.58.3-1.85-.29-2.52-.62-2.93-1.42-4.11-4.94-3.61-8,.06-.42.35-2.37.74-2.61,1.08-.66,4.19,3.58,4.7,4.39.71,1.14.72,2.65.93,3.93C248.71,282.35,249.32,283.78,248.31,284.33Z"/><path class="cls-6" d="M254.77,267.17a10,10,0,0,1-4.28,1.43,21.66,21.66,0,0,1-5.7-.16c-.77-.13-2.33-.36-2.64-1.25-.44-1.27,1.63-1.63,2.53-1.91a10.38,10.38,0,0,1,4.44,0c.47.07,5.85,1.35,5.67,1.73C254.74,267.09,254.74,267.08,254.77,267.17Z"/><path class="cls-6" d="M253,260.89a9.44,9.44,0,0,1-5,1.82,27.46,27.46,0,0,1-6.79.1,10.79,10.79,0,0,1-4.51-1.92c-.67-.58-1-1.25-.62-2,.71-1.32,5.17-1.37,6.44-1.42a10.18,10.18,0,0,1,4.73,1C248.83,259.25,252,259.34,253,260.89Z"/><path class="cls-6" d="M246,252.51a10.34,10.34,0,0,1-3.06.23c-2.45.17-4.86.76-7.36.33a12.46,12.46,0,0,1-3.61-1.34c-.23-.12-2.47-1.55-3.38-2.09a1.77,1.77,0,0,0-.38-.22c.75-1,3.41-.33,4.52-.39a57.42,57.42,0,0,1,8.41-.22C242.67,249,246.18,250.51,246,252.51Z"/><path class="cls-8" d="M173.43,320.05a16.29,16.29,0,0,0-3.37-7.59c-1.46-2-3.07-4.25-5.25-5.56-1.3-.77-2.86-2-4.3-2.31a12.44,12.44,0,0,0-6.16.68c-1.48.52-3.34.8-3.92,2.41a2.31,2.31,0,0,0-.12.47,13.16,13.16,0,0,0,.12,2.17c0,.29.12,2.82.09,2.86-.7.83-2.34.28-3.26.26-1.4,0-3-.07-4.2.76s-1.83,2.34-2.87,3.36c-1.79,1.74-4.34,3.59-4.2,6.46.19,3.79,3.49,6.55,5.71,9.15,1,1.14.73,2.72.87,4.11a7.73,7.73,0,0,0,1.28,3.8c1,1.38,2.68,2.35,4,3.31s2.1,2,3.52,2.57a7.16,7.16,0,0,0,5.91-.8c1.23-.74,5.41-5.11,6.69-3.57,1.91-2.76,4.24-5.42,6.26-8.36a26.8,26.8,0,0,0,3.37-6.28C174.44,325.53,173.79,322.52,173.43,320.05Zm-16.86-5.18h0a5.58,5.58,0,0,1,.71-.43l.1-.06a4.27,4.27,0,0,1,1.18-.55c.46-.14.93-.26,1.38-.35a5.67,5.67,0,0,1,2.92,0c1.2.36,4.45,1.28,3.76,2.61-.79,1.56-3.36,2.54-4.93,3a5,5,0,0,1-5.35-1.6C155.23,316.28,155.69,315.49,156.57,314.87Zm1.35,19.42c.62-.74,1.89-1.15,2,.18.06.79-1.32,2.7-2.25,2.31S157.51,334.78,157.92,334.29Zm-.7-4.86c0-.5.24-1.43.95-1.21.91.28.6,2.2-.17,2.47S157.16,330,157.22,329.43ZM143,333.56a12.33,12.33,0,0,1-.42-3.27c-.12-2.69,1.23-4.82,2.64-7,.55-.84,3.93-5.7,5-3.83.61,1-1.15,3.52-1.59,4.46C147.09,327.24,146.27,331.38,143,333.56Zm6.72,2c-.17.2-1.34,1-1.37,1.16.55-2.18.26-4.14,1.41-6.28.82-1.54,1.88-4.46,3.42-5.39.86.88.33,3.21-.05,4.29a19.54,19.54,0,0,1-2.44,4.93C150.38,334.73,150.07,335.18,149.72,335.59Zm4.94,1.14c-.36.59-.81,1.09-1.21,1.67a8.35,8.35,0,0,1-2,2.37c-1.1-1.34.59-3.51,1.51-4.49a26.23,26.23,0,0,0,2.09-2.37c.42-.57.84-1.94,1.55-2a5.9,5.9,0,0,1-.84,3C155.39,335.5,155,336.12,154.66,336.73Zm6.29,3.63c-.47,1.2-2.95,5.79-4.57,5,.64-1.64.76-3.45,1.55-5.2.7-1.54,1.79-4.41,3.23-5.42.48-.33.38-.41.62.16a1.71,1.71,0,0,1,.1.36C162.19,336.66,161.41,339.19,161,340.36Zm2-12.28a4.64,4.64,0,0,1-1.82-.07c-.8-.21-1-.63-1.43-1.26,0,0-.26-.17-.26-.21a.33.33,0,0,1,.15-.25,4.32,4.32,0,0,1,1.73-.57,4.08,4.08,0,0,1,3,.82C165.14,327.45,163.68,328,163,328.08Zm4.16,8.62a1.75,1.75,0,0,1-1.21.67c-.25-.27-1-1.28-.89-1.64s.67-.34,1-.32l.23,0a2.41,2.41,0,0,0,.37.07c.15,0,.49-.07.6,0C167.61,335.76,167.32,336.45,167.14,336.7Zm-1.1-6.44a18.94,18.94,0,0,1-2.56-1.26c1.69-.86,3.43-2.34,5.39-2.43a2.89,2.89,0,0,1,2.3.87c.1.1,1.34,2,1.54,1.78C171.27,330.67,167.9,330.79,166,330.26Z"/><path class="cls-6" d="M148.66,323.91c-1.57,3.33-2.39,7.47-5.66,9.65a12.33,12.33,0,0,1-.42-3.27c-.12-2.69,1.23-4.82,2.64-7,.55-.84,3.93-5.7,5-3.83C150.86,320.49,149.1,323,148.66,323.91Z"/><path class="cls-6" d="M153.13,329.37a19.54,19.54,0,0,1-2.44,4.93c-.31.43-.62.88-1,1.29-.17.2-1.34,1-1.37,1.16.55-2.18.26-4.14,1.41-6.28.82-1.54,1.88-4.46,3.42-5.39C154,326,153.51,328.29,153.13,329.37Z"/><path class="cls-6" d="M156.56,331.89a5.9,5.9,0,0,1-.84,3c-.33.64-.68,1.26-1.06,1.87s-.81,1.09-1.21,1.67a8.35,8.35,0,0,1-2,2.37c-1.1-1.34.59-3.51,1.51-4.49a26.23,26.23,0,0,0,2.09-2.37C155.43,333.34,155.85,332,156.56,331.89Z"/><path class="cls-6" d="M158,330.69c-.89.34-.84-.66-.78-1.26s.24-1.43.95-1.21C159.08,328.5,158.77,330.42,158,330.69Z"/><path class="cls-6" d="M159.92,334.47c.06.79-1.32,2.7-2.25,2.31s-.16-2,.25-2.49C158.54,333.55,159.81,333.14,159.92,334.47Z"/><path class="cls-6" d="M161,340.36c-.47,1.2-2.95,5.79-4.57,5,.64-1.64.76-3.45,1.55-5.2.7-1.54,1.79-4.41,3.23-5.42.48-.33.38-.41.62.16a1.71,1.71,0,0,1,.1.36C162.19,336.66,161.41,339.19,161,340.36Z"/><path class="cls-6" d="M163,328.08a4.64,4.64,0,0,1-1.82-.07c-.8-.21-1-.63-1.43-1.26,0,0-.26-.17-.26-.21a.33.33,0,0,1,.15-.25,4.32,4.32,0,0,1,1.73-.57,4.08,4.08,0,0,1,3,.82C165.14,327.45,163.68,328,163,328.08Z"/><path class="cls-6" d="M166.65,316.12c-.79,1.56-3.36,2.54-4.93,3a5,5,0,0,1-5.35-1.6c-1.14-1.25-.68-2,.2-2.66h0c.25-.14.47-.29.71-.43l.1-.06a4.27,4.27,0,0,1,1.18-.55c.46-.14.93-.26,1.38-.35a5.67,5.67,0,0,1,2.92,0C164.09,313.87,167.34,314.79,166.65,316.12Z"/><path class="cls-6" d="M167.14,336.7a1.75,1.75,0,0,1-1.21.67c-.25-.27-1-1.28-.89-1.64s.67-.34,1-.32l.23,0a2.41,2.41,0,0,0,.37.07c.15,0,.49-.07.6,0C167.61,335.76,167.32,336.45,167.14,336.7Z"/><path class="cls-6" d="M172.71,329.22c-1.44,1.45-4.81,1.57-6.67,1a18.94,18.94,0,0,1-2.56-1.26c1.69-.86,3.43-2.34,5.39-2.43a2.89,2.89,0,0,1,2.3.87C171.27,327.54,172.51,329.42,172.71,329.22Z"/><path class="cls-6" d="M156.57,314.87a4.12,4.12,0,0,1-.52.24"/><path class="cls-7" d="M257.3,181.18c-.66-1.86-.44-3.68-.79-5.66-.47-2.65-2.93-8.4-5.52-9.7-4.39-2.22-7.48,3.74-10.47,5.53-2.13,1.29-4.13.41-6.58.49-10.48.33-12,15.09-10.48,22.63.5,2.46.15,5,.36,7.41.44,4.9,4.41,10,7.93,13.17,1.59,1.42,3.86,6.78,5.81,6.54,1.2-2.2,4.44-4,6.29-5.77l.74-.7a5.57,5.57,0,0,1-.89-1.75c-.46-1-1.1-1.91-1.64-2.86a8.89,8.89,0,0,1-.53-7c.8-2.19,2.71-.39,3.52.77a16.9,16.9,0,0,1,1.55,2.43c.49,1.1.28,2.6.43,3.78a9.49,9.49,0,0,1-.15,2.51,19.94,19.94,0,0,0,4.25-5.44c2.64-5.35,7.13-11.26,8-17.26C259.63,186.79,258.39,184.23,257.3,181.18Zm-27.45,11.3c-2.22.19.32-3.13,1-3.68a12.69,12.69,0,0,1,2.34-1.35,5.61,5.61,0,0,1,1.92-.69c.18,0,.48,0,.55.22s-.2.5-.28.67-.33.57-.49.86a5.88,5.88,0,0,1-.67,1.1c-.17.2-.34.39-.52.58s-.21.3-.34.43a6.47,6.47,0,0,1-1,.85A5.22,5.22,0,0,1,229.85,192.48Zm5.84,16a24.19,24.19,0,0,1-1.78,4.12c-.26.74-.68,1.53-1.31,1.68-1.22-.59-1.5-2.68-1.56-3.84a4.94,4.94,0,0,1,1.44-4c.61-.54,2.58-2.27,3.51-1.71S235.93,207.71,235.69,208.51Zm-1.21-11.26a7.18,7.18,0,0,1-1.86.69c-.61.12-1.18.1-1.41-.28-.49-.8,1.13-1.78,1.6-2.17a7.53,7.53,0,0,1,2.34-1.28c.23-.07,1.94-.57,1.71.11a4.42,4.42,0,0,1-.68,1.17A5.6,5.6,0,0,1,234.48,197.25Zm-2.75-17.2c-.63.06-2.17.46-2.48-.2-.53-1.15,1.93-2.61,2.73-3,1.42-.64,3.64-1,5.06-.28C237.38,178.72,233.17,179.93,231.73,180.05Zm20.21,16.12c-.83.15-2.09-.49-2.92-.68a9,9,0,0,1-4.68-3.14c-.77-.83-1.47-1.7-2.18-2.55-.43-.51-.67-1,0-1.39a3.25,3.25,0,0,1,1.55-.37,11,11,0,0,1,2.43.22,6.13,6.13,0,0,1,3.15,2C249.78,190.86,254.32,195.73,251.94,196.17Zm-8-14.39c1.43-.29,2.51.57,3.64,1.34a10.16,10.16,0,0,1,3.33,3.32c.21.41.92,1.68.28,2a6.87,6.87,0,0,1-2-.44,7.48,7.48,0,0,1-3.92-2.26C244.48,184.93,241.59,182.26,244,181.78Zm8.94-3.39a5.06,5.06,0,0,1-1.55-.58c-.52-.23-1-.55-1.53-.77a25.71,25.71,0,0,0-3.4-1.06,17.15,17.15,0,0,1-4.63-1.75c-.28-.17-1.19-.54-1.16-.92s1.58-.47,1.9-.49a9.33,9.33,0,0,1,2.36.18,11.51,11.51,0,0,1,4.17,1.73,9.59,9.59,0,0,0,.88.51c.34.19.66.44,1,.66a14.65,14.65,0,0,1,1.86,1.47c.2.18.73.75.3,1A.48.48,0,0,1,252.89,178.39Z"/><path class="cls-6" d="M157.31,314.43c-.24.14-.46.29-.71.43"/><path class="cls-6" d="M158.28,313.94l-.87.43"/><path class="cls-6" d="M163,328.08a4.64,4.64,0,0,1-1.82-.07c-.8-.21-1-.63-1.43-1.26,0,0-.26-.17-.26-.21a.33.33,0,0,1,.15-.25,4.32,4.32,0,0,1,1.73-.57,4.08,4.08,0,0,1,3,.82C165.14,327.45,163.68,328,163,328.08Z"/><path class="cls-6" d="M172.71,329.22c-1.44,1.45-4.81,1.57-6.67,1a18.94,18.94,0,0,1-2.56-1.26c1.69-.86,3.43-2.34,5.39-2.43a2.89,2.89,0,0,1,2.3.87C171.27,327.54,172.51,329.42,172.71,329.22Z"/><path class="cls-6" d="M167.14,336.7a1.75,1.75,0,0,1-1.21.67c-.25-.27-1-1.28-.89-1.64s.67-.34,1-.32l.23,0a2.41,2.41,0,0,0,.37.07c.15,0,.49-.07.6,0C167.61,335.76,167.32,336.45,167.14,336.7Z"/><path class="cls-6" d="M158,330.69c-.89.34-.84-.66-.78-1.26s.24-1.43.95-1.21C159.08,328.5,158.77,330.42,158,330.69Z"/><path class="cls-6" d="M159.92,334.47c.06.79-1.32,2.7-2.25,2.31s-.16-2,.25-2.49C158.54,333.55,159.81,333.14,159.92,334.47Z"/><path class="cls-6" d="M153.13,329.37a19.54,19.54,0,0,1-2.44,4.93c-.31.43-.62.88-1,1.29-.17.2-1.34,1-1.37,1.16.55-2.18.26-4.14,1.41-6.28.82-1.54,1.88-4.46,3.42-5.39C154,326,153.51,328.29,153.13,329.37Z"/><path class="cls-6" d="M156.56,331.89a5.9,5.9,0,0,1-.84,3c-.33.64-.68,1.26-1.06,1.87s-.81,1.09-1.21,1.67a8.35,8.35,0,0,1-2,2.37c-1.1-1.34.59-3.51,1.51-4.49a26.23,26.23,0,0,0,2.09-2.37C155.43,333.34,155.85,332,156.56,331.89Z"/><path class="cls-6" d="M161,340.36c-.47,1.2-2.95,5.79-4.57,5,.64-1.64.76-3.45,1.55-5.2.7-1.54,1.79-4.41,3.23-5.42.48-.33.38-.41.62.16a1.71,1.71,0,0,1,.1.36C162.19,336.66,161.41,339.19,161,340.36Z"/><path class="cls-6" d="M148.66,323.91c-1.57,3.33-2.39,7.47-5.66,9.65a12.33,12.33,0,0,1-.42-3.27c-.12-2.69,1.23-4.82,2.64-7,.55-.84,3.93-5.7,5-3.83C150.86,320.49,149.1,323,148.66,323.91Z"/><path class="cls-7" d="M187.11,343.68c.93,1.49,2.11,2.76,3,4.29a4.43,4.43,0,0,0,3.51,2.66,3.85,3.85,0,0,1,.46-3.57,8.45,8.45,0,0,1,2-1.72c9.63-6.94,16.49-17.3,20.38-28.51a25.79,25.79,0,0,0,1.28-4.88,29.43,29.43,0,0,0-.31-8c-.48-3.48-1.05-7-2.66-10.14s-4.46-5.8-7.93-6.33c-1.15-.18-2.6.08-3,1.18a2.9,2.9,0,0,0,0,1.31,5.2,5.2,0,0,1-.09,2.42c-.21.6-1.78,2.15-2.44,1.4s-1.2-2.05-1.9-3a6.88,6.88,0,0,0-5.84-2.56,10.39,10.39,0,0,0-6,2.52,19.81,19.81,0,0,0-5.85,9.17,17.61,17.61,0,0,0-1,4.84c-.1,1.83.39,3.69.18,5.51a14.38,14.38,0,0,1-1.44,4.06c-1.91,4.32-2.53,9.43-.61,13.74a45.77,45.77,0,0,0,2.84,4.82C183.67,336.36,185,340.24,187.11,343.68Zm22.4-46.7a12.61,12.61,0,0,1-3.88-2.82,3.06,3.06,0,0,1,2.59-.58,4.8,4.8,0,0,1,2.35,1.34,4.33,4.33,0,0,1,1.42,3.15A7.85,7.85,0,0,1,209.51,297Zm-4.24.52a14.72,14.72,0,0,1,3.06,3.24,7.15,7.15,0,0,1,1.71,4.39c0,.27-.06,1.25-.3,1.43-.45.33-.53-.19-.83-.5-1.34-1.35-3.39-1.94-4.91-3.05a6.49,6.49,0,0,1-2.94-4.66c-.16-1.91,1.76-1.75,3.07-1.39A4.11,4.11,0,0,1,205.27,297.5Zm-6,13.93a1.11,1.11,0,0,1,.16-.65.82.82,0,0,1,.92-.21,1.87,1.87,0,0,1,.76.64,11.36,11.36,0,0,1,1.31,2.27l2.34,4.85a.53.53,0,0,1,.07.34.33.33,0,0,1-.39.2,1.06,1.06,0,0,1-.43-.23c-.51-.42-1-.81-1.55-1.23a11.81,11.81,0,0,1-1.61-1.63A6.9,6.9,0,0,1,199.25,311.43Zm-5.79-9.33A9.32,9.32,0,0,1,192,303a22.66,22.66,0,0,1-5,2.07c-.74.23-2.23,1.64-2.93,1.29a3,3,0,0,1,1.09-2.42,18.14,18.14,0,0,1,2-2,9.57,9.57,0,0,1,4.59-1.87c.8-.08,3.14-.2,2.33,1.25A2.5,2.5,0,0,1,193.46,302.1ZM198.7,318c.17.3.25.72,0,.93a.69.69,0,0,1-.64.06l-.23-.08C196.12,318.15,197.39,315.59,198.7,318Zm-1.58,11.06a6.28,6.28,0,0,1-.14-1.84,12.35,12.35,0,0,0-.19-2.18c0-.3-.12-.59-.15-.89s-.12-.83-.15-1.25a8.32,8.32,0,0,1,.06-1.12,1.6,1.6,0,0,1,.18-.72c.41-.6,1.36-.34,1.9.14a23.49,23.49,0,0,1,2.08,2.74c.92,1.08,2.21,1.8,3.18,2.84a6.8,6.8,0,0,1,1.72,5.66,1.09,1.09,0,0,1-.37.76,1.13,1.13,0,0,1-.75.08,13.46,13.46,0,0,1-5.18-1.84A4.61,4.61,0,0,1,197.12,329.05ZM188.87,322l-.44.4a23.23,23.23,0,0,1-5,3c-.38.21-1,.36-1.16,0a.94.94,0,0,1-.07-.34,15,15,0,0,1,.45-4.32,10.19,10.19,0,0,1,1.86-3.65,12.26,12.26,0,0,1,4.65-3.67c1-.45,3.51-1.77,4.41-.59.4.53-.09,1.72-.23,2.28a11.89,11.89,0,0,1-1.44,3.36A19.84,19.84,0,0,1,188.87,322Zm4.82,20.18c-.76-.24-1-1.74-.84-2.54.62-2.43,3.54.89,1.79,2.26A1,1,0,0,1,193.69,342.14Zm-6-2.06c-.31-.63-.63-1.27-.94-1.91a7.28,7.28,0,0,1-.81-2.18,2.78,2.78,0,0,1,.26-1.77,3.38,3.38,0,0,1,.4-.46c.3-.31.65-.6.93-.91s.35-.47.52-.69a14,14,0,0,1,1.29-1.48c.59-.58,1.75-1.54,2.48-.61a1.9,1.9,0,0,1,.3,1.3,14,14,0,0,1-1.28,4.19c-.57,1.35-1.75,2.61-2.11,4a1.94,1.94,0,0,1-.2.63.47.47,0,0,1-.55.23A.72.72,0,0,1,187.69,340.08Z"/><path class="cls-4" d="M258.45,125.89c-1.6-1.27-2.94,6.58-3.07,7.56a94.47,94.47,0,0,0-.82,11.88c-.06,4,.07,8.09.3,12.13.12,2,.26,4.1.44,6.15.16,1.81,0,4.06,1.21,5.52a.87.87,0,0,0,1.36-.18c.79-1.59.23-3.62.08-5.34s-.29-3.55-.39-5.33q-.33-5.44-.36-10.89c0-3.63.06-7.26,0-10.89a48.74,48.74,0,0,1,.1-5.13,22,22,0,0,1,.47-2.91c.09-.39.51-2.14.57-2.14a.14.14,0,0,0,.13-.1v-.09A.24.24,0,0,0,258.45,125.89Z"/><path class="cls-7" d="M304.3,112.82c-2.71-.56-5-.06-7.43-1.8a8.95,8.95,0,0,0-5.2-2.54c-1.88-.47-3.78-.75-5.68-1.41-3.53-1.21-7.12-.25-10.72-.07s-5.77.72-8.38,3.09a10.13,10.13,0,0,1-3.61,2.44c-1.53.5-3,.83-3.94,2.31a7.71,7.71,0,0,0-.83,4.24,10,10,0,0,1,.15,2.49c-.17.62-.45.65-.87,1.13-.91,1-1.52,2.31-.59,3.54,1.52,2,4.2,2.2,6.41,3a63.19,63.19,0,0,0,6.61,1.64,37,37,0,0,0,10.25.62,31.11,31.11,0,0,0,8.53-2.12c2.78-.95,5.67-1.54,8.4-2.72a12.54,12.54,0,0,0,4.81-3.62c1.79-2.22,3.52-6.83,7.11-6.06C308.92,115,306.1,113.19,304.3,112.82Zm-37.95,14.1c-1.19-.5-1.61-1.42-2.53-2.21a19.87,19.87,0,0,1-2.64-2c.76-1.79,3.71,1.07,4.45,1.83C265.37,124,267.17,125.89,266.35,126.92Zm26.2-14.23c1.14-1,5-1.21,6.17-.18,1,.86-1,1.07-1.56,1.3-1.21.54-2.33,1.43-3.76,1.1C292.2,114.64,291.43,113.65,292.55,112.69Zm-10-.36c.52-1.4,3.2-3,5.18-3a2.2,2.2,0,0,1,1.56.52c-1.64,1.48-2.78,3.54-5.12,4.18A1.29,1.29,0,0,1,282.51,112.33Zm-5.76,8.35a.85.85,0,0,1,.08.24c.13.62-.41,1.08-1.18,1a4.38,4.38,0,0,1-2.84-2.25c-.5-1.29.93-1.16,1.7-.72A10.1,10.1,0,0,1,276.75,120.68Zm-9-6.37a13,13,0,0,1,5.23-4.78c1.48-.78,3.07-1.35,2.51.86-.7,2.84-3.35,7.1-6.76,6.9C266.91,117.19,267.08,115.53,267.72,114.31Zm9.13,14.83c-.19.66-2.73-.29-3.06-.5a29,29,0,0,1-2.91-2.4c-.94-.74-4.06-2.93-3.62-4.38.7-2.28,5.32,1.22,6.1,2a21.72,21.72,0,0,1,3,3.58A4.74,4.74,0,0,1,277,129C276.84,129.06,276.9,129,276.85,129.14Zm1.81-15.78c1.77,0,1,2.11-.28,2.75C275.67,117.48,276.93,113.59,278.66,113.36Zm14.44,14.53c-1,.53-2.55.12-3.61-.08a16.85,16.85,0,0,1-4.95-1.47,18.92,18.92,0,0,1-5.36-4.68c-.63-.73-1.51-1.86-.85-2.4s2,.39,2.82.43c2.07.12,3.67-.48,5.71.26,1.76.64,3,2.12,4.22,3.46C292.07,124.49,295.63,126.56,293.1,127.89Zm8.22-7c-1.33,1-3.53.24-4.77-.6s-4.14-1.08-4.56-2.75c-.24-.94,1.71-.78,2.33-.84.87-.11,1.73-.15,2.64-.27,1.37-.19,3.57.46,4.2,1.93h.09C301.68,119.38,302.48,120,301.32,120.89Z"/><path class="cls-6" d="M277,129c-.12.11-.06,0-.11.19-.19.66-2.73-.29-3.06-.5a29,29,0,0,1-2.91-2.4c-.94-.74-4.06-2.93-3.62-4.38.7-2.28,5.32,1.22,6.1,2a21.72,21.72,0,0,1,3,3.58A4.74,4.74,0,0,1,277,129Z"/><path class="cls-6" d="M266.35,126.92c-1.19-.5-1.61-1.42-2.53-2.21a19.87,19.87,0,0,1-2.64-2c.76-1.79,3.71,1.07,4.45,1.83C265.37,124,267.17,125.89,266.35,126.92Z"/><path class="cls-6" d="M275.46,110.39c-.7,2.84-3.35,7.1-6.76,6.9-1.79-.1-1.62-1.76-1-3a13,13,0,0,1,5.23-4.78C274.43,108.75,276,108.18,275.46,110.39Z"/><path class="cls-6" d="M275.65,121.87a4.38,4.38,0,0,1-2.84-2.25c-.5-1.29.93-1.16,1.7-.72a10.1,10.1,0,0,1,2.24,1.78.85.85,0,0,1,.08.24C277,121.54,276.42,122,275.65,121.87Z"/><path class="cls-6" d="M277,129c-.12.11-.06,0-.11.19-.19.66-2.73-.29-3.06-.5a29,29,0,0,1-2.91-2.4c-.94-.74-4.06-2.93-3.62-4.38.7-2.28,5.32,1.22,6.1,2a21.72,21.72,0,0,1,3,3.58A4.74,4.74,0,0,1,277,129Z"/><path class="cls-6" d="M278.38,116.11c-2.71,1.37-1.45-2.52.28-2.75C280.43,113.41,279.68,115.47,278.38,116.11Z"/><path class="cls-6" d="M289.25,109.87c-1.64,1.48-2.78,3.54-5.12,4.18a1.29,1.29,0,0,1-1.62-1.72c.52-1.4,3.2-3,5.18-3A2.2,2.2,0,0,1,289.25,109.87Z"/><path class="cls-6" d="M293.1,127.89c-1,.53-2.55.12-3.61-.08a16.85,16.85,0,0,1-4.95-1.47,18.92,18.92,0,0,1-5.36-4.68c-.63-.73-1.51-1.86-.85-2.4s2,.39,2.82.43c2.07.12,3.67-.48,5.71.26,1.76.64,3,2.12,4.22,3.46C292.07,124.49,295.63,126.56,293.1,127.89Z"/><path class="cls-6" d="M297.16,113.81c-1.21.54-2.33,1.43-3.76,1.1-1.2-.27-2-1.26-.85-2.22s5-1.21,6.17-.18C299.69,113.37,297.69,113.58,297.16,113.81Z"/><path class="cls-6" d="M301.32,120.89c-1.33,1-3.53.24-4.77-.6s-4.14-1.08-4.56-2.75c-.24-.94,1.71-.78,2.33-.84.87-.11,1.73-.15,2.64-.27,1.37-.19,3.57.46,4.2,1.93h.09C301.68,119.38,302.48,120,301.32,120.89Z"/><path class="cls-6" d="M289.25,109.87c-1.64,1.48-2.78,3.54-5.12,4.18a1.29,1.29,0,0,1-1.62-1.72c.52-1.4,3.2-3,5.18-3A2.2,2.2,0,0,1,289.25,109.87Z"/><path class="cls-6" d="M297.16,113.81c-1.21.54-2.33,1.43-3.76,1.1-1.2-.27-2-1.26-.85-2.22s5-1.21,6.17-.18C299.69,113.37,297.69,113.58,297.16,113.81Z"/><path class="cls-6" d="M301.25,118.36h-.09c-.63-1.47-2.83-2.12-4.2-1.93-.91.12-1.77.16-2.64.27-.62.06-2.57-.1-2.33.84.42,1.67,3.37,1.95,4.56,2.75s3.44,1.58,4.77.6C302.48,120,301.68,119.38,301.25,118.36Zm-.29,0s0-.15.12,0Z"/><path class="cls-6" d="M293.1,127.89c-1,.53-2.55.12-3.61-.08a16.85,16.85,0,0,1-4.95-1.47,18.92,18.92,0,0,1-5.36-4.68c-.63-.73-1.51-1.86-.85-2.4s2,.39,2.82.43c2.07.12,3.67-.48,5.71.26,1.76.64,3,2.12,4.22,3.46C292.07,124.49,295.63,126.56,293.1,127.89Z"/><path class="cls-6" d="M275.65,121.87a4.38,4.38,0,0,1-2.84-2.25c-.5-1.29.93-1.16,1.7-.72a10.1,10.1,0,0,1,2.24,1.78.85.85,0,0,1,.08.24C277,121.54,276.42,122,275.65,121.87Z"/><path class="cls-6" d="M277,129c-.12.11-.06,0-.11.19-.19.66-2.73-.29-3.06-.5a29,29,0,0,1-2.91-2.4c-.94-.74-4.06-2.93-3.62-4.38.7-2.28,5.32,1.22,6.1,2a21.72,21.72,0,0,1,3,3.58A4.74,4.74,0,0,1,277,129Z"/><path class="cls-6" d="M278.46,113.36a1.33,1.33,0,0,1,.2,0,.91.91,0,0,1,.33,0"/><path class="cls-8" d="M243.67,143.27c-.38-1.31-3.88,1.26-4.54,1.62a11.6,11.6,0,0,1-4.61,1.65,3.87,3.87,0,0,1-.83,0c-2.2-.27-3.64-1.7-5.37-2.92-2.06-1.43-4.12-2.41-6.73-2-4.65.73-8.17,5-10.41,8.89-2.54,4.44-4.23,9-4.22,14.18a75.63,75.63,0,0,0,0,8c.26,2.44,1.73,4.51,2.73,6.68,1.17,2.53.05,5.36-.08,8.09-.1,2.16-.22,6.06,1.88,7.39.73-1,.9-2.07,1.82-3s1.91-1.64,2.85-2.48c2.19-2,4.45-3.74,6.63-5.66,2.33-2.07,4.25-4.52,6.52-6.64,2-1.88,3.33-4.18,5-6.37a41.77,41.77,0,0,0,5.1-9.33,39.87,39.87,0,0,0,1.93-6.35c.51-2.09.53-4.2.95-6.27.18-.89.65-1.75.83-2.65A11.46,11.46,0,0,0,243.67,143.27Zm-35.76,24.6c-.28-1,1.69-3.07,2.26-3.8a18.88,18.88,0,0,1,4.11-4c.82-.56,3.87-2.09,4.25-.44.23,1-1.43,2.61-2,3.18C215.83,163.51,208.5,169.92,207.91,167.87Zm3.19,11.88a6,6,0,0,1-1.8-3.6c0-1.52,2.27-2.37,3.69-2.31C214,173.87,211.47,179.27,211.1,179.75Zm1.4,5.73a25.7,25.7,0,0,1-.51-3.31,3.41,3.41,0,0,1,.73-2.48,3,3,0,0,1,.37-.34C214.11,180.78,214.24,184.53,212.5,185.48Zm7.41-4.13c-.13.81-1.52,5.32-2.61,4.56-.37-.25-.55-2-.76-2.44-.35-.79-.88-1.52-1.22-2.34-.75-1.77,0-3.48.37-5.3.26-1.39-.38-4.11.63-5.17C220.06,171.55,220.38,178.39,219.91,181.35Zm1.69-29.1c-1.36.32-7.38,2.23-8,.72a1.73,1.73,0,0,1,.45-1.77c1.45-1.79,4.71-2.75,6.83-3.43,1.59-.51,5.55-.3,6.5,1.41.53.95-1,1.73-2.68,2.27A31.15,31.15,0,0,1,221.6,152.25Zm7.33,20.08c-.21,1.35-.44,3.25-1.78,1.47a14.88,14.88,0,0,1-1.86-4.6c-.78-2.73-.25-5.56-.6-8.33-.12-1-.85-3.76,1-2.5a7.81,7.81,0,0,1,2.13,2.93c1,2,1,3.84,1.41,6A14.7,14.7,0,0,1,228.93,172.33Zm5.35-12.47c-.24-.12-.49-2-.72-2.37a28.11,28.11,0,0,0-1.79-2.36c-.74-1-2.29-3.2-1.28-4.47,1.28-1.61,3,0,4,.89.44-.32,1.27,2.92,1.4,4.21C236,156.31,235.66,160.63,234.28,159.86Z"/><path class="cls-6" d="M211.1,179.75a6,6,0,0,1-1.8-3.6c0-1.52,2.27-2.37,3.69-2.31C214,173.87,211.47,179.27,211.1,179.75Z"/><path class="cls-6" d="M213.09,179.35c1,1.43,1.15,5.18-.59,6.13a25.7,25.7,0,0,1-.51-3.31,3.41,3.41,0,0,1,.73-2.48A3,3,0,0,1,213.09,179.35Z"/><path class="cls-6" d="M216.54,162.79c-.71.72-8,7.13-8.63,5.08-.28-1,1.69-3.07,2.26-3.8a18.88,18.88,0,0,1,4.11-4c.82-.56,3.87-2.09,4.25-.44C218.76,160.59,217.1,162.22,216.54,162.79Z"/><path class="cls-6" d="M219.91,181.35c-.13.81-1.52,5.32-2.61,4.56-.37-.25-.55-2-.76-2.44-.35-.79-.88-1.52-1.22-2.34-.75-1.77,0-3.48.37-5.3.26-1.39-.38-4.11.63-5.17C220.06,171.55,220.38,178.39,219.91,181.35Z"/><path class="cls-6" d="M224.68,151.45a31.15,31.15,0,0,1-3.08.8c-1.36.32-7.38,2.23-8,.72a1.73,1.73,0,0,1,.45-1.77c1.45-1.79,4.71-2.75,6.83-3.43,1.59-.51,5.55-.3,6.5,1.41C227.89,150.13,226.32,150.91,224.68,151.45Z"/><path class="cls-6" d="M229.24,167.26a14.7,14.7,0,0,1-.31,5.07c-.21,1.35-.44,3.25-1.78,1.47a14.88,14.88,0,0,1-1.86-4.6c-.78-2.73-.25-5.56-.6-8.33-.12-1-.85-3.76,1-2.5a7.81,7.81,0,0,1,2.13,2.93C228.82,163.28,228.86,165.14,229.24,167.26Z"/><path class="cls-6" d="M234.28,159.86c-.24-.12-.49-2-.72-2.37a28.11,28.11,0,0,0-1.79-2.36c-.74-1-2.29-3.2-1.28-4.47,1.28-1.61,3,0,4,.89.44-.32,1.27,2.92,1.4,4.21C236,156.31,235.66,160.63,234.28,159.86Z"/><path class="cls-6" d="M216.54,162.79c-.71.72-8,7.13-8.63,5.08-.28-1,1.69-3.07,2.26-3.8a18.88,18.88,0,0,1,4.11-4c.82-.56,3.87-2.09,4.25-.44C218.76,160.59,217.1,162.22,216.54,162.79Z"/><path class="cls-6" d="M219.91,181.35c-.13.81-1.52,5.32-2.61,4.56-.37-.25-.55-2-.76-2.44-.35-.79-.88-1.52-1.22-2.34-.75-1.77,0-3.48.37-5.3.26-1.39-.38-4.11.63-5.17C220.06,171.55,220.38,178.39,219.91,181.35Z"/><path class="cls-6" d="M211.1,179.75a6,6,0,0,1-1.8-3.6c0-1.52,2.27-2.37,3.69-2.31C214,173.87,211.47,179.27,211.1,179.75Z"/><path class="cls-6" d="M212.5,185.48a25.7,25.7,0,0,1-.51-3.31,3.41,3.41,0,0,1,.73-2.48,3,3,0,0,1,.37-.34C214.11,180.78,214.24,184.53,212.5,185.48Z"/><path class="cls-6" d="M228.93,172.33c-.21,1.35-.44,3.25-1.78,1.47a14.88,14.88,0,0,1-1.86-4.6c-.78-2.73-.25-5.56-.6-8.33-.12-1-.85-3.76,1-2.5a7.81,7.81,0,0,1,2.13,2.93c1,2,1,3.84,1.41,6A14.7,14.7,0,0,1,228.93,172.33Z"/><path class="cls-6" d="M234.28,159.86c-.24-.12-.49-2-.72-2.37a28.11,28.11,0,0,0-1.79-2.36c-.74-1-2.29-3.2-1.28-4.47,1.28-1.61,3,0,4,.89.44-.32,1.27,2.92,1.4,4.21C236,156.31,235.66,160.63,234.28,159.86Z"/><path class="cls-6" d="M224.68,151.45a31.15,31.15,0,0,1-3.08.8c-1.36.32-7.38,2.23-8,.72a1.73,1.73,0,0,1,.45-1.77c1.45-1.79,4.71-2.75,6.83-3.43,1.59-.51,5.55-.3,6.5,1.41C227.89,150.13,226.32,150.91,224.68,151.45Z"/><path class="cls-6" d="M235.65,187.31a4.26,4.26,0,0,1-1.17,1.73,14.67,14.67,0,0,1-1.1,1.57,6.39,6.39,0,0,1-3.53,1.87c-2.22.19.32-3.13,1-3.68.42-.33,4.2-2.62,4.75-1.91A.44.44,0,0,1,235.65,187.31Z"/><path class="cls-6" d="M235.69,208.51a24.19,24.19,0,0,1-1.78,4.12c-.26.74-.68,1.53-1.31,1.68-1.22-.59-1.5-2.68-1.56-3.84a4.94,4.94,0,0,1,1.44-4c.61-.54,2.58-2.27,3.51-1.71S235.93,207.71,235.69,208.51Z"/><path class="cls-6" d="M234.48,197.25a7.18,7.18,0,0,1-1.86.69c-.61.12-1.18.1-1.41-.28-.49-.8,1.13-1.78,1.6-2.17.87-.7,2.78-1.78,3.88-1.36C237,194.24,234.91,197,234.48,197.25Z"/><path class="cls-6" d="M231.73,180.05c-.63.06-2.17.46-2.48-.2-.53-1.15,1.93-2.61,2.73-3,1.42-.64,3.64-1,5.06-.28C237.38,178.72,233.17,179.93,231.73,180.05Z"/><path class="cls-6" d="M246.88,213c-.75.72-1.52,1.42-2.29,2.14a5.57,5.57,0,0,1-.89-1.75c-.46-1-1.1-1.91-1.64-2.86a8.89,8.89,0,0,1-.53-7c.8-2.19,2.71-.39,3.52.77a16.9,16.9,0,0,1,1.55,2.43c.49,1.1.28,2.6.43,3.78A9.49,9.49,0,0,1,246.88,213Z"/><path class="cls-6" d="M251.2,188.45a6.87,6.87,0,0,1-2-.44,7.48,7.48,0,0,1-3.92-2.26c-.75-.82-3.64-3.49-1.28-4,1.43-.29,2.51.57,3.64,1.34a10.16,10.16,0,0,1,3.33,3.32C251.13,186.85,251.84,188.12,251.2,188.45Z"/><path class="cls-6" d="M251.94,196.17c-.83.15-2.09-.49-2.92-.68a9,9,0,0,1-4.68-3.14c-.77-.83-1.47-1.7-2.18-2.55-.43-.51-.67-1,0-1.39a3.25,3.25,0,0,1,1.55-.37,11,11,0,0,1,2.43.22,6.13,6.13,0,0,1,3.15,2C249.78,190.86,254.32,195.73,251.94,196.17Z"/><path class="cls-6" d="M252.89,178.49a6.7,6.7,0,0,0-1.55-.68c-.52-.23-1-.55-1.53-.77a25.71,25.71,0,0,0-3.4-1.06,28,28,0,0,1-3.3-1c-.28-.12-2.63-1.62-2.63-1.66,2.55-1.21,6.38-.09,8.57,1.41.82.57,1.44,1.41,2.28,2a6.21,6.21,0,0,1,1,.66l0,0a1.75,1.75,0,0,1,.51.65S253,178.59,252.89,178.49Z"/><path class="cls-6" d="M252.89,178.49a6.7,6.7,0,0,0-1.55-.68c-.52-.23-1-.55-1.53-.77a25.71,25.71,0,0,0-3.4-1.06,28,28,0,0,1-3.3-1c-.28-.12-2.63-1.62-2.63-1.66,2.55-1.21,6.38-.09,8.57,1.41.82.57,1.44,1.41,2.28,2a6.21,6.21,0,0,1,1,.66l0,0a1.75,1.75,0,0,1,.51.65S253,178.59,252.89,178.49Z"/><path class="cls-6" d="M251.2,188.45a6.87,6.87,0,0,1-2-.44,7.48,7.48,0,0,1-3.92-2.26c-.75-.82-3.64-3.49-1.28-4,1.43-.29,2.51.57,3.64,1.34a10.16,10.16,0,0,1,3.33,3.32C251.13,186.85,251.84,188.12,251.2,188.45Z"/><path class="cls-6" d="M251.94,196.17c-.83.15-2.09-.49-2.92-.68a9,9,0,0,1-4.68-3.14c-.77-.83-1.47-1.7-2.18-2.55-.43-.51-.67-1,0-1.39a3.25,3.25,0,0,1,1.55-.37,11,11,0,0,1,2.43.22,6.13,6.13,0,0,1,3.15,2C249.78,190.86,254.32,195.73,251.94,196.17Z"/><path class="cls-6" d="M231.73,180.05c-.63.06-2.17.46-2.48-.2-.53-1.15,1.93-2.61,2.73-3,1.42-.64,3.64-1,5.06-.28C237.38,178.72,233.17,179.93,231.73,180.05Z"/><path class="cls-6" d="M235.65,187.31a4.26,4.26,0,0,1-1.17,1.73,14.67,14.67,0,0,1-1.1,1.57,6.39,6.39,0,0,1-3.53,1.87c-2.22.19.32-3.13,1-3.68.42-.33,4.2-2.62,4.75-1.91A.44.44,0,0,1,235.65,187.31Z"/><path class="cls-6" d="M234.48,197.25a7.18,7.18,0,0,1-1.86.69c-.61.12-1.18.1-1.41-.28-.49-.8,1.13-1.78,1.6-2.17.87-.7,2.78-1.78,3.88-1.36C237,194.24,234.91,197,234.48,197.25Z"/><path class="cls-6" d="M246.88,213c-.22,1.23-.71,2.43-1.62,2.42a1,1,0,0,1-.67-.28,5.57,5.57,0,0,1-.89-1.75c-.46-1-1.1-1.91-1.64-2.86a8.89,8.89,0,0,1-.53-7c.8-2.19,2.71-.39,3.52.77a16.9,16.9,0,0,1,1.55,2.43c.49,1.1.28,2.6.43,3.78A9.49,9.49,0,0,1,246.88,213Z"/><path class="cls-11" d="M285.46,226.75c-.17-3-1.64-5.72-3.08-8.35A27.83,27.83,0,0,0,270.23,205L257,196.49a13.28,13.28,0,0,0-3.1-1.62,9.9,9.9,0,0,0-4.81-.09,16.28,16.28,0,0,0-9.53,5.29c-2.67,3.2-1.94,5.81-2.27,9.47a4.24,4.24,0,0,1-1.81,3.27c-.57.34-1.22.5-1.77.86-2.39,1.56-.54,4.32.37,6.17a31.47,31.47,0,0,1,1.37,3.73,33.75,33.75,0,0,0,23,21.28c8.51,2.22,17.5,1,26.22,2.06a40.92,40.92,0,0,1,.11-14A27.07,27.07,0,0,0,285.46,226.75Zm-40.37,6.84c-1.17-1-1.65-3.75-1.91-5.08-.57-2.95-.83-9,1.43-11.22.11-.11,1,.9,1.11,1a6.53,6.53,0,0,1,.82,1.46,13.7,13.7,0,0,1,.84,3.75,27.77,27.77,0,0,1,0,4.56c-.06.9-.15,1.79-.19,2.69,0,.31,0,.6,0,.91,0,.67,0,2-.73,2.31A1.39,1.39,0,0,1,245.09,233.59Zm-1-25.77c-2.16-1.11,4.26-6,5.77-6.4a.69.69,0,0,1,.51,0C251.24,201.91,246.47,209.07,244.06,207.82Zm3.92,4.45c-.38-.93,2.06-2.49,2.66-2.9A27,27,0,0,1,261,205c1.36-.26,3-.31,3.87.77a1.41,1.41,0,0,1,.32,1c-.1.71-.88,1.08-1.55,1.32l-12,4.26C250.88,212.59,248.46,213.45,248,212.27Zm12.29,29.21a6.44,6.44,0,0,1-.43.94c-2.17-1.83-3.65-5.42-4.4-8-.72-2.45-1.54-8.09.06-10.26,3.31,2,3.2,5.7,3.72,9C259.68,236.12,261.31,238.58,260.27,241.48Zm-1.23-22c-1.08-1.41.64-3.67,1.81-4.35,2.44-1.43,6.59-1.14,9.25-.6,2.23.44,4.55,1.45,5.65,3.44-2.47,1.79-5.63,1.91-8.56,2C265.5,220,260.21,220.94,259,219.45Zm9.09,7.19a23.25,23.25,0,0,1,3,.06l4.51.33a11.75,11.75,0,0,1,3.34.56,4,4,0,0,1,2.41,2.23,2.43,2.43,0,0,1-1,2.94,4,4,0,0,1-1.82.29c-3.57,0-9.89.19-12.32-3.06C264.33,227.48,266.07,226.78,268.13,226.64Zm3.4,16.51c-3.5.89-7.78-6.77-5.43-9.47a17.18,17.18,0,0,1,4.11,5.17,22.61,22.61,0,0,0,1,2.24A2.42,2.42,0,0,1,271.53,243.15Zm11.63-1.54c-1.9.08-6.62-.08-6.7-3a1.94,1.94,0,0,1,.11-.76c.63-1.78,3.91-.72,5,.43C281.82,238.53,283.66,241.59,283.16,241.61Z"/><path class="cls-6" d="M222.17,118a.76.76,0,0,1-.57.12,2.2,2.2,0,0,1-1.37-.6c-.25-.28-.2-.75.21-.78a1.77,1.77,0,0,1,.85.16,1.89,1.89,0,0,1,.27.2l.1.06c.05,0,.11,0,.17.08a1.23,1.23,0,0,1,.34.41C222.24,117.81,222.3,117.92,222.17,118Z"/><path class="cls-6" d="M216.49,111.12c-.39,1.22-.2-.64.7-1.77s4.52-4,6-2.61C225,108.32,217.64,112.2,216.49,111.12Z"/><path class="cls-6" d="M224.55,115.55c-.72.53-4.26,1.74-4.71.37-.34-1,2.94-1.89,3.72-1.85C224.72,114.14,225.84,114.61,224.55,115.55Z"/><path class="cls-6" d="M216.49,111.12c-.39,1.22-.2-.64.7-1.77s4.52-4,6-2.61C225,108.32,217.64,112.2,216.49,111.12Z"/><path class="cls-6" d="M224.55,115.55c-.72.53-4.26,1.74-4.71.37-.34-1,2.94-1.89,3.72-1.85C224.72,114.14,225.84,114.61,224.55,115.55Z"/><path class="cls-6" d="M222.17,118a.76.76,0,0,1-.57.12,2.2,2.2,0,0,1-1.37-.6c-.25-.28-.2-.75.21-.78a1.77,1.77,0,0,1,.85.16,1.89,1.89,0,0,1,.27.2l.1.06c.05,0,.11,0,.17.08a1.23,1.23,0,0,1,.34.41C222.24,117.81,222.3,117.92,222.17,118Z"/><path class="cls-6" d="M215.76,145.33h0c-.19,1.36-2.14.3-1.89-1.45C214.21,141.47,215.51,144.21,215.76,145.33Z"/><path class="cls-6" d="M222.23,148.64a7.22,7.22,0,0,1-3.37-.26,3.44,3.44,0,0,1-1.91-2.74c-.11-.45-.4-1.38,0-1.75s.64.25,1,.64a12.12,12.12,0,0,0,3.1,2.54C220.56,146.74,223.92,147.88,222.23,148.64Z"/><path class="cls-6" d="M223.53,143c-.76.4-2.47-1.07-3.19-1.3-1.08-.36-4.33,0-4-2,.08-.53,2.55-1.17,3-1.23a2.52,2.52,0,0,1,2.52,1c.12.12.37.37.65.68C223.33,141.05,224.45,142.48,223.53,143Z"/><path class="cls-6" d="M223.53,143c-.76.4-2.47-1.07-3.19-1.3-1.08-.36-4.33,0-4-2,.08-.53,2.55-1.17,3-1.23a2.52,2.52,0,0,1,2.52,1c.12.12.37.37.65.68C223.33,141.05,224.45,142.48,223.53,143Z"/><path class="cls-6" d="M222.23,148.64a7.22,7.22,0,0,1-3.37-.26,3.44,3.44,0,0,1-1.91-2.74c-.11-.45-.4-1.38,0-1.75s.64.25,1,.64a12.12,12.12,0,0,0,3.1,2.54C220.56,146.74,223.92,147.88,222.23,148.64Z"/></g><path class="cls-8" d="M268,184.93a25.14,25.14,0,0,0-7.44-3.74,46.77,46.77,0,0,1-8.92-3.71,54.46,54.46,0,0,1-7.54-5.73c-.88-.76-2-1.71-3.25-1.5a2,2,0,0,0-1.59,1.56l0,0a4.58,4.58,0,0,0-.15.49l-.22.23q-.3.3-.63.57a7.09,7.09,0,0,1-1.48.93,8.9,8.9,0,0,1-3.41.79s0,0,0,0a6.24,6.24,0,0,0,3.51-.48,6.88,6.88,0,0,0,1.57-.92l.26-.22a5.13,5.13,0,0,0-.15,1.35c0,.67-.08,1.35-.11,2l0,.55c-.11,1-.19,1.95-.21,2.92a12.39,12.39,0,0,1-1.78,1.54,18.75,18.75,0,0,1-2.94,1.87c-1.86.93-3.92,1.5-5.47,3a11.33,11.33,0,0,0-2.81,5.15,12.2,12.2,0,0,0-.26,6.85.2.2,0,0,0,.4-.06c.36-4.45.6-10,5.06-12.37a49.62,49.62,0,0,0,5.55-2.91,9.65,9.65,0,0,0,2.26-2c0,.11,0,.23,0,.35a.18.18,0,0,0,.27.15c-.19,3.79-.33,7.58-.53,11.37a5.84,5.84,0,0,0-.41.68,9.48,9.48,0,0,1-.57,1c-.19.33-.4.65-.58,1a5,5,0,0,1-.59.9,47.63,47.63,0,0,1-5.25,4.34,12.26,12.26,0,0,0-2.55,2.83,10.64,10.64,0,0,0-1.34,3.61,0,0,0,0,0,0,0,14.14,14.14,0,0,1,1.85-3.5,12.7,12.7,0,0,1,2.76-2.86c1.79-1.38,4.08-2.53,5.13-4.64a.18.18,0,0,0-.08-.24l.25-.24a4.77,4.77,0,0,0,.77-1,9.59,9.59,0,0,0,.51-.88c0,.44,0,.89-.07,1.34-.07,1.06-.14,2.13-.22,3.19-.65.76-1.26,1.57-1.93,2.32-.87,1-1.81,1.84-2.77,2.71-1.26,1.14-2.73,2.45-3,4.13a1.08,1.08,0,0,0-.08.19,4.73,4.73,0,0,0-.28,1.48,6.07,6.07,0,0,0,.15,1.47,3.46,3.46,0,0,0,.71,1.32c.08.11.3.05.24-.11-.15-.43-.19-.9-.31-1.34a5.72,5.72,0,0,1-.17-1.3c0-.08,0-.17,0-.26a.13.13,0,0,0,.12-.11c.45-2.14,2.27-3.75,3.79-5.19a22.27,22.27,0,0,0,2.44-2.79c.34-.46.67-.94,1-1.44-.1,1.46-.22,2.93-.34,4.39a11.34,11.34,0,0,1,1.52-2.93c.14-1.84.27-3.68.37-5.53q.1-1.77.18-3.54a14,14,0,0,0,1.83,2.15c.4.4.78.83,1.22,1.2.22.19.47.33.7.51s.48.32.73.49.44-.12.31-.31-.28-.48-.45-.7-.32-.48-.51-.71c-.38-.45-.81-.85-1.23-1.26a10.92,10.92,0,0,0-2.57-2.07c.13-2.79.22-5.58.23-8.37a10.54,10.54,0,0,0,4,3,20.14,20.14,0,0,1,3.17,2.16,28.27,28.27,0,0,1,3.07,2.82c.16.19.42-.05.32-.25a11.19,11.19,0,0,0-2.2-3.24,14.84,14.84,0,0,0-3.17-2.28c-1-.55-2.06-1-3.05-1.63a11,11,0,0,1-2.1-1.58c0-1.66-.05-3.32-.14-5l0-.24.18-1.73c.72,2.53,3.75,3.61,5.93,4.56a17.87,17.87,0,0,1,3.81,2.09,23.29,23.29,0,0,1,3.16,3.12c.18.21.46-.05.36-.27a13.19,13.19,0,0,0-2.33-3.56,11.17,11.17,0,0,0-3.61-2.24c-1.25-.54-2.55-1-3.75-1.66a23.78,23.78,0,0,1-3.43-2.37.1.1,0,0,0-.1,0l0-.35a11.62,11.62,0,0,0,.07-2.43.28.28,0,0,0-.09-.17c.88-1.84,3.47.44,4.33,1.22,1.18,1.08,2.38,2.16,3.61,3.2a32.19,32.19,0,0,0,8.27,5.27c3.05,1.27,6.3,2.14,9.13,3.86a13.5,13.5,0,0,1,3.27,2.7c.89,1,1.43,2.39,2.47,3.29a.46.46,0,0,0,.77-.2C272.22,188.68,269.73,186.26,268,184.93Z"/><path class="cls-4" d="M235.89,189.63c-2,1.86-4.47,3.06-6.72,4.58-2,1.35-3.75,3.1-4.24,5.54a0,0,0,0,0,.09,0c.72-2.47,3-4.18,5.11-5.46s4.51-2.4,5.92-4.56C236.12,189.66,236,189.55,235.89,189.63Z"/><path class="cls-12" d="M322,180.14c-6.09-1-11.11-5.47-16.51-8.15-2.24-1.11-4.53-2.1-6.85-3,3.1-1.28,6-3.11,9.1-4.33a15.56,15.56,0,0,1,4.95-1.07,30.44,30.44,0,0,1,5.23.09c.27,0,.37-.39.14-.5a10.56,10.56,0,0,0-5-1.34,15.12,15.12,0,0,0-5.24,1,29.45,29.45,0,0,0-4.78,2.52c-1.72,1.07-3.58,2.05-5.2,3.26l0,0c-3.41-1.34-6.87-2.54-10.34-3.71l-1.55-.52c1.62,0,3.16-1.3,4.36-2.22,1.9-1.47,3.79-3,5.64-4.48a22.37,22.37,0,0,1,6.09-3.79,46.86,46.86,0,0,1,6.51-1.71.28.28,0,0,0,0-.53c-4.3-.76-8.74,1.27-12.09,3.84-1.85,1.42-3.59,3-5.35,4.51-.88.77-1.73,1.58-2.63,2.32a18.42,18.42,0,0,1-3,1.84l0,0h0c-1.08-.36-2.16-.72-3.24-1a18.89,18.89,0,0,0-3.69-.67,6.7,6.7,0,0,0,1.85-1.44,12.44,12.44,0,0,0,1.45-2.33c.92-1.76,1.64-3.65,2.73-5.32a13.23,13.23,0,0,1,4.4-4.18,28,28,0,0,1,5.69-2.1c.17-.05.2-.33,0-.37-3.93-.9-8.15,2.13-10.41,5.09a25.59,25.59,0,0,0-2.88,5.48,24.51,24.51,0,0,1-1.42,2.8,14,14,0,0,1-1.61,2.35c-.5,0-1-.06-1.55-.06,0,0,0,0,0,0,3.27.39,6.48,1.75,9.55,2.87a16.05,16.05,0,0,1,3.83,8c.4,3.19-.27,7.39,3,9.32a.11.11,0,0,0,.13-.17c-1.29-1.56-1.41-3.52-1.45-5.47a21.76,21.76,0,0,0-.5-5.52,12,12,0,0,0-3.14-5.45c2.58.94,5.15,1.89,7.69,2.93,1.09.44,2.17.9,3.25,1.38a23.34,23.34,0,0,1,1.69,3.62c.31.81.54,1.65.8,2.47.16.49.32,1,.52,1.53a.07.07,0,0,1,0,0,13,13,0,0,0,.53,1.35,8,8,0,0,0,.66,1.22,5.79,5.79,0,0,0,.43.55c.17.17.39.31.58.47a.22.22,0,0,0,.35-.27c0-.11-.09-.21-.13-.31a1.8,1.8,0,0,0-.1-.33q-.14-.3-.3-.6c-.22-.39-.44-.77-.65-1.16a2.92,2.92,0,0,1-.17-.36A8.44,8.44,0,0,0,303,176a15.75,15.75,0,0,0-.88-2.67,9,9,0,0,0-1.31-2.21c1.34.63,2.68,1.27,4,2,.34.17.67.36,1,.54a5.36,5.36,0,0,0,.25,1.59c.2.7.37,1.4.57,2.1a30.62,30.62,0,0,0,1.48,4.19,10.25,10.25,0,0,0,2.06,3.17,7,7,0,0,0,3.08,1.88.2.2,0,0,0,.2-.34,11.07,11.07,0,0,1-1.22-1.25c-.35-.49-.72-1-1-1.46a31,31,0,0,1-1.73-3.15c-.56-1.23-.95-2.54-1.45-3.8-.26-.65-.53-1.31-.81-2-.05-.1-.09-.19-.14-.28,1.94,1.11,3.84,2.28,5.77,3.42,2.87,1.69,5.68,3,9.09,2.73C322.11,180.49,322.18,180.18,322,180.14Z"/><path class="cls-12" d="M276.23,171.45a7.88,7.88,0,0,1-.64-3.49,4.35,4.35,0,0,1,.32-1.67,13.11,13.11,0,0,1,.82-1.35c.39-.65.9-1.54.33-2.23,0,0-.05,0-.06,0a7.76,7.76,0,0,1-.57,1.4c-.3.47-.67.89-1,1.34a5.46,5.46,0,0,0-1.06,3.09,8.88,8.88,0,0,0,.7,3.37,12.34,12.34,0,0,0,2.13,3c.12.14.4,0,.32-.19C277.06,173.68,276.69,172.55,276.23,171.45Z"/><path class="cls-13" d="M302,231c-.74-1.88-1.51-3.74-2.33-5.59a.26.26,0,0,0-.38-.1,21,21,0,0,0-2.55-4c-1-1.46-2-2.9-3-4.34q-3.12-4.35-6.43-8.57c-2.25-2.87-4.58-5.7-7-8.46q-1.72-2-3.54-3.93l-.84-.88c-.61-.5-1.18-1-1.74-1.58-.29-.29-.6-.57-.89-.87-.12-.11-.23-.21-.36-.31l-.09-.06a.56.56,0,0,1-.26-.12l-.08.05-.12.16-.08.07a.33.33,0,0,0,0,.17.55.55,0,0,0-.18,0l-.13.12a2.3,2.3,0,0,1-.7.35l-.06,0-.21,0h-.15a3.53,3.53,0,0,1-.46,0h0l-.11,0-.21,0-.24-.07-.1,0h0l-.32-.19,0,0-.56-.54-.26-.23a4.45,4.45,0,0,0-.8-.5.19.19,0,0,0-.25.26,4.83,4.83,0,0,0,.44.64l.06,0c.53.5,1,1.09,1.54,1.55l.15,0a7.22,7.22,0,0,0,.6.5,16.59,16.59,0,0,0-1.71,2.67,27.11,27.11,0,0,0-1.33,3.14,7,7,0,0,0-.37,1.75,4.84,4.84,0,0,0,0,.76l.78.62c.19-.37.4-.73.58-1.11a12.77,12.77,0,0,0,.58-1.49,24.31,24.31,0,0,1,1.19-3l.08,0a5.33,5.33,0,0,1,.39-.84,11.42,11.42,0,0,1,.79-1.29,2.82,2.82,0,0,1,1.33-1.18,1.5,1.5,0,0,1,.35,0h.22a1,1,0,0,1,.42.16.61.61,0,0,1,.29.39,2,2,0,0,1,.26.51l0,.06h.06a2.26,2.26,0,0,1,0,.26,4.85,4.85,0,0,1-.05,1.82c0,.09,0,.18,0,.27s-.05.27-.07.41a0,0,0,0,1,0,0c-.14.8-.33,1.6-.53,2.39a28.78,28.78,0,0,0-.78,3.91,8,8,0,0,0,0,2c.5.33,1,.69,1.44,1.06.05-1.27-.09-2.53.05-3.8.17-1.52.54-3,.78-4.51a13.63,13.63,0,0,0,.18-3.37l.61.66.66.73a1.08,1.08,0,0,0,.19.59c.18.34.34.69.49,1.05a17.72,17.72,0,0,1,.64,2,15.15,15.15,0,0,1,.42,2.11c.06.6.07,1.2.14,1.8v0c-.46,2.36-1.23,5.26.7,7.19.13.13.41,0,.39-.16-.26-2.7.45-5.26.81-7.91a10.75,10.75,0,0,0,.06-2.41c.32.37.63.74.95,1.1a.22.22,0,0,0,0,.08c.26.73.51,1.46.75,2.2,0,0,0,.05,0,.08l.24.72a6.71,6.71,0,0,1,.66,1.87,6.21,6.21,0,0,1,.31,1.69l.12.26c-.21,1-.48,2-.67,3-.51,2.64-.61,5.63,1,7.89a.17.17,0,0,0,.31-.08c.05-1.45-.05-2.91-.09-4.36a19.29,19.29,0,0,1,.56-4.66,14.46,14.46,0,0,0,.41-4.35l1.41,1.69c.49.6,1,1.21,1.44,1.82a.53.53,0,0,0,0,.37c.61,1.38,1.19,2.77,1.82,4.14s1.21,2.76,1.95,4.06a.23.23,0,0,0,.13.11,23.76,23.76,0,0,1,.63,4.53c.07,1.73-.15,3.53.48,5.19a9,9,0,0,0,2.76,3.72.27.27,0,0,0,.43-.33c-.67-1.55-1.79-2.9-1.93-4.66s.11-3.57-.11-5.38a22.21,22.21,0,0,0-1.09-5l-.1-.24.17.23q1.55,2.15,3.05,4.33c1,1.39,1.86,3.25,3.19,4.31a.21.21,0,0,0,.15,0c.59,1.77,1.22,3.52,1.88,5.27a23.67,23.67,0,0,0,2.35,5.44c.11.15.41.12.38-.1A24.1,24.1,0,0,0,302,231Zm-23.53-30.15a10.42,10.42,0,0,0-.58-1.82l.15.16a6.15,6.15,0,0,1,.58,2.52C278.56,201.4,278.51,201.11,278.45,200.83Zm12,13.87-.61-1.32.71.93A.9.9,0,0,0,290.49,214.7Z"/><path class="cls-14" d="M285.53,187.75a8.82,8.82,0,0,0-6.84-.22,9.47,9.47,0,0,0-5.46,4.19.21.21,0,0,0,.32.25,14.21,14.21,0,0,1,5.48-3.53,16.54,16.54,0,0,1,6.42-.4C285.6,188.06,285.66,187.82,285.53,187.75Z"/><path class="cls-14" d="M306.05,216.93c-1.49-3-5.14-3.31-8.1-3.5a15.52,15.52,0,0,1-5.37-1,6.47,6.47,0,0,1-1-.59l-.24-.3a.28.28,0,0,0-.29-.1c-.2-.15-.39-.32-.58-.48a2.85,2.85,0,0,0-.59-.41,53.08,53.08,0,0,0-5.71-8.07,15.72,15.72,0,0,0,3.5.87,40.33,40.33,0,0,0,4.92.25c1.74,0,3.66.32,5.37-.14a.2.2,0,0,0,0-.37c-1.33-.89-3.08-.83-4.61-.8s-3.2.1-4.8,0a15.25,15.25,0,0,1-4-.7,9.72,9.72,0,0,1-2-1l0,0c-1.36-1.54-2.78-3-4.27-4.44a38,38,0,0,0-2.92-2.69c.32,0,.64,0,1,0a.1.1,0,0,0,.07,0l.1,0a.3.3,0,0,0,.18-.06s0,0,0,0c2.25-.15,4.52-.76,6.72-1a25,25,0,0,1,10.07,1.64c.22.07.32-.24.15-.36a15.16,15.16,0,0,0-9.48-2.34c-3.5.18-6.83,1.18-10.35,1.11l-.17-.09a.15.15,0,0,0-.17.08h-.19l.24.25c.18.2.33.41.5.63,1,1.2,2.41,2.18,3.53,3.26,1,.93,1.94,1.9,2.88,2.88a.18.18,0,0,0,0,.12,6.23,6.23,0,0,0,1.72,1.75c2.57,2.87,4.84,5.94,7.12,9l-.1.05.3.33c.05.07.11.13.17.2a13.56,13.56,0,0,1,1.26,1.25,5.58,5.58,0,0,0,.6.39,24.08,24.08,0,0,0,4.5,4.74,25.62,25.62,0,0,0,3.07,2.1,13.38,13.38,0,0,0,3.59,1.42.15.15,0,0,0,.12-.28c-1.08-.58-2.14-1.21-3.22-1.8a25.9,25.9,0,0,1-3.05-2,26.63,26.63,0,0,1-3.79-3.56l.08,0a16.46,16.46,0,0,0,4.45.85c3,.26,6.35.53,8.43,3C305.89,217.34,306.14,217.12,306.05,216.93Z"/><path class="cls-15" d="M284.87,225c-3.5-3.43-8.6-4.18-13.33-4-2.93.1-5.84.49-8.76.71a20,20,0,0,1-6.5-.11c-2.13-1.64-4.31-3.21-6.55-4.68a15.44,15.44,0,0,0,2.13-.5,47.1,47.1,0,0,0,6.49-2.47,25.88,25.88,0,0,1,7.08-2.15,26.45,26.45,0,0,1,7.73.54c.21,0,.36-.24.15-.35-4.11-2.25-8.9-1.64-13.15,0-2.13.8-4.18,1.78-6.29,2.63a15.62,15.62,0,0,1-5.52,1.45l-.28-.18c-1.83-1.14-3.69-2.26-5.6-3.28a7.92,7.92,0,0,0,2.32-.92,45.55,45.55,0,0,0,4.29-2.91,80.87,80.87,0,0,0,8-6.15l.39-.19,2.67-1.06c.11,0,.11-.24,0-.23a7.15,7.15,0,0,0-2.56.68.18.18,0,0,0-.16,0c-.47.25-.92.52-1.38.78l-.07,0h0a92.81,92.81,0,0,0-7.77,5.18c-1.35,1-2.68,2-4.09,2.88a9.24,9.24,0,0,1-2.26,1.09,3.51,3.51,0,0,0-.62.12q-1.29-.65-2.61-1.23c1-.28,1.56-1.59,1.92-2.41.69-1.57,1.21-3.21,1.9-4.78a9.57,9.57,0,0,1,3.09-4.07,24.83,24.83,0,0,1,4.94-2.41.21.21,0,0,0-.11-.4,15.1,15.1,0,0,0-4.75,1.66,9.37,9.37,0,0,0-3.28,3.37,24.21,24.21,0,0,0-1.8,4.34c-.29.82-.58,1.65-.94,2.45s-.79,1.77-1.75,1.8a.18.18,0,0,0-.13.06l-.23-.1c-.32-.13-.52.38-.23.55l.62.35,0,.06a5.08,5.08,0,0,1-.25,1.39c-.14.39-.32.76-.46,1.15a10.55,10.55,0,0,0-.48,2.67,8.84,8.84,0,0,0,1.26,5,.18.18,0,0,0,.32-.13,17.22,17.22,0,0,1-.49-5.44,15,15,0,0,1,.47-2.66,2.65,2.65,0,0,0,0-1.86l3.1,1.76a6,6,0,0,1,.4,1.41,9.7,9.7,0,0,1-.06,1.87c-.17,1.54-.43,3.06-.55,4.6a23.16,23.16,0,0,0,0,4.56,11.88,11.88,0,0,0,1.27,4,.15.15,0,0,0,.28-.12,26.36,26.36,0,0,1-.6-9.53c.13-1.44.4-2.88.44-4.33a6.37,6.37,0,0,0-.21-1.91c1.46.83,2.91,1.67,4.33,2.56l1.85,1.19a11.59,11.59,0,0,1,1.68,5.08c.18,2.12,0,4.26.2,6.38A19.45,19.45,0,0,0,254.29,239a.14.14,0,0,0,.23-.14c-.55-1.88-1.14-3.7-1.58-5.62a39.12,39.12,0,0,1-.89-6.19c-.16-2.56-.11-5.77-1.29-8.23,1.64,1.11,3.26,2.26,4.84,3.46q2.91,2.22,5.66,4.64a7.55,7.55,0,0,1,.88,1.83,12,12,0,0,1,.39,2.92,27.39,27.39,0,0,0,.44,5.65c.77,3.12,2.73,6.16,5.72,7.49.16.06.32-.11.19-.25-2.39-2.5-4.5-5.28-5.09-8.78-.33-1.93-.13-3.92-.53-5.84a10.18,10.18,0,0,0-.45-1.62c.42.39.85.77,1.27,1.17,2.58,2.44,5,5,7.57,7.5s5.64,5.58,9.19,6.63a.18.18,0,0,0,.17-.29c-1.31-1.14-2.79-2.05-4.16-3.12s-2.71-2.23-4-3.44c-.95-.89-1.87-1.81-2.79-2.73,2,.67,4.48.46,6.49.38,2.59-.11,5.41-.18,7.83.91.17.07.37-.13.22-.28-1.93-1.79-4.5-2.05-7-1.88-1.41.09-2.82.27-4.24.33a16.45,16.45,0,0,1-2.22,0,13.75,13.75,0,0,1-2-.4c-1.3-1.31-2.61-2.63-3.95-3.9-2.34-2.23-4.79-4.38-7.32-6.42a18.29,18.29,0,0,0,3,.15c2.93,0,5.84-.47,8.76-.68,5.21-.37,10.65,0,15.12,3C284.82,225.37,285,225.13,284.87,225Z"/><path class="cls-16" d="M259.83,281.49a17.07,17.07,0,0,0-3.9-3.06c-1.43-1-2.84-2-4.23-3q-1.86-1.38-3.66-2.85c1.65,0,3.29-.19,4.93-.33a16.41,16.41,0,0,1,2.89,0c1,.11,1.84.63,2.8.71.17,0,.25-.19.18-.32-.44-.87-1.58-1.11-2.46-1.25a14,14,0,0,0-3.1,0,54.33,54.33,0,0,0-5.94.7l-.54-.46a1.1,1.1,0,0,0-.31-.26c-.94-.79-1.88-1.58-2.8-2.39-1.56-1.38-3.06-2.82-4.55-4.28a21.15,21.15,0,0,0,5.08.21,21.66,21.66,0,0,1,4.69.19,18.65,18.65,0,0,1,4.75,1.73.2.2,0,0,0,.13,0,2.64,2.64,0,0,0,.29.15,1,1,0,0,0,.63.19.12.12,0,0,0,.07-.17.53.53,0,0,0-.21-.21,2,2,0,0,0-.28-.16l-.57-.28-.16-.07c-2.23-1.9-5-2.41-7.92-2.37-2.67,0-5.22.28-7.74-.45-2.38-2.42-4.67-4.93-6.84-7.54A17.22,17.22,0,0,0,237,257c4,.15,8-.28,11.88,1,.23.07.43-.26.24-.41a8.45,8.45,0,0,0-4.65-2,42.44,42.44,0,0,0-5.86-.14c-3.35,0-6.55-.21-9.42-1.89a1.71,1.71,0,0,1-.11-.14c-.1-.2-.2-.39-.31-.58a28,28,0,0,0-2-3c-.68-.9-1.4-1.77-2.12-2.63a16,16,0,0,0,5.61-.06,59.3,59.3,0,0,1,9.33-.21.29.29,0,0,0,.14-.53c-2.69-1.47-5.66-1.48-8.62-1-2.58.4-5.13,1.16-7.68.44l-.11-.13-.9-1.23a.36.36,0,0,0-.57,0,.7.7,0,0,0-.73.3l-.13-.1a.42.42,0,0,0-.51.66l.4.37a17.91,17.91,0,0,1-1.39,3.55c-.69,1.23-1.48,2.4-2.18,3.62a18.89,18.89,0,0,0-2.71,8.16.26.26,0,0,0,.49.13c1.33-2.73,2.41-5.59,3.9-8.25,1.06-1.88,2.64-4.13,2.77-6.41l1.28,1.25c-.09,1.69,0,3.38-.13,5.07a30.77,30.77,0,0,1-1,5.29c-.77,2.95-1.54,6.2-.92,9.24a19.2,19.2,0,0,0,0,4.73,21.07,21.07,0,0,0,.74,3.51,11.65,11.65,0,0,0,.56,1.49,10.79,10.79,0,0,0,1,1.59.26.26,0,0,0,.48-.2c-.14-.54-.2-1.09-.34-1.63s-.31-1.07-.47-1.6a30.61,30.61,0,0,1-.76-3.25c-.16-1-.27-1.94-.34-2.92a.22.22,0,0,0,0-.14c.17-4,1.58-7.75,2.47-11.65.48-2.13,1.07-4.85.56-7.16l.5.65,1.26,1.7c.22.31.46.62.69.93.2.62.52,1.22.68,1.86a9.84,9.84,0,0,1,.29,2.81,23.79,23.79,0,0,1-1.13,5.71,28,28,0,0,0-1.11,5.34c-.11,1.47-.12,3.54,1,4.67a.19.19,0,0,0,.32-.13c0-.93-.32-1.82-.38-2.75a14.63,14.63,0,0,1,.16-3.1c.33-2,1-4,1.47-6a15.51,15.51,0,0,0,.46-5.25,11.77,11.77,0,0,0-.19-1.17c1.39,1.77,2.83,3.51,4.33,5.2,0,.47.12.95.16,1.4a22,22,0,0,1,.11,2.43c0,1.68-.05,3.36-.05,5a.16.16,0,0,0,.07.14c0,.65-.1,1.31-.09,2a19.83,19.83,0,0,0-.06,3.53,8.93,8.93,0,0,0,1.49,4.14c.12.2.48.07.39-.17-1.06-3-.78-6.38-.44-9.46a43.76,43.76,0,0,0,.35-4.85c0-.62,0-1.38-.06-2.12,1.63,1.75,3.32,3.44,5.05,5.09a13.27,13.27,0,0,1,.59,3.78,39.59,39.59,0,0,0,.09,4.49,13.07,13.07,0,0,0,3.33,7.6.18.18,0,0,0,.28-.21,24.61,24.61,0,0,1-2.73-8.62c-.14-1.78.16-4.08-.41-6,1.59,1.48,3.23,2.89,4.9,4.28.13.33.27.66.39,1s.3.87.47,1.28a2.48,2.48,0,0,0,.76,1.16v0l-.08,0,.09.07a15,15,0,0,0,1.38,2.59,14.62,14.62,0,0,0,2.06,2.44,14.45,14.45,0,0,0,1.2,1c.38.28.8.69,1.3.62a.18.18,0,0,0,.12-.22c-.12-.42-.55-.61-.87-.87a12.45,12.45,0,0,1-2.95-3.47,11.36,11.36,0,0,1-1.13-2.69c-.07-.25-.12-.53-.17-.81l.76.6c1.6,1.22,3.24,2.4,4.9,3.53a15.55,15.55,0,0,0,5.09,2.75A.31.31,0,0,0,259.83,281.49Z"/><path class="cls-16" d="M240,243.32c-1.79-1.47-4.28-1.62-6.49-1.39a53.68,53.68,0,0,0-7.89,1.73c-.13,0-.1.25,0,.25,2.48,0,4.81-.81,7.25-1.15a12.15,12.15,0,0,1,6.84.88C239.92,243.72,240.17,243.48,240,243.32Z"/><path class="cls-17" d="M214.73,310a17.42,17.42,0,0,0-1.28-5.37,17.24,17.24,0,0,0-3.24-5,3.81,3.81,0,0,0-1.51-1.57c-.78-.58-1.61-1.11-2.44-1.61s-1.66-.92-2.51-1.32c-.43-.21-.88-.39-1.32-.56a1.42,1.42,0,0,0-.8-.09s0,0,0,0l-.11,0,.28-.25c.08-.06,0-.19-.08-.13s-.29.23-.44.34a10.36,10.36,0,0,1-2.12-.43,10.72,10.72,0,0,1-2.09-1.23,8.82,8.82,0,0,0-4-1.55,12.84,12.84,0,0,0-8.72,2.78,0,0,0,0,0,0,.07,22.63,22.63,0,0,1,4.44-2.12,9.85,9.85,0,0,1,4.79-.29,7.49,7.49,0,0,1,2.2.82c.67.4,1.25.93,1.88,1.38a6.09,6.09,0,0,0,1.56.82c-.82.17-1.62.44-2.47.56s-1.76.26-2.63.46a11.92,11.92,0,0,0-2.49.38,12.7,12.7,0,0,0-6.85,4.63,10.63,10.63,0,0,0-1.85,4.41.08.08,0,0,0,.16.05,14.4,14.4,0,0,1,5.09-6.64l.22-.15.37-.19c.58-.27,1.18-.52,1.79-.74a21.43,21.43,0,0,1,3.43-.92c1.13-.21,2.28-.28,3.42-.47l.48-.09a5.89,5.89,0,0,0,2.64-1h.14a12.42,12.42,0,0,0-3.28,6.57s0,.05,0,.07a1.54,1.54,0,0,0-.17.19,4.53,4.53,0,0,0-.27.48c-.16.34-.34.67-.52,1h0a2.09,2.09,0,0,1-.22.2.22.22,0,0,0-.17.05,17.83,17.83,0,0,1-2,1.5,17.38,17.38,0,0,1-2,1.23c-1.47.8-3,1.47-4.45,2.3a30,30,0,0,0-3.88,2.58c-.44.29-.87.58-1.28.91a10.26,10.26,0,0,0-3.07,3.93c0,.1.09.18.14.08.21-.34.44-.67.67-1a.13.13,0,0,0,.13,0,30,30,0,0,1,7.41-5.37c1.3-.64,2.63-1.25,3.9-1.93.6-.28,1.19-.57,1.78-.89a8.06,8.06,0,0,0,1.89-1.33,2.67,2.67,0,0,0,.37-.46c.11-.1.23-.18.33-.28s.2-.21.29-.32a6.56,6.56,0,0,0,.62-.67c-.51,2.93-.81,5.92-1.17,8.86-.18,1.46-.37,2.92-.56,4.39a7.4,7.4,0,0,0-1.05,1.25,15.3,15.3,0,0,1-1,1.58,17,17,0,0,1-2.7,2.66,23.62,23.62,0,0,0-2.83,2.55,8.22,8.22,0,0,0-1.23,1.71,14.4,14.4,0,0,0-2.55,6.63,13.28,13.28,0,0,0,.47,5.28c0,.08.16.07.15,0a18.76,18.76,0,0,1,1.35-9.22,13,13,0,0,1,2.66-3.87,34.5,34.5,0,0,1,3.59-2.79,8.14,8.14,0,0,0,2.5-2.69l.3-.4c-.24,1.62-.49,3.24-.79,4.86-.36,1.95-.77,3.9-1.27,5.82s-1.13,3.8-1.52,5.74a20.23,20.23,0,0,0-.29,6.21,19.28,19.28,0,0,0,1.66,5.8c0,.11.22,0,.18-.08a22.8,22.8,0,0,1-1-10.81,48.24,48.24,0,0,1,1.38-5.51c.42-1.53.78-3.08,1.1-4.64a9.54,9.54,0,0,0,.43,2.07,45.21,45.21,0,0,0,1.92,4.47c1.3,2.86,2.17,6,1.09,9.09,0,.08.09.15.14.08,2-2.47,1.17-5.85,0-8.51-.66-1.56-1.47-3-2.13-4.61a16.92,16.92,0,0,1-1.21-4c.85-4.41,1.39-8.87,1.93-13.33a11.23,11.23,0,0,0,.89,2.21,14.53,14.53,0,0,0,1.46,2.34l.38.51a38.85,38.85,0,0,1,5.12,8.16.25.25,0,0,0,.42.09c.67,1.41,1.25,2.86,1.81,4.31a11.41,11.41,0,0,1,.15,1.31c0,.56,0,1.12,0,1.68a0,0,0,0,0,.09,0,6.18,6.18,0,0,0,0-2.57.15.15,0,0,0,.17-.17,20.8,20.8,0,0,0-2.36-6.75c-.58-2.22-2.21-4.19-3.58-5.94a32,32,0,0,1-2.76-4,13.94,13.94,0,0,1-1.44-4.12c.26-2,.53-4,.85-6,.09-.59.2-1.19.32-1.8a9.6,9.6,0,0,0,1,3.61,24.58,24.58,0,0,0,2.74,4.12c.07.12.14.24.22.36a33.33,33.33,0,0,1,4,9.21.24.24,0,0,0,.4.1c.05.24.11.48.17.72.21,1,.39,2,.56,3s.42,2,.64,3c0,.1.2.08.19,0,0-.9,0-1.8-.16-2.69s-.25-1.68-.4-2.51c-.19-1.06-.43-2.12-.71-3.16a7.59,7.59,0,0,0-.42-3.16,26.59,26.59,0,0,0-2.36-4.71c-1.83-3-4.12-5.62-5.57-8.85a.1.1,0,0,0-.1-.07,17.45,17.45,0,0,1,.87-2.74,5.27,5.27,0,0,0,.53,2.86,11.89,11.89,0,0,0,3.1,3.74,42.25,42.25,0,0,1,3.7,3.37,9.8,9.8,0,0,1,2.5,4.4.1.1,0,0,0,.19,0,6.75,6.75,0,0,0-1.35-4.13,19.26,19.26,0,0,0-3.44-3.37c-2.14-1.77-6-4.64-4.74-7.88a8.45,8.45,0,0,1,1.44-2l.06,0a.27.27,0,0,0,0,.13c.35.81,1.31,1,2.06,1.34s1.63.73,2.43,1.14,1.54.82,2.28,1.27c.57.35,1.1.72,1.64,1.1.13.12.25.25.37.38a16.84,16.84,0,0,1,4.14,9.13,21.67,21.67,0,0,1-.16,6.07.12.12,0,0,0,.22.07A14,14,0,0,0,214.73,310Z"/><path class="cls-17" d="M193.9,323.27a.06.06,0,0,0,0,.09c.29.25-1.33,2.06-1.55,2.3-.6.68-1.23,1.33-1.87,2s-1.33,1.26-1.94,1.94a13.7,13.7,0,0,0-1.54,2.24.11.11,0,0,0,.17.13c.71-.78,1.57-1.43,2.32-2.18s1.56-1.53,2.3-2.33a12.48,12.48,0,0,0,1.85-2.49C193.7,324.79,194.6,323.09,193.9,323.27Z"/><path class="cls-17" d="M212.07,320.38a19.7,19.7,0,0,0-1.66-6.31c0-.12-.23,0-.2.08a56.7,56.7,0,0,1,1.33,6.42c.13,1.05.21,2.11.25,3.17,0,.51,0,1,0,1.54a14.13,14.13,0,0,0,0,1.72.06.06,0,0,0,.12,0,12.1,12.1,0,0,0,.32-3.18A25,25,0,0,0,212.07,320.38Z"/><path class="cls-16" d="M203,335.8a6.32,6.32,0,0,0-.72-1.56,4,4,0,0,0-1.23-1.17.1.1,0,0,0-.12.16,10,10,0,0,1,1,1.27,5.71,5.71,0,0,1,.7,1.45,6.84,6.84,0,0,1,.19,3.21.07.07,0,0,0,.14,0A5,5,0,0,0,203,335.8Z"/><path class="cls-3" d="M171,324.23a7.89,7.89,0,0,0-6.77-3c-2.5,0-5.23.79-7.47-.71a.12.12,0,0,0-.17,0c-.45-.71-.9-1.41-1.37-2.09a29.41,29.41,0,0,0-2.31-3,6.93,6.93,0,0,0-2.73-2.32.21.21,0,0,0-.23.31s.05.08.07.13c-.55.42-1.06.92-1.59,1.35-.7.57-1.45,1.09-2.16,1.65a17,17,0,0,0-3.6,3.54,11.59,11.59,0,0,0-2,9.33.2.2,0,0,0,.39-.05,14.56,14.56,0,0,1,2.61-9.13,18.82,18.82,0,0,1,3.54-3.31,14.05,14.05,0,0,0,3.15-2.87c.54.74,1.32,1.4,1.86,2.08.15.2.29.41.44.62-.06.36-.11.79-.14.91a12.36,12.36,0,0,1-.51,1.67c-.43,1.1-1,2.13-1.51,3.17a39.27,39.27,0,0,0-3.14,6.7c-.06.21.23.4.38.23,1.86-2.22,3.06-5.05,4.33-7.62a12.71,12.71,0,0,0,1.35-3.66c0-.08,0-.18,0-.29.3.44.58.88.86,1.32.68,1.08,1.35,2.16,2,3.25a19.1,19.1,0,0,1-.82,3.6,22.72,22.72,0,0,1-2,4.23,38,38,0,0,1-2.77,3.92c-.95,1.2-1.78,2.47-2.67,3.71-.09.12.1.25.2.15a35.7,35.7,0,0,0,3.53-3.64,30.2,30.2,0,0,0,2.82-4.17,17.38,17.38,0,0,0,2.26-6.86c.47.81.95,1.61,1.4,2.42s.9,1.68,1.33,2.53a12.6,12.6,0,0,1-1.52,4c-.86,1.49-1.79,2.93-2.57,4.47a28.5,28.5,0,0,0-2,4.76,7.4,7.4,0,0,0-.39,2.37,3.8,3.8,0,0,0,.69,1.94c.08.14.27,0,.24-.11a11,11,0,0,1,1-5.47,38.8,38.8,0,0,1,2.29-4.78c1-1.8,2.44-3.93,2.78-6.11.54,1.14,1,2.29,1.48,3.47a27.67,27.67,0,0,1,1.56,7.7c0,.29.5.4.55.07a17.48,17.48,0,0,0-.89-8.07,6.7,6.7,0,0,0,2.38,1,3.5,3.5,0,0,1,2.18,1.52.13.13,0,0,0,.24-.07,2.4,2.4,0,0,0-1.85-1.93c-1-.34-2.12-.41-2.93-1.12a.18.18,0,0,0-.23,0,31.3,31.3,0,0,0-1.48-3.53,11.28,11.28,0,0,0,3.57,1.78c.89.31,1.79.6,2.66,1a15.61,15.61,0,0,1,2.54,1.22.15.15,0,0,0,.2-.2,5.27,5.27,0,0,0-2-1.71,16.29,16.29,0,0,0-2.63-1,16.24,16.24,0,0,1-4.93-2.16c-.34-.65-.68-1.29-1-1.91-.87-1.54-1.78-3.08-2.73-4.59,1.71,1.4,4,1.58,6.11,1.65A14.59,14.59,0,0,1,167,323c1.26.41,2.51,1,3.74,1.53C171,324.63,171.13,324.38,171,324.23Z"/><path class="cls-3" d="M167,308.85a5.93,5.93,0,0,0-3.74-2.89,7.81,7.81,0,0,0-5.13.37c-3.18,1.36-4.31,4.95-7.26,6.58a.2.2,0,0,0,.15.37c2.8-.9,4-3.88,6.37-5.43,3-2,6.74-1.05,9.35,1.19C166.88,309.16,167.1,309,167,308.85Z"/><path class="cls-3" d="M164.9,313.19a7.06,7.06,0,0,0-5.37-.91c-2,.35-3.69,1.55-5.69,1.92-.15,0-.11.26,0,.27,1.86,0,3.48-1.1,5.27-1.46a13.42,13.42,0,0,1,5.63.46A.15.15,0,0,0,164.9,313.19Z"/><path class="cls-3" d="M142.69,317c-2,.44-3.66,2.2-4.69,3.85a10.77,10.77,0,0,0-1.24,2.85,9.46,9.46,0,0,0-.25,1.49,2.49,2.49,0,0,0,.11,1.41s0,0,.07,0a4,4,0,0,0,.2-1.24,11.83,11.83,0,0,1,.31-1.46,10,10,0,0,1,1.2-2.73,10.85,10.85,0,0,1,1.88-2.23,20.74,20.74,0,0,1,2.48-1.78A.09.09,0,0,0,142.69,317Z"/><path class="cls-3" d="M156.17,305.22a7.66,7.66,0,0,0-3.59,1.19,4.26,4.26,0,0,0-1.23,1.34,3.63,3.63,0,0,0-.44,1.72.11.11,0,0,0,.21,0,5.85,5.85,0,0,1,.69-1.53,4.29,4.29,0,0,1,1.15-1.25,12.5,12.5,0,0,1,3.23-1.33C156.27,305.36,156.27,305.21,156.17,305.22Z"/><path class="cls-18" d="M135,312.14c-.17.05-.35.08-.52.14l-.17.08.28-.25a.15.15,0,0,0-.1-.25A5.39,5.39,0,0,0,133,312c0-.47,0-.94,0-1.41,0-.92-.16-2.19-1.09-2.65-.05,0-.1,0-.09.07a6.87,6.87,0,0,1,.16,1.42c0,.53-.09,1.05-.12,1.57a8.17,8.17,0,0,0,0,1.31l-.5.14-.31.07a.16.16,0,0,0,0-.1c-.24-.67-.32-1.38-.52-2.06a5.61,5.61,0,0,0-.84-1.74,6.18,6.18,0,0,0-1.31-1.39,2.78,2.78,0,0,0-1.8-.7.16.16,0,0,0-.12.28,11.49,11.49,0,0,0,1.4,1.1,5.51,5.51,0,0,1,1.26,1.29,6.89,6.89,0,0,1,.85,1.61,4.31,4.31,0,0,0,.88,1.73h0c-.37.08-.74.14-1.11.21-.21,0-.43.06-.64.08a5.48,5.48,0,0,0-.7,0,15.62,15.62,0,0,0-2.17-.66,27.34,27.34,0,0,1-3.26-1.36c-1.06-.5-2-1.18-3.12-1.64a7.91,7.91,0,0,0-3.3-.58c-.18,0-.24.31,0,.33a9.13,9.13,0,0,1,3.5,1.28c1,.62,1.87,1.44,2.89,2a16.52,16.52,0,0,0,2.95,1.3l-.15.07c-.09,0-.18.08-.27.12l-.06-.05a13.78,13.78,0,0,0-2.23-.33,9.45,9.45,0,0,1-2.1-1.07,7.72,7.72,0,0,0-2.05-.68,4.88,4.88,0,0,0-2-.16.07.07,0,0,0,0,.13,2.72,2.72,0,0,0,1,.28,11.82,11.82,0,0,1,1.18.26,6.45,6.45,0,0,1,2.16,1,5.17,5.17,0,0,0,2,1,5.3,5.3,0,0,0,1,.14c-.55.26-1.11.53-1.67.77-.85.11-1.73.08-2.57.12-1,.06-2,.16-3,.31a11.85,11.85,0,0,0-5.47,2.05c-.08.07,0,.18.11.14a19.08,19.08,0,0,1,3.08-1.16,24.29,24.29,0,0,1,3-.52c1-.11,1.93-.16,2.89-.2l-2.59.94A17,17,0,0,0,112.3,320c-1.36,1.27-2.61,3.12-2.4,5.06a.07.07,0,0,0,.14,0,8.13,8.13,0,0,1,2.84-4.95,16.56,16.56,0,0,1,6.17-2.84c.93-.27,1.84-.56,2.73-.88l-.21.23a7.57,7.57,0,0,0-1.09,2.73c-.49,1.84-.9,4.08-2.76,5.05-.13.06,0,.29.1.23,1.81-.73,2.49-2.64,3.08-4.35.17-.49.33-1,.54-1.46a9,9,0,0,1,.81-1.32,4.9,4.9,0,0,1,1.09-1.09,3.08,3.08,0,0,0,.74-.94l.8-.35a13.12,13.12,0,0,1,2.7-1l.23,0a6.57,6.57,0,0,0-.64.92,21.09,21.09,0,0,0-1.12,2.41,24.52,24.52,0,0,1-1.09,2.46,19.48,19.48,0,0,1-1.46,2.16c-.09.12.08.23.19.18,1.63-.72,2.3-2.6,2.91-4.15.33-.85.61-1.71,1-2.53q.29-.58.6-1.14a2.79,2.79,0,0,1,.23-.32,2.35,2.35,0,0,0,.45-.14c.73,0,1.46.13,2.22.14a.18.18,0,0,0,.18-.18,2.73,2.73,0,0,0,.57,0c.11.55.51,1.1.61,1.62a5.63,5.63,0,0,1-.27,2.93,9.42,9.42,0,0,1-3.25,4.28c-.1.07,0,.23.11.19a6.28,6.28,0,0,0,3.84-3.84,7.12,7.12,0,0,0,.5-2.85,3.81,3.81,0,0,0-.38-1.55,6,6,0,0,0-.54-.81l.2,0,.08.07c.14.09.27,0,.29-.17a2.08,2.08,0,0,0,.81-.47l.46-.22a3.38,3.38,0,0,0,.47-.3,3.32,3.32,0,0,0,.37-.38C135.23,312.26,135.15,312.1,135,312.14Z"/><path class="cls-3" d="M306.35,115.25c-3.8-1-8-.36-11.82,0-3,.28-6,.55-8.95.84a14.42,14.42,0,0,0,2.3-1.73c1.66-1.48,3.25-3.26,5.39-4a.12.12,0,0,0-.06-.24c-2.15.35-3.82,1.66-5.44,3a22.7,22.7,0,0,1-2.62,2c-.89.54-1.91.8-2.8,1.33-1.53.16-3.06.33-4.59.52a4,4,0,0,0,1-.68,7.39,7.39,0,0,0,1.22-1.45,27,27,0,0,1,2.37-3.6.08.08,0,0,0-.11-.11,15.67,15.67,0,0,0-2.36,3.23,9,9,0,0,1-1.19,1.48c-.09.08-.2.15-.3.23a7.69,7.69,0,0,1-1.15.57c-.4.16-.84.24-1.23.43a.11.11,0,0,0-.06.15c-1.12.15-2.25.32-3.37.51.31-.24.6-.51.88-.77a19.15,19.15,0,0,0,2.26-3,16.78,16.78,0,0,1,2.54-3.1,30.52,30.52,0,0,1,3.21-2.33c.07,0,0-.19-.06-.15a13.67,13.67,0,0,0-5.63,4.37c-.8,1-1.51,2.14-2.39,3.1a8.54,8.54,0,0,1-1.41,1.28c-.44.32-.9.59-1.34.9-2.3.45-4.59,1-6.84,1.65a6.58,6.58,0,0,0,.65-1.23c.55-1.35.8-2.78,1.46-4.09a12.53,12.53,0,0,1,2.24-3.08,20.84,20.84,0,0,1,3.23-2.38.09.09,0,0,0-.07-.16,9,9,0,0,0-3.05,1.77,13,13,0,0,0-2.52,2.72,13.6,13.6,0,0,0-1.66,3.43,11.6,11.6,0,0,1-.9,2.19,7.62,7.62,0,0,1-1,1.35c-1,.34-2,.7-3,1.11a.16.16,0,0,0,.09.31c.63-.2,1.27-.38,1.91-.56a.23.23,0,0,0,.12.23l.12,0a.23.23,0,0,0,.12.21,26,26,0,0,1,2.87,1.8c.94.81,1.76,1.75,2.63,2.62a15.07,15.07,0,0,0,6.12,3.9c.12,0,.17-.12.08-.19-1-.77-2.16-1.32-3.18-2.06a14.8,14.8,0,0,1-2.87-2.83,15.5,15.5,0,0,0-2.54-2.58,6.19,6.19,0,0,0-1.8-1,.31.31,0,0,1-.1,0,5.75,5.75,0,0,0-.66-.23l-.21,0q3.38-.93,6.81-1.63a12.37,12.37,0,0,1,4.45,3c1.32,1.16,2.59,2.38,3.88,3.58,2.39,2.23,5.22,4.75,8.55,5.33.2,0,.35-.24.15-.35a30.41,30.41,0,0,1-4.55-2.89c-1.44-1.14-2.77-2.41-4.12-3.65a43.49,43.49,0,0,0-4-3.42,10.86,10.86,0,0,0-3.34-1.78c3.91-.77,7.86-1.33,11.84-1.76a15.66,15.66,0,0,1,7.8,2.6c2.33,1.56,4.6,3.87,7.5,4.26.17,0,.17-.23,0-.28a18.8,18.8,0,0,1-4.26-2.34,45.87,45.87,0,0,0-3.89-2.72,14.58,14.58,0,0,0-4.94-1.75c3.53-.35,7.07-.66,10.6-1a67.2,67.2,0,0,1,11.95-.24C306.6,115.83,306.65,115.33,306.35,115.25Z"/><path class="cls-19" d="M239.13,157.92A14.38,14.38,0,0,0,238,153.4a11.32,11.32,0,0,0-2.92-3.71c-.62-.56-1.27-1.09-1.89-1.65a10.92,10.92,0,0,0-.9-.78,5.47,5.47,0,0,0-.83-.49c.18-.19.37-.38.53-.58a.11.11,0,0,0-.13-.17l-.57.28a.31.31,0,0,0-.32-.24,16.89,16.89,0,0,0-2.55.3,7.8,7.8,0,0,1-3-.24,14,14,0,0,0-5.08-.12,16.24,16.24,0,0,0-8.82,4.07c-.06.06,0,.17.09.12,3-1.81,6.1-3.55,9.74-3.42a37.48,37.48,0,0,1,5.05,1,6.47,6.47,0,0,0,3.08-.15c-.46.36-.9.75-1.32,1.11a34.71,34.71,0,0,0-3.44,3.42c-.19.21-.36.43-.55.64a40,40,0,0,1-4.29,1.44,37.13,37.13,0,0,0-5.09,1.49,15.63,15.63,0,0,0-7.44,6.15.08.08,0,0,0,.13.1,21.69,21.69,0,0,1,8.43-5.53c1.58-.52,3.21-.84,4.81-1.28a12.93,12.93,0,0,0,2.14-.76,44.63,44.63,0,0,0-3.67,5.47l-.23.44a3.94,3.94,0,0,0-1,1.88c0,.08-.07.17-.11.25l-.55.62c-1.06,1.19-2.14,2.35-3.27,3.47s-2.16,2-3.14,3.14c-.74.81-1.83,2-1.88,3.11a.1.1,0,0,0,.16.06c.43-.48.73-1.07,1.18-1.55a14,14,0,0,1,1.54-1.34c1.15-.92,2.27-1.86,3.33-2.88.38-.37.76-.76,1.13-1.14-.33.88-.64,1.77-.92,2.67a31.87,31.87,0,0,0-1.69,9.27c0,.18.28.23.32,0a80.83,80.83,0,0,1,2.22-9.09c.47-1.36,1-2.71,1.61-4,.25,1.93,1.33,3.49,2.08,5.25a21.46,21.46,0,0,1,1.55,6.15,29.54,29.54,0,0,1-.25,6.16c0,.09.12.09.15,0a18,18,0,0,0,.2-11.17c-.54-1.85-1.59-3.51-2.13-5.35a8.31,8.31,0,0,1-.18-3.2,11.53,11.53,0,0,0,1.62-2.6.27.27,0,0,0,0-.2l.08-.13,1.11-1.86c.13-.21.26-.43.4-.64a5.82,5.82,0,0,0-.2,1.37,13,13,0,0,0,.42,3.29c.5,2.13,1.35,4.49,1,6.7,0,.15.18.26.26.11,1-2,.67-4.12.12-6.21-.28-1.06-.58-2.14-.76-3.23a11,11,0,0,1-.14-1.62c0-.54.15-1.07.15-1.61a.11.11,0,0,0-.07-.09c.2-.35.4-.71.57-1.08.52-.67,1.05-1.33,1.6-2,.27-.31.56-.61.83-.92a10,10,0,0,0-.22,1.54,10.29,10.29,0,0,0,1,4.82c.77,1.78,1.66,3.51,2.28,5.34a20.34,20.34,0,0,1,.72,2.73,21.12,21.12,0,0,0,.5,2.75c0,.05.1.06.11,0a12.16,12.16,0,0,0-.35-4.64,22,22,0,0,0-1.41-4.86,15.22,15.22,0,0,1-1.65-5.19,7.47,7.47,0,0,1,.25-2.35,13,13,0,0,0,.51-1.95l.56-.57c.75-.75,1.59-1.44,2.37-2.19a3.28,3.28,0,0,0,.82,1.47c.52.54,1.1,1,1.67,1.52a16,16,0,0,1,3.1,3.43,12.62,12.62,0,0,1,1.87,4,10.64,10.64,0,0,1,.26,2.25,15,15,0,0,0,0,2.12.05.05,0,0,0,.1,0C239.4,161,239.22,159.23,239.13,157.92Z"/><path class="cls-3" d="M242.21,147.61a2.79,2.79,0,0,0-1.44-1.87,4.45,4.45,0,0,0-3.21.08,17.05,17.05,0,0,1-3.54.62.18.18,0,0,0-.05.36,8.24,8.24,0,0,0,1.45.34,4.45,4.45,0,0,0,1.5,0,14.78,14.78,0,0,1,2.92-.63,1.9,1.9,0,0,1,1.52,1,2.51,2.51,0,0,1,.31,1,8,8,0,0,1-.09,1,.11.11,0,0,0,.17.09A2,2,0,0,0,242.21,147.61Z"/><path class="cls-19" d="M215.33,181.16a.19.19,0,0,0-.37.05c-.08,1.49.12,2.95.13,4.43a11.39,11.39,0,0,1-.71,4.33c-.06.16.2.27.29.12A11.51,11.51,0,0,0,215.33,181.16Z"/><path class="cls-20" d="M231.72,163.09c-.08-.15-.28,0-.26.11a22.38,22.38,0,0,1,.37,5.54,19.55,19.55,0,0,1-1.47,5.29c0,.08.09.14.14.08a10.12,10.12,0,0,0,2.07-5.29A9.42,9.42,0,0,0,231.72,163.09Z"/><path class="cls-19" d="M243.09,137.28a34.59,34.59,0,0,0-3.79-4l.25.07c.52.11,1,.23,1.55.36,1,.27,2.07.56,3.08.92.21.07.35-.27.15-.36a25.8,25.8,0,0,0-3.07-1.16c-.52-.15-1.06-.28-1.59-.4a5.76,5.76,0,0,0-1.1-.08,30.88,30.88,0,0,0-3-2.28c.67-.11,1.32-.29,1.83-.4a14.55,14.55,0,0,1,3.86-.58,5.78,5.78,0,0,1,3,1.15c.11.08.25-.08.19-.19-1.11-1.84-3.77-1.72-5.6-1.56-1.2.11-2.39.37-3.57.58a8,8,0,0,1-1.13.12l-.5-.3a10.7,10.7,0,0,0-4.16-1.58,10,10,0,0,0,1.41-1.57,6,6,0,0,1,1.54-1.25,10,10,0,0,1,1.86-.9c.13,0,.11-.26,0-.25a5.15,5.15,0,0,0-1.85.43,5.66,5.66,0,0,0-1.58,1.16,10,10,0,0,0-1.12,1.4,2.21,2.21,0,0,1-1.36,1,2.74,2.74,0,0,0-.28,0,.12.12,0,0,0,0,.23c.29.13.59.24.89.36-.1.29-.23.59-.34.83-.2.46-.47.89-.71,1.33a3.78,3.78,0,0,0-.56,2.72,5.92,5.92,0,0,0,1.68,2.71c.81.84,1.61,1.66,2.36,2.56a.11.11,0,0,0,.18-.1,6.77,6.77,0,0,0-1.82-2.43,5.88,5.88,0,0,1-1.84-3,4.05,4.05,0,0,1,1-2.85,4.29,4.29,0,0,0,.62-1.18,1,1,0,0,0,.05-.34c.57.22,1.14.46,1.69.71.54,1.35.41,2.85.77,4.24a9.21,9.21,0,0,0,.71,1.92,4.92,4.92,0,0,0,1.35,1.59.12.12,0,0,0,.18-.14c-.33-.61-.6-1.26-.91-1.88a9.11,9.11,0,0,1-.7-1.93c-.27-1.15-.28-2.33-.66-3.44l.54.26a1.93,1.93,0,0,0,.8.45l.82.54a.2.2,0,0,0,0,.31,7.56,7.56,0,0,1,1.53,2.31,14.55,14.55,0,0,1,.65,2.74,10.55,10.55,0,0,0,.79,2.71,3.43,3.43,0,0,0,1.72,1.87c.17.06.26-.17.16-.29a9,9,0,0,1-.9-1.14,5.61,5.61,0,0,1-.55-1.37c-.25-.92-.38-1.87-.55-2.81a9,9,0,0,0-1-3c.67.51,1.31,1,1.94,1.57a34.85,34.85,0,0,1,3.89,3.89,19.16,19.16,0,0,1,3.25,4.8c0,.12.23.06.23-.06A8.84,8.84,0,0,0,243.09,137.28Z"/><path class="cls-19" d="M252.65,98c.11-.08,0-.23-.11-.18-2.7,1.15-5.3,2.53-8,3.63-.68.28-1.38.53-2.08.79.12-.11.24-.22.35-.34,1.58-1.65,2.85-3.61,4.68-5,.17-.13,0-.41-.17-.3a31.18,31.18,0,0,0-4.74,4.23,14.1,14.1,0,0,1-2.48,1.93,12,12,0,0,1-2.15,1.07l-.07,0a6.61,6.61,0,0,1-.73.2.13.13,0,0,0-.12.09l-.69.23q-2.79.85-5.62,1.56a19.45,19.45,0,0,0,2.95-3.26c2.1-2.81,4.16-5.79,7.84-6.47.14,0,.1-.24,0-.24-3.11,0-5.65,2.57-7.47,4.8a45.72,45.72,0,0,1-3.13,3.68,10.48,10.48,0,0,1-1.91,1.54,9.33,9.33,0,0,1-1,.52l-.17.1c-1.3.27-2.6.51-3.91.72a32.4,32.4,0,0,0-3.16.78,8.12,8.12,0,0,0,2.42-2.39,40,40,0,0,0,2.57-4,21.85,21.85,0,0,1,2.81-3.87,9.1,9.1,0,0,1,2.1-1.66,24.07,24.07,0,0,0,2.6-1.41,0,0,0,0,0,0-.06,9.39,9.39,0,0,0-4.82,2.35,16,16,0,0,0-2.89,3.56c-.85,1.34-1.64,2.72-2.56,4a14.06,14.06,0,0,1-1.52,1.83c-.3.3-.65.56-1,.84l-.14-.36a7.71,7.71,0,0,0-.51-1,.14.14,0,0,0,.05-.17c-1-1.7-.35-3.81.62-5.36,1.1-1.72,2.52-3.21,3.64-4.91a.12.12,0,0,0-.18-.15c-.86.84-1.64,1.79-2.44,2.69a14.05,14.05,0,0,0-2,2.63,5.26,5.26,0,0,0-.62,3.79c-.26-.4-.52-.79-.76-1.21-.74-1.24-1.43-2.77-1-4.23s1.69-2,2.65-3.06c0,0,0-.12-.06-.11A5.81,5.81,0,0,0,216.92,98a4.47,4.47,0,0,0-.63,3.87,18.84,18.84,0,0,0,2,4.06,10.38,10.38,0,0,1,.94,2.13,9.33,9.33,0,0,1,.21,1.39,7.67,7.67,0,0,0-.8,2.6,5.44,5.44,0,0,0,.59,3.52c1.14,1.9,3.53,2.49,5.46,3.2.12,0,.21-.12.12-.2-1.36-1.29-3.53-1.67-4.58-3.29a4.33,4.33,0,0,1-.47-3.19,13.57,13.57,0,0,1,.53-1.68,2.25,2.25,0,0,0,.48-1.67,16.8,16.8,0,0,0,3.08-.11l.76-.12a.41.41,0,0,0,.11.12c.71.38,1.52.4,2.23.83a12.44,12.44,0,0,1,2,1.58,20,20,0,0,0,3.82,3.1c2.82,1.58,6.6,2.25,9.66,1,.14-.06.15-.34,0-.31-3.57.47-7.09.18-10.12-2-1.35-.94-2.41-2.22-3.66-3.28a9.41,9.41,0,0,0-2.06-1.41l1.72-.34c.9-.19,1.8-.4,2.7-.62.34.13.68.25,1,.39.69.3,1.36.61,2,.93a38.51,38.51,0,0,0,3.88,1.59c2.37.81,5.62,1.45,7.83-.15.16-.12.14-.48-.13-.44a19.34,19.34,0,0,1-3.95.25,16.5,16.5,0,0,1-4-.89c-1.29-.43-2.54-1-3.82-1.39-.55-.19-1.13-.41-1.72-.58,1.59-.42,3.18-.88,4.75-1.4q1.11-.37,2.22-.78l2.32.1c1.2.06,2.4.17,3.61.17,2,0,4.39-.28,5.73-2,.1-.13,0-.37-.18-.31a18.65,18.65,0,0,1-6.19,1.07c-.84,0-1.71-.07-2.6-.1,1.06-.44,2.1-.89,3.14-1.38A48.29,48.29,0,0,0,252.65,98Z"/><path class="cls-19" d="M211.71,89.9a.15.15,0,0,0-.25.06,3.65,3.65,0,0,0,0,1.19,5.4,5.4,0,0,1-.13,1.26,5.16,5.16,0,0,1-.2.67.13.13,0,0,0-.08.07,14.92,14.92,0,0,1-1.82,2.73,9,9,0,0,1-2.37,2.19c-.89.56-1.9.87-2.81,1.37a3.38,3.38,0,0,0-1.6,1.61c-.7-1.23-1.48-2.4-2.17-3.63h0A10.28,10.28,0,0,0,200.1,96s0-.07,0-.11,0-.13.08-.19a4.45,4.45,0,0,1,.86-1.21,11.41,11.41,0,0,1,2.42-1.83,20.36,20.36,0,0,0,2.45-1.57,3.42,3.42,0,0,0,1.51-2.18c0-.19-.23-.25-.36-.15-.36.32-.65.72-1,1.07a8.82,8.82,0,0,1-1.16,1c-.82.58-1.71,1-2.54,1.61a7.8,7.8,0,0,0-2,1.84,26.51,26.51,0,0,1-.08-3.09,9.14,9.14,0,0,1,2.18-4.41c1.84-2.33,4.06-4.56,4.17-7.71a.14.14,0,0,0-.27,0c-.79,3.2-3.67,5.31-5.54,7.87a9,9,0,0,0-1.8,4,9.64,9.64,0,0,0,.26,3.38c0,.11,0,.21,0,.31a10.3,10.3,0,0,0,.13,1.1c0-.1-.08-.18-.11-.27-.14-.34-.25-.68-.38-1a.21.21,0,0,0,.1-.27,19.11,19.11,0,0,1-1.69-6.83c-.06-2.62.82-5.08,1.35-7.61a23.58,23.58,0,0,0,.33-7.26,18.54,18.54,0,0,0-1.76-6.81c0-.06-.11,0-.1,0a43.65,43.65,0,0,1,1,7.89,33.06,33.06,0,0,1-1.24,7.78,28,28,0,0,0-.79,4.06,31.59,31.59,0,0,0-1.88-4.59c-1.41-2.69-3.54-4.76-5.45-7.08a17.09,17.09,0,0,1-3.93-10.4.15.15,0,0,0-.29,0,16.29,16.29,0,0,0,1.83,9c1.55,2.87,4.14,5,5.84,7.73a31,31,0,0,1,3.17,7.64l0-.06a18.14,18.14,0,0,0-4.24-3,11.66,11.66,0,0,1-4.25-3.4c-1-1.53-1.54-3.34-2.81-4.71-.05,0-.14,0-.1.08.89,1.57,1.22,3.39,2.09,5a10.17,10.17,0,0,0,3.42,3.48,42.2,42.2,0,0,1,4.18,2.79,9.1,9.1,0,0,1,1.67,1.89c.2.3.39.62.57.93s.31.76.52,1.13a.21.21,0,0,0,.24.11c.27.9.56,1.78.88,2.66a20.29,20.29,0,0,0-4.8-2.76c-1.87-.8-3.82-1.37-5.69-2.18a26.56,26.56,0,0,1-2.82-1.42c-.9-.54-1.65-1.23-2.49-1.84-.06-.05-.13,0-.09.09A10.28,10.28,0,0,0,185.79,90c1.8,1,3.72,1.67,5.59,2.46a23.65,23.65,0,0,1,5,2.69,11.19,11.19,0,0,1,2,2c.12.15.22.31.33.46a15.51,15.51,0,0,0,1.12,2,21.42,21.42,0,0,0-5,.57,13.6,13.6,0,0,1-4.63-.2,25.47,25.47,0,0,1-4.41-1.5c-.11,0-.17.11-.1.19,1.88,2,5,2.91,7.66,3a26.24,26.24,0,0,0,4.58-.6,7.49,7.49,0,0,1,3,0,6.28,6.28,0,0,0,1.69,1.25A.24.24,0,0,0,203,102c-.09-.18-.19-.35-.28-.52a2.77,2.77,0,0,1,1-.87,8.52,8.52,0,0,1,1.44-.51,9.5,9.5,0,0,0,3-1.39,9.36,9.36,0,0,0,2.39-2.39,6,6,0,0,0,.87-2.6,5.64,5.64,0,0,0,.49-1.23,6.57,6.57,0,0,0,.19-1.32A1.89,1.89,0,0,0,211.71,89.9Z"/><path class="cls-3" d="M193.8,68.21a15.12,15.12,0,0,0-1.13-2.91,12,12,0,0,0-.91-1.44,6.12,6.12,0,0,0-.39-.5,5.86,5.86,0,0,0-.71-.61s-.09,0-.06,0c.12.21.17.47.29.69l.39.65c.25.44.49.89.7,1.35a16,16,0,0,1,1.09,2.92,20.2,20.2,0,0,1,.51,6.1.19.19,0,0,0,.38,0A12.22,12.22,0,0,0,193.8,68.21Z"/><path class="cls-19" d="M205.05,120.71c-.43-1.29-1-2.51-1.49-3.79a9.72,9.72,0,0,1-.52-2.06c-.08-.61-.1-1.2-.19-1.8h0c.21-.1,0-.39-.15-.36a8.39,8.39,0,0,0-1.83.55l-.35,0c-.51-.06-1-.08-1.51-.19a12.11,12.11,0,0,1-3-1.29c-1.32-.71-3.52-1.65-4.75-.31,0,0,0,.12,0,.1a3.55,3.55,0,0,1,2.75,0,25.69,25.69,0,0,1,2.54,1.59,7.84,7.84,0,0,0,2.61,1,32.56,32.56,0,0,0-3.54,2.72,23,23,0,0,1-4.55-.76,8.38,8.38,0,0,0-2.95-.17,4.47,4.47,0,0,0-2.58,1.08.1.1,0,0,0,.1.17c.5-.08,1-.29,1.5-.4a6.14,6.14,0,0,1,1.66-.13,11.54,11.54,0,0,1,3.21.8,10.43,10.43,0,0,0,2.25.55q-3.67,3-7.3,6.08a14.27,14.27,0,0,1-1.78.59c-1.27.33-2.57.51-3.86.78-2.29.48-4.93,1-6.55,2.87-.07.08,0,.2.11.14a11.78,11.78,0,0,1,3.45-1.5,30.55,30.55,0,0,1,3.92-.66c.87-.11,1.73-.27,2.59-.45-2.14,1.77-4.31,3.53-6.26,5.5a14.67,14.67,0,0,1-2.12,1c-.87.31-1.75.56-2.6.91a5.34,5.34,0,0,0-3.36,3.28.11.11,0,0,0,.22.06c.53-1.73,2.27-2.64,3.86-3.21.83-.29,1.68-.53,2.5-.85l.56-.23,0,.05a26.58,26.58,0,0,0-5.13,8.6c-.1.28.29.39.44.19,2.06-2.8,3.76-5.82,6.24-8.29.65-.64,1.32-1.26,2-1.87a7.46,7.46,0,0,0-.28,1.18,13.78,13.78,0,0,0-.05,3.74.2.2,0,0,0,.4,0,26.61,26.61,0,0,1,.28-3.46,8.74,8.74,0,0,1,.45-1.59c.14-.34.31-.66.48-1l1.84-1.55a16.68,16.68,0,0,0-.87,4.21,30.9,30.9,0,0,1-.85,4.57,34.23,34.23,0,0,1-1.68,4.28.11.11,0,0,0,.19.11,18,18,0,0,0,3.08-7.52c.24-1.45.35-2.93.73-4.35a10.65,10.65,0,0,1,1.25-2.84l.64-.53,3.65-3.1a12.54,12.54,0,0,0-.72,2.57c-.38,1.87-.52,3.77-.88,5.64a34.12,34.12,0,0,1-1.67,5.67,12.26,12.26,0,0,1-3.2,5.08c-.16.14.05.41.23.3,3-2,4.25-6.09,5.08-9.4.47-1.89.7-3.81,1-5.73a20.66,20.66,0,0,1,.6-2.81c.26-.85.68-1.64.92-2.49,1-.88,2.06-1.76,3.08-2.65,1.22-1.06,2.42-2.23,3.67-3.31a13,13,0,0,0-.85,3.2c-.36,2.21-.65,4.43-1.2,6.61a50.57,50.57,0,0,1-2.06,6.35,11.06,11.06,0,0,1-3.44,5c-.18.12-.08.44.15.36a6.37,6.37,0,0,0,3.72-3.32,31.36,31.36,0,0,0,2.48-6.2,39.37,39.37,0,0,0,1.38-6.71c.13-1.06.18-2.11.29-3.17.07-.64.19-1.28.32-1.91.09-.4.25-.79.37-1.18q.6-.48,1.23-.9a4.15,4.15,0,0,0,1.06-.36.18.18,0,0,0,0-.3l.14-.09a4.91,4.91,0,0,0,.14,2.81,24.32,24.32,0,0,0,1.39,3.58c1,2.19,1.84,4.8.54,7a.13.13,0,0,0,.2.15C206,125.27,205.72,122.73,205.05,120.71Z"/></g></g></svg>