<svg xmlns="http://www.w3.org/2000/svg" viewBox="0 0 425.2 425.2"><defs><style>.cls-1{fill:#988d84;}.cls-2{fill:#fff;}.cls-3{opacity:0.1;}.cls-4{fill:#6e6d33;}.cls-5{fill:#e8ca66;}.cls-6{fill:#6b6f36;}.cls-7{fill:#7f823e;}.cls-8{fill:#707032;}.cls-9{fill:#73733d;}.cls-10{fill:#f5d87f;}.cls-11{fill:#c5ab3d;}.cls-12{fill:#828035;}</style></defs><g id="Sansa-2" data-name="Sansa"><g id="Doniczka_" data-name="Doniczka&apos;"><path class="cls-1" d="M163.92,256.17a10.5,10.5,0,0,1,1.6-1.11,14.07,14.07,0,0,1,2.68-1.29,29.4,29.4,0,0,1,6.49-1.49c6.27-.82,12.6-.33,18.89-.91,8.73-.81,16.94.47,25.16,1.73a39.17,39.17,0,0,1,6.77,1.5c.75.26,2.35.64,2.88,1.25,2.36,2.8-11.24,6.75-12.81,7.24a66.71,66.71,0,0,1-29.66,2.18A90.23,90.23,0,0,1,171,262c-2.86-1-5.26-2.09-7.17-4.49a1.31,1.31,0,0,1-.32-.63C163.45,256.68,163.64,256.42,163.92,256.17Z"/><path class="cls-2" d="M228.68,256.29a112.48,112.48,0,0,1-39.09,6.34c-9.46-.24-17.61-1.44-26.11-5.69-1,8.38,1.63,17.12,2.4,25.47.64,6.93,1.37,13.82,1.94,20.72s-2.16,18.51,5.58,21.69c8.31,3.42,17.08,3.57,25.91,2.79,6.17-.54,12.71-.81,18.38-3.57a10.26,10.26,0,0,0,3.18-2.25c3.1-3.35,1.78-7.9,2.46-13.36.52-4.18-.06-8.21.46-12.42.72-5.86,1.56-11.62,2.21-17.42.45-4.1.68-8.23,1.43-12.3C228.05,262.91,229.46,259.77,228.68,256.29Z"/><path class="cls-3" d="M228.68,256.29q-2.28.81-4.67,1.54a18,18,0,0,0-1.35,2.32c-1.71,3.58-2.28,7.53-2.82,11.42-1,7.21-2,14.44-3.65,21.53a64.59,64.59,0,0,1-7.88,19.82,32.6,32.6,0,0,1-6.8,8,17.74,17.74,0,0,1-4.4,2.64,19.54,19.54,0,0,1-5.75,1.16,62.3,62.3,0,0,1-10.22.22c-.69-.05-1.4-.14-2.09-.24-1.48-.5-3-1-4.39-1.65s-3.08-1.37-4.56-2.14l-.15-.12a.12.12,0,0,0-.1,0c-.29-.15-.57-.31-.85-.47a7.86,7.86,0,0,0,4.4,4.51c8.31,3.42,17.08,3.57,25.91,2.79,6.17-.54,12.71-.81,18.38-3.57a10.26,10.26,0,0,0,3.18-2.25c3.1-3.35,1.78-7.9,2.46-13.36.52-4.18-.06-8.21.46-12.42.72-5.86,1.56-11.62,2.21-17.42.45-4.1.68-8.23,1.43-12.3C228.05,262.91,229.46,259.77,228.68,256.29Zm-44.82,71.14a31.9,31.9,0,0,1-11.63-3.75,18.41,18.41,0,0,1-1.85-1.28,71.66,71.66,0,0,0,13.83,5.08Z"/></g><path class="cls-4" d="M185.85,259.88a18.49,18.49,0,0,1,3.15-.17c-2.14-6.3-3.16-13-5.12-19.49-1.77-5.89-3.51-11.58-5.53-17.11a.54.54,0,0,1-.59-.35c-.95-2.68-2.09-5.33-3.29-7.91-1.77-3.78-4.17-7.21-6.21-10.84-.74-1-1.43-2.12-2.09-3.22a.53.53,0,0,1-.62-.21,51.08,51.08,0,0,1-5.22-8.81,1.05,1.05,0,0,1-.06-.24c-1.29-1.72-2.56-3.44-3.75-5.21-2.05-3-3.4-6.48-5.45-9.44-1.22-1.76-3-3.25-3.93-5,2.1,5.32,4.26,11.81,6.79,17.25,5.49,11.79,8.89,23.8,11.66,36.11,1.34,6,4.11,10.6,7,16.08,2.35,4.43,3.91,9.1,5.81,13.62.73,1.75,1.51,3.46,2.4,5.14A44.59,44.59,0,0,0,185.85,259.88Z"/><path class="cls-5" d="M178.9,226.93a18.82,18.82,0,0,0-.69-2,24.86,24.86,0,0,0-2.21-7c-.94-2.29-1.91-4.56-3-6.79q-1.27-2.64-2.79-5.16a63.72,63.72,0,0,0-6.7-9.95c-2.48-4-5.06-8-7.66-11.95-1.37-2.08-2.78-4.13-4.19-6.19s-2.87-3.83-4.37-5.73c-.09-.12-.28,0-.21.16,1,1.9,2,3.81,3.19,5.64s2.31,3.65,3.46,5.48c2.31,3.66,4.62,7.32,6.8,11.06,4.34,7.46,8.63,14.93,12.27,22.77,1,2.17,2,4.36,2.86,6.57.44,1.08.87,2.15,1.34,3.21a31.27,31.27,0,0,0,1.87,3.34c.19.32.61.09.56-.24A30.77,30.77,0,0,0,178.9,226.93Z"/><path class="cls-6" d="M232.09,133.35c-.35-6.27-1.57-12.29-2.17-18.51-.13-1.39-.43-2.77-.66-4.15-.12-.69-.24-1.38-.33-2.08-.05-.34-.1-.68-.13-1a2.43,2.43,0,0,1,.06-1,7.35,7.35,0,0,0,.38-1.64,3.25,3.25,0,0,0,0-.54c0-.11,0-.21,0-.32a1.14,1.14,0,0,0,0-.37,1.74,1.74,0,0,0-.34.74,4.24,4.24,0,0,1-.18.5c-.14.35-.2.74-.32,1.1s-.26.82-.4,1.22c-.28.82-.58,1.64-.9,2.44-.64,1.65-1.34,3.27-2.07,4.89s-1.47,3.25-2.21,4.88-1.44,3.24-2.09,4.89c-.42,1-.81,2.08-1.17,3.13-3.28,9.68-5.22,18.83-8.08,28.34-2.71,9-6.82,17.3-9.17,26.52-3.64,14.34-4.22,29.84-3.57,44.71.25,5.68.75,11.24.75,17,0,4.17-.7,10.18.75,14.13a51.6,51.6,0,0,0,9.21,1.58c1.65,0,3.37-.38,5.12-.37.73,0,3.75-.16,2.36-.36,2-4.52,2.68-11.53,3.63-16.58,1.1-5.82,2.62-11.7,2.88-17.59.07-1.5.12-3,.17-4.42a.51.51,0,0,1-.3,0,1.33,1.33,0,0,1-.88-1c.17-.32,0-1,.07-1.37s.11-1,.16-1.55c.08-1,.15-2,.23-3.06.16-2,.4-3.92.56-5.88v-.12a.71.71,0,0,1-.07-.22,14.18,14.18,0,0,1,.26-3.18,20.56,20.56,0,0,1,.55-3,.44.44,0,0,1,.13-.23,13.94,13.94,0,0,1,.48-1.71,13.21,13.21,0,0,1,.52-1.31c.18-1,.38-2.05.61-3.09,2.06-9.27,5-18.44,5.89-27.85A215.8,215.8,0,0,0,232.09,133.35Z"/><path class="cls-7" d="M212.92,204.05c-1.62-10.24-5.21-20.69-7.8-31.17-2.48-10-3-20.11-3.52-30.52-.47-9.51.37-21.62-2.56-30.38-5.55,18.2-1.25,37.9-5.54,56.55-2.8,12.13-3.13,24.1-2.54,36.67.58,12.34-.64,24.7.3,37a65.34,65.34,0,0,0,3.13,14.88c.73,2.38,1,3.17,2,3.56,1.24-.08,2.47,0,3.72,0h.1c.77-.08,1.55-.14,2.32-.18s1.8-.08,2.7-.1l.33,0a.47.47,0,0,1,.21,0h.44c1,0,2.08,0,3.12-.07.8-.06,1.58-.24,2.37-.29,1.49-2,1-5.08,1.47-8.21,1.11-7.41,1.11-14.75,1.48-22.22A123.69,123.69,0,0,0,212.92,204.05Z"/><path class="cls-8" d="M177.52,165.61c-.46-9.72-1.49-19.48-1-29.5a138.34,138.34,0,0,1,3.49-23.6c-2.92,9.23-7.19,17.31-7.19,27.65,0,8.6,1.61,17.58,1.17,26.18-1.2,23.78,2,48.82,6.91,71.87,1.47,7,1.47,14.12,3.33,21.09,1.88.69,4.76.13,7.16,0-.51-4.52-1.52-9-1.77-13.76s-.16-9.58-.45-14.25a174.3,174.3,0,0,0-5-31.52c-1.22-5-1.58-10.21-2.71-15.23C180,178.23,177.82,172.14,177.52,165.61Z"/><path class="cls-9" d="M246.72,172.9c-2.51,4.21-6.47,7.08-9.53,10.88-.23.29-.44.59-.67.88-.91,1.74-1.84,3.48-2.71,5.25a93.93,93.93,0,0,0-4.76,12.72c-.73,2.24-1.48,4.49-2.27,6.71-.31.89-.65,1.76-1,2.63-.43,1.74-.87,3.49-1.36,5.24-1.7,6.14-4.51,11.74-6.59,17.76-2.34,6.75-4,14.43-7.21,20.76l.54-1.54a40.25,40.25,0,0,0-2.31,6.2c.78,0,1.79-.19,2.8-.25a18.08,18.08,0,0,1,2.39-.58c.49-.1,1-.18,1.49-.26a114.87,114.87,0,0,1,5.9-15.87c3.88-8.2,9.46-15.54,14.11-23.39a20.45,20.45,0,0,1,1-1.84c.38-.66.73-1.34,1.07-2,1-2.41,1.85-4.84,2.73-7.28.33-.93.65-1.85,1-2.78a16.56,16.56,0,0,1,1-2.85c.57-1.63,1.16-3.24,1.78-4.85,1.43-5.86,2.66-11.82,3.83-17.73a43.56,43.56,0,0,1,1.1-6.49c.18-1.15.36-2.3.46-3.46.14-1.47.21-3,.43-4.42,0-.09,0-.18.05-.27A75.62,75.62,0,0,1,246.72,172.9Z"/><path class="cls-9" d="M211.2,254.19a34.44,34.44,0,0,0,2.37-6.82Z"/><path class="cls-7" d="M184.14,259.72c-2.38-9.45-4.61-18.27-5.45-28.34-.72-8.53-3.07-16.74-5.46-24.69-2.29-7.6-4.74-14.95-7.25-22.56s-7-14.95-9.63-22.73a42.31,42.31,0,0,0-8.12-14.33c-1.59-2-7.21-6-6.89-8.28,2.86.91,5.28,3.17,7.54,5.11a111.47,111.47,0,0,1,13.73,14.17c6.53,8,9.43,16.15,12.92,25.65,4.07,11.08,8.06,22.22,10.69,33.74,3.19,14,4.25,28.61,6.27,42.48l0,0C190,258.33,186.08,259,184.14,259.72Z"/><path class="cls-10" d="M189.66,228a219,219,0,0,0-9.07-23.57c-1.67-3.9-3.46-7.74-5.15-11.63s-3.39-7.8-5.12-11.68q-1.29-2.91-2.62-5.8c-.83-1.8-1.6-3.68-2.58-5.4-2-3.41-3.7-6.93-5.75-10.29A75.73,75.73,0,0,0,151.6,149c-.3-.33-.6-.67-.91-1l-.92-1c-.31-.32-.62-.65-.94-1l-1-1c-.31-.32-.63-.63-1-.95l-1-.93-1-.93-1-.93-1-.91-1-.92c-.07-.07-.15-.13-.22-.21s-.15-.16-.22-.25l-.17-.25s0-.07-.06-.1a1.09,1.09,0,0,0,0,.18c0,.07,0,.14,0,.21a1.44,1.44,0,0,0,.1.37,1,1,0,0,0,.2.25l.23.23.45.46c.31.3.61.61.91.92l.9.92.9.92.9.93.89.93.88.94.88.94.86,1,.86,1,.84,1c.28.33.56.65.83,1s.55.66.82,1l.8,1,.78,1c.26.34.51.69.76,1s.5.7.75,1.06.49.71.72,1.07.39.58.57.88c4.24,6.68,7.23,14,10.4,21.18,3.4,7.72,6.57,15.5,9.71,23.32s6.59,15.39,9.17,23.35c1.4,4.3,2.46,8.67,3.51,13.06s2,8.86,2.86,13.31a.34.34,0,0,0,.67-.09A85.68,85.68,0,0,0,189.66,228Z"/><path class="cls-11" d="M193.7,246.8c-.72-4.71-1.21-9.47-1.61-14.21a265.47,265.47,0,0,1-.85-29.58,269.24,269.24,0,0,1,2.31-29.61c.68-5,1.43-9.93,1.89-14.92.44-4.69.49-9.36.57-14.06.09-5.33.24-10.67.36-16a55.56,55.56,0,0,1,.54-6.31c.25-1.82.58-3.64,1-5.44a19.11,19.11,0,0,1,.57-2.49,11.3,11.3,0,0,0,.62-2.58,10,10,0,0,0-1.59,4,81.17,81.17,0,0,0-1.9,10.62c-.3,2.38-.63,4.72-.78,7.12s-.23,4.78-.31,7.18c-.15,4.84-.35,9.69-.68,14.52-.35,5-1,10-1.75,15-1.42,9.89-2.59,19.81-3,29.79a254.19,254.19,0,0,0,.23,25.45c-.7-3.17-1.42-6.34-2.18-9.49-1.79-7.47-3.74-14.93-6.2-22.21-4.81-14.29-11.07-28.26-20.32-40.26a55.76,55.76,0,0,0-8.31-8.79,32.77,32.77,0,0,0-4.93-3.49l-.56-.3q-.59-.3-1.2-.57l-1.23-.5q-.63-.24-1.26-.45c-.3-.12-.62-.2-.92-.32l-.31-.11-.23-.07a.73.73,0,0,0-.25,0l-.05,0a.28.28,0,0,0,.08.15l.12.13s.06.07.11.1l.16.1.23.14c.38.19.77.38,1.14.59s.75.42,1.12.65.73.45,1.09.69.72.49,1.07.75l1.05.77c.34.27.68.53,1,.81s.67.54,1,.82l.93.8a55.32,55.32,0,0,1,7.13,7.93A117.37,117.37,0,0,1,169.11,172c6.7,13.39,11,27.86,14.62,42.35,1,4.07,1.94,8.14,2.85,12.23q.69,3.13,1.36,6.27l.63,3a15.09,15.09,0,0,0,.34,1.48,3.88,3.88,0,0,0,1.05,1.39.75.75,0,0,0,.45.23c.27,2.41.56,4.82.9,7.23.71,4.92,1.79,9.91,4.52,14.15.78,1.21,2.72.09,1.94-1.13C195.38,255.47,194.36,251.13,193.7,246.8Z"/><path class="cls-12" d="M202.45,260.44c.63-.08,1.28-.09,1.92-.11l.46,0a.25.25,0,0,1,0-.08c0,.09.31,0,.3.07-.87-3.25-.29-7.56-.74-11.1-.66-5.22-1.43-10.42-2.11-15.66-1.28-9.77-1.25-19.57-3-29.32-1.77-10-6.63-18.63-9.39-28.25-.22-.78-.41-1.56-.59-2.34a.53.53,0,0,1-.5-.37,42.65,42.65,0,0,1-1.62-7.57,38.79,38.79,0,0,1-1.76-10,55.32,55.32,0,0,1-1.39-8.67c0-.26-.09-.53-.13-.79-2.12,8.21.32,18.46-.51,27-.74,7.58-1.52,14.35-.74,22.16.69,6.9.74,14.31,1.47,21.44,1.43,14.17.59,30,5.07,43.24l-.36-5.45a14.9,14.9,0,0,1,.78,5c2.9.48,4.8,1.23,7.93,1.16C199.15,260.8,200.88,260.37,202.45,260.44Z"/><path class="cls-10" d="M250,167.76c-2.77,13.46-5.38,27.1-10.44,39.92-4.68,11.87-12.17,22.24-17.91,33.58-.29.57-.57,1.16-.85,1.74.49-4,.83-8.08,1.1-12.13.1-1.56.2-3.13.29-4.69l2.48-7.17c2.31-6.7,4.6-13.41,6.93-20.1,2.08-6,4.37-11.91,8-17.12,1.82-2.61,4.06-4.89,6-7.41,1.81-2.34,3.63-5,4.05-8,0,0,0,0,0,0a26.64,26.64,0,0,1-4.44,7.16c-1.86,2.14-3.89,4.13-5.73,6.29-4,4.75-6.48,10.46-8.59,16.26-2.84,7.79-5.57,15.61-8.28,23.45a158.36,158.36,0,0,1,2.09-18.44c1.89-10.25,5.74-20,7.36-30.33s1.47-20.78.83-31.17c-.36-5.87-.92-11.73-1.51-17.58-.15-1.49-.36-3-.5-4.48s-.52-3-.71-4.48c-.23-1.84-.31-3.69-.46-5.54a31.55,31.55,0,0,0-.43-3.5c0-.14,0-.28-.07-.41a2.6,2.6,0,0,0-.15.42,12.43,12.43,0,0,0-.36,2.64c-.06.93-.07,1.86-.08,2.79s0,1.71,0,2.57c0,1.25,0,2.54-.12,3.79a37.93,37.93,0,0,0,0,4.13c.12,5.18.53,10.35.87,15.52.69,10.43,1.18,20.9,0,31.32a101.14,101.14,0,0,1-3,15.12c-1.35,5-2.86,9.93-3.94,15-2.11,9.8-2.61,19.86-3.2,29.84-.07,1.06-.13,2.12-.2,3.19-.05.15-.1.3-.16.44l-.15,1.55c0,1.72-.08,3.43-.28,5.13l.07-.2c-.19,2.2-.4,4.4-.68,6.59-.35,2.73-.79,5.45-1.36,8.14-.29,1.39-.61,2.77-1,4.14-.16.63-.36,1.25-.52,1.89a8.05,8.05,0,0,0-.19,1.7,6.16,6.16,0,0,1,.83-.18,14.38,14.38,0,0,1,2-.13l.13-.3c.18-.5.3-1.05.44-1.57.35-1.26.66-2.53.94-3.81.32-1.46.6-2.93.85-4.4.75-1.88,1.58-3.73,2.47-5.55,2.73-5.6,6-10.92,9.09-16.29a142.57,142.57,0,0,0,8.69-16.73,104.12,104.12,0,0,0,6.12-19.58c1.56-7.61,2.73-15.31,3.78-23C250,167.73,250,167.71,250,167.76Z"/><path class="cls-10" d="M227.1,110.19c.07-.32.13-.64.18-1,0-.14,0-.27.05-.41-.11.28-.29.6-.42.91s-.32.84-.49,1.26-.29.53-.42.8a8.55,8.55,0,0,1-.56.91,21.82,21.82,0,0,0-1.75,2.77c-.45,1-1,1.94-1.4,3s-.75,2.07-1.11,3.11c-1.45,4.25-3,8.48-4.21,12.78q-3.32,11.35-6.64,22.73a15.73,15.73,0,0,0-.84,1.82c-.72,1.82-1.34,3.68-1.91,5.56-.91,3-1.72,6-2.54,9,.3,1,.56,2,.77,3.07.09.23.17.47.25.71a1.15,1.15,0,0,0,.51-.55,11.76,11.76,0,0,0,1.62-2.44,15.75,15.75,0,0,0,1.34-3.26c.7-2.26,1.42-4.52,2.08-6.8q1.95-6.65,3.89-13.3,2-6.81,4-13.64c.64-2.17,1.28-4.35,1.86-6.53s1-4.19,1.62-6.25c.72-2.32,1.55-4.6,2.17-6.94.17-.63.43-1.24.6-1.88s.19-1.19.33-1.78c.19-.75.46-1.49.68-2.23C226.87,111.13,227,110.66,227.1,110.19Z"/><path class="cls-10" d="M202,256.25c.08.94.17,1.88.25,2.82a9.85,9.85,0,0,0,.18,1.41,14.06,14.06,0,0,1,2.68-.24,11.51,11.51,0,0,0-.1-1.52l-.24-2.82c-.17-1.88-.35-3.77-.52-5.65-.34-3.64-.65-7.29-1-10.93-.28-2.85-.25-5.72-.56-8.57-.22-2-.65-3.94-.8-5.92,0-.15,0-.3,0-.45-.54-7-.77-14.15-2.72-20.93-1-3.53-2.13-7-3.39-10.46s-2.61-6.87-3.77-10.36-2.19-7.16-3.09-10.79a127.51,127.51,0,0,1-3-13.58c-.16-1.21-.37-2.39-.59-3.59-.17-.94-.29-1.89-.5-2.82-.3-1.39-.46-2.74-.65-4.15a12.14,12.14,0,0,1-.24-1.68c0,.1-.23.33-.27.45a4.24,4.24,0,0,0-.19.94c-.1.61-.16,1.21-.22,1.82a22.93,22.93,0,0,0-.22,4.13,39.32,39.32,0,0,1-.11,4.85c-.12,3.71-.21,7.41-.27,11.12-.13,7.46-.23,14.94-.06,22.4s.43,15,.86,22.46c.17,3.05.46,6.11.5,9.16,0,3.2,0,6.36.22,9.55s.49,6.12.93,9.17,1,6.11,1.62,9.14c.3,1.45.62,2.91,1,4.36.18.78.35,1.57.56,2.34s.37,1.91,1.22,2.12a3.66,3.66,0,0,0,1.8-.18c-.11-.46-.29-.89-.42-1.35-.31-1.12-.64-2.24-.9-3.37-.35-1.51-.68-3-1-4.54-.6-2.92-1.1-5.85-1.59-8.79s-.95-5.86-1.38-8.8c-.51-5.56-1-11.11-1.35-16.68-.92-14.76-1-29.56-.8-44.35.06-4.11.15-8.23.23-12.35,0-2.11.1-4.23.14-6.34,0-.55,0-1.11,0-1.67.32,2.18.68,4.36,1,6.54.46,3.66,1,7.28,1.66,10.9A139.11,139.11,0,0,0,193,190.29c1.27,3.43,2.59,6.87,3.56,10.4,1.95,7,2.26,14.49,2.87,21.73.62,7.4,1.31,14.84,1.49,22.26,0,.37,0,.75,0,1.12l0-1.61.54,6.42C201.69,252.49,201.84,254.37,202,256.25Z"/></g></svg>