<svg xmlns="http://www.w3.org/2000/svg" viewBox="0 0 425.2 425.2"><defs><style>.cls-1{fill:#fff;}.cls-2{opacity:0.1;}.cls-3{fill:#372f16;}.cls-4{fill:#303c1c;}.cls-5{fill:#333e26;}.cls-6{fill:#405431;}.cls-7{fill:#4a5b33;}.cls-8{fill:#4b5e38;}.cls-9{fill:#435a2e;}.cls-10{fill:#516633;}.cls-11{fill:#2e3525;}.cls-12{fill:#242c1d;}.cls-13{fill:#536638;}.cls-14{fill:#3c4e21;}.cls-15{fill:#39492a;}.cls-16{fill:#414c2c;}.cls-17{fill:#5b6e3c;}.cls-18,.cls-19{fill:#404e2a;}.cls-18{opacity:0.2;}.cls-20{fill:#353f26;}.cls-21{fill:#3e4f2f;}.cls-22{fill:#4e6636;}.cls-23{fill:#364023;}.cls-24{fill:#41512e;}.cls-25{fill:#3e512a;}.cls-26{fill:#647541;}</style></defs><g id="Diffenbachia"><g id="Doniczka"><path class="cls-1" d="M190.57,279.17a28.81,28.81,0,0,0-6.64,2.63c-.64,7.79.68,16,1.15,23.84.25,4.07.49,8.15,1,12.19a114.06,114.06,0,0,0,6,23.05c2,5.54,3.57,15.62,10.3,17a64.17,64.17,0,0,0,20.83.7c3-.4,7.73-1,9.48-3.89,1.59-2.58,2.13-7.14,3.11-10.06a204.13,204.13,0,0,0,7.11-25.78c2.32-11.94,3-24.35.48-36.26.63-1,0-1.1-.83-1.92a6.88,6.88,0,0,0-3-1.55C223.51,274.24,206.78,275,190.57,279.17Z"/><path class="cls-2" d="M242.92,318.81c2.32-11.94,3-24.35.48-36.26.63-1,0-1.1-.83-1.92a6.9,6.9,0,0,0-3-1.54,141.23,141.23,0,0,1,1.35,20.85,57,57,0,0,1-4.2,19.48,78.89,78.89,0,0,1-9.46,16.73,68.52,68.52,0,0,1-12.72,13.57,33.21,33.21,0,0,1-8.21,4.87,25.61,25.61,0,0,1-4.56,1.32,11.46,11.46,0,0,1-2.7.28,7.31,7.31,0,0,0,3.34,1.65,64.17,64.17,0,0,0,20.83.7c3-.4,7.73-1,9.48-3.89,1.59-2.58,2.13-7.14,3.11-10.06A204.13,204.13,0,0,0,242.92,318.81Z"/><path class="cls-3" d="M191.59,280.5c-1.77.44-3.73,1.08-4.55,2.71a81,81,0,0,0,55.38-1.29C227.3,275.71,207.22,276.63,191.59,280.5Z"/></g><g id="Diffenbachia-2" data-name="Diffenbachia"><path class="cls-4" d="M269.1,78.83a.64.64,0,0,0-1-.2,6.23,6.23,0,0,0-1.9-8.11A21.46,21.46,0,0,1,261,75.88c-1.59,1-3.43,1.58-5,2.69s-2.71,3-2.12,4.83a4.89,4.89,0,0,1-1.09-3.82c-11,8.17-22.44,16.91-28,29.42a25.78,25.78,0,0,0-2.25,7.71,19,19,0,0,0,2.89,12.07c.3.48,1.95,4.05,2.08,4.11,1.15.52,4.2-2.17,5.09-2.82a43,43,0,0,0,14.91-19.74c1.67-4.54,2.76-9.67,6.48-12.75,2.25-1.87,5.34-2.85,6.83-5.36a33.66,33.66,0,0,0,1.42-3.39c1.53-3.34,5-5.43,6.65-8.71A1.53,1.53,0,0,0,269.1,78.83Z"/><path class="cls-5" d="M209,199.81c4.37,3.58,10.54,8.7,10.45,8.81a92.41,92.41,0,0,0,7.71-10.14,23.08,23.08,0,0,0,3-5.95c1.14-3.79.53-7.85,0-11.78-1.52-11.74-2-23.59-2.57-35.42-5.45,1.55-8.91,6.25-13.22,9.62s-9.08,6.57-11.84,11.48c-3.23,5.74-3.08,12.71-2.76,19.29.12,2.57.3,5.26,1.7,7.42a14.9,14.9,0,0,0,3.41,3.36C205.38,196.87,207,198.18,209,199.81Z"/><path class="cls-6" d="M189.9,167.9c-.66-2.12,1.56-3.89,3.12-5.48,4.13-4.22,4.47-10.95,3-16.66a31.73,31.73,0,0,0-8.48-14,202.57,202.57,0,0,0-29.73-23.61c-.06,3.58.08,6.45.29,10l-2.85-10c-.2-.68-.52-1.47-1.21-1.58-.19-.79-.53-.7-1.34-.71a25.81,25.81,0,0,1-4.57-.29c-2.06-.41-4.1-1.32-6.11-1.87-1.27-.34-5.82-2.63-6.9-2.17-.33.15-.16.65.06.94.76,1,2.16,2.17,1.74,3.36a2.8,2.8,0,0,1-2-1.43,10.7,10.7,0,0,0,1.73,3.09c3.88,5.41,7.37,11,11.61,16.19s8.83,10,13,15.16,8.08,11,12.56,16.18S183.6,165.27,189.9,167.9Z"/><path class="cls-7" d="M213,98.49a43.52,43.52,0,0,0-2.89-8.65,44.35,44.35,0,0,0-4.5-8.37c-5-6.94-13-11.53-16.84-19.11a20.57,20.57,0,0,0-1.44,7.87c-.08-1.8.19-3.21-.55-4.86a4.93,4.93,0,0,0-4.09-3.1,4.89,4.89,0,0,1-1.38-.07A2.86,2.86,0,0,1,180,61.11c-2.36-3-4.86-6.38-8.6-7.16a10.08,10.08,0,0,1-.76,2.86l-1.24-.8a6.64,6.64,0,0,0-1.26,7.81,19.57,19.57,0,0,0,2,2.59c5.31,6.55,11.09,13.07,13.43,21.18a144,144,0,0,0,19.36,41.09c.4-1.53.56-3.49,1.75-4.65,2-2,4.94-2.86,6.74-5,2-2.42,2.17-5.84,2.22-9A54.09,54.09,0,0,0,213,98.49Z"/><path class="cls-8" d="M213.86,185.29a15.2,15.2,0,0,1-4.94-2.69,5.16,5.16,0,0,1-1.69-5.1l1.17,1.06a26.36,26.36,0,0,1,1.45-20.89l.59,3.77a39.06,39.06,0,0,1,6.5-14,10.78,10.78,0,0,0,.18,4c-.08-3.19,1.77-6.06,3.56-8.7,5.48-8.1,11.09-16.34,18.73-22.44a4.26,4.26,0,0,1,1.74-1,6.87,6.87,0,0,1,2.28.29,5.63,5.63,0,0,0,4.46-1.14,11.32,11.32,0,0,1,1.7,15.51l2.71-5c2.71,11.81-1.1,24.36-7.66,34.55A112.17,112.17,0,0,1,220,190C219.72,186.71,216.49,186.32,213.86,185.29Z"/><path class="cls-9" d="M236.47,206.82c1.63-4.95,5.83-8.56,10-11.71a171.16,171.16,0,0,1,22.23-14.29l.47,3.66a6.05,6.05,0,0,1,2.8-4.76,17.46,17.46,0,0,1,5.29-2.19c4.89-1.44,9.95-2.89,15-2.29a22.75,22.75,0,0,1-4.77,4.93l-32.26,27.11-8.06,6.78c-1.49,1.25-5.79,6.28-7.69,6.32C235.38,220.46,235.66,209.28,236.47,206.82Z"/><path class="cls-10" d="M188.84,195.73c2.82-2,6.25-2.93,7-6.9a12,12,0,0,0-1.55-7.74c-5.49-10.48-18.78-15.38-23.45-26.26a10.85,10.85,0,0,1-2.27,5.58c-1-2.43.83-5.52-.85-7.79l-.79.25c-.53.17-4.69-3.23-5.44-3.65a39.4,39.4,0,0,0-6.3-2.89c-1.19-.43-4.53-2.18-4.88-.22-.32,1.77,3.9,2.52,5,3a8.77,8.77,0,0,1,2.82,2c4,4.61,6.34,11.65,8.89,17.16a34.61,34.61,0,0,0,2.85,5.3,30.35,30.35,0,0,0,6.37,6.18c2.59,2,4.2,4.42,6.14,7.11,2.09,2.89,3.72,6.48,6.33,8.94Z"/><path class="cls-11" d="M253.87,185.09c6.76-5.09,11-14,19.2-16.09,2.5-.64,5.33-.63,7.29-2.3a23.64,23.64,0,0,1-15.29-4l-2.74,3.08a2.88,2.88,0,0,1,.78-2.92c-5.88.05-11.83.12-17.52,1.6s-11.17,4.58-14.37,9.51c-1.93,3-2.66,7.51.17,9.64,1.27,1,3,1.17,4.29,2a3.29,3.29,0,0,1,1.28,3.79C242.27,191.16,249.63,188.29,253.87,185.09Z"/><path class="cls-12" d="M154.89,205.8l23.74,13a29.38,29.38,0,0,1,4.58,2.88A33.65,33.65,0,0,1,188,227c1,1.22,3.53,5.84,4.94,6.2,4.28,1.09.49-5.71-.55-6.88-6-6.84-14.59-12.08-22.86-15.74C165,208.58,159.09,208.09,154.89,205.8Z"/><path class="cls-13" d="M208.31,273.47c0-2.83.05-5.67.08-8.5.06-5.63.09-11.26,0-16.88-.14-11.3-.06-22.6-.45-33.9-.11-3.18-.19-6.36-.37-9.53-.06-1.2-.13-2.39-.21-3.58a3.6,3.6,0,0,0,.08-.56c0-.74,0-1.5,0-2.25,0-1.35,0-2.71-.07-4.07q-.07-4.14-.16-8.28-.16-8.22-.46-16.43c-.42-10.94-1-21.87-2-32.77s-2.41-21.8-4.38-32.58c-.91-5-2-10.12-4.26-14.73a44.41,44.41,0,0,0-7.09-9.9c-2.79-3.08-5.9-5.86-8.83-8.82a47.5,47.5,0,0,1-7.54-9.63c-.5-.87-1-1.77-1.36-2.68-.1-.23-.49-.07-.4.17,2.94,7.61,9,13.42,14.48,19.24A62.43,62.43,0,0,1,193,87.23a40.05,40.05,0,0,1,5,13.54A305.93,305.93,0,0,1,202.58,133c1,10.89,1.66,21.82,2.06,32.75s.6,21.81.78,32.71c0,.66,0,1.32,0,2a8,8,0,0,0,.47,2,.58.58,0,0,0,.34.36v.91c0,2.83,0,5.66,0,8.5q0,8.44.1,16.88c.09,11.3-.06,22.6-.23,33.9,0,3.17,0,6.36-.17,9.53-.07,1.55-.21,3.1-.28,4.64,0,.77-.08,1.55-.11,2.32a16.52,16.52,0,0,0,.07,1.86,1,1,0,0,0,.12.48,1.23,1.23,0,0,0,.63.4,1.73,1.73,0,0,0,.89.17.43.43,0,0,0,.22-.09.45.45,0,0,0,.13-.17,4.66,4.66,0,0,0,.72-2.13c.05-.73,0-1.47,0-2.19C208.4,276.31,208.31,274.89,208.31,273.47Z"/><path class="cls-14" d="M245.83,123.61c-2.24,4.72-4.34,9.5-6.36,14.32s-4.2,9.75-6.19,14.68-3.7,9.92-5.37,14.95c-.83,2.49-1.75,4.94-2.52,7.46s-1.55,5.11-2.27,7.68q-4.29,15.28-7.43,30.85a303.74,303.74,0,0,0-5.05,32c-1,11.05-.72,22.21-.76,33.3,0,.68,0,1.36,0,2a6.79,6.79,0,0,0,.6,2.11.85.85,0,0,0,1.63,0,7.1,7.1,0,0,0,.6-1.95c.06-.72,0-1.46,0-2.19v-4.06l0-8.29c0-5.54,0-11.07.39-16.59.64-10.74,2.51-21.42,4.54-32q3-15.44,7.08-30.63c2.74-10.12,5.71-20.16,9-30.11,1.65-5,3.24-9.95,5-14.87s3.83-9.84,5.85-14.73c.52-1.25,1.05-2.51,1.58-3.76C246.32,123.58,246,123.35,245.83,123.61Z"/><path class="cls-15" d="M283.24,181.93c-1.81,1.24-3.52,2.64-5.25,4s-3.56,2.8-5.33,4.21c-3.52,2.79-7,5.68-10.39,8.55s-7,5.72-10.5,8.64-6.8,5.84-10.17,8.8c-6,5.32-12.27,10.53-17.17,17a40.4,40.4,0,0,0-5.79,10.23,52.85,52.85,0,0,0-2.77,12.24c-.74,6.11-1.32,12.24-1.79,18.38-.23-4.22-.57-8.43-1-12.63q-.91-9.92-2.37-19.77a345.74,345.74,0,0,0-8.16-38.84c-3.35-12.58-7.15-25.23-12.86-37a109,109,0,0,0-9.24-15.52,140.58,140.58,0,0,0-11.07-13.52,293.39,293.39,0,0,0-25.92-24.56q-1.68-1.44-3.38-2.85c-.17-.14-.41.08-.24.24,8.5,8.17,17.31,16.06,25.33,24.73A140.07,140.07,0,0,1,186,162.43c6.13,11.35,10.07,23.77,13.55,36.16a345.94,345.94,0,0,1,8.32,38.48,334.71,334.71,0,0,1,4,39.2c.07,1.64.13,3.29.21,4.94a1.18,1.18,0,0,0,1.49,1.09c-.09,0,0,.56,0,.62,0,.32-.05.65,0,1a.66.66,0,0,0,.27.49,1,1,0,0,0,.62.09l.85-.08a.93.93,0,0,0,.33-.07.79.79,0,0,0,.3-.43,5,5,0,0,0,.32-1.37c.11-1.1.17-2.21.25-3.31.16-2.26.33-4.52.49-6.77.32-4.41.51-8.83.78-13.24a58,58,0,0,1,2-12.22,37.09,37.09,0,0,1,4.94-10.59c4.36-6.47,10.33-11.76,16.09-16.95,3.29-3,6.62-5.92,9.94-8.86,1.7-1.5,3.37-3,5.06-4.52s3.24-3,4.92-4.46q10.14-8.72,20.42-17.27c.83-.7,1.65-1.4,2.45-2.15C283.55,182.06,283.39,181.84,283.24,181.93Z"/><path class="cls-16" d="M210.24,280.39c-.2-1-.38-2-.59-3-.35-1.73-.74-3.46-1.14-5.18q-1.22-5.24-2.71-10.39c-1-3.43-2-6.87-3.3-10.21s-2.75-6.73-4.18-10.07a90.18,90.18,0,0,0-4-8.38,2.62,2.62,0,0,1-1.15.08c.92,2.62,2,5.19,2.94,7.78,1.26,3.35,2.31,6.75,3.38,10.16,2.11,6.75,4.19,13.5,5.83,20.4.47,2,.9,3.91,1.31,5.88a34.82,34.82,0,0,0,1.42,5.69,3.42,3.42,0,0,0,.62,1.12,1.49,1.49,0,0,0,1.12.54c.31,0,.6-.14.91-.15.1,0,.22,0,.29-.07a.31.31,0,0,0,.06-.23,11.33,11.33,0,0,0-.51-2.5C210.46,281.38,210.35,280.89,210.24,280.39Z"/><path class="cls-17" d="M210.86,267.69c-.53-5-1.15-10-1.92-15a174.65,174.65,0,0,0-6.35-27.18c-1.36-4.21-3-8.3-4.73-12.38s-3.52-8.07-5.61-11.93A172.17,172.17,0,0,0,178.2,179c-2.74-3.64-5.78-7-8.56-10.63s-4.79-7.83-7.37-11.62a16.33,16.33,0,0,0-2-2.42s0,0,0,0c1.19,1.91,2.38,3.81,3.44,5.8s2.09,4,3.27,5.93c2.39,3.89,5.47,7.31,8.2,11a154.19,154.19,0,0,1,14,22.05,171.4,171.4,0,0,1,10.22,24.15c1.37,4.15,2.67,8.3,3.76,12.54,1.18,4.57,2.14,9.2,2.94,13.85,1.69,9.81,2.66,19.73,3.56,29.65.11,1.24.24,2.48.41,3.72s2.24,1,2.18-.3C212,277.67,211.39,272.66,210.86,267.69Z"/><path class="cls-18" d="M265,80.54c-1.67,2.7-3.45,5.33-5.28,7.93q-1.35,1.92-2.79,3.78a33.23,33.23,0,0,0-2.83,3.86.21.21,0,0,0,.32.25,20,20,0,0,0,3-3.48c1-1.3,1.93-2.61,2.84-3.95a83.19,83.19,0,0,0,4.94-8.27A.12.12,0,0,0,265,80.54Z"/><path class="cls-19" d="M208.69,238.33c.52-12.57,1.41-25.11,2.55-37.63.31-3.49.58-7,.85-10.48s.77-7.16.7-10.72a.07.07,0,0,0-.14,0,91.37,91.37,0,0,0-1.37,9.34c-.4,3.14-.82,6.29-1.14,9.45q-.94,9.53-1.72,19c-1,12.62-1.64,25.27-1.7,37.93,0,3.51,0,7,.1,10.55a42.26,42.26,0,0,0,.43,4.9c.1.63.24,1.25.4,1.87a4.68,4.68,0,0,0,0,1.54c.07.93.21,1.86.28,2.79a25.15,25.15,0,0,0,1.1,6,1.15,1.15,0,0,0,2.21-.61c-.25-1-.51-2-.7-3s-.25-2.07-.42-3.1-.56-1.88-.8-2.82c0-.18,0-.36-.08-.55q-.21-1.1-.39-2.19a37.4,37.4,0,0,1-.42-4.36c-.13-3.07-.12-6.15-.12-9.23C208.29,250.8,208.44,244.56,208.69,238.33Z"/><path class="cls-18" d="M247.61,107.6a81.52,81.52,0,0,1-7,10.45c-2.63,3.32-5.42,6.5-8.23,9.67-5.43,6.15-11,12.32-14.78,19.66a44.42,44.42,0,0,0-2.65,6.24,21.33,21.33,0,0,0-.84,3.35,14,14,0,0,0-.27,3.36.3.3,0,0,0,.59.08c.36-.94.54-1.94.83-2.9s.58-1.93.9-2.89a47.9,47.9,0,0,1,2.28-5.62,68.94,68.94,0,0,1,6.4-10.31c4.91-6.69,10.82-12.56,15.89-19.13a53.24,53.24,0,0,0,7.18-11.84C248,107.56,247.7,107.45,247.61,107.6Z"/><path class="cls-20" d="M269,168.58c-4.62-1.3-9.42-2.56-14.25-1.82a18.54,18.54,0,0,0-11,6.11,60.34,60.34,0,0,0-7.41,10.9,116.75,116.75,0,0,0-6.13,12.51c-1.8,4.25-3.38,8.6-4.76,13s-2.69,8.9-3.75,13.41c-2.14,9.09-3.69,18.3-5,27.54-1.45,10.16-3.21,20.37-2.65,30.68,0,.53.12,1,.13,1.54a1.61,1.61,0,0,0,.45,1.35.7.7,0,0,0,.37.11c.36,0,1.34.15,1.6-.14a2,2,0,0,0,.17-.7c0-.34,0-.67,0-1a9,9,0,0,0,0-1.27c-.08-1.32-.12-2.63-.13-4,0-2.55.09-5.1.27-7.64.35-5,.94-10,1.53-15,1.06-9.05,2.56-18.08,4.44-27a177.16,177.16,0,0,1,7.37-26.1,106.68,106.68,0,0,1,12.22-23.8c2.32-3.28,5.17-6.5,8.8-8.34,4.37-2.2,9.43-1.58,14.06-.67,1.17.23,2.34.49,3.51.76A.25.25,0,0,0,269,168.58Z"/><path class="cls-6" d="M212,208.08c.41-3.73,1.1-7.26,1.58-10s.5-5.7,1.58-8.23a7.35,7.35,0,0,0,.66-1.8c0-.29,0-.59.09-.88a10.63,10.63,0,0,1,.59-1.6c1.63-4.58,2.19-10.23,3.16-15a4.57,4.57,0,0,1,.67-1.87,1.57,1.57,0,0,1,1.74-.65,2.37,2.37,0,0,1,1,1,30.32,30.32,0,0,1,3.8,9.68c.71,3.3,1.47,6.59,2.21,9.89a75.43,75.43,0,0,1,1.24,9.17c.5,5.51-.69,10.5-1,15.94a12.81,12.81,0,0,1-.34,1.61c-.33,1.74,0,3.46-.35,5.22a18.58,18.58,0,0,1-2.42,6.43c-2.42,3.78-6,3.44-9.37.88C211.49,223.75,211.17,215.54,212,208.08Z"/><path class="cls-21" d="M223.94,199.5c-.19-3.09-.4-6.19-.72-9.28,0-.1,0-.19,0-.29.08-1.33.21-2.65.21-4a32.16,32.16,0,0,0-.63-7.9.19.19,0,0,0-.37,0,37.24,37.24,0,0,0-.23,7.9c0,1.34.2,2.66.3,4,.05.69.09,1.38.13,2.07,0,.33,0,.68,0,1-.09,1.74-.18,3.47-.3,5.2-.21,3.16-.55,6.31-.67,9.48q-.37,9.53-.84,19.07c-.63,12.62-1.35,25.24-1.61,37.88-.07,3.54-.11,7.08-.08,10.62,0,1.79,0,3.58.07,5.37,0,.86,0,1.71.08,2.56,0,.54.06,1.09.13,1.62a.51.51,0,0,0,.06.22.48.48,0,0,0,.27.17,3.6,3.6,0,0,0,1.69.16.41.41,0,0,0,.22-.07.5.5,0,0,0,.17-.23c.57-1.22.31-2.62.27-3.91,0-1.54-.08-3.08-.1-4.61,0-3.16,0-6.31,0-9.47.07-6.36.28-12.71.56-19.07.56-12.62,1.52-25.24,1.68-37.88C224.31,206.57,224.16,203.05,223.94,199.5Z"/><path class="cls-21" d="M220.74,225.85a2.26,2.26,0,0,0-.86-.51l-1-.47c-.65-.32-1.3-.66-1.92-1a13.44,13.44,0,0,1-3.28-2.73c-.11-.13-.29,0-.23.18a7.43,7.43,0,0,0,3.12,3.11,14.72,14.72,0,0,0,2,1c.35.15.71.29,1.07.42a2.19,2.19,0,0,0,1,.23C220.78,226,220.78,225.9,220.74,225.85Z"/><path class="cls-21" d="M227,223.7c-.22.21-.47.38-.69.59a4.88,4.88,0,0,1-.73.56,5.21,5.21,0,0,1-.8.44,3.69,3.69,0,0,1-.42.17.88.88,0,0,0-.39.18.09.09,0,0,0,0,.14.73.73,0,0,0,.44,0l.49-.14a3.77,3.77,0,0,0,.89-.41,5.58,5.58,0,0,0,.78-.57,2.58,2.58,0,0,0,.57-.82A.11.11,0,0,0,227,223.7Z"/><path class="cls-21" d="M220.6,221.79c-.22-.31-.7-.39-1-.5L218,220.8a13.82,13.82,0,0,1-2.74-1.08,6.63,6.63,0,0,1-2.84-4.05.1.1,0,0,0-.2,0,4.81,4.81,0,0,0,.68,2.43,6.28,6.28,0,0,0,1.77,1.86,9.15,9.15,0,0,0,2.74,1.14l1.6.46c.43.13,1.08.45,1.52.29C220.6,221.87,220.63,221.82,220.6,221.79Z"/><path class="cls-21" d="M220.91,217.9c-1-.4-2-.52-3-.93a9.52,9.52,0,0,1-2.76-1.73,8.63,8.63,0,0,1-2.49-3.91,8.73,8.73,0,0,0-.34-1.36.1.1,0,0,0-.18,0,3.18,3.18,0,0,0,.2,1.49,7.1,7.1,0,0,0,.57,1.47,8.92,8.92,0,0,0,2,2.62,9.92,9.92,0,0,0,2.84,1.8,6.12,6.12,0,0,0,3.21.69C221,218.05,221,217.93,220.91,217.9Z"/><path class="cls-21" d="M221.06,214c-.22-.26-.66-.34-1-.48l-1.3-.53a17.39,17.39,0,0,1-2.47-1.26,10.65,10.65,0,0,1-3.32-3.52.1.1,0,0,0-.18.07,6.75,6.75,0,0,0,3.09,3.76,15.85,15.85,0,0,0,2.52,1.31c.44.18.89.35,1.34.5a3,3,0,0,0,1.25.31A.1.1,0,0,0,221.06,214Z"/><path class="cls-21" d="M220.94,210.3a23.44,23.44,0,0,1-5.36-3.66,9.91,9.91,0,0,1-1.79-2.38,14.24,14.24,0,0,1-.92-2.86.1.1,0,0,0-.18,0,4.83,4.83,0,0,0,.56,2.76,9.54,9.54,0,0,0,1.79,2.61,19.37,19.37,0,0,0,5.76,3.76A.13.13,0,0,0,220.94,210.3Z"/><path class="cls-21" d="M220.4,205.68c-.61-.5-1.27-.92-1.89-1.4a15.9,15.9,0,0,1-1.7-1.58,13.3,13.3,0,0,1-1.47-1.87c-.44-.66-.75-1.4-1.21-2,0-.05-.1,0-.09,0a6.33,6.33,0,0,0,1,2.18,14.43,14.43,0,0,0,1.44,2,13.86,13.86,0,0,0,1.82,1.69,6.52,6.52,0,0,0,2,1.16C220.39,205.83,220.46,205.73,220.4,205.68Z"/><path class="cls-21" d="M221.33,203.09a27.83,27.83,0,0,0-2.25-1.81,18.36,18.36,0,0,1-2.2-2,14,14,0,0,1-1.69-2.3,9,9,0,0,1-.65-1.32c-.17-.41-.26-.87-.45-1.27-.06-.13-.27-.06-.27.08a4.41,4.41,0,0,0,.36,1.37,10.17,10.17,0,0,0,.57,1.31,12,12,0,0,0,1.66,2.39,13.52,13.52,0,0,0,4.82,3.74C221.33,203.3,221.4,203.16,221.33,203.09Z"/><path class="cls-21" d="M221.58,199.88a23.25,23.25,0,0,0-1.79-1.79A16.2,16.2,0,0,1,218,196a12.26,12.26,0,0,1-1.95-4.72c0-.16-.27-.11-.27,0a8.14,8.14,0,0,0,1.75,4.87,16.34,16.34,0,0,0,1.74,2.06,10.63,10.63,0,0,0,2.16,1.86C221.5,200.12,221.67,200,221.58,199.88Z"/><path class="cls-21" d="M221.47,194.86a26.22,26.22,0,0,1-2.83-3.39,15.81,15.81,0,0,1-1-1.86c-.31-.67-.52-1.39-.81-2.06,0-.07-.15,0-.14,0a9.5,9.5,0,0,0,1.61,4.16,9.37,9.37,0,0,0,3.06,3.26C221.45,195.06,221.53,194.94,221.47,194.86Z"/><path class="cls-21" d="M221.85,191.59a15.24,15.24,0,0,1-2.54-3.48,13.85,13.85,0,0,1-1.24-4.11c0-.13-.23-.1-.23,0a10,10,0,0,0,1.09,4.3,9.54,9.54,0,0,0,2.76,3.47C221.81,191.89,221.94,191.7,221.85,191.59Z"/><path class="cls-21" d="M220.91,185.36a18.78,18.78,0,0,1-1.27-2.16,9.48,9.48,0,0,1-.94-5c0-.12-.16-.13-.19,0a7.08,7.08,0,0,0,.6,5,14.66,14.66,0,0,0,1.32,2.31,7.36,7.36,0,0,0,1.59,1.91s.1,0,.08-.06A9.28,9.28,0,0,0,220.91,185.36Z"/><path class="cls-21" d="M221.62,181.71a15.93,15.93,0,0,1-1.5-4.07,25.84,25.84,0,0,1-.47-4.31c0-.09-.16-.13-.18,0a13.8,13.8,0,0,0,1.9,8.54C221.46,182,221.71,181.87,221.62,181.71Z"/><path class="cls-21" d="M221.53,173c0-.59-.05-1.19,0-1.79a13.39,13.39,0,0,0,.06-1.79.13.13,0,0,0-.26,0,6.25,6.25,0,0,0-.22,1.83q0,.93,0,1.86a16.73,16.73,0,0,0,.7,3.64.1.1,0,0,0,.19,0A25.1,25.1,0,0,1,221.53,173Z"/><path class="cls-21" d="M224.26,175.66c0-.56-.07-1.13-.14-1.69s-.14-1.07-.25-1.6a9.87,9.87,0,0,0-.44-1.7c0-.09-.21-.09-.19,0,.06.55.2,1.09.3,1.63s.17,1.14.23,1.7.1,1.09.12,1.63a10.23,10.23,0,0,0,.13,1.66.07.07,0,0,0,.14,0A5.13,5.13,0,0,0,224.26,175.66Z"/><path class="cls-21" d="M226,179.66a23.28,23.28,0,0,1-.9,3,15.07,15.07,0,0,1-.65,1.48,5.11,5.11,0,0,0-.63,1.34c0,.08.07.18.15.12a3.08,3.08,0,0,0,.79-1.28,14.82,14.82,0,0,0,.61-1.48,14.09,14.09,0,0,0,.75-3.14C226.08,179.61,226,179.6,226,179.66Z"/><path class="cls-21" d="M227,181.11c-.16.67-.21,1.38-.38,2.06a15,15,0,0,1-.61,1.94,17.47,17.47,0,0,1-.9,1.91,12.37,12.37,0,0,0-1,1.73.08.08,0,0,0,.12.09,4.63,4.63,0,0,0,1.15-1.57,13.33,13.33,0,0,0,.91-2,16,16,0,0,0,.62-2.07,8.45,8.45,0,0,0,.28-2.12A.11.11,0,0,0,227,181.11Z"/><path class="cls-21" d="M228,187a15.61,15.61,0,0,1-1.69,2.57,9,9,0,0,1-1.07,1.07c-.19.17-.4.33-.61.49a4.47,4.47,0,0,0-.6.45.11.11,0,0,0,.11.18,2.42,2.42,0,0,0,.7-.35,7,7,0,0,0,.62-.45,8.93,8.93,0,0,0,1.17-1.13,6.45,6.45,0,0,0,1.5-2.78A.07.07,0,0,0,228,187Z"/><path class="cls-21" d="M228.76,189.3c-.63.93-1.13,1.92-1.8,2.82a16.31,16.31,0,0,1-2.29,2.48.13.13,0,0,0,.16.21,12.36,12.36,0,0,0,2.47-2.43,8,8,0,0,0,1.63-3A.09.09,0,0,0,228.76,189.3Z"/><path class="cls-21" d="M228.05,195.75a15.68,15.68,0,0,1-1.45,1.7,7.24,7.24,0,0,1-.84.72c-.29.22-.59.42-.87.65-.06.05,0,.15.08.13a4.8,4.8,0,0,0,1.94-1.23,5,5,0,0,0,1.31-1.89C228.27,195.72,228.11,195.67,228.05,195.75Z"/><path class="cls-21" d="M229.37,196.14c-.34.49-.58,1-.88,1.53a10.79,10.79,0,0,1-1,1.43,11.73,11.73,0,0,1-1.18,1.26c-.43.4-.9.75-1.35,1.13-.09.07,0,.19.12.15a8.08,8.08,0,0,0,2.83-2.3,6.55,6.55,0,0,0,1.65-3.14C229.58,196.08,229.42,196.07,229.37,196.14Z"/><path class="cls-21" d="M229.6,199.54c-.79.78-1.45,1.71-2.19,2.54-.36.41-.73.82-1.12,1.21s-.82.8-1.19,1.25c-.06.07,0,.19.1.13a15.07,15.07,0,0,0,2.47-2.32,12.62,12.62,0,0,0,2.09-2.69A.1.1,0,0,0,229.6,199.54Z"/><path class="cls-21" d="M229.25,203.8c-.29.44-.52.91-.78,1.36a9.13,9.13,0,0,1-.92,1.29,13.59,13.59,0,0,1-2.41,2.07c-.06,0,0,.16.06.13a6.82,6.82,0,0,0,2.63-1.91,5.82,5.82,0,0,0,1.61-2.86A.11.11,0,0,0,229.25,203.8Z"/><path class="cls-21" d="M229.34,207.49c-.65.93-1.14,2-1.85,2.87a14.54,14.54,0,0,1-2.38,2.39c-.12.09,0,.3.17.22a11.39,11.39,0,0,0,2.58-2.37,7.17,7.17,0,0,0,1.64-3A.09.09,0,0,0,229.34,207.49Z"/><path class="cls-21" d="M228,213.63a1.09,1.09,0,0,0-.19.18c-.07.07-.15.13-.21.2l-.32.43c-.24.3-.49.6-.75.88s-.53.54-.81.79l-.44.36a2.66,2.66,0,0,0-.39.43c-.06.07,0,.18.08.15a2.44,2.44,0,0,0,.53-.21,5.45,5.45,0,0,0,.47-.37,9.71,9.71,0,0,0,.89-.81,8.24,8.24,0,0,0,.77-.91,3.82,3.82,0,0,0,.33-.49,1.48,1.48,0,0,0,.1-.27,1,1,0,0,0,.09-.27A.1.1,0,0,0,228,213.63Z"/><path class="cls-21" d="M227.28,218c-.16.26-.35.5-.52.75a4.75,4.75,0,0,1-.57.69,5.68,5.68,0,0,1-1.44,1.1c-.17.09,0,.33.15.26a5.11,5.11,0,0,0,1.6-1.07,7,7,0,0,0,.6-.75,3.71,3.71,0,0,0,.39-.89A.12.12,0,0,0,227.28,218Z"/><path class="cls-7" d="M162.24,116.92c-.06-.14-.27,0-.24.11.15.82.34,1.63.41,2.47a12.6,12.6,0,0,1-.08,2.53,14,14,0,0,1-1.67,4.73c0,.1.08.22.16.13a10.09,10.09,0,0,0,1.93-4.86A9.57,9.57,0,0,0,162.24,116.92Z"/><path class="cls-7" d="M165.91,121.4a.12.12,0,0,0-.24,0,13.93,13.93,0,0,1-.43,4,12.62,12.62,0,0,1-1.73,3.65.05.05,0,0,0,.08.07A8.35,8.35,0,0,0,165.91,121.4Z"/><path class="cls-7" d="M169.55,120.87a.18.18,0,0,0-.36,0,56.94,56.94,0,0,1-.16,6.91,27.47,27.47,0,0,1-1.86,6.54s.06.07.08,0a16,16,0,0,0,2.66-6.56A13,13,0,0,0,169.55,120.87Z"/><path class="cls-7" d="M173.88,125.9c0-.15-.24-.1-.25,0a29.44,29.44,0,0,1-.68,5.45,21.07,21.07,0,0,1-.83,2.55c-.18.43-.37.84-.58,1.25l-.33.65c-.05.1-.11.21-.16.32s-.25.23-.33.1,0-.06-.05,0c-.33.25.38.3.58.14a4.91,4.91,0,0,0,.91-1.43c.28-.55.54-1.11.77-1.69A13.46,13.46,0,0,0,173.88,125.9Z"/><path class="cls-7" d="M177.17,126.16a.09.09,0,0,0-.17,0,17.2,17.2,0,0,1-.22,7.42,15,15,0,0,1-1.33,3.38c-.59,1.09-1.37,2-2,3.07a0,0,0,0,0,.06,0c1.94-1.43,3.14-4.1,3.75-6.37A13.37,13.37,0,0,0,177.17,126.16Z"/><path class="cls-7" d="M181.74,131.7a.16.16,0,0,0-.31,0,24.44,24.44,0,0,1-1,7.16,19,19,0,0,1-1.34,3.31c-.27.53-.57,1-.87,1.56a3.92,3.92,0,0,0-.63,1.36.06.06,0,0,0,.07.05c1-.31,1.71-1.72,2.18-2.53a16.59,16.59,0,0,0,1.51-3.49A14.22,14.22,0,0,0,181.74,131.7Z"/><path class="cls-7" d="M185.37,135.67c0-.16-.27-.11-.27,0a36.09,36.09,0,0,1-.88,6.86,20.29,20.29,0,0,1-1.13,3.29c-.48,1-1.11,2-1.59,3.07,0,.09.06.19.14.11a10.58,10.58,0,0,0,2-2.89,20.54,20.54,0,0,0,1.35-3.38,19,19,0,0,0,.67-3.5A11.17,11.17,0,0,0,185.37,135.67Z"/><path class="cls-7" d="M189.66,137.3a.18.18,0,0,0-.36,0,41.86,41.86,0,0,1-1.76,8.87,31.69,31.69,0,0,1-1.67,4.14c-.58,1.21-1.18,2.82-2.57,3.27a.14.14,0,0,0,0,.28c1.23-.06,2.08-1.16,2.68-2.13a25,25,0,0,0,2.17-4.55A23.28,23.28,0,0,0,189.66,137.3Z"/><path class="cls-7" d="M188.27,148.36a18.38,18.38,0,0,1-1.1,3.49,26.59,26.59,0,0,1-1.71,3.15s0,.07,0,0a11.44,11.44,0,0,0,2.93-6.66C188.45,148.29,188.29,148.27,188.27,148.36Z"/><path class="cls-7" d="M191.65,148.08a24.81,24.81,0,0,1-1.77,5.32,17.64,17.64,0,0,1-1.33,2.36,24.08,24.08,0,0,0-1.65,2.29.05.05,0,0,0,.07.07,6.27,6.27,0,0,0,2-1.9,14.38,14.38,0,0,0,1.6-2.48,12.08,12.08,0,0,0,1.33-5.62C191.94,148,191.68,147.91,191.65,148.08Z"/><path class="cls-7" d="M194.11,152a24,24,0,0,1-.73,2.64,20.56,20.56,0,0,1-1.18,2.62,15.18,15.18,0,0,1-1.56,2.32,24,24,0,0,0-1.71,2.09c0,.05,0,.13.08.11a4,4,0,0,0,1.12-.65,10,10,0,0,0,1.08-1.08,15.27,15.27,0,0,0,1.67-2.39A12,12,0,0,0,194,155a10.69,10.69,0,0,0,.43-2.92C194.41,151.9,194.15,151.85,194.11,152Z"/><path class="cls-7" d="M158.57,118a.09.09,0,0,0-.18,0,9.58,9.58,0,0,1-.2,2.72,13.84,13.84,0,0,1-.92,2.6s0,.08.06.05A6.37,6.37,0,0,0,158.57,118Z"/><path class="cls-7" d="M154.76,118.6a20.64,20.64,0,0,0-.12-2.22,17.6,17.6,0,0,0-1-4.22.11.11,0,0,0-.21.06,42,42,0,0,1,.78,4.32c.08.68.14,1.37.17,2.06a11.87,11.87,0,0,0,.09,2.07c0,.06.09,0,.11,0A6.52,6.52,0,0,0,154.76,118.6Z"/><path class="cls-7" d="M149.64,110.83a.1.1,0,0,0-.17.1,14.21,14.21,0,0,1,1.65,5.77,0,0,0,0,0,0,0A8.25,8.25,0,0,0,149.64,110.83Z"/><path class="cls-7" d="M147.43,111.54c-.14-.26-.29-.52-.46-.78a5.45,5.45,0,0,0-.57-.7c-.05-.06-.16,0-.11.09a16.67,16.67,0,0,1,1.68,3.11.06.06,0,0,0,.12,0A8.62,8.62,0,0,0,147.43,111.54Z"/><path class="cls-7" d="M181.77,155.24a9.12,9.12,0,0,1-3.33.79,8.26,8.26,0,0,1-3.43-.73c-.09,0-.17.08-.08.13a6.22,6.22,0,0,0,3.46,1,5.83,5.83,0,0,0,3.47-1C182,155.38,181.9,155.19,181.77,155.24Z"/><path class="cls-7" d="M177.54,151.26a20.94,20.94,0,0,1-2.5.13,13.55,13.55,0,0,1-2.53-.37s-.09.06,0,.09a7.11,7.11,0,0,0,2.53.65,5.58,5.58,0,0,0,2.59-.33C177.67,151.4,177.63,151.26,177.54,151.26Z"/><path class="cls-7" d="M175.94,148.27c-.48-.05-.94-.14-1.42-.16s-1-.06-1.48-.12a23.4,23.4,0,0,1-2.87-.54c-.12,0-.16.14,0,.19a13,13,0,0,0,2.92.86c.49.08,1,.13,1.48.17a5.91,5.91,0,0,0,1.45-.15C176.13,148.5,176.07,148.29,175.94,148.27Z"/><path class="cls-7" d="M170.9,142.5a6.67,6.67,0,0,1-6.22-.58s-.08,0-.05.06a5.51,5.51,0,0,0,6.35.69A.09.09,0,0,0,170.9,142.5Z"/><path class="cls-7" d="M165.3,134.56a4.77,4.77,0,0,1-2.32,1.58,3.85,3.85,0,0,1-2.87-.2s-.1.05-.05.08a3.37,3.37,0,0,0,1.38.74,3.67,3.67,0,0,0,1.68,0,3.16,3.16,0,0,0,2.45-2.06C165.6,134.57,165.41,134.44,165.3,134.56Z"/><path class="cls-7" d="M161.69,131.11c-.52,0-1,.21-1.54.28a7.41,7.41,0,0,1-1.63,0,6.82,6.82,0,0,1-3.12-1.08s-.1,0-.06.08a6.12,6.12,0,0,0,4.84,1.48,3.18,3.18,0,0,0,1.61-.56A.14.14,0,0,0,161.69,131.11Z"/><path class="cls-7" d="M155.6,126c-.8,0-1.61,0-2.41,0a12.88,12.88,0,0,1-2.37-.53s0,0,0,0a5.47,5.47,0,0,0,2.33.94,4.59,4.59,0,0,0,2.49-.16A.13.13,0,0,0,155.6,126Z"/><path class="cls-7" d="M153.23,122c-.91-.1-1.82-.19-2.71-.36a13.6,13.6,0,0,1-2.57-.78c-.07,0-.11.08,0,.12a7.12,7.12,0,0,0,5.36,1.23C153.38,122.22,153.34,122,153.23,122Z"/><path class="cls-7" d="M168.6,139.17c-.79.07-1.56.23-2.35.29a8.6,8.6,0,0,1-2.43-.14c-.12,0-.22.15-.09.21a6.38,6.38,0,0,0,2.48.53,4.2,4.2,0,0,0,2.44-.69C168.73,139.31,168.72,139.16,168.6,139.17Z"/><path class="cls-7" d="M184.42,161.47c-2-.79-3.91-1.64-5.8-2.59-.06,0-.1.05-.05.09a23,23,0,0,0,2.83,1.58,24.14,24.14,0,0,0,3,1.12A.1.1,0,0,0,184.42,161.47Z"/><path class="cls-22" d="M195.12,73.32c-.06-.12-.22,0-.2.08a20.07,20.07,0,0,1,.48,2.43,11.06,11.06,0,0,1,0,2.3,11.71,11.71,0,0,1-1.63,4.58s0,.09.06.05a9.15,9.15,0,0,0,1.91-4.58A8.59,8.59,0,0,0,195.12,73.32Z"/><path class="cls-22" d="M207.93,89.47c0-.17-.3-.12-.3,0a15,15,0,0,1-1.71,6.78,12.46,12.46,0,0,1-2,2.8,14.66,14.66,0,0,1-1.29,1.2,4.15,4.15,0,0,0-1.1,1.11s0,0,0,0c1.12,0,2.14-1.08,2.88-1.83a13.2,13.2,0,0,0,2.23-3A11.16,11.16,0,0,0,207.93,89.47Z"/><path class="cls-22" d="M212.29,102.1a15.81,15.81,0,0,1-3.83,4.77c-.48.39-4.94,3.74-5.25,3.25a0,0,0,0,0-.06,0c-.13.27.12.42.37.44.5.06,1.06-.37,1.48-.6a25.72,25.72,0,0,0,3.27-2c1.94-1.4,3.95-3.27,4.37-5.75C212.67,102.05,212.4,101.89,212.29,102.1Z"/><path class="cls-22" d="M188.51,66.24c0-.11-.18-.07-.18,0-.13,1.55-.12,3.12-.32,4.67s-.65,3-1,4.58c0,.14.18.25.25.11A16.34,16.34,0,0,0,188.47,71,14.91,14.91,0,0,0,188.51,66.24Z"/><path class="cls-22" d="M179.83,64.06a7.85,7.85,0,0,0-.8-3.16c-.06-.11-.22,0-.2.08.19,1.07.46,2.12.55,3.19a14,14,0,0,1-.08,3.17c0,.18.28.22.31,0A11.57,11.57,0,0,0,179.83,64.06Z"/><path class="cls-22" d="M176.21,67.58a4.27,4.27,0,0,1-3.65.37c-.15-.07-.26.19-.11.26a3.74,3.74,0,0,0,2,.36,3.79,3.79,0,0,0,1-.25,2.41,2.41,0,0,0,.86-.59A.1.1,0,0,0,176.21,67.58Z"/><path class="cls-22" d="M183.86,77a9.1,9.1,0,0,1-2.75-.29,9.32,9.32,0,0,1-2.44-1.28c-.1-.06-.18.08-.12.16a2.58,2.58,0,0,0,.5.49c.2.15.41.29.62.42A7,7,0,0,0,181,77a5.19,5.19,0,0,0,2.87.12C184,77.13,184,76.94,183.86,77Z"/><path class="cls-22" d="M188.84,83.85a8.66,8.66,0,0,1-5.23.31c-.15,0-.21.19-.06.24A6.46,6.46,0,0,0,188.9,84C189,84,188.93,83.81,188.84,83.85Z"/><path class="cls-22" d="M196,100.36a7.29,7.29,0,0,1-8.2-2.67c-.08-.12-.27,0-.19.11a6.9,6.9,0,0,0,8.47,2.74C196.21,100.5,196.14,100.32,196,100.36Z"/><path class="cls-22" d="M195.47,93.41a17.29,17.29,0,0,1-2.35.62,8.25,8.25,0,0,1-2.67-.06A8.73,8.73,0,0,1,186,91.62c-.07-.07-.17,0-.11.11a7.67,7.67,0,0,0,4.57,2.61,6.85,6.85,0,0,0,5.11-.78A.08.08,0,0,0,195.47,93.41Z"/><path class="cls-22" d="M192.06,89.1a14.58,14.58,0,0,1-4.71-.32,5.34,5.34,0,0,1-1.75-.92,4.86,4.86,0,0,1-1.21-1.56c0-.08-.16,0-.14.06A4.19,4.19,0,0,0,187,89a10.48,10.48,0,0,0,5.07.26C192.16,89.25,192.17,89.09,192.06,89.1Z"/><path class="cls-22" d="M196.83,107.08a15.22,15.22,0,0,1-2.6-.46,7.68,7.68,0,0,1-2.4-1.31c-.12-.1-.29.06-.18.17a7,7,0,0,0,2.4,1.46,5.22,5.22,0,0,0,2.78.35C196.93,107.26,196.94,107.09,196.83,107.08Z"/><path class="cls-22" d="M198.87,112.67a3.92,3.92,0,0,1-4.86-.56s-.12,0-.09.07a3.48,3.48,0,0,0,5,.59C199,112.72,198.93,112.63,198.87,112.67Z"/><path class="cls-22" d="M198.31,108a5.2,5.2,0,0,1-4.52-1,.12.12,0,0,0-.16.17,4.26,4.26,0,0,0,4.75,1.08A.13.13,0,0,0,198.31,108Z"/><path class="cls-22" d="M195.18,97.29a6.25,6.25,0,0,1-5-.16c-.1,0-.17.09-.08.14a5.37,5.37,0,0,0,5.14.26C195.41,97.47,195.32,97.23,195.18,97.29Z"/><path class="cls-22" d="M186.7,81.47a4.87,4.87,0,0,1-2.24.54,4.06,4.06,0,0,1-2.19-.7c-.08-.06-.18.07-.1.13a3.8,3.8,0,0,0,4.61.14C186.84,81.53,186.76,81.44,186.7,81.47Z"/><path class="cls-22" d="M177.74,69.57a7.08,7.08,0,0,1-2.17.51,4.72,4.72,0,0,1-2.21-.48c-.11,0-.2.11-.1.16a5,5,0,0,0,2.28.55,3.76,3.76,0,0,0,2.24-.62C177.83,69.65,177.81,69.55,177.74,69.57Z"/><path class="cls-22" d="M199.66,116.89a2,2,0,0,1-1.37,0,1.58,1.58,0,0,1-1-.86c-.08-.18-.38,0-.31.13a2,2,0,0,0,1.21,1.12,1.65,1.65,0,0,0,1.57-.3C199.83,117,199.73,116.85,199.66,116.89Z"/><path class="cls-22" d="M212.28,97.93a18.75,18.75,0,0,1-4,6,17.43,17.43,0,0,1-2.79,2.2A14,14,0,0,1,204,107l-.85.4a1.32,1.32,0,0,0-.57.34.06.06,0,0,0,0,.08c.43.14,1.08-.23,1.48-.39a16.6,16.6,0,0,0,1.69-.84,14.37,14.37,0,0,0,3-2.28A13.32,13.32,0,0,0,212.54,98,.13.13,0,0,0,212.28,97.93Z"/><path class="cls-22" d="M208.93,95.29a21,21,0,0,1-2.6,4.12,16.61,16.61,0,0,1-1.63,1.73c-.59.55-1.24,1-1.82,1.6,0,.05,0,.12.07.1a8.29,8.29,0,0,0,2-1.37,18.18,18.18,0,0,0,1.78-1.84,14,14,0,0,0,2.4-4.26C209.16,95.26,209,95.19,208.93,95.29Z"/><path class="cls-22" d="M206.27,85.81A14.63,14.63,0,0,1,205.5,90a19.34,19.34,0,0,1-1.9,3.74.09.09,0,0,0,.14.11,11.4,11.4,0,0,0,2.65-8A.06.06,0,1,0,206.27,85.81Z"/><path class="cls-22" d="M204.31,83.66a35.61,35.61,0,0,1-2,4.83,23.69,23.69,0,0,1-3.13,4.19.08.08,0,0,0,.12.12,14.45,14.45,0,0,0,3.41-4.16,12.42,12.42,0,0,0,1.77-5C204.49,83.58,204.34,83.58,204.31,83.66Z"/><path class="cls-22" d="M201.48,77.07c0-.12-.18-.08-.19,0a43.23,43.23,0,0,1-.73,5.55,25.37,25.37,0,0,1-2,5.25.07.07,0,0,0,.13.07A18.87,18.87,0,0,0,201,82.65,14.62,14.62,0,0,0,201.48,77.07Z"/><path class="cls-22" d="M199.66,75.48c0-.07-.12,0-.12,0a22.87,22.87,0,0,1-.36,4.21,18.77,18.77,0,0,1-.53,2c-.22.65-.49,1.29-.67,2a.1.1,0,0,0,.19.08,10.62,10.62,0,0,0,1.37-4.07A14,14,0,0,0,199.66,75.48Z"/><path class="cls-22" d="M192.83,71.07a10,10,0,0,0-.47-2.44c0-.08-.16-.07-.15,0,.09.81.28,1.6.34,2.42a16.7,16.7,0,0,1,0,2.45,28.34,28.34,0,0,1-1,4.91.07.07,0,0,0,.13.06,11.39,11.39,0,0,0,1.2-4.8A15.29,15.29,0,0,0,192.83,71.07Z"/><path class="cls-22" d="M189.43,70.22a.08.08,0,0,0-.15,0,15.28,15.28,0,0,1-.16,3.24,13.52,13.52,0,0,1-1,3.1c-.05.09.08.17.13.08A8.65,8.65,0,0,0,189.43,70.22Z"/><path class="cls-22" d="M185,64.13c0-.14-.24-.08-.22.06a19,19,0,0,1-.42,8.68c0,.13.16.17.2,0A14.44,14.44,0,0,0,185,64.13Z"/><path class="cls-22" d="M178.06,61.47a5.81,5.81,0,0,0-.36-1.42,5.52,5.52,0,0,0-1.69-2.3c-.09-.07-.22,0-.13.13a6.07,6.07,0,0,1,1.51,2.29,5.88,5.88,0,0,1,.32,1.3c0,.46,0,.92.06,1.38a.11.11,0,0,0,.22,0A3.36,3.36,0,0,0,178.06,61.47Z"/><path class="cls-22" d="M172.3,63.53a11.5,11.5,0,0,1-2.54-1.64,9.54,9.54,0,0,1-1-1.07c-.32-.39-.59-.81-.91-1.19a0,0,0,0,0-.05,0,4,4,0,0,0,.75,1.32,8.85,8.85,0,0,0,1.05,1.15,7.51,7.51,0,0,0,2.67,1.57C172.32,63.73,172.39,63.57,172.3,63.53Z"/><path class="cls-22" d="M173.82,54.91a.09.09,0,0,0-.15.09,5.25,5.25,0,0,1,.38,2.63,6.53,6.53,0,0,1-.88,2.48.11.11,0,0,0,.17.13A4.84,4.84,0,0,0,173.82,54.91Z"/><path class="cls-22" d="M210.61,110.54a14.53,14.53,0,0,1-2.64,3.89c-1.06,1.06-2.7,2.51-4.32,2-.06,0-.09.06,0,.1a2.26,2.26,0,0,0,2.29,0A8.57,8.57,0,0,0,208,115a9.71,9.71,0,0,0,2.8-4.32C210.86,110.51,210.67,110.42,210.61,110.54Z"/><path class="cls-22" d="M213,109.85c-.36.53-.62,1.13-.94,1.69a17.39,17.39,0,0,1-1.05,1.63,33.32,33.32,0,0,1-2.58,3c-.09.1,0,.29.16.2a13.24,13.24,0,0,0,2.67-2.92c.38-.54.74-1.1,1.07-1.68a7.3,7.3,0,0,0,.82-1.85A.08.08,0,0,0,213,109.85Z"/><path class="cls-22" d="M209,117.87a10.49,10.49,0,0,1-3.79,3c-.17.08,0,.31.14.24a9.27,9.27,0,0,0,2.15-1.3,6.85,6.85,0,0,0,1.6-1.91C209.16,117.89,209.06,117.81,209,117.87Z"/><path class="cls-23" d="M230.06,128.94c-.76-1.2-1.68-2.28-2.4-3.51a26.74,26.74,0,0,1-1.89-3.88,27.79,27.79,0,0,1-1.65-8.41.1.1,0,0,0-.19,0,21,21,0,0,0,1.46,8.62,22.2,22.2,0,0,0,1.84,3.8A13.68,13.68,0,0,0,230,129S230.1,129,230.06,128.94Z"/><path class="cls-23" d="M231.34,126.55a29.68,29.68,0,0,1-3.77-8.54c-.93-3.29-1.66-6.63-1.14-10.06a.08.08,0,0,0-.15,0c-1,3.3,0,6.88.91,10.09.84,3,1.91,6.23,4,8.69C231.25,126.79,231.41,126.66,231.34,126.55Z"/><path class="cls-23" d="M231.72,119.67a40.65,40.65,0,0,1-1.78-4.92,33.1,33.1,0,0,1-1.29-10c0-.1-.17-.13-.19,0a24,24,0,0,0,.92,10,41.52,41.52,0,0,0,1.68,4.73,20.35,20.35,0,0,0,2.36,4.65c.09.12.28,0,.24-.14A44.37,44.37,0,0,0,231.72,119.67Z"/><path class="cls-23" d="M237.79,119.18a20.09,20.09,0,0,0-1.53-2c-.5-.7-1-1.42-1.4-2.16a28,28,0,0,1-2.24-4.77,15.39,15.39,0,0,1-1.08-5.55,50.27,50.27,0,0,1,1-6.08.11.11,0,0,0-.21-.06,24.88,24.88,0,0,0-1.29,6.14,15.73,15.73,0,0,0,1.05,5.7,23.94,23.94,0,0,0,2.29,4.92,25.19,25.19,0,0,0,1.52,2.15,8,8,0,0,0,1.78,1.89C237.74,119.38,237.83,119.27,237.79,119.18Z"/><path class="cls-23" d="M241.53,114.67a29.3,29.3,0,0,1-4.05-7.76,26.85,26.85,0,0,1-1.09-8.69c0-.09-.15-.11-.16,0a21,21,0,0,0,.87,8.81,19.81,19.81,0,0,0,4.24,7.8C241.43,114.91,241.61,114.78,241.53,114.67Z"/><path class="cls-23" d="M243,109a20.94,20.94,0,0,1-1-2.33,39.22,39.22,0,0,1-1.46-4.77,14.88,14.88,0,0,1-.28-5.28c.24-1.86.78-3.66,1.12-5.51a.11.11,0,0,0-.22-.06A19.6,19.6,0,0,0,240,101.82a32.38,32.38,0,0,0,1.55,5.11c.28.72.6,1.44.94,2.13a7.25,7.25,0,0,0,1.36,2.12c.09.08.26,0,.21-.12A18.82,18.82,0,0,0,243,109Z"/><path class="cls-23" d="M246,105.6c-.18-.76-.5-1.49-.73-2.24s-.44-1.51-.61-2.28a25.86,25.86,0,0,1-.62-4.72A29.24,29.24,0,0,1,245.34,87c0-.06-.07-.08-.09,0a23.43,23.43,0,0,0-1.65,9.51,26.11,26.11,0,0,0,.56,4.75,13.82,13.82,0,0,0,1.53,4.52A.19.19,0,0,0,246,105.6Z"/><path class="cls-23" d="M249.53,89.54a23.81,23.81,0,0,1,1.05-6.16s-.05-.06-.07,0a19,19,0,0,0-1.31,6.18A15.08,15.08,0,0,0,250,95.8a.11.11,0,0,0,.22-.06c-.15-1.1-.43-2.17-.55-3.28A23.76,23.76,0,0,1,249.53,89.54Z"/><path class="cls-23" d="M254.28,88.57a31,31,0,0,1,.94-4.66.06.06,0,0,0-.12,0,13.15,13.15,0,0,0-1.19,4.53,18.19,18.19,0,0,0-.08,2.45,9.48,9.48,0,0,0,.33,2.37.09.09,0,0,0,.18,0c0-.78-.12-1.57-.13-2.35A19.3,19.3,0,0,1,254.28,88.57Z"/><path class="cls-23" d="M258.83,79.4c.05-.09-.08-.2-.15-.11a7.86,7.86,0,0,0-1.77,4.41,17.07,17.07,0,0,0,.34,5.7.07.07,0,0,0,.14,0,38.26,38.26,0,0,1-.15-5.35A11.26,11.26,0,0,1,258.83,79.4Z"/><path class="cls-23" d="M261.89,77c0-.06-.07-.09-.1,0a16.15,16.15,0,0,0-1.73,9.49.06.06,0,1,0,.12,0,18.28,18.28,0,0,1,.26-4.9A22.74,22.74,0,0,1,261.89,77Z"/><path class="cls-23" d="M266,76.32a9.26,9.26,0,0,0-2.6,5.2c0,.08.14.1.15,0,.28-2,1.49-3.54,2.56-5.13C266.16,76.34,266.05,76.26,266,76.32Z"/><path class="cls-23" d="M265.87,82.57c-.2.14-.41.27-.6.42s-.41.31-.62.46c-.4.31-.79.63-1.21.92-.1.08,0,.24.1.17a12.25,12.25,0,0,0,1.29-.82c.2-.15.39-.31.58-.47a5.8,5.8,0,0,0,.56-.55C266,82.63,266,82.52,265.87,82.57Z"/><path class="cls-23" d="M239.48,114.52a27,27,0,0,1-4.42-13.6.08.08,0,0,0-.16,0,21.56,21.56,0,0,0,4.47,13.69C239.42,114.67,239.53,114.59,239.48,114.52Z"/><path class="cls-23" d="M238.42,100a0,0,0,0,0-.09,0,29.3,29.3,0,0,0,1.48,7.24c0,.13.24.07.2,0A46.74,46.74,0,0,1,238.42,100Z"/><path class="cls-23" d="M242.51,94.86A28.09,28.09,0,0,1,243.73,87s0,0,0,0a23,23,0,0,0-.07,15.78c0,.1.2.06.16,0A27.25,27.25,0,0,1,242.51,94.86Z"/><path class="cls-23" d="M248,101.53c-.13-.31-.24-.62-.34-.94-.21-.66-.4-1.33-.55-2-.3-1.39-.49-2.8-.69-4.21,0,0-.09,0-.09,0a34.9,34.9,0,0,0,.57,4.33,14.84,14.84,0,0,0,.56,2.08,5.54,5.54,0,0,0,.88,1.85s.11,0,.1,0A8.16,8.16,0,0,0,248,101.53Z"/><path class="cls-23" d="M253,83c0-.06-.07-.08-.1,0a16.55,16.55,0,0,0-.36,11,0,0,0,1,0,.09,0,24.8,24.8,0,0,1-.55-5.5A22.94,22.94,0,0,1,253,83Z"/><path class="cls-23" d="M256.45,82.08a22,22,0,0,1,.64-2.28,0,0,0,0,0-.08,0,10.18,10.18,0,0,0-1.12,4.57,27.1,27.1,0,0,0,.29,4.93c0,.09.15.07.14,0a39.67,39.67,0,0,1-.14-4.75A16.44,16.44,0,0,1,256.45,82.08Z"/><path class="cls-23" d="M248.11,91.76a48.48,48.48,0,0,1,.18-5.11c0-.07-.1-.07-.11,0-.33,3.34-.81,7.15.58,10.32.05.11.24,0,.2-.09A21.58,21.58,0,0,1,248.11,91.76Z"/><path class="cls-23" d="M233.08,116.57a23,23,0,0,1-2.86-9.64,0,0,0,1,0-.07,0,16.17,16.17,0,0,0,2.82,9.7C233,116.69,233.12,116.64,233.08,116.57Z"/><path class="cls-23" d="M227.81,128.75c-1.32-2.4-2.91-4.68-3.54-7.39,0-.07-.12,0-.11,0a19.05,19.05,0,0,0,3.56,7.42A.05.05,0,0,0,227.81,128.75Z"/><path class="cls-24" d="M235.87,142.12a29.81,29.81,0,0,1-3.49-4.2,9.07,9.07,0,0,1-1.41-5.14.11.11,0,0,0-.22,0c-.68,3.8,2.38,7.17,5,9.51A.1.1,0,0,0,235.87,142.12Z"/><path class="cls-24" d="M237,137.52a33.87,33.87,0,0,1-1.71-3.13,14.67,14.67,0,0,1-.62-1.72c-.08-.29-.15-.58-.23-.87s-.21-.57-.28-.87c0,0-.08,0-.07,0,0,.32,0,.64,0,.95a7.48,7.48,0,0,0,.18.82,17.13,17.13,0,0,0,.62,1.83,9.36,9.36,0,0,0,1.93,3.09C236.93,137.71,237.05,137.61,237,137.52Z"/><path class="cls-24" d="M239.63,132.78c-.53-.86-1.14-1.66-1.62-2.55a12.58,12.58,0,0,1-.66-1.39c-.19-.46-.32-.93-.52-1.38a.07.07,0,0,0-.14,0,9.22,9.22,0,0,0,1,2.86,8.34,8.34,0,0,0,1.78,2.53C239.56,133,239.7,132.87,239.63,132.78Z"/><path class="cls-24" d="M242,127.39a13.33,13.33,0,0,1-.38-1.75,20.23,20.23,0,0,1-.11-3.65.07.07,0,0,0-.14,0,9.9,9.9,0,0,0-.13,3.72,13.68,13.68,0,0,0,.37,1.8,5.38,5.38,0,0,0,.69,1.7.14.14,0,0,0,.25-.1C242.46,128.51,242.2,128,242,127.39Z"/><path class="cls-24" d="M233.56,147.52a9.72,9.72,0,0,1-4.64-4.53c-1.23-2.29-1.68-4.87-2.39-7.34a.08.08,0,0,0-.15,0c.59,4.65,2.28,10.22,7.08,12.1C233.6,147.83,233.71,147.58,233.56,147.52Z"/><path class="cls-24" d="M231.69,153.4c-4-2.62-7.43-6.36-7.61-11.38a.1.1,0,0,0-.19,0c-.43,5.12,3.65,9.14,7.64,11.65C231.7,153.78,231.86,153.51,231.69,153.4Z"/><path class="cls-24" d="M228.59,158.16c-1-.71-2.11-1.24-3.12-1.9a15.3,15.3,0,0,1-2.82-2.31c-1.92-2.08-2.38-4.76-2.9-7.44a.11.11,0,0,0-.21,0c.18,2.8.72,5.46,2.68,7.59a14.32,14.32,0,0,0,2.89,2.37,18.08,18.08,0,0,0,3.4,1.85C228.63,158.39,228.68,158.22,228.59,158.16Z"/><path class="cls-24" d="M227.16,163.57a11.9,11.9,0,0,1-10.1-9.68c0-.08-.16-.06-.16,0a11.29,11.29,0,0,0,10.26,9.94C227.35,163.88,227.34,163.59,227.16,163.57Z"/><path class="cls-24" d="M225.64,167.51a20.31,20.31,0,0,1-8.34-3.25,9.34,9.34,0,0,1-3.86-7.21.12.12,0,0,0-.23,0,8.6,8.6,0,0,0,3.51,7.34c2.52,2,5.7,2.88,8.83,3.43C225.75,167.85,225.84,167.55,225.64,167.51Z"/><path class="cls-24" d="M218.23,172.07a20,20,0,0,1-2.71-1.24,9,9,0,0,1-2.26-2.06c-1.44-1.85-1.72-4.21-2.78-6.26,0-.08-.18,0-.15.07.66,2.32,1.1,4.69,2.68,6.61a9,9,0,0,0,2.3,2,6.18,6.18,0,0,0,2.88,1.05A.09.09,0,0,0,218.23,172.07Z"/><path class="cls-24" d="M216.15,178.34c-.35-.23-.76-.38-1.12-.59a10.84,10.84,0,0,1-1.07-.69,11.28,11.28,0,0,1-1.94-1.84,11.89,11.89,0,0,1-2.32-4.71c0-.13-.22-.07-.2.06a9.92,9.92,0,0,0,2.2,4.89,10.53,10.53,0,0,0,2,1.85,6.34,6.34,0,0,0,2.38,1.25A.12.12,0,0,0,216.15,178.34Z"/><path class="cls-24" d="M246.39,156.22a33.61,33.61,0,0,1-5.45,3c-1.59.68-3.92,1.74-5.44.38-.08-.08-.23,0-.16.12,1.17,1.57,3.55.82,5.07.25a19.45,19.45,0,0,0,6.1-3.59C246.6,156.3,246.49,156.15,246.39,156.22Z"/><path class="cls-24" d="M247.41,149.84a25.89,25.89,0,0,1-5,3.18,17.71,17.71,0,0,1-6,1.49c-.22,0-.22.36,0,.36,4-.12,8.51-1.69,11.14-4.84C247.63,149.93,247.52,149.76,247.41,149.84Z"/><path class="cls-24" d="M249.89,141.26a27.94,27.94,0,0,1-4.34,3.86,22.17,22.17,0,0,1-5.22,2.61.06.06,0,1,0,0,.11,16.51,16.51,0,0,0,9.69-6.46C250.11,141.29,250,141.18,249.89,141.26Z"/><path class="cls-24" d="M250.92,135.17a29.28,29.28,0,0,1-4.09,3.7,21.39,21.39,0,0,1-4.9,2.56c-.13,0-.08.24,0,.2a16.81,16.81,0,0,0,9.05-6.37A.07.07,0,0,0,250.92,135.17Z"/><path class="cls-24" d="M250,129.51a5.23,5.23,0,0,0-.64.77c-.24.32-.49.62-.75.91-.48.55-1,1.08-1.52,1.58a18.85,18.85,0,0,1-1.7,1.4c-.6.44-1.26.81-1.87,1.24-.1.07,0,.26.09.21a10.67,10.67,0,0,0,2-1.16,18.09,18.09,0,0,0,1.75-1.39,16.61,16.61,0,0,0,1.61-1.64,6.68,6.68,0,0,0,1.29-1.8C250.25,129.5,250.07,129.43,250,129.51Z"/><path class="cls-24" d="M249,125.37q-.24.39-.51.75c-.18.23-.34.47-.54.69s-.4.42-.61.63-.43.41-.66.6c-.05,0,0,.1.06.07a4.9,4.9,0,0,0,.79-.48,5.7,5.7,0,0,0,.65-.65,4.34,4.34,0,0,0,.56-.72,5.33,5.33,0,0,0,.39-.84C249.15,125.35,249,125.31,249,125.37Z"/><path class="cls-24" d="M240.62,164.66c-.61.23-1.19.56-1.81.79a11,11,0,0,1-1.87.52,9.43,9.43,0,0,1-2,.14,9.63,9.63,0,0,1-1.06-.08,4,4,0,0,0-.91-.11.15.15,0,0,0-.08.27,4.39,4.39,0,0,0,1.93.43,9,9,0,0,0,2.14-.08,6.69,6.69,0,0,0,3.8-1.62C240.87,164.81,240.77,164.61,240.62,164.66Z"/><path class="cls-24" d="M232,170.78l-.15-.08a.19.19,0,0,0-.1-.08l-.32-.08-.16,0-.09,0a.21.21,0,0,0-.11,0h-.18a.1.1,0,0,0,0,.19l.15.08a.31.31,0,0,0,.09.07l.08,0,.16,0,.33.09a.17.17,0,0,0,.12,0h.17A.1.1,0,0,0,232,170.78Z"/><path class="cls-24" d="M248.65,146.57a24.41,24.41,0,0,1-10.93,4.83c-.16,0-.13.31,0,.29a19.11,19.11,0,0,0,11-4.93C248.89,146.67,248.76,146.49,248.65,146.57Z"/><path class="cls-24" d="M249.8,133.53a21.7,21.7,0,0,1-5.55,4.69.12.12,0,0,0,.12.2,13.16,13.16,0,0,0,5.55-4.79C250,133.55,249.86,133.46,249.8,133.53Z"/><path class="cls-24" d="M249.62,139.14a50.33,50.33,0,0,1-4.43,3.11,45.81,45.81,0,0,1-4.84,2.46c-.13.06,0,.27.1.23a23.77,23.77,0,0,0,4.94-2.34,22.26,22.26,0,0,0,4.32-3.34C249.77,139.2,249.69,139.09,249.62,139.14Z"/><path class="cls-24" d="M244.52,154.88a20.38,20.38,0,0,1-7.33,3c-.06,0-.05.13,0,.12a12.82,12.82,0,0,0,7.41-3C244.69,155,244.6,154.82,244.52,154.88Z"/><path class="cls-24" d="M245.3,160.68a13.59,13.59,0,0,1-5,2.43,13.36,13.36,0,0,1-5.7,0,.13.13,0,1,0-.07.24,11,11,0,0,0,10.94-2.53C245.52,160.76,245.41,160.6,245.3,160.68Z"/><path class="cls-24" d="M232.3,150.14a2.8,2.8,0,0,0-.6-.54L231,149c-.43-.4-.83-.81-1.22-1.25a22.54,22.54,0,0,1-2.12-2.84c0-.08-.16,0-.12.08a12.71,12.71,0,0,0,2,2.95,15.22,15.22,0,0,0,1.27,1.27l.66.56a2.46,2.46,0,0,0,.7.47C232.27,150.29,232.34,150.2,232.3,150.14Z"/><path class="cls-24" d="M234.06,143.88a23.15,23.15,0,0,1-1.9-1.67,11.25,11.25,0,0,1-1.53-2.14,11.08,11.08,0,0,1-.95-2.37,24.64,24.64,0,0,1-.47-2.54c0-.11-.16-.07-.17,0a8.78,8.78,0,0,0,1.3,5.06,10.74,10.74,0,0,0,1.52,2.09A7.3,7.3,0,0,0,234,144C234,144.08,234.15,144,234.06,143.88Z"/><path class="cls-24" d="M229.58,156a17.4,17.4,0,0,1-9.12-10.83.08.08,0,0,0-.15.05,15.47,15.47,0,0,0,9.1,11.06C229.6,156.37,229.77,156.09,229.58,156Z"/><path class="cls-24" d="M227,161.87a15.11,15.11,0,0,1-8-6.25,15.46,15.46,0,0,1-.82-1.5c-.24-.5-.41-1.06-.68-1.55-.07-.14-.25,0-.23.1a9.15,9.15,0,0,0,1.46,3.19,15.33,15.33,0,0,0,2.22,2.73,14.34,14.34,0,0,0,6,3.52A.13.13,0,1,0,227,161.87Z"/><path class="cls-24" d="M224.81,165.49a21.86,21.86,0,0,1-3.49-1.3,12.7,12.7,0,0,1-2.94-2.15,14.54,14.54,0,0,1-3.7-6.31c0-.08-.16-.07-.15,0a11.46,11.46,0,0,0,3.54,6.6,13.15,13.15,0,0,0,3.11,2.22,8.72,8.72,0,0,0,3.6,1.13C224.91,165.71,224.92,165.52,224.81,165.49Z"/><path class="cls-24" d="M217.66,168.39c-.92.26-1.78-.77-2.34-1.36a15.68,15.68,0,0,1-1.71-2.1,21.93,21.93,0,0,1-2.34-4.73.08.08,0,0,0-.16.05,13.56,13.56,0,0,0,2.49,5.39,17,17,0,0,0,1.93,2.14c.6.56,1.36,1.23,2.23.86C217.91,168.58,217.8,168.35,217.66,168.39Z"/><path class="cls-24" d="M215.85,175.81c-.59-.61-1.21-1.19-1.77-1.84a18.22,18.22,0,0,1-1.55-2.14,29.51,29.51,0,0,1-2.13-4.73c0-.08-.18-.09-.17,0a12.78,12.78,0,0,0,2,4.91,13.62,13.62,0,0,0,3.52,4C215.82,176.07,215.94,175.91,215.85,175.81Z"/><path class="cls-24" d="M214.3,182.11c-3.36-1.56-4.51-5.14-5.93-8.25,0-.08-.16,0-.14,0a17.18,17.18,0,0,0,2.15,5.09,8.31,8.31,0,0,0,3.8,3.38C214.33,182.44,214.44,182.18,214.3,182.11Z"/><path class="cls-24" d="M262.85,174a11.32,11.32,0,0,0-1.76-.7c-.65-.25-1.31-.51-2-.79-.81-.36-1.61-.77-2.38-1.2a.05.05,0,0,0,0,0,9.7,9.7,0,0,0-1-.51l-.2-.12a.19.19,0,0,0-.12,0,11.76,11.76,0,0,0-3-.82c-.09,0-.13.12,0,.14a17.38,17.38,0,0,1,2.88.88.18.18,0,0,0,.08.12,23.9,23.9,0,0,0,3.62,2.05c.6.27,1.21.54,1.83.75a6.61,6.61,0,0,0,2,.51A.13.13,0,0,0,262.85,174Z"/><path class="cls-24" d="M259.63,178.08a10.15,10.15,0,0,1-6.1-.6,31.28,31.28,0,0,0-5.77-2c-.14,0-.2.18-.06.21,3.77.88,8,4.48,12,2.58C259.82,178.22,259.74,178.05,259.63,178.08Z"/><path class="cls-24" d="M253.29,182.91a14.07,14.07,0,0,1-5.32,1,12.93,12.93,0,0,1-5.38-1.39.12.12,0,0,0-.12.21,10.77,10.77,0,0,0,10.9.38C253.47,183,253.4,182.87,253.29,182.91Z"/><path class="cls-24" d="M237.78,177.86a7.93,7.93,0,0,1-2-2.23,11.17,11.17,0,0,1-1.05-2.73c0-.09-.18-.08-.17,0a7.39,7.39,0,0,0,3.09,5.11C237.79,178.1,237.88,177.94,237.78,177.86Z"/><path class="cls-24" d="M241.76,171.78a8.48,8.48,0,0,1-1.51-1.6,5.37,5.37,0,0,1-.52-.94c-.15-.35-.22-.72-.36-1.07a.11.11,0,0,0-.22,0,3.35,3.35,0,0,0,.3,1.07,5.54,5.54,0,0,0,.58,1,5.1,5.1,0,0,0,.73.87,3.46,3.46,0,0,0,1,.65S241.8,171.8,241.76,171.78Z"/><path class="cls-24" d="M246.78,167.85a3.14,3.14,0,0,1-.64-1.21,5.66,5.66,0,0,1-.14-1.36c0-.09-.13-.1-.16,0a2.94,2.94,0,0,0,.75,2.78C246.7,168.16,246.89,168,246.78,167.85Z"/><path class="cls-24" d="M256.88,180.25a10.69,10.69,0,0,1-3.74.1,19.16,19.16,0,0,1-3.23-1c-2.07-.78-4.15-1.66-6.4-1.48-.16,0-.16.26,0,.26,2.51-.06,4.75,1.07,7,1.93,1.86.7,4.56,1.53,6.42.41A.12.12,0,0,0,256.88,180.25Z"/><path class="cls-24" d="M260.33,175.48c-.93-.26-1.86-.48-2.77-.8s-1.81-.69-2.72-1a16.33,16.33,0,0,0-2.83-.81,8.84,8.84,0,0,0-1.36-.15c-.25,0-.62-.11-.81.1a.07.07,0,0,0,0,.09l0,.05a.07.07,0,0,0,.06,0H250s.05,0,.05,0v0a.08.08,0,0,0,0,0c.18,0,.77.12.79.12l.74.13c.44.08.87.17,1.3.28a22.31,22.31,0,0,1,2.49.88,13.22,13.22,0,0,0,5,1.43C260.41,175.66,260.43,175.5,260.33,175.48Z"/><path class="cls-24" d="M265.65,170.7a8.17,8.17,0,0,1-3.39-.48c-1.14-.39-2.26-.83-3.39-1.26-.07,0-.11.09-.05.13a31.13,31.13,0,0,0,3.48,1.45,4.86,4.86,0,0,0,3.37.29C265.73,170.81,265.73,170.69,265.65,170.7Z"/><path class="cls-24" d="M243.81,170.34a2.6,2.6,0,0,1-.3-.36,3.48,3.48,0,0,1-.42-.84,4.24,4.24,0,0,1-.21-1.06c0-.37-.07-.73-.11-1.09,0-.08-.14-.12-.15,0a4.75,4.75,0,0,0,0,1.19,4.84,4.84,0,0,0,.24,1.13,3.13,3.13,0,0,0,.46.84,1.49,1.49,0,0,0,.76.58s.09,0,.06-.07A2,2,0,0,0,243.81,170.34Z"/><path class="cls-24" d="M239.19,175.46a7.68,7.68,0,0,1-.59-.69,8.69,8.69,0,0,1-.86-1.47,8.09,8.09,0,0,1-.62-3.4.08.08,0,0,0-.16,0,5.72,5.72,0,0,0,.34,3.6,6.38,6.38,0,0,0,.91,1.53,3.11,3.11,0,0,0,1.39,1.13.07.07,0,0,0,.08-.1A3.42,3.42,0,0,0,239.19,175.46Z"/><path class="cls-24" d="M236.07,181.06a16.42,16.42,0,0,0-1.62-1.23,6.84,6.84,0,0,1-1.61-1.61,4.19,4.19,0,0,1-.53-3.92c0-.09-.09-.12-.14-.06a3.63,3.63,0,0,0,.22,4.07A6.74,6.74,0,0,0,234,180a7.06,7.06,0,0,0,2,1.18S236.1,181.09,236.07,181.06Z"/><path class="cls-24" d="M248.22,186.87a11.7,11.7,0,0,1-4.6-.32,20.72,20.72,0,0,1-2.13-.75l-1.05-.43a3.35,3.35,0,0,0-.92-.32c-.05,0-.08.07,0,.1a3.6,3.6,0,0,0,1,.55c.3.15.61.3.92.43a18.82,18.82,0,0,0,2.29.8,7.84,7.84,0,0,0,4.55.09C248.32,187,248.31,186.85,248.22,186.87Z"/><path class="cls-24" d="M235.06,183.48a22.93,22.93,0,0,1-2.91-1.72,4.21,4.21,0,0,1-.91-1.1,6,6,0,0,1-.59-1.35c0-.07-.16-.06-.15,0a3.44,3.44,0,0,0,.41,1.4,4.52,4.52,0,0,0,1,1.19,7.16,7.16,0,0,0,1.42.88c.56.29,1.11.57,1.69.81C235.08,183.64,235.13,183.52,235.06,183.48Z"/><path class="cls-24" d="M251.05,166.49a4,4,0,0,1-.8-1,1.6,1.6,0,0,1-.18-.56,1.07,1.07,0,0,1,0-.31.59.59,0,0,0,0-.14.81.81,0,0,0,0-.16.11.11,0,0,0-.19-.08.42.42,0,0,0-.17.29,2.07,2.07,0,0,0,0,.35,1.68,1.68,0,0,0,.21.7,3.81,3.81,0,0,0,1,1.07A.13.13,0,0,0,251.05,166.49Z"/><path class="cls-24" d="M255.44,165.23a1.86,1.86,0,0,1-.33-.78c0-.28,0-.56,0-.84,0-.06-.09-.08-.13,0a.66.66,0,0,0-.11.2.7.7,0,0,0-.05.25,2,2,0,0,0,0,.49,2.14,2.14,0,0,0,.42.87C255.34,165.48,255.52,165.34,255.44,165.23Z"/><path class="cls-24" d="M259.1,165.25a2.16,2.16,0,0,1-.29-.92,1.88,1.88,0,0,1,.05-.47,1,1,0,0,1,.06-.23,1.83,1.83,0,0,0,.06-.25.08.08,0,0,0-.13-.07.61.61,0,0,0-.18.21,2,2,0,0,0-.11.26,1.56,1.56,0,0,0,0,.57,1.41,1.41,0,0,0,.47,1A.06.06,0,0,0,259.1,165.25Z"/><path class="cls-24" d="M262.2,163.17a2.07,2.07,0,0,0-.33.1,1,1,0,0,0-.27.19,1.8,1.8,0,0,0-.41.55,2.13,2.13,0,0,0-.2.65,1.83,1.83,0,0,0,0,.33.57.57,0,0,0,.1.31,0,0,0,0,0,.08,0,2.7,2.7,0,0,0,0-.28c0-.1,0-.2,0-.3a1.84,1.84,0,0,1,.21-.55,3.17,3.17,0,0,1,.36-.46l.22-.19a1.55,1.55,0,0,1,.23-.21A.07.07,0,0,0,262.2,163.17Z"/><path class="cls-24" d="M272.63,168c-.37,0-.73.16-1.1.18s-.78.11-1.17.14-.76,0-1.14,0l-.57,0a.79.79,0,0,0-.48.06.08.08,0,0,0,0,.12c.21.26.72.26,1,.3a6.21,6.21,0,0,0,1.22,0,5.31,5.31,0,0,0,1.19-.15,4,4,0,0,0,1.12-.39A.15.15,0,0,0,272.63,168Z"/><path class="cls-24" d="M248.3,181.74a25.79,25.79,0,0,0-2.72-.82c-.91-.24-1.82-.49-2.75-.66-.05,0-.07.06,0,.07.88.34,1.79.59,2.7.86a26.28,26.28,0,0,0,2.75.68C248.35,181.89,248.38,181.78,248.3,181.74Z"/><path class="cls-24" d="M255.12,176.39a18.9,18.9,0,0,0-3.42-1.8,9.73,9.73,0,0,0-3.69-.79c-.09,0-.09.14,0,.15a11.71,11.71,0,0,1,3.63.89c1.17.49,2.26,1.14,3.41,1.67A.07.07,0,0,0,255.12,176.39Z"/><path class="cls-24" d="M267,169.49a7.62,7.62,0,0,0-1.68-.59,8,8,0,0,0-1.76-.25s-.05.07,0,.08c.57.13,1.15.22,1.72.37s1.13.3,1.7.47C267,169.58,267,169.51,267,169.49Z"/><path class="cls-24" d="M267.65,170.52a21.08,21.08,0,0,1-2.82-.69c-.92-.3-1.82-.66-2.73-1,0,0-.06.05,0,.07a29.13,29.13,0,0,0,2.71,1.12,10.25,10.25,0,0,0,2.84.63C267.7,170.64,267.71,170.53,267.65,170.52Z"/><path class="cls-24" d="M264.66,171.86a17.31,17.31,0,0,1-4.08-1c-1.33-.51-2.6-1.18-3.89-1.79a0,0,0,0,0,0,.06,28,28,0,0,0,3.84,2,9.71,9.71,0,0,0,4.16.9A.11.11,0,0,0,264.66,171.86Z"/><path class="cls-24" d="M278.57,166.88c-.87.15-1.72.42-2.57.65s-1.74.36-2.57.65a.06.06,0,0,0,0,.11,12.63,12.63,0,0,0,2.64-.48,11.36,11.36,0,0,0,2.53-.83C278.67,167,278.63,166.87,278.57,166.88Z"/><path class="cls-24" d="M240.85,211.17c-.25-1-.49-2-.68-3.08a8.41,8.41,0,0,1,.86-6.35.08.08,0,0,0-.12-.1c-1.43,1.57-1.47,3.81-1.17,5.8.18,1.2.46,2.4.75,3.58a20,20,0,0,0,1,3.48c0,.07.13,0,.12-.05C241.48,213.35,241.11,212.25,240.85,211.17Z"/><path class="cls-25" d="M247,210.12c-.32-1-.75-1.88-1-2.86a20.27,20.27,0,0,1-.68-3,21.59,21.59,0,0,1,0-6.42c0-.15-.2-.22-.24-.07a19.09,19.09,0,0,0-.24,6.44,15.13,15.13,0,0,0,1.87,6C246.76,210.4,247,210.3,247,210.12Z"/><path class="cls-25" d="M253.39,197.16a10.48,10.48,0,0,1,.5-6c.06-.15-.19-.21-.25-.07a10.66,10.66,0,0,0-.64,6,13,13,0,0,0,2.51,5.56c0,.06.14,0,.12-.07C255,200.71,253.81,199.12,253.39,197.16Z"/><path class="cls-25" d="M263.91,193a14.49,14.49,0,0,1-.68-2.82A9.13,9.13,0,0,1,264,185a.07.07,0,0,0-.13-.07,7.68,7.68,0,0,0-1.06,5.16,14.61,14.61,0,0,0,.62,2.83,11.53,11.53,0,0,0,1.19,2.77.08.08,0,0,0,.15-.06C264.59,194.7,264.2,193.86,263.91,193Z"/><path class="cls-25" d="M268.58,190c-.19-.76-.36-1.51-.48-2.28a12.91,12.91,0,0,1,0-4.72.07.07,0,0,0-.14,0,10.58,10.58,0,0,0-.31,4.58c.11.78.26,1.55.44,2.31a10.43,10.43,0,0,0,.68,2.27.15.15,0,0,0,.27-.07A13,13,0,0,0,268.58,190Z"/><path class="cls-25" d="M259.32,192.61a20.36,20.36,0,0,1,.28-5.05s-.05-.06-.07,0a10.86,10.86,0,0,0-.57,5.15,10.55,10.55,0,0,0,1.55,4.81c0,.07.16,0,.13-.05A20,20,0,0,1,259.32,192.61Z"/><path class="cls-25" d="M257,197.12a16.91,16.91,0,0,1-.41-2.84,18.28,18.28,0,0,1,.57-5.56.07.07,0,1,0-.14,0,15.29,15.29,0,0,0-.79,5.7,11.78,11.78,0,0,0,1.31,5.45c.06.11.22,0,.2-.09C257.54,198.86,257.22,198,257,197.12Z"/><path class="cls-25" d="M252,203c-.37-1.18-.74-2.36-1-3.56a11.58,11.58,0,0,1,.38-6.94c0-.07-.08-.12-.12,0a10.25,10.25,0,0,0-.71,6.53,28.89,28.89,0,0,0,.95,3.77,27.43,27.43,0,0,0,1.19,3.66c0,.07.14,0,.13,0A13.17,13.17,0,0,0,252,203Z"/><path class="cls-25" d="M248.15,204.3a21.46,21.46,0,0,1-.46-3,31,31,0,0,1,.23-5.78c0-.07-.1-.08-.12,0a16.61,16.61,0,0,0-.44,6,21.24,21.24,0,0,0,.44,2.86,10.43,10.43,0,0,0,.91,2.85.14.14,0,0,0,.25-.1C248.75,206.18,248.37,205.26,248.15,204.3Z"/><path class="cls-25" d="M243.59,209a22,22,0,0,1-.58-3.32,30.05,30.05,0,0,1,.22-6.36c0-.08-.11-.09-.13,0a18.16,18.16,0,0,0-.44,6.61,15.52,15.52,0,0,0,1.67,6.22.09.09,0,0,0,.17-.07C244.23,211.05,243.86,210.06,243.59,209Z"/><path class="cls-25" d="M238.4,213.8c-.15-.83-.34-1.66-.47-2.5a10.4,10.4,0,0,1,.2-5.08c0-.08-.1-.13-.13-.06a8.29,8.29,0,0,0-.45,4.78c.13.92.32,1.84.49,2.75a12.74,12.74,0,0,0,.66,2.74s.06,0,.07,0A12.17,12.17,0,0,0,238.4,213.8Z"/><path class="cls-25" d="M267.5,193.3a10.44,10.44,0,0,1-1.31-4.42,16.32,16.32,0,0,1,.7-5.1.08.08,0,0,0-.15,0,14.93,14.93,0,0,0-.8,5.38,7.49,7.49,0,0,0,1.47,4.25C267.45,193.43,267.53,193.36,267.5,193.3Z"/><path class="cls-25" d="M271.55,181.44a6.64,6.64,0,0,0-.95,3.95c0,1.63.16,3.26.29,4.88a.06.06,0,1,0,.12,0c-.05-1.52-.17-3.05-.18-4.58a10.11,10.11,0,0,1,.81-4.2A.05.05,0,1,0,271.55,181.44Z"/><path class="cls-25" d="M275.52,179.05a8.39,8.39,0,0,0-2.33,4.41A10.6,10.6,0,0,0,273,186c0,.53,0,1.06.06,1.59a7.69,7.69,0,0,0,.1,1.44.05.05,0,0,0,.1,0,14.88,14.88,0,0,0,0-2.67,13.54,13.54,0,0,1,.19-2.77,11.44,11.44,0,0,1,2.21-4.47C275.7,179.07,275.59,179,275.52,179.05Z"/><path class="cls-25" d="M276.42,180.13a15.55,15.55,0,0,0-.78,3.45,19.81,19.81,0,0,0-.14,3.44.06.06,0,1,0,.12,0,29.34,29.34,0,0,1,.3-3.5c.16-1.13.45-2.23.67-3.35A.09.09,0,0,0,276.42,180.13Z"/><path class="cls-25" d="M280.39,177.37c-1.32.35-2,1.78-2.26,3a19.54,19.54,0,0,0-.31,2.39l-.13,1.34a7.52,7.52,0,0,0-.08,1.42,0,0,0,0,0,.09,0,11.78,11.78,0,0,0,.32-2.21c.1-.82.17-1.64.3-2.45a4.29,4.29,0,0,1,2.13-3.36A.08.08,0,0,0,280.39,177.37Z"/><path class="cls-25" d="M283.37,176.35a3.06,3.06,0,0,0-1.34,1.18,10.91,10.91,0,0,0-1.11,2,26.25,26.25,0,0,0-1.53,4.53c0,.1.12.17.16.07.58-1.34.92-2.77,1.46-4.12a12.45,12.45,0,0,1,1-2,3.86,3.86,0,0,1,1.43-1.54C283.53,176.47,283.47,176.31,283.37,176.35Z"/><path class="cls-25" d="M285.61,176.23c-.2,0-.34.27-.46.43s-.34.53-.5.81c-.32.57-.61,1.16-.91,1.74a16.8,16.8,0,0,1-.93,1.66c-.36.56-.79,1.06-1.2,1.58,0,.05,0,.14.08.1a7,7,0,0,0,2.24-3c.29-.58.57-1.17.89-1.75.15-.28.31-.56.48-.82s.38-.47.35-.71A0,0,0,0,0,285.61,176.23Z"/><path class="cls-26" d="M188.1,197.28l-10-11.76c-2.77-3.27-5.62-6.49-8.18-9.94a110.5,110.5,0,0,1-6.51-10.67,63.94,63.94,0,0,0-7-9.31l-.19-.23A23.34,23.34,0,0,1,150,145.19c-.13-.4.45-.78.73-.43a19.86,19.86,0,0,0,5.09,4.41v-1.95a.4.4,0,0,1,.74-.2,87.08,87.08,0,0,1,6.6,12.06q1.2,2.68,2.21,5.43a30.4,30.4,0,0,0,2.31,5.37,17.25,17.25,0,0,0,4,4.18,47.06,47.06,0,0,1,4.34,4.13c2.66,2.84,5.24,5.83,7.61,8.92a29,29,0,0,1,5.19,9.72C189,197.25,188.41,197.64,188.1,197.28Z"/><path class="cls-17" d="M171.47,157.6a10.21,10.21,0,0,1-1.19,4.52,27.79,27.79,0,0,0-2,4.06c0,.08.08.11.12,0a20.13,20.13,0,0,0,1.22-2c.39-.73.77-1.45,1.12-2.2a10.15,10.15,0,0,0,1-4.38C171.79,157.39,171.46,157.39,171.47,157.6Z"/><path class="cls-17" d="M183.62,170.25c-.06-.05-.12,0-.1.1a3.67,3.67,0,0,1,.35,2.56,10.58,10.58,0,0,1-1.11,2.48c-.85,1.56-1.95,3-2.81,4.52a.13.13,0,0,0,.21.16,14.55,14.55,0,0,0,3.53-5C184.32,173.69,185.1,171.36,183.62,170.25Z"/><path class="cls-17" d="M191.63,177.9c0-.1-.23-.1-.21,0a6.93,6.93,0,0,1-.19,3,8.93,8.93,0,0,1-1.5,2.74,14.78,14.78,0,0,1-2.06,2.05,23.6,23.6,0,0,0-2.38,2,.17.17,0,0,0,.2.26,11.34,11.34,0,0,0,2.67-1.84,13.28,13.28,0,0,0,2.23-2.33C191.54,182.17,192.32,179.8,191.63,177.9Z"/><path class="cls-17" d="M194.48,184.12s-.07,0-.08,0c-.12.4-.14.83-.23,1.24a5.88,5.88,0,0,1-.45,1.3,8.19,8.19,0,0,1-1.64,2.23,15.05,15.05,0,0,1-2.25,1.8,9.68,9.68,0,0,0-2.21,1.76c-.1.14,0,.4.19.33a10.32,10.32,0,0,0,2.59-1.64,16,16,0,0,0,2.33-2.09,8.6,8.6,0,0,0,1.46-2.34A3.63,3.63,0,0,0,194.48,184.12Z"/><path class="cls-17" d="M187.45,176.84c-.61,1.21-1.16,2.44-1.84,3.62-.33.57-.68,1.12-1.06,1.66a10.81,10.81,0,0,0-1.16,1.72s0,.1.06.07a5.14,5.14,0,0,0,1.34-1.37c.43-.58.83-1.17,1.21-1.79a12.76,12.76,0,0,0,1.62-3.84C187.64,176.82,187.5,176.75,187.45,176.84Z"/><path class="cls-17" d="M180.26,168.29c0-.1-.17-.06-.18,0a31.37,31.37,0,0,1-.66,4.52,17.42,17.42,0,0,1-.75,2.21c-.28.64-.68,1.26-.91,1.92a.12.12,0,0,0,.19.11,6.73,6.73,0,0,0,1.18-1.94,13.88,13.88,0,0,0,.82-2.23A10,10,0,0,0,180.26,168.29Z"/><path class="cls-17" d="M177.55,164c0-.15-.25-.16-.25,0a10.39,10.39,0,0,1-1.07,4.64c-.32.69-.69,1.36-1.07,2a13.73,13.73,0,0,0-1.11,2c0,.09.1.16.16.1a9.87,9.87,0,0,0,1.36-2,20.34,20.34,0,0,0,1.12-2.24A9.69,9.69,0,0,0,177.55,164Z"/><path class="cls-17" d="M173.76,160.78s-.06,0-.06,0c-.07.65,0,1.32,0,2a9.79,9.79,0,0,1-.44,2.07,9.26,9.26,0,0,1-.85,1.87c-.35.58-.81,1.08-1.19,1.65-.06.09.07.22.16.15a5.07,5.07,0,0,0,1.29-1.58,9.28,9.28,0,0,0,.89-2,8.8,8.8,0,0,0,.4-2A5.11,5.11,0,0,0,173.76,160.78Z"/><path class="cls-17" d="M166.21,153.38a0,0,0,0,0-.09,0,7.43,7.43,0,0,0-.12,1.42,10,10,0,0,1-.28,1.43,10.65,10.65,0,0,1-.5,1.37,7.36,7.36,0,0,0-.62,1.3.12.12,0,0,0,.18.14,3.1,3.1,0,0,0,.79-1.24,8.27,8.27,0,0,0,.52-1.47,10.36,10.36,0,0,0,.23-1.48A3.07,3.07,0,0,0,166.21,153.38Z"/><path class="cls-17" d="M162.69,151.53s-.08,0-.08,0a5.37,5.37,0,0,1-.05.9,5.17,5.17,0,0,1-.15.86,11.06,11.06,0,0,1-.69,1.63.08.08,0,0,0,.13.09,2.91,2.91,0,0,0,.9-1.63,3.64,3.64,0,0,0,.11-.93A3.32,3.32,0,0,0,162.69,151.53Z"/><path class="cls-17" d="M167.59,158a.1.1,0,0,0-.19,0,15.38,15.38,0,0,1-.6,3.82c0,.08.09.14.13.06A7,7,0,0,0,167.59,158Z"/><path class="cls-17" d="M175.37,162.88a.11.11,0,0,0-.22,0c-.16.61-.16,1.28-.28,1.91a15.31,15.31,0,0,1-.46,1.89,16.66,16.66,0,0,1-1.65,3.62.11.11,0,0,0,.19.11,12.5,12.5,0,0,0,1.84-3.62,12.89,12.89,0,0,0,.48-2A6.33,6.33,0,0,0,175.37,162.88Z"/><path class="cls-17" d="M178.6,166.44c-.44,1.36-.75,2.76-1.24,4.1a29.21,29.21,0,0,1-1.83,4,.09.09,0,1,0,.16.09,17.82,17.82,0,0,0,2-3.89,12.89,12.89,0,0,0,1-4.26A.08.08,0,0,0,178.6,166.44Z"/><path class="cls-17" d="M186.37,172.29A14.11,14.11,0,0,1,185,177a18.94,18.94,0,0,1-2.82,3.95.1.1,0,0,0,.13.14,12.25,12.25,0,0,0,4.31-8.83C186.59,172.15,186.39,172.16,186.37,172.29Z"/><path class="cls-17" d="M190.13,176.87a24.23,24.23,0,0,1-.93,2.59,12.86,12.86,0,0,1-1.44,2.39,21.6,21.6,0,0,1-4.11,3.82.09.09,0,0,0,.1.16,11.89,11.89,0,0,0,4.4-3.72,9.17,9.17,0,0,0,2.1-5.23C190.25,176.81,190.16,176.8,190.13,176.87Z"/><path class="cls-17" d="M193.22,183.42a13,13,0,0,1-2.39,3.47,20.39,20.39,0,0,1-3.31,2.62c-.09.06,0,.21.07.18a6.41,6.41,0,0,0,1.93-1,12.42,12.42,0,0,0,1.62-1.45,11.5,11.5,0,0,0,2.28-3.7C193.46,183.39,193.27,183.31,193.22,183.42Z"/><path class="cls-17" d="M195,188.59a21.48,21.48,0,0,1-1.67,1.89c-.31.29-.61.58-.94.85s-.63.56-1,.83c-.12.1,0,.26.16.2a5.54,5.54,0,0,0,1.12-.67,9.91,9.91,0,0,0,1-.87,9.7,9.7,0,0,0,.81-1,5.8,5.8,0,0,0,.67-1.13C195.22,188.61,195.09,188.49,195,188.59Z"/><path class="cls-17" d="M169.73,170.71l-.38,0a1.36,1.36,0,0,1-.35-.07,1.27,1.27,0,0,1-.32-.13l-.18-.09a.44.44,0,0,0-.18-.09c-.09,0-.18.06-.15.15a.69.69,0,0,0,.31.32,1.94,1.94,0,0,0,.42.17,1.54,1.54,0,0,0,.43.06,1.22,1.22,0,0,0,.43-.08A.11.11,0,0,0,169.73,170.71Z"/><path class="cls-17" d="M168,168.24a.78.78,0,0,1-.22,0,.7.7,0,0,0-.14,0h-.1l-.21-.07a2,2,0,0,1-.22-.09.07.07,0,0,0-.09.11.69.69,0,0,0,.19.19,1.23,1.23,0,0,0,.26.12.65.65,0,0,0,.28,0,1.31,1.31,0,0,0,.27-.06A.08.08,0,0,0,168,168.24Z"/><path class="cls-17" d="M160.27,148.73a.16.16,0,0,0-.3.08,6.23,6.23,0,0,1,.15,1.66c0,.28-.08.55-.12.83s-.06.52-.1.79c0,.08.11.1.15,0a2.52,2.52,0,0,0,.36-.78,4.32,4.32,0,0,0,.1-.88A5.12,5.12,0,0,0,160.27,148.73Z"/></g></g></svg>