<svg id="Warstwa_1" data-name="Warstwa 1" xmlns="http://www.w3.org/2000/svg" viewBox="0 0 425.2 425.2"><defs><style>.cls-1{fill:#7f1143;}.cls-2{fill:#354832;}.cls-3{fill:#063f21;}.cls-4{fill:#2c3d29;}.cls-5{fill:#4f2013;}.cls-6{fill:#aa1733;}.cls-7{fill:#6c260d;}.cls-8{fill:#eee0e4;}.cls-9{fill:#7f3311;}.cls-10{fill:#6d9369;}.cls-11{fill:#f191b0;}.cls-12{fill:#263925;}.cls-13{fill:#d1948f;}.cls-14{fill:#32472e;}.cls-15{fill:#293e1e;}.cls-16{fill:#00553e;}.cls-17{fill:#3ead5b;}.cls-18{fill:#30492b;}.cls-19{fill:#263f22;}.cls-20{fill:#006b31;}.cls-21{fill:#4eb271;}.cls-22{fill:#e9c9bc;}.cls-23{fill:#006b48;}.cls-24{fill:#8ac485;}.cls-25{fill:#e29cb6;}.cls-26{fill:#92a18f;}.cls-27{fill:#7c917e;}.cls-28{fill:#ccd1c2;}</style></defs><path class="cls-1" d="M220.69,172.26c-.12,1.29-.22,2.58-.33,3.88-.08.37-.15.74-.22,1.11.09-1.37.18-2.74.28-4.11,0-.4-.58-.38-.62,0-.1.91-.19,1.82-.28,2.73a.38.38,0,0,0-.42.32,194.51,194.51,0,0,0-2.2,19.86.38.38,0,0,0,.27.41l-.29,3.07c0,.55.72.56.89.12.06-.13.1-.27.15-.41.25.16.63.12.68-.24,0,0,0-.08,0-.12h0c0-.11,0-.22,0-.34a.26.26,0,0,0,.3.14.53.53,0,0,1,0,.13c0,.61.89.6.94,0,.85-8.82,1.39-17.68,1.71-26.54C221.63,171.67,220.74,171.69,220.69,172.26Z"/><path class="cls-2" d="M215.21,201.33c-.15-1.42-.25-2.83-.33-4.25,0-2.46.11-4.93,0-7.39,0-1,.06-1.95.1-2.93,0,0,0,0,0,0l.09-.7s0,0,0,0c0,.19-.06.38-.1.56a.41.41,0,0,0-.1-.13c0-.11,0-.22,0-.33a.41.41,0,0,0-.24-.38c0-.13,0-.25,0-.38a.23.23,0,0,0-.46,0l-.05.44a.42.42,0,0,0-.14.32c0,.2,0,.41,0,.61a.43.43,0,0,0-.16.3c0,.39,0,.77-.07,1.15a.46.46,0,0,0-.39.39c-.19,1.54-.32,3.08-.4,4.63-.21,2.35-.41,4.71-.62,7.07,0,.51.83.63.91.12l.18-1.12a.45.45,0,0,0,.19-.15c.05,1.37.14,2.75.25,4.13a.49.49,0,0,0,.5.45c.13.24.61.15.58-.16,0-.59-.07-1.18-.11-1.77A.4.4,0,0,0,215.21,201.33Z"/><path class="cls-1" d="M225.49,187.19c-.08.27-.15.54-.23.81h0c.34-1.81.68-3.61,1-5.42.1-.54-.73-.79-.84-.23-1.11,5.33-2.3,10.64-3.09,16a.06.06,0,0,0,0,.07c-.14.79-.29,1.57-.44,2.36-.11.58.76.84.9.25l.11-.41a.43.43,0,0,0,.35-.06c0,.64,0,1.28,0,1.92a.11.11,0,0,0,.22,0,99.12,99.12,0,0,1,2.91-15.06A.46.46,0,0,0,225.49,187.19Z"/><path class="cls-3" d="M218.17,200.8c-.21-3.55-.38-7.1-.62-10.66l-.72-10.65c0-.56-.9-.58-.89,0,0,1.16.05,2.31.08,3.46a.18.18,0,0,0-.08.15c-.19,3.06-.05,6.15-.08,9.22s-.11,6.14-.25,9.22a.43.43,0,0,0,.8.21,2,2,0,0,0,.17-.32,1.18,1.18,0,0,0,.23.28.61.61,0,0,0,1-.5A.42.42,0,0,0,218.17,200.8Z"/><path class="cls-4" d="M226.66,170.35a84,84,0,0,0-6.41,23.83c-.08.55-.14,1.09-.2,1.64-.29,1.19-.55,2.39-.75,3.6a.19.19,0,0,0,.33.18c0,.51-.1,1-.14,1.52a.45.45,0,0,0,.46.51.41.41,0,0,0,.69-.16c.43-2,.7-4,1.09-6s.8-4,1.24-6c.27-1.23.56-2.47.84-3.7q1-3.54,1.9-7.1a.4.4,0,0,0-.12-.43c.07-.27.13-.53.19-.79.56-2.26,1.11-4.52,1.71-6.76C227.62,170.22,226.88,169.87,226.66,170.35Z"/><path class="cls-5" d="M247.16,210.46c-1.28,3.93-4.88,6.63-8.54,8.2A33.18,33.18,0,0,1,226.11,221c-4.68.08-9.37-.34-14-.64l-15.66-1c-10.39-.67-20.79-1.32-31.18-2-2.47-.17-5-.21-7.43-.59-2-.31-4-1.22-4.92-3.17-.27-.61-.69-1.92-.06-2.42a11.77,11.77,0,0,1,1.58-.91c.53-.29,1.06-.58,1.6-.85a58.28,58.28,0,0,1,6.37-2.8,40,40,0,0,1,14.39-2.86c2.2,0,4.32.5,6.5.66,1.61.12,3.58.07,4.53-1.47a.56.56,0,0,1,.85-.11c1,1.19,2.79,1,4.19.78l5.88-.95,2.9-.47a13.09,13.09,0,0,0,2.32-.48c1.37-.51,1.8-2.06,3-2.85,1.8-1.22,4.13-.27,6,.25a5.75,5.75,0,0,0,3,.29c1.25-.35,1.63-1.69,2.54-2.48a2.7,2.7,0,0,1,4.23,1.45c1.32-.67,3.13.07,4.29.86,1.81,1.23,3.31,2.86,5.14,4.08,1.61,1.06,3.77,1.84,5.68,1.16.9-.31,1.55-1.2,2.53-1.28a2.4,2.4,0,0,1,2,1.12,22.87,22.87,0,0,1,1.78,2.93c.58,1,1.14,2.07,1.7,3.12.07-.21.15-.42.21-.64a6.91,6.91,0,0,0,.45-2.05c0-.54.81-.53.83,0A7.7,7.7,0,0,1,247.16,210.46Z"/><path class="cls-6" d="M240.78,317.73a2.85,2.85,0,0,1-1.55,1.78,10.77,10.77,0,0,1-1.79.79.29.29,0,0,0-.21-.08c-2.17,0-5.63.58-6.41-2.22a2.55,2.55,0,0,0-.6-1.26,2.72,2.72,0,0,0-1.46-.61c-1.39-.25-2.79-.46-4.18-.7-5.63-.94-11.26-1.91-16.89-2.82a78.45,78.45,0,0,0-8.36-1,50.8,50.8,0,0,0-8.27.3,146.12,146.12,0,0,0-16.46,3q-4.64,1.06-9.22,2.28c-1.49.39-3,.8-4.47,1.22-1.24.35-2.52.65-3.73,1.12a.59.59,0,0,0-.19,0,4.82,4.82,0,0,1-1.14.05c-.51,0-.56-.12-.51-.64.07-.82.16-1.64.24-2.46.16-1.63.31-3.27.47-4.9s.2-3.13.43-4.67a2.82,2.82,0,0,1,.89-1.77,3.25,3.25,0,0,1,.84-.51c.1,0,.26-.14.42-.23a1.91,1.91,0,0,0,1.57.28c.77-.08,1.53-.27,2.29-.4s1.69-.26,2.55-.36,1.67-.12,2.5-.25a.3.3,0,0,0,.25-.36l.2,0c3.2-.42,6.4-.9,9.59-1.41,6.38-1,12.73-2.28,19-3.73,1.81-.42,3.61-.85,5.42-1.3l2.58-.65a8.69,8.69,0,0,0,2.61-.9.37.37,0,0,0,.16-.26,8.61,8.61,0,0,1,.88,0,17.78,17.78,0,0,1,3.24.44,56,56,0,0,1,6.34,2c4.27,1.53,8.51,3.2,12.89,4.37,1.21.33,2.43.61,3.65.84l.85.14a.42.42,0,0,0,.37.47,9.69,9.69,0,0,1,2.72.62,1.29,1.29,0,0,1,.89,1.12c.05.46.06.93.09,1.4a52.07,52.07,0,0,0,.87,6.1C240.49,314.15,241.23,316.06,240.78,317.73Z"/><path class="cls-7" d="M241.76,318.54a3.57,3.57,0,0,1-2,1.85,6,6,0,0,1-2.28.28.34.34,0,0,1-.19.2c-2.36.82-5.58.87-7.16-1.43a3.32,3.32,0,0,1-.4-.77,5.26,5.26,0,0,0-.29-.9c-.32-.49-1.27-.48-1.78-.57l-4.79-.8c-5.62-.94-11.24-1.94-16.87-2.81a60.76,60.76,0,0,0-8.41-.8,55.36,55.36,0,0,0-8.33.57c-5.55.76-11,2-16.5,3.26-2.73.65-5.44,1.34-8.15,2.06l-4,1.09a28.21,28.21,0,0,1-4,1,.35.35,0,0,1-.25-.07,2.26,2.26,0,0,1-1.62,0c-.9-.42-.72-1.39-.64-2.21.22-2.16.46-4.33.7-6.5.12-1.1.23-2.21.36-3.31a11.73,11.73,0,0,1,.46-2.71,3,3,0,0,1,1.39-1.65,2.54,2.54,0,0,1,1-.33.86.86,0,0,1,.29,0,.13.13,0,0,1,.06-.14,10.15,10.15,0,0,1,2.61-.57l2.64-.35,5.28-.7q9.65-1.37,19.2-3.33c3.2-.66,6.4-1.36,9.58-2.11,1.57-.37,3.14-.76,4.71-1.15l2.34-.6a13.8,13.8,0,0,1,1.61-.37,11.15,11.15,0,0,1,1.82-.34,11.52,11.52,0,0,1,3.56.18,45.13,45.13,0,0,1,6.59,1.93c2.17.75,4.31,1.56,6.48,2.31s4.4,1.49,6.64,2.06c1.14.3,2.28.55,3.44.76a15.18,15.18,0,0,1,3.24.59.39.39,0,0,1,.22.34l.41.18a2.61,2.61,0,0,1,1.73,2.34,61.1,61.1,0,0,0,1,7.52C241.86,314.45,242.61,316.63,241.76,318.54Z"/><path class="cls-8" d="M251.22,211.94a5.76,5.76,0,0,0-3.8-3.39c-.41-.29-1.52-.1-1.8-.07a28.12,28.12,0,0,0-2.89.49c-.51.11-1,.27-1.48.41s-1,.22-1.5.37a.22.22,0,0,0-.13.3l-2,.23-9.81,1.14-19.35,2.23c-6.41.74-12.81,1.57-19.25,2a115.19,115.19,0,0,1-19.39-.51c-7-.77-13.93-2.24-20.93-3.13l-.1,0-.13,0h-.39l-.1,0,0-.19a.14.14,0,0,0-.27-.07c-2.87,10.72-1.75,22-1.07,33,.7,11.42,1.45,22.85,2.18,34.27.2,3.2.41,6.4.61,9.6.19,3,.26,6,.63,8.94l0,.26c0,.13,0,.27,0,.4a3.87,3.87,0,0,0,.05.49.54.54,0,0,0,0,.11l-.95-.21a.14.14,0,0,0-.08.27,135.73,135.73,0,0,0,19,4.23A176.34,176.34,0,0,0,187.4,305a180.72,180.72,0,0,0,38.52-2.4,178.26,178.26,0,0,0,20.15-4.66h.05a1.61,1.61,0,0,0,.44,1.23,1.12,1.12,0,0,0,.92.25,1.34,1.34,0,0,0,.79-.48,1.87,1.87,0,0,0,.34-1.88,1,1,0,0,0-.24-.32.06.06,0,0,0,0,0s0,0,0,0a.83.83,0,0,0,.15-.11l.07-.09a.29.29,0,0,0,.14-.24c.26-3.15.25-6.31.31-9.47s.13-6.31.21-9.46q.24-9.34.59-18.68c.48-12.54,1.29-25.05,1.86-37.58C251.86,218.07,252.4,214.75,251.22,211.94ZM248,295.45h0Zm-.26,3.57a.87.87,0,0,1-.65.09,1,1,0,0,1-.57-.33,1.41,1.41,0,0,1-.22-.9h.15l.15,0h.05s0,0,0,0a1.63,1.63,0,0,0,.57-.17,3.17,3.17,0,0,0,.49-.24,2.16,2.16,0,0,0,.53-.47A1.52,1.52,0,0,1,247.71,299Z"/><path class="cls-9" d="M160.73,304.18c.7,0,1.4-.09,2.1-.17a28.44,28.44,0,0,0,5.51-.92c.11,0,.1-.23,0-.22-1.88.09-3.72.47-5.59.68l-1.92.19C160.78,303.89,160.75,304,160.73,304.18Z"/><path class="cls-9" d="M162.09,225.51a.17.17,0,0,0-.06-.14,1.26,1.26,0,0,0-.12-.49,2.36,2.36,0,0,0-1.1-.72,4.61,4.61,0,0,0-1.38-.31c-.45,0-.91,0-1.37-.08a6.49,6.49,0,0,0-1.08,0,6.29,6.29,0,0,0-1.15-.07,5.18,5.18,0,0,0-1.5.29l-.6.23a8.88,8.88,0,0,0-1.2.32.42.42,0,0,0-.29.38c0,.19,0,.38,0,.57a.08.08,0,0,0,0,.05c0,.06,0,.11,0,.17v0s0,0,0,0,0,0,0,0c-.57,13.89-.95,27.8-1.32,41.7q-.56,21.19-.92,42.38-.21,12-.35,23.93a.47.47,0,0,0,.33.43c2.24.9,5.66,1.79,7.71,0,1.34-1.17,1.2-3,1.17-4.61l-.12-6.74-.06-3.2.38-.08-.06-.56-.33.09q-.12-7.46-.25-14.91h.27c0-.1,0-.2,0-.31l-.3,0c0-1.08,0-2.16-.05-3.24q.24-3.44.47-6.87.56-8.25,1.05-16.52c.67-11,1.3-22.11,1.76-33.18.13-3.07.26-6.13.36-9.2.06-1.57.11-3.15.15-4.72S162.08,227.09,162.09,225.51Z"/><path class="cls-10" d="M224.35,144.8l-.6,4.4c-.07.52,0,1.28-.48,1.62a7.65,7.65,0,0,1-1.66.72c-.3.13-.51-.22-.47-.47l1.24-7.95c.2-1.31.43-2.62.62-3.94.08-.59.15-1.19.22-1.78,0-.35.08-.7.13-1.05s.1-.62.16-.93a.08.08,0,0,1,.15,0c0,.21.06.42.08.63a3.12,3.12,0,0,1,0-.43.34.34,0,0,1,.63-.17,2.87,2.87,0,0,1,.27.72.29.29,0,0,1,.26.27C225.38,139.19,224.72,142.06,224.35,144.8Z"/><path class="cls-1" d="M220.31,128.87a.29.29,0,0,0,0-.16c0-.19,0-.38,0-.57s-.17-.14-.2,0l-.06.4a.38.38,0,0,0-.52.26,86.7,86.7,0,0,0-1.43,23.68c0,.24.26.51.53.4a5.85,5.85,0,0,0,1.45-.63.74.74,0,0,0,.22-.33.32.32,0,0,0,.18-.3A148.55,148.55,0,0,1,220.31,128.87Z"/><path class="cls-11" d="M176.9,180.16c0-.53,0-1,0-1.57.1-2.9.47-5.8-.27-8.65-.1-.4-.62-.27-.67.09s-.08.78-.11,1.16c-.07-.86-.14-1.72-.29-2.56-.07-.36-.54-.22-.57.07l-.06.45a.17.17,0,0,0,.07.17c0,.29,0,.57,0,.85-.2-.18-.61-.1-.57.22l.39,3.16a3,3,0,0,0-.89-1.31c-.06,0-.13,0-.08.08a4.35,4.35,0,0,1,.83,2.68c.12,1,.28,2,.44,3,.33,2.12.67,4.23,1,6.35.06.37.7.29.66-.09l-.09-.73a.3.3,0,0,0,.13-.27c0-.38-.06-.77-.1-1.16a.28.28,0,0,0,.18-.3l0-1a.26.26,0,0,0,0-.15Z"/><path class="cls-12" d="M179,178.33c-.21.28-.4.56-.59.85l-.05.07c-.21.32-.42.65-.62,1l-.6,0c-3.94,2.21-6.35,6.25-9.63,9.25s-7.56,4.4-11.84,5.55c-2.24.59-4.48,1.17-6.65,2-2.38.89-4.67,2-7,3a36.06,36.06,0,0,1-6.92,2.31c-2.53.52-5.11.7-7.63,1.26a34.91,34.91,0,0,0-7.33,2.78l-7.33,3.53c-.49.23-1.05-.39-.61-.79l14.56-13.37c4.21-3.87,8.32-7.89,12.75-11.5a54.8,54.8,0,0,1,13.44-8.12l1-.41c-.63.6-1.26,1.22-1.85,1.86-2.95,3.17-5.23,6.84-5.27,11.36a.52.52,0,0,0,.76.44q7.77-5.31,15.81-10.25c2.38-1.46,4.77-2.9,7.19-4.3l.69-.4.5-.29A20.24,20.24,0,0,1,179,178.33Z"/><path class="cls-13" d="M139.32,188c-2.87,2.34-5.66,4.73-8.36,7.26-1.33,1.24-2.66,2.47-4,3.74s-2.47,2.8-3.73,4.19c0,0,0,.06,0,0,1.44-1.07,2.94-2,4.31-3.18s2.8-2.49,4.16-3.76c2.75-2.55,5.33-5.22,7.83-8A.2.2,0,0,0,139.32,188Z"/><path class="cls-13" d="M173.22,179.53l-.35-.34s0,0-.06-.05a8,8,0,0,0-2.06-1.49,10.63,10.63,0,0,0-3-.9,12.76,12.76,0,0,0-6.67,1c-2.35.94-4.65,2-7,3.06-2.16,1-4.35,1.9-6.46,3a24.11,24.11,0,0,0-4.59,2.89c-.24.14-.48.3-.71.46a18.7,18.7,0,0,0-8.59,3.5,37.7,37.7,0,0,0-3.78,3c-.62.56-1.22,1.15-1.79,1.77s-1,1.31-1.58,2a.05.05,0,0,0,.07.07c.64-.5,1.32-.93,2-1.44s1.19-1,1.79-1.48c1.23-1,2.46-2,3.77-2.93a32.46,32.46,0,0,1,3.89-2.32,24.51,24.51,0,0,1,3.2-1.32,29.34,29.34,0,0,0-3.46,3.61c-1.09,1.29-2.16,2.61-3.32,3.83-.56.58-1.16,1.12-1.75,1.67l-.84.8a16.19,16.19,0,0,0-2.16,1.56s0,0,0,0c.37-.25.76-.48,1.15-.71l0,0c-.12.11,0,.34.16.28A9.47,9.47,0,0,0,133.2,198a7.7,7.7,0,0,0,.76-.63c2.21-.9,4.51-1.6,6.71-2.45,1.78-.69,3.53-1.45,5.25-2.26-1.08.73-2.14,1.52-3.25,2.22q-1,.63-1.95,1.23a57.34,57.34,0,0,0-5.65,2.12c-1.75.76-3.91,1.39-5.1,3l-.33.13a.32.32,0,0,0,.17.61,39.26,39.26,0,0,0,4.71-1.43,46,46,0,0,0,4.49-2.12,32.3,32.3,0,0,0,4.17-2.65,23.41,23.41,0,0,0,3.69-3.27.19.19,0,0,0,0-.27q2.47-1.2,4.87-2.52a44.81,44.81,0,0,0,4.83-3.07c2.22-1.08,4.48-2.11,6.73-3.13,1.6-.72,3.21-1.41,4.85-2.06l2.39-.92a12.15,12.15,0,0,0,2-.84,1.7,1.7,0,0,1,.35.19l.09.07v0C173.17,180,173.43,179.73,173.22,179.53Z"/><path class="cls-12" d="M292.88,136.81a60.26,60.26,0,0,1-17.41,4.27l-2,.22c.17-.35.32-.7.47-1.06a17.17,17.17,0,0,0,.6-1.75.5.5,0,0,0-.35-.61c-5.75-.81-11.46.41-16.9,2.24-2.09.7-4.18,1.45-6.25,2.25-1.62.63-3.24,1.28-4.83,2-1.16.28-2.32.61-3.47,1a38.15,38.15,0,0,0-10.26,5c0-.22,0-.43-.06-.64.12-.26.24-.51.35-.77a84.36,84.36,0,0,0,5.12-14.33c.12-.43.23-.86.32-1.29.42-.2.85-.38,1.28-.55A27.12,27.12,0,0,1,250.17,131a38.2,38.2,0,0,1,5.54.63,38.73,38.73,0,0,0,6.06.92.51.51,0,0,1,.38.82c.58-.14,1.17-.28,1.75-.4a49.2,49.2,0,0,1,29,2.94A.5.5,0,0,1,292.88,136.81Z"/><path class="cls-1" d="M289.83,135.92a.36.36,0,0,0-.23-.37c-.94-.27-1.85-.53-2.81-.72l-2.85-.57c-1.85-.35-3.7-.66-5.56-.91-3.68-.5-7.48-.85-11.09.21-1.75.52-3.43,1.19-5.23,1.57s-3.71.61-5.53,1.09a50.44,50.44,0,0,0-9.92,4.16q-2.85,1.44-5.69,2.89c-.95.48-1.88,1-2.8,1.52s-1.93,1.24-2.93,1.8c0,0,0,0,0,0,.87-.39,1.78-.67,2.66-1l1.6-.69a.43.43,0,0,0,.58.36,197.37,197.37,0,0,1,19.37-5.44A162.59,162.59,0,0,1,279.19,137c3.31-.28,6.62-.46,9.92-.78l.4.05a.27.27,0,0,0,.26-.11l.78-.08s0,0,0-.05Zm-39.21,4.92c-.61.16-1.2.34-1.8.51,2.14-.68,4.3-1.34,6.47-2a.5.5,0,0,0,.23.2C253.88,140,252.24,140.39,250.62,140.84Z"/><path class="cls-12" d="M308.93,202.21a.5.5,0,0,0-.61-.35,9.36,9.36,0,0,1-1.08.16l-.42-.13-.3-.11-.06,0-.13-.06a2.53,2.53,0,0,1-.23-.12.55.55,0,0,0-.27-.25c-.15,0-.29-.13-.43-.19l-.13-.08a.41.41,0,0,0-.22-.07c-5-2.13-9.28-5.51-13.36-9-4.49-3.86-8.87-7.86-13.67-11.33a65,65,0,0,0-7.86-4.87c-.31-.18-.63-.34-1-.5a66.5,66.5,0,0,0-21.58-6.64,65.36,65.36,0,0,0-8.84-.54c-1.43,0-2.87.07-4.3.18l-1.2.09-.71.48.11.07c.23.14.46.29.68.45l.3.23.51.41q.93.73,1.83,1.5c2.7,2.27,5.29,4.87,6.54,8.24.12.32.22.64.31,1a11.44,11.44,0,0,1,.26,1.16l5.21,2,2.29.86,6.4,2.41c10.59,4,21.06,8.28,31.52,12.6,5.53,2.29,11.4,4.35,17.48,3.84a.51.51,0,0,0,.46-.46l.66,0h0a.53.53,0,0,0,.35,0,9.91,9.91,0,0,0,1.07-.17A.49.49,0,0,0,308.93,202.21Z"/><path class="cls-14" d="M285.91,164.79a58.33,58.33,0,0,0-9.75,5.7c-2.13,1.61-4,3.49-6,5.27-.31-.18-.63-.34-1-.5a66.5,66.5,0,0,0-21.58-6.64,65.36,65.36,0,0,0-8.84-.54c-1.43,0-2.87.07-4.3.18q5.46-1.6,11-2.94c3.49-.85,7.18-2,10.8-1.77a48.1,48.1,0,0,1,5.23.77,48,48,0,0,0,5.72.57,49,49,0,0,0,10.88-.79c1.58-.3,3.15-.83,4.75-1a3.11,3.11,0,0,1,3.23,1.06A.49.49,0,0,1,285.91,164.79Z"/><path class="cls-1" d="M272.9,217l-12.68-9.06c-6.5-4.64-13.16-9.13-19.37-14.17.15-.3.29-.61.43-.92.23-.48.43-1,.63-1.47a19.32,19.32,0,0,0,1.42-6.85l.57.07-.56-.42c0-.21,0-.43,0-.64a4.89,4.89,0,0,0-.05-.66c.36.25.71.51,1.06.78s1,.73,1.44,1.1c3.77,2.92,7.36,6.07,10.9,9.23s7.14,6.31,10,10.18a84.89,84.89,0,0,1,7,12.14C273.78,216.72,273.34,217.31,272.9,217Z"/><path class="cls-15" d="M274.51,138.49a17.17,17.17,0,0,1-.6,1.75c-.15.36-.3.71-.47,1.06a25.16,25.16,0,0,1-7.45,8.92c-3.95,3.07-8.49,5.21-13,7.36-4.22,2-8.41,4.1-12.5,6.39-2.46,1.37-4.87,2.82-7.22,4.38l-1.39.15c-.24,0-.49.05-.73.09q-1,.12-1.95.27a.38.38,0,0,0-.24.13l-.35,0h0l-5,.48c1.21-3,3.08-5.65,4.52-8.55a14.57,14.57,0,0,0,1.64-5.31,8.3,8.3,0,0,0,0-1.41l.12-.12c.52-.5,1.06-1,1.61-1.45q.48-.42,1-.81a49,49,0,0,1,9.87-5.84c1.25-.58,2.52-1.14,3.8-1.69,1.59-.68,3.21-1.33,4.83-2,2.07-.8,4.16-1.55,6.25-2.25,5.44-1.83,11.15-3.05,16.9-2.24A.5.5,0,0,1,274.51,138.49Z"/><path class="cls-16" d="M250.62,184.66a32.84,32.84,0,0,1-4.86.1c-.47-.37-.95-.74-1.44-1.1s-.7-.53-1.06-.78c0-.35-.08-.69-.14-1l5.21,2Z"/><path class="cls-17" d="M243.9,184.6l-.57-.07c0-.12,0-.23,0-.35Z"/><path class="cls-18" d="M237.47,89.49c-.83-2.94-1.92-5.78-2.83-8.69s-1.64-6.26-.83-9.41c.12-.45-.5-.9-.83-.49a73.88,73.88,0,0,0-14.86,30.88A68.2,68.2,0,0,0,216.48,119a30.53,30.53,0,0,0,1.49,8.75,25.85,25.85,0,0,0,4.34,7.46c2,2.45,4.33,4.94,6.17,7.67.24.34.46.69.67,1a15.66,15.66,0,0,1,2.21,5.62c-.08.16-.14.32-.22.48s0,0,0,0a.52.52,0,0,0,.36.71c0,.09,0,.18,0,.27a11.24,11.24,0,0,1,0,1.42.47.47,0,0,0,0,.24q.48-.42,1-.81a10,10,0,0,0-.06-1.55c0-.22,0-.43-.06-.64.12-.26.24-.51.35-.77a84.36,84.36,0,0,0,5.12-14.33c.12-.43.23-.86.32-1.29a85.11,85.11,0,0,0,2.12-12.79A86.24,86.24,0,0,0,237.47,89.49Z"/><path class="cls-2" d="M243.34,184.18c0,.12,0,.23,0,.35a19.32,19.32,0,0,1-1.42,6.85c-.2.5-.4,1-.63,1.47-.14.31-.28.62-.43.92a92.46,92.46,0,0,1-5,8.46l-7.09,11.26a.51.51,0,0,1-.92-.39,17.77,17.77,0,0,0-1-9.51c-1.82-5.42-4.89-10.66-4.94-16.53a21.94,21.94,0,0,1,3-10.88c.16-.3.33-.6.52-.89s.3-.49.46-.73a2.92,2.92,0,0,1,.21-.32l.37-.54c.19-.27.38-.53.59-.79,1.1-.9,2.22-1.76,3.36-2.59l.46-.33h0l.06,0h0l.55-.39.11-.08.93-.64.11.07c.23.14.46.29.68.45l.3.23.51.41q.93.73,1.83,1.5c2.7,2.27,5.29,4.87,6.54,8.24.12.32.22.64.31,1a11.44,11.44,0,0,1,.26,1.16c.06.34.11.68.14,1a4.89,4.89,0,0,1,.05.66C243.33,183.75,243.34,184,243.34,184.18Z"/><path class="cls-19" d="M231.5,151c-.7.51-1.37,1.07-2,1.66,0-.12-.07-.24-.11-.36a.52.52,0,0,0-.48-.37h-.06q-.81-.06-1.62-.18l-1-.16c.47-1.89.76-3.84,1.23-5.71a18.1,18.1,0,0,1,1-3c.24.34.46.69.67,1a15.66,15.66,0,0,1,2.21,5.62c-.08.16-.14.32-.22.48s0,0,0,0a.52.52,0,0,0,.36.71C231.49,150.83,231.5,150.92,231.5,151Z"/><path class="cls-19" d="M233.29,168.35l-.71.48-.93.64-.11.08-.55.39h0l-.06,0h0l-.46.33c-1.14.83-2.26,1.69-3.36,2.59-.21.26-.4.52-.59.79l-.37.54-.43-.17c-.33-.15-.66-.31-1-.48a12.38,12.38,0,0,1-1.47-.91,6.61,6.61,0,0,1-.6-.44c.19-.57.38-1.13.59-1.69.09-.27.2-.54.3-.81a1.6,1.6,0,0,1,.1-.23l5-.48h0l.35,0a.38.38,0,0,1,.24-.13q1-.15,1.95-.27c.24,0,.49-.06.73-.09Z"/><path class="cls-16" d="M225.71,174.07c-.33-.15-.66-.31-1-.48a12.38,12.38,0,0,1-1.47-.91,6.61,6.61,0,0,1-.6-.44,2.58,2.58,0,0,0-.08.26c-.09.25-.17.49-.25.74l-.12.39c.45.34.88.7,1.29,1.07.25.22.48.45.71.69s.5.52.74.79c.16-.3.33-.6.52-.89s.3-.49.46-.73a2.92,2.92,0,0,1,.21-.32Zm-1.48,0,0,0,.07,0Z"/><path class="cls-20" d="M224.26,174l0,0,0,0Z"/><path class="cls-21" d="M224.21,175.39q-2.16,2-4.14,4.13c.19-.41.36-.83.53-1.25s.31-.8.45-1.2c.79-.82,1.61-1.61,2.45-2.37C223.75,174.92,224,175.15,224.21,175.39Z"/><path class="cls-1" d="M220.45,149.49a6.87,6.87,0,0,0-.65-.45.17.17,0,0,0,0-.07h0l-.37-.17-.18-.09-.15,0h0a.52.52,0,0,1-.36-.16,7,7,0,0,0-1.28-.38,19.16,19.16,0,0,0,.34,2l1.09-.5,0,0s0,0,0,0l.12-.09h0l.13,0h.12l.06,0a.15.15,0,0,1,.05-.07.31.31,0,0,1,.16-.11.41.41,0,0,1,.19,0h.06a.48.48,0,0,1,.26.07l.1.08a.4.4,0,0,1,.1.18l.12,0h.06S220.47,149.5,220.45,149.49Z"/><path class="cls-22" d="M229.81,155.65a14.57,14.57,0,0,1-1.64,5.31c-1.44,2.9-3.31,5.53-4.52,8.55a1.6,1.6,0,0,0-.1.23c-.1.27-.21.54-.3.81-.21.56-.4,1.12-.59,1.69a2.58,2.58,0,0,0-.08.26c-.09.25-.17.49-.25.74l-.12.39c-.37,1.15-.74,2.31-1.16,3.44q-.21.6-.45,1.2c-.17.42-.34.84-.53,1.25a52.76,52.76,0,0,1-2.72,5.42,139.74,139.74,0,0,1-8.59,12.73c-5.82,8-12,16.42-13.3,26.48a.5.5,0,0,1-1,0A26.42,26.42,0,0,0,191.27,214a16.08,16.08,0,0,1-1.89-4.81,14.46,14.46,0,0,1,.15-5.08c.57-3.15,1.56-6.24,2.28-9.36l.81-3.54c.12-.54.24-1.08.37-1.62.3-1.36.61-2.71.94-4.06.06-.24.11-.47.18-.71q.13-.6.3-1.2c.39-1.57.82-3.13,1.29-4.69h0c.2-.63.4-1.26.61-1.88a51.75,51.75,0,0,1,3.7-8.66c.26-.47.52-.93.81-1.39.11-.2.24-.4.37-.59s.32-.51.49-.76l1.09-.35c-.3,0-.59,0-.89.06a33.93,33.93,0,0,1,5.14-6c.26-.25.52-.49.79-.71a25.86,25.86,0,0,1,9.67-5.45l.68-.19.53-.33c.38-.24.77-.48,1.15-.69a8.18,8.18,0,0,1,2.48-.88.46.46,0,0,1,.57-.29l.7.19a6.73,6.73,0,0,1,1.81.27.52.52,0,0,1,.27.2l.55.1,1,.16q.81.12,1.62.18h.06a.52.52,0,0,1,.48.37c0,.12.08.24.11.36a6.74,6.74,0,0,1,.32,1.57A8.3,8.3,0,0,1,229.81,155.65Z"/><path class="cls-19" d="M207.81,158.66c-.27.22-.53.46-.79.71a33.93,33.93,0,0,0-5.14,6,31.22,31.22,0,0,0-12.63,3.84c-.68.37-1.34.77-2,1.2h0a41.08,41.08,0,0,1-8.5-.72c.35-.27.69-.55,1-.85a56.62,56.62,0,0,0,4.86-5.05,24.42,24.42,0,0,1,5.84-4.83,37.54,37.54,0,0,1,9-3.58l1.4-.38,2.09,1.12Z"/><path class="cls-23" d="M202.77,165.28l-1.09.35a2.51,2.51,0,0,1,.2-.29C202.18,165.31,202.47,165.29,202.77,165.28Z"/><path class="cls-15" d="M201.88,165.34a2.51,2.51,0,0,0-.2.29c-.17.25-.34.5-.49.76s-.26.39-.37.59c-.29.46-.55.92-.81,1.39a51.75,51.75,0,0,0-3.7,8.66c-.21.62-.41,1.25-.61,1.88h0c-1.8,1.61-3.62,3.21-5.44,4.79L189,184.8q-3.92,3.42-7.9,6.76c-6,5-12.13,10.09-19.2,13.58-.48.24-1-.38-.6-.78a56.06,56.06,0,0,0,9.25-10.9c.94-1.44,1.77-2.94,2.56-4.46l.8-1.57c.94-1.86,1.85-3.74,2.85-5.58.3-.55.61-1.09.94-1.62.2-.33.41-.66.62-1l.05-.07c.19-.29.38-.57.59-.85a29.73,29.73,0,0,1,4.95-5.45,32.26,32.26,0,0,1,3.34-2.5h0c.65-.43,1.31-.83,2-1.2A31.22,31.22,0,0,1,201.88,165.34Z"/><path class="cls-18" d="M194.24,143.88q-8.62.23-17.24.69a188.44,188.44,0,0,0-21.35,2.12q-1,.15-1.92.33a105.2,105.2,0,0,0-11.33,2.79c-3.67,1.11-7.32,2.33-11,3.34a66.24,66.24,0,0,1-11.16,2.06,70,70,0,0,0-11.37,1.55c-3.61,1-6.89,2.93-10.67,3.21s-7.64-.81-11.3-1.88a.51.51,0,0,1,.14-1,22.6,22.6,0,0,0,3.65-.52c4.75-1.05,9.18-3.19,13.77-4.76s9.27-2.8,14-3.9c9.4-2.21,18.94-3.85,28.26-6.42a109.25,109.25,0,0,0,13.84-4.77c4.49-1.9,8.93-4,13.66-5.28a35.16,35.16,0,0,1,5.57-1l.87.91c.89.91,1.78,1.81,2.68,2.71a106.41,106.41,0,0,0,9.65,8.86C193.38,143.25,193.8,143.57,194.24,143.88Z"/><path class="cls-19" d="M194.41,183.61q-.16.6-.3,1.2c-.07.24-.12.47-.18.71-.33,1.35-.64,2.7-.94,4.06-.13.54-.25,1.08-.37,1.62a35.66,35.66,0,0,1-7.23,4.19,49.42,49.42,0,0,0-7.37,4,51,51,0,0,0-5.85,4.95c-3.69,3.54-7.17,7.36-11.45,10.2-4,2.64-8.58,4-13,5.67-4.28,1.59-8.68,3.54-11.53,7.27-.32.43-1.09.2-.91-.38,1.46-5,5.45-8.42,9.5-11.38,3.9-2.87,7.9-5.51,11.11-9.2,3.43-3.94,6.12-8.46,9.58-12.38a28.92,28.92,0,0,1,5.82-5.17,26.7,26.7,0,0,1,2.65-1.52l-.8,1.57c-.79,1.52-1.62,3-2.56,4.46a56.06,56.06,0,0,1-9.25,10.9c-.44.4.12,1,.6.78,7.07-3.49,13.2-8.54,19.2-13.58q4-3.34,7.9-6.76l1.26-1.09C191.65,183.64,193,183.61,194.41,183.61Z"/><path class="cls-12" d="M190.3,149.9c-.62.13-1.23.27-1.84.43s-1.22.31-1.83.48a39.83,39.83,0,0,0-15,7.67,76.7,76.7,0,0,0-6.8,6.93c-.8.87-1.61,1.72-2.44,2.54-.39.4-.78.78-1.18,1.16l-3.57.53a59.12,59.12,0,0,1-10.2.88,33.74,33.74,0,0,1-9-1.51,47.68,47.68,0,0,1-16-8.88c-.37-.31,0-.81.36-.86a68,68,0,0,0,19.75-5.6c2.67-1.2,5.29-2.53,8.06-3.5a35.5,35.5,0,0,1,5.45-1.42c1.11-.2,2.22-.36,3.34-.49,3-.35,6.1-.46,9.16-.55s6.12-.2,9.18-.1a44.23,44.23,0,0,1,8.95,1.15A33.68,33.68,0,0,1,190.3,149.9Z"/><path class="cls-22" d="M240.52,110.14c-.16-2.5-.43-5-.81-7.46-.2-1.62-.43-3.24-.71-4.86-.12-.7-.24-1.41-.37-2.12a.49.49,0,0,0,0-.2l0,0c-.32-1.72-.66-3.44-1.13-5.11a25.36,25.36,0,0,0-1.61-4,19.3,19.3,0,0,1-1.47-4.19c-.66-3-1-6-1.47-9.07a.46.46,0,0,0-.09-.2c.1-.26.19-.53.29-.8.24-.6-.73-.85-1-.26a52.59,52.59,0,0,0-3,14.1q-.78,7.66-1.32,15.37a190.47,190.47,0,0,0,.23,31.05c.26,2.82.59,5.62,1,8.42a24.13,24.13,0,0,0,1.81,7.31l.06.43a.75.75,0,0,0,.08.64.58.58,0,0,0,.19.33,2.83,2.83,0,0,1,0,.29c0,.64,1,.65,1,0,0-.25,0-.5,0-.75a.66.66,0,0,0,0-.53s0,0,0,0l0-.33.23-.45.51-1.18c.3-.72.6-1.45.88-2.18.46-1.18.88-2.37,1.29-3.57.2-.48.38-1,.57-1.43s.26-.65.39-1l0,0a43.31,43.31,0,0,0,1.54-4.76l.12-.46c.05-.22.11-.45.16-.67A56,56,0,0,0,240.21,120a70.64,70.64,0,0,0,.17-9.54A.42.42,0,0,0,240.52,110.14Zm-10.58-1.7q.3-6.5,1.22-12.94c.07-.37.13-.73.2-1.1a.41.41,0,0,0,0-.22c.18-1.16.36-2.31.57-3.47.26-1.48.56-3,.75-4.47.72,2.73,1.56,5.45,2.08,8.12a51.62,51.62,0,0,1,0,21.33,25.39,25.39,0,0,1-4,9.1C229.6,119.45,229.69,113.87,229.94,108.44Zm.78,32.34a5.51,5.51,0,0,1-.2-.8.43.43,0,0,0,.09-.28c-.09-.71-.14-1.42-.17-2.13a15.28,15.28,0,0,1,2.12-5.53,50.74,50.74,0,0,0,3.11-5.63C235.16,131.43,232.63,136.12,230.72,140.78Zm6.34-25.89c-.07.29-.13.58-.21.86a.53.53,0,0,0,0,.31,28.32,28.32,0,0,1-2.09,6.16c-1.46,3.21-3.09,6.34-4.67,9.49-.61-2.83,1.26-5.68,2.71-8a36.72,36.72,0,0,0,3.51-7.35c.29-.64.56-1.3.8-2C237.11,114.56,237.08,114.73,237.06,114.89Z"/><path class="cls-12" d="M220.2,159.9a10.7,10.7,0,0,0-4.32,2.33c-1.78.63-3.54,1.3-5.3,2a21.52,21.52,0,0,0-7.31,4.31,39.67,39.67,0,0,0-10.77,23.41c-.05.53.81.64.92.13,1.09-5.27,6.35-8.22,10.6-10.72a32.94,32.94,0,0,0,6.54-4.63,31.46,31.46,0,0,0,4.79-6.7c1.81-3.12,3.63-6.23,5.43-9.35A.53.53,0,0,0,220.2,159.9Z"/><path class="cls-12" d="M228,155.42a2.37,2.37,0,0,0-.62-1.51.23.23,0,0,0-.41-.19l-.6.86,0,0a1.88,1.88,0,0,0-.16.23,10.6,10.6,0,0,0-2.79,2.59,6.19,6.19,0,0,0-1,2,8.16,8.16,0,0,0-.08,2.7h0a9.85,9.85,0,0,0-.1,1.08,13.94,13.94,0,0,0,.07,1.45c0,.13,0,.25,0,.38a.39.39,0,0,0,0,.21,18,18,0,0,1-.39,2.31,30.27,30.27,0,0,1-1.95,5.13c-.11.23.19.53.38.3a12.6,12.6,0,0,0,2.09-3.91l.25-.38c.44-.74.9-1.48,1.33-2.22.89-1.52,1.72-3.06,2.57-4.6a11.68,11.68,0,0,0,1.5-4.12A8.59,8.59,0,0,0,228,155.42Z"/><path class="cls-12" d="M221.52,163.5s-.05,0-.08-.05v0a.45.45,0,0,0-.82-.34,11.69,11.69,0,0,0-1.92,8,.47.47,0,0,0,.86.24C221.16,169.17,222.23,166.18,221.52,163.5Z"/><path class="cls-12" d="M204.12,186.87,204,187l0,0c0-.07-.07-.14-.11-.06l-.18.28c-.48.31-1,.62-1.42,1l-.17.14a.46.46,0,0,0-.63.15l-.47.76-.4.34a12.49,12.49,0,0,0-1.18,1.24c-.43.41-.85.83-1.27,1.26a41.28,41.28,0,0,0-4.35,5.24,14.74,14.74,0,0,0-3,6.3,23.79,23.79,0,0,0,.65,7.46,22.84,22.84,0,0,0,2.79,8,.16.16,0,0,0,.28-.12c-.14-.71-.31-1.41-.49-2.1a.28.28,0,0,0,0-.13c0-2.1,0-4.2,0-6.3a22.11,22.11,0,0,1,.81-6.11,31.84,31.84,0,0,1,2.66-5.36c1-1.83,2-3.68,3-5.53,1.09-2.05,2.23-4.06,3.27-6.13l.32-.28S204.16,186.85,204.12,186.87Z"/><path class="cls-12" d="M221.58,174.09c0-.34.1-.68.13-1,0-.11-.18-.14-.2,0-.14.37-.26.74-.39,1.11a.23.23,0,0,0-.07.07c-3.65,5.36-5.84,11.59-9.37,17a87.54,87.54,0,0,1-5.61,6.87,56,56,0,0,0-4.9,7,41.3,41.3,0,0,0-2.2,4.29c-.57,1.33-.94,2.75-1.38,4.12a14.75,14.75,0,0,0-.57,1.7c-.09.34.41.57.58.25.77-1.42,1.41-2.91,2.15-4.33s1.55-2.83,2.41-4.2c1.72-2.76,3.62-5.39,5.55-8,3.81-5.15,7.77-10.25,10.71-16a32.31,32.31,0,0,0,2.92-7.53c.13-.32.28-.63.41-1A.31.31,0,0,0,221.58,174.09Z"/><path class="cls-12" d="M222.33,157.09c-1.66.4-3.25,1.13-4.88,1.65s-3.44.95-5.11,1.57a33.28,33.28,0,0,0-5,2.25,19.07,19.07,0,0,0-2.2,1.46c-.71.55-1.47,1-2.14,1.65-.14.13,0,.41.19.33.83-.34,1.61-.77,2.45-1.09s1.64-.69,2.46-1c1.72-.74,3.42-1.52,5.14-2.27s3.34-1.29,5-1.93a8.88,8.88,0,0,0,4.1-2.51S222.36,157.08,222.33,157.09Z"/><path class="cls-12" d="M209.92,184.7c-.07-.44-.15-.9-.19-1.37,0-.25.09-.49.12-.74a.56.56,0,0,0-.11-.4v-.1a.1.1,0,0,0-.19-.07.4.4,0,0,0-.57.2c-.88,1.7-2.32,3.11-2.85,5-.09.12-.19.23-.27.35-.23.34-.49.65-.69,1a10.37,10.37,0,0,0-.55,1.17,12.44,12.44,0,0,0-.8,2.29,3.55,3.55,0,0,0,0,.46,3.78,3.78,0,0,1-.13.67,4.92,4.92,0,0,0-.07,1.21.15.15,0,0,0,.28.07,6.15,6.15,0,0,0,.44-1c.14-.35.28-.67.45-1,.34-.69.53-1.47.83-2.19l.23-.59,0,.87a21.41,21.41,0,0,1-.3,3.09.23.23,0,0,0,.42.18c1.13-1.56.65-3.72.89-5.51a5.68,5.68,0,0,1,.55-1.78,12.53,12.53,0,0,0,0,1.84c0,.42,0,.85.1,1.27a2.72,2.72,0,0,0,.21.74v0a.16.16,0,0,0,.1.2l.08.2a.2.2,0,0,0,.33,0,3.24,3.24,0,0,0,.21-.62l.25-.3a8.74,8.74,0,0,0,.62-.88,6.12,6.12,0,0,0,.7-2A7.06,7.06,0,0,0,209.92,184.7Z"/><path class="cls-13" d="M238.15,193.59a33.36,33.36,0,0,1-2.67,4.69,25.89,25.89,0,0,0,.18-16.68,15.1,15.1,0,0,0-1.82-3.95c-.05-.28-.09-.56-.13-.84,0-.44,0-.88,0-1.32a7.72,7.72,0,0,0-.42-2.66,11.57,11.57,0,0,0-.17-1.58c-.08-.41-.69-.3-.7.09,0,.77.07,1.54.08,2.31s0,1.48,0,2.22c0,.19,0,.38,0,.57a.14.14,0,0,0-.05.16l0,.11c0,.92-.07,1.85-.15,2.77a58.41,58.41,0,0,1-2.36,5.67,25.78,25.78,0,0,0-2,6.42,27,27,0,0,0-.32,4.84,31.09,31.09,0,0,0-.61,3.17,6.91,6.91,0,0,0,.14,2.79c.23.86.59,1.69.81,2.55a6.49,6.49,0,0,1,.17,1.24,1.83,1.83,0,0,0,0,.33,7.85,7.85,0,0,0,.41,2.19.41.41,0,0,0,.75.1,18.47,18.47,0,0,0,1.07-1.95,8.91,8.91,0,0,0,1.5-1.63,13.8,13.8,0,0,0,1.06-1.56l.06-.07c-.72,1.42-1.45,2.83-2.16,4.26-.24.49.48.93.75.44,1.39-2.45,2.81-4.87,4.18-7.32l2-3.53a10.86,10.86,0,0,0,1.35-3.42C239.2,193.46,238.43,193,238.15,193.59Zm-4-1.15a27.88,27.88,0,0,1-1.9,6.36c-.47,1.18-1,2.35-1.41,3.55-.26.73-.48,1.45-.67,2.19l-.32.31c0-.44-.07-.88-.09-1.3-.06-1.09-.07-2.19-.05-3.28a50.52,50.52,0,0,1,1.88-13c.42-1.54,1.21-3.44,1.05-5.14.13-.26.27-.52.39-.8.05-.1.1-.2.14-.3.26,1.7.6,3.41.83,5.09A22.83,22.83,0,0,1,234.13,192.44Z"/><path class="cls-24" d="M99.49,121.07l0,0a.37.37,0,0,0-.12-.13l-.09,0h0a.39.39,0,0,0-.24,0,.38.38,0,0,0-.13.06.31.31,0,0,0-.09.07.36.36,0,0,0-.11.16.54.54,0,0,0,0,.18.24.24,0,0,0,.06.11.32.32,0,0,0,.09.08.37.37,0,0,0,.17,0l.12,0h0l.07,0,.09,0h0a.24.24,0,0,0,.11-.06h0a.32.32,0,0,0,.1-.1.3.3,0,0,0,0-.26Z"/><path class="cls-25" d="M165,139.49c.05,0,0-.08,0-.1a4.75,4.75,0,0,0-1.25-.06c-.46,0-.93,0-1.39,0s-.75.05-1.13.1l.15-.08c.09-.05,0-.21-.07-.17l-.8.34a87.93,87.93,0,0,0-11.79,1.24,49.46,49.46,0,0,0-6.68,1.79c-2.23.75-4.45,1.54-6.74,2.08-1.6.37-3.21.64-4.83.87l-3,.4h-.07l-.12,0v0a.44.44,0,0,0-.21.17l-.26,0c-.44.07-.86.17-1.28.27h-.09s0,0,0,0l-.37.08c-.07,0-.05.14,0,.13l.89-.09a10.59,10.59,0,0,0,1.12.1.36.36,0,0,0,.32.12c4.64-.51,9.29-1.13,13.91-1.77a77.24,77.24,0,0,0,13.31-2.73c.59-.18,1.16-.39,1.72-.61l4-.89c.76-.17,1.52-.34,2.28-.49a8.39,8.39,0,0,0,2.27-.62c.05,0,.05-.12,0-.13a4.37,4.37,0,0,0-1.25,0,3,3,0,0,0-.43-.06l.56,0A5.79,5.79,0,0,0,165,139.49Z"/><path class="cls-25" d="M121.6,147.76A67.55,67.55,0,0,0,112,150c-3.22.86-6.42,1.78-9.62,2.69a.36.36,0,0,0-.27.29c-.61.2-1.2.42-1.78.67-.07,0,0,.14,0,.12l.26-.08a0,0,0,0,0,0,0c.92-.11,1.84-.19,2.76-.31l1.4-.17.42-.07-.4.33-.36.28c-.35.25-.7.51-1,.78l-.06.05-.37.27a15,15,0,0,1-1.48.9,8,8,0,0,0-1.46.88.16.16,0,0,0,0,.07c-.25.11-.51.24-.77.33l-.08,0-1,.2a.14.14,0,0,0-.07.22l-.27.11a0,0,0,1,0,0,.09l.52-.12c1.65.31,3.45-.53,4.83-1.34,1.71-1,3.21-2.3,4.9-3.31a11.08,11.08,0,0,1,2.58-1.16c.72-.13,1.43-.29,2.14-.48l1.18-.22a10.89,10.89,0,0,0,4.18-1.8c1.16-.33,2.31-.67,3.42-1.1C121.84,148.08,121.84,147.74,121.6,147.76Z"/><path class="cls-13" d="M306.49,202.05a.76.76,0,0,0-.21,0v0a.51.51,0,0,0-.2-.12,2.53,2.53,0,0,0-.23-.12l-.36-.09a.71.71,0,0,0-.09-.07,27.87,27.87,0,0,1-4.9-2.49q-2.38-1.52-4.63-3.23t-4.35-3.56c-.84-.74-1.72-1.42-2.59-2.11-.25-.26-.5-.52-.76-.77a32.13,32.13,0,0,0-2.67-2.28c-1-.75-2-1.38-3-2.07,0,0-.06,0,0,0,.92.8,1.79,1.65,2.7,2.46s1.81,1.63,2.66,2.51c1.65,1.7,3,3.63,4.77,5.25a31.16,31.16,0,0,0,11.3,6.84s.05,0,.07,0l.16.05a7.1,7.1,0,0,0,.8.17,3.28,3.28,0,0,0,.83.05,2.25,2.25,0,0,0,.77-.2A.12.12,0,0,0,306.49,202.05Z"/><path class="cls-13" d="M294.42,198.41c-.22-.25-.44-.49-.68-.72a4.75,4.75,0,0,0-1.06-1.18c-.41-.41-.81-.83-1.21-1.24-.82-.84-1.63-1.69-2.46-2.52s-1.61-1.59-2.44-2.38a5.93,5.93,0,0,0-.69-.63c-.57-.53-1.14-1.06-1.72-1.58-.78-.69-1.59-1.37-2.41-2a39.58,39.58,0,0,0-3.94-3.14.07.07,0,0,0-.09,0l-.79-.61c-1.27-1-2.51-2-3.74-3-.27-.24-.76.06-.53.41a11.83,11.83,0,0,0,1.78,2.15,4.82,4.82,0,0,0,.44.35,7.21,7.21,0,0,0,1.26,1.27,13.69,13.69,0,0,0,1.57,1l.68.35c.22.15.45.29.67.45a19.51,19.51,0,0,1,2.92,2.68,11,11,0,0,1,1.28,1.62,2.37,2.37,0,0,1,.25.47.62.62,0,0,1-.48.69,3.51,3.51,0,0,1-1.12,0c-1.55-.14-3.1-.38-4.64-.6a.33.33,0,0,0-.32.55,9,9,0,0,0,3.58,2.07c1.58.55,3.14,1.11,4.69,1.73s3.15,1.31,4.71,2c.73.31,1.48.59,2.2.92a7.49,7.49,0,0,1,2,1.18A.19.19,0,0,0,294.42,198.41Z"/><path class="cls-26" d="M273,215.14v.1a.52.52,0,0,0-.08-.36l-.15-.28c-.12-.19-.26-.37-.39-.55l-.13-.18c-.06-.13-.11-.27-.18-.4l-.3-.58a6,6,0,0,0-.3-.63c-.21-.42-.43-.84-.66-1.25a12.56,12.56,0,0,0-.71-1.17l-.13-.17a9.13,9.13,0,0,0-1.41-2.6c-.21-.3-.43-.58-.65-.87a20.87,20.87,0,0,0-1.6-2.11c-.64-.81-1.31-1.59-2-2.37-1.41-1.61-2.89-3.15-4.43-4.64s-3.1-3-4.73-4.33c-.8-.68-1.62-1.31-2.47-1.9-.6-.54-1.2-1.08-1.81-1.61l-.95-.82-.75-.65-.65-.53c-.32-.28-.65-.55-1-.81-1.23-1-2.48-2-3.73-2.94-.19-.14-.45.14-.32.32.34.47.68.93,1.05,1.38a.08.08,0,0,0-.05.13c.45.48.85,1,1.28,1.51s1,1.07,1.56,1.59l2.85,2.75c2,1.9,4,3.73,5.94,5.6s3.8,3.57,5.66,5.39a66.16,66.16,0,0,1,5,5.6c1.25,1.54,2.42,3.13,3.58,4.73a6.89,6.89,0,0,0,1.64,2.27.15.15,0,0,0,.18,0l.08.09a.69.69,0,0,0,.18.16.36.36,0,0,0,.07.1.49.49,0,0,0,.27.24l-.08,0a1.09,1.09,0,0,0,.19.18.13.13,0,0,0,.19-.11A1.25,1.25,0,0,0,273,215.14Z"/><path class="cls-22" d="M265.49,138.29c-1,.18-1.91.42-2.85.67-1.93.52-3.82,1.13-5.69,1.81a9.82,9.82,0,0,0-2.53,2.53c-.34.51-.65,1-1,1.57a15.34,15.34,0,0,1-1.22,1.2,6,6,0,0,1,0-1.4c.05-.28-.29-.57-.52-.31a15.62,15.62,0,0,0-3.06,5,7.45,7.45,0,0,0-1.35,2.25h0l0,.07a.24.24,0,0,0,0,.22c-.24.44.45.83.74.39,1.73-2.6,4.71-3.9,7-5.88a24.53,24.53,0,0,0,2.88-3.23,7.66,7.66,0,0,1,2.28-2,1.63,1.63,0,0,0-.12,1.1.4.4,0,0,0,.65.17q2-1.57,4-3.13l.37-.2a.31.31,0,0,0,.16-.21l.91-.71Z"/><path class="cls-22" d="M268,140.07h0l-.53.4c-.84.41-1.71.77-2.53,1.17-1.56.76-3.09,1.61-4.57,2.5a66.41,66.41,0,0,0-7.63,5.49,8.61,8.61,0,0,0-.68.55c-.24.2.07.61.33.43,3.27-2.26,7.39-2.55,10.74-4.65a19.47,19.47,0,0,0,4.27-3.78q1-1.12,1.86-2.31a18,18,0,0,0,1.3-1.81A12.28,12.28,0,0,1,268,140.07Z"/><path class="cls-22" d="M270.45,140.33c-.1.22-.22.43-.33.64s-.34.44-.52.66-.56.69-.85,1h0a.18.18,0,0,0-.25,0c-.24.35-.52.69-.78,1A19.31,19.31,0,0,1,264.9,146a38.06,38.06,0,0,1-7,3.44c-2.84,1.12-5.7,2.21-8.57,3.25a33,33,0,0,0-4.3,1.79,22.81,22.81,0,0,0-3.56,2.54c-1.48,1.23-3,2.39-4.56,3.5l-4.2,2.76c-.45.3,0,1,.43.74,1.73-1,3.4-2.17,5-3.36,1.2-.79,2.41-1.56,3.65-2.28a30.34,30.34,0,0,1,9.25-3.06,34.1,34.1,0,0,0,8.49-2.62,24.47,24.47,0,0,0,6.38-4.63,24.81,24.81,0,0,0,5.09-7.4C271.17,140.28,270.62,140,270.45,140.33Z"/><path class="cls-26" d="M240,148a1.14,1.14,0,0,0-.26.09c-.08,0-.16.11-.24.16l-.35.23.05,0a0,0,0,0,0-.06-.07c-.21.09-.42.2-.62.31a.18.18,0,0,0-.16,0,13,13,0,0,0-5.09,4.86,28.68,28.68,0,0,0-1.91,3.31,9.57,9.57,0,0,0-.88,3.83c0,.71,0,1.42-.05,2.13,0,.3-.18,1,.18,1.18s.58-.11.78-.25a6.6,6.6,0,0,0,1.26-1.16,13.26,13.26,0,0,0,2.79-6.59,11.74,11.74,0,0,1,1-4.27,13,13,0,0,1,2.74-3,4.09,4.09,0,0,0,.47-.23l.24-.15a1.06,1.06,0,0,0,.19-.24A.06.06,0,0,0,240,148Z"/><path class="cls-1" d="M251.15,156.7a48.77,48.77,0,0,0-6.42,1.23,47.17,47.17,0,0,0-6.06,2.3c-2,.88-3.93,1.87-5.85,2.89a17.2,17.2,0,0,0-5.12,3.44c-1.31,1.49-2.21,3.47-4.08,4.34a.53.53,0,0,0-.11.83,2.74,2.74,0,0,0,3.12.23,21.92,21.92,0,0,0,3.85-2.47,35,35,0,0,0,3.56-3l.79-.75q1.86-1.25,3.79-2.36a.47.47,0,0,0,.4,0q5.14-2.5,10.29-5.06a.36.36,0,0,0,.14-.1l1.9-.79A.38.38,0,0,0,251.15,156.7Zm-16.28,6.51-.29.21c-.37.24-.73.49-1.09.74s-.83.39-1.23.61c0-.07.05-.13.06-.18Zm-.54,2c-.67.5-1.33,1-2,1.52l-1.64,1.2a42.92,42.92,0,0,1,3.75-2.84Z"/><path class="cls-1" d="M196.57,142.62a11.66,11.66,0,0,0-10.69-4.53.54.54,0,0,0-.31.15c-5.17-.3-10.28-2-15.47-1a54,54,0,0,0-8.27,2.7c-2.74,1-5.51,1.81-8.31,2.56a116.77,116.77,0,0,1-17.19,3.24c-2.88.32-5.79.43-8.66.82a45.57,45.57,0,0,0-8.6,2.26c-5.73,2-11.57,4-16.56,7.52a.53.53,0,0,0,.41,1q9.3-1.41,18.61-2.82a82.25,82.25,0,0,0,8.95-1.75c2.93-.77,5.77-1.84,8.66-2.75,11.54-3.63,23.69-4.39,35.69-5.14,7.08-.44,14.17-.91,21.25-1.36C196.46,143.45,196.85,143,196.57,142.62Z"/><path class="cls-27" d="M203.41,161.37c-.87-2.78-3-4.6-5.41-6-.49-.44-1-.85-1.51-1.27-.89-.72-1.81-1.42-2.76-2.05a19.59,19.59,0,0,0-4.77-2.4A32.49,32.49,0,0,0,184.1,148a24.06,24.06,0,0,0-5.33-.83,43.5,43.5,0,0,0-5.59.26,0,0,0,1,0,0,0,27,27,0,0,1,4.75.4c1,.33,1.91.71,2.85,1.05,1.46.53,2.93,1,4.37,1.6l.72.3a.46.46,0,0,0,.24.24,62.18,62.18,0,0,1,7.91,4.28.16.16,0,0,0,0,.17,30.69,30.69,0,0,1,2.63,1.94,22.56,22.56,0,0,1,2,2c1.13,1.25,2.4,2.62,4.21,2.57A.53.53,0,0,0,203.41,161.37Zm-11.53-8.85a29.57,29.57,0,0,0-3.67-1.89c.2.08.41.16.61.26l3,1.35c.26.21.52.44.78.66Z"/><path class="cls-27" d="M204.41,162.7a4.89,4.89,0,0,0-1.65-.32,12.5,12.5,0,0,0-3.78.39.18.18,0,0,0-.15-.07c-1,.09-2,.07-2.92.11l-1.38-.06c-1.2-.54-2.42-1-3.58-1.64-.79-.43-1.51-1-2.28-1.43a.24.24,0,0,0,0-.27,16.51,16.51,0,0,0-2.44-1.8c-.9-.58-1.81-1.1-2.75-1.6l-.46-.24a19.67,19.67,0,0,0-3.58-1.94c-.06,0-.08.06,0,.09l.3.21c-.61-.29-1.22-.58-1.83-.85Q175,152,172.09,151c-1-.35-2-.7-3-1-.86-.22-1.74-.33-2.62-.47l.17-.1a.56.56,0,0,0,.25-.43l.62-.2a1.53,1.53,0,0,0,.64-.09s0,0,0,0a4.91,4.91,0,0,1,.67-.05c.21,0,.2-.3,0-.33a38.93,38.93,0,0,0-17.8,2.2.28.28,0,0,0,.15.54c.91-.23,1.82-.45,2.73-.64l.64-.05a18.08,18.08,0,0,0,3-.12.36.36,0,0,0,.24.06h.29a3.88,3.88,0,0,1,1.11.4c.9.8,2.31.57,3.4.36a11.31,11.31,0,0,0,3.5-1.31c.9.39,1.77.87,2.69,1.23l2.76,1.06c2,.75,3.91,1.55,5.83,2.42s3.7,1.74,5.5,2.7l1.55.81,1.53,1.56a22.29,22.29,0,0,0,3.1,2.72,9.61,9.61,0,0,0,1.1.63c-1.68-.09-3.36-.24-5-.44-2.27-.27-4.53-.6-6.82-.76-.84-.06-1.68-.07-2.51,0a17.56,17.56,0,0,0-1.77-.13,1.47,1.47,0,0,1-.21,0l-1.14-.08c-1.23-.1-2.47-.24-3.71-.23-.18,0-.23.28,0,.32s.23,0,.34.06c-2.47.08-4.94.2-7.4.31h-.18c-.43-.25-.8-.56-1.23-.8l-.28-.16a.2.2,0,0,0-.2-.12h0l-.81-.44c-.8-.46-1.58-.95-2.36-1.43a24.35,24.35,0,0,0-4.94-2.49,16.57,16.57,0,0,0-5-.81,14,14,0,0,0-6.47.53.25.25,0,0,0-.16.24h0c-.07,0-.05.13,0,.13h.09l0,0a27.74,27.74,0,0,0,4.79,1.59,42.37,42.37,0,0,0,5,1c.3.05.61.08.93.11.8.39,1.6.76,2.43,1.1l.26.11a9.77,9.77,0,0,0,1,.63l.37.19.24.2.05,0-.09,0-.51.17-.39.1-.95.07-.87.08h-1.14c-3.45-.1-6.9-.35-10.33-.69a68.09,68.09,0,0,0-7.75-2.09,32.07,32.07,0,0,0-4.54-.93,9.23,9.23,0,0,0-2.29.13c-.76.14-1.46.45-2.19.66a4.28,4.28,0,0,0-1.74.13.08.08,0,0,0,0,.14,2.69,2.69,0,0,0,.65.29l.12.09a5,5,0,0,0-.55-.16s-.09,0-.06.08a7.5,7.5,0,0,0,1.81,1.51c.57.4,1.16.77,1.75,1.12.44.28.89.54,1.34.8a17.68,17.68,0,0,0,4.91,2.12.11.11,0,0,0,.08-.2c-.69-.44-1.41-.83-2.15-1.21a12.24,12.24,0,0,0-1.12-.76c-.73-.44-1.47-.85-2.21-1.27s-1.42-.82-2.15-1.2l-.35-.19-.91-.6a2.57,2.57,0,0,0,.38.08c.66.08,1.32.26,2,.37l2.74.45.14,0,.54.08.78.13c1.36.25,2.71.53,4.06.81a18.26,18.26,0,0,0,4.07.64.26.26,0,0,0,.23-.18l.88.16a8.86,8.86,0,0,0,1.5.53,17.74,17.74,0,0,0,2.61.42,46.84,46.84,0,0,0,5.68.13c1.48,0,3-.11,4.45-.18q1.73,0,3.45,0c1.39,0,2.77-.1,4.14-.23,2.47-.06,4.94-.13,7.42-.18l4.62-.06c1.21,0,2.4-.12,3.6-.22l.66.06,1,.13c2.28.28,4.55.62,6.82.92a59.27,59.27,0,0,0,6.78.6h.34c1,.19,1.92.38,2.9.49,1.72.2,3.77.46,5.34-.41l.65-.15.26,0a3.57,3.57,0,0,0,.9-.21,1.56,1.56,0,0,0,.4-.22c.34-.1.69-.18,1-.3a0,0,0,1,0,0-.09c-.25.05-.48.12-.73.18h0c.09,0,.19,0,.28-.09a.14.14,0,0,0,0-.22l.51-.12s0,0,0,0,.2,0,.3-.05S204.53,162.75,204.41,162.7Z"/><path class="cls-27" d="M192.38,187c-1.65.45-3.3.88-4.95,1.31-1.38.3-2.76.6-4.13.94a9.14,9.14,0,0,0-4.91,2.44c-.23.26.08.74.4.51a4.68,4.68,0,0,1,3.63-.82,7.32,7.32,0,0,1-2.23,1.17,19.55,19.55,0,0,0-2.95,1.6l-1.34.9c-.19.09-.37.2-.56.3a14.3,14.3,0,0,0-1.87.85.46.46,0,0,0-.21.29l-.51.31a.21.21,0,0,0-.12.18,9.11,9.11,0,0,0-1.34,1.22,6.86,6.86,0,0,0-1,1.36,7.7,7.7,0,0,0-.58,1.1,10.43,10.43,0,0,0-.39,1l-.09.12a7.13,7.13,0,0,0-.26.78.21.21,0,0,0,.28.28.16.16,0,0,0,.22,0,.84.84,0,0,0,.06-.14,2.52,2.52,0,0,0,.44-.31l.41-.43c.29-.32.59-.64.9-.94a17.26,17.26,0,0,1,2.17-1.72,29.2,29.2,0,0,1,4.65-2.48c2-.9,4.12-1.71,6.14-2.66l.43-.11a11,11,0,0,0,4.88-2.25,16.79,16.79,0,0,0,3.3-4.19A.39.39,0,0,0,192.38,187Z"/><path class="cls-11" d="M167.73,201.27a0,0,0,0,0-.08,0c-.11.16-.19.33-.28.49l0,0s0,0,0,.05a20.69,20.69,0,0,0-1.06,2.17c-.39.89-.78,1.77-1.15,2.66A23.53,23.53,0,0,1,164,209c-.37.68-1,1.23-1.28,1.94,0,0,0,.06,0,.09-.24.27-.47.54-.72.8s-.3.29-.44.44-.34.28-.52.41a.12.12,0,0,0-.05.15l-.32.32a18.65,18.65,0,0,0-1.45,1.36.09.09,0,0,0,.12.14,7.77,7.77,0,0,0,1.49-1.2l.23-.23a.23.23,0,0,0,.3,0c1-.77,1.93-1.53,2.88-2.31l.22-.18a.39.39,0,0,0,.21-.09,5.69,5.69,0,0,0,.63-.75,5.52,5.52,0,0,0,.87-1.39,16,16,0,0,0,.81-3.13,22.37,22.37,0,0,0,.66-3.62.17.17,0,0,0-.05-.12C167.66,201.55,167.7,201.41,167.73,201.27Z"/><path class="cls-27" d="M174.29,194.17l-2,1a.07.07,0,0,0,0-.06l.13-.1s0-.07,0,0l-.15.11a.15.15,0,0,0-.13,0l-.88.46a.15.15,0,0,0-.2-.06,21.83,21.83,0,0,0-5.28,3.78,19.37,19.37,0,0,0-1.77,1.49c-.25.24-.48.52-.72.79a3,3,0,0,1-.26.24c-1.95,1.75-4,3.48-5.88,5.3-1.82,1.07-3.58,2.22-5.34,3.39s-3.62,2.37-5.4,3.6a35.38,35.38,0,0,0-8.19,7.29c-.25.31-.47.65-.7,1s-.73.92-1.09,1.39c-.07.1,0,.2.13.2a2,2,0,0,0-.1.21l-.11.13a6.93,6.93,0,0,0-1.14,2.52.08.08,0,0,0,.15.06l0-.06a.18.18,0,0,0,.16.08c-.05.15-.12.29-.16.43s.11.16.18.08c.44-.62.84-1.28,1.25-1.92l.21-.33c2.24-2.54,5.15-4.54,7.76-6.64,3.49-2.82,7-5.63,10.44-8.53,0,0,0,0,0,0-.76.57-1.51,1.17-2.27,1.75.26-.24.5-.49.74-.75l.18-.16.09-.06c.36-.27.71-.57,1.06-.86a48.15,48.15,0,0,0,5.46-4.52.06.06,0,0,0,0-.05c.25-.23.5-.45.74-.69l0,0a7.64,7.64,0,0,0,1-.71,18.7,18.7,0,0,0,1.81-1.75c.84-.91,1.67-1.84,2.57-2.69a3.4,3.4,0,0,1-.21.46l-.54,1.05a9.43,9.43,0,0,0-.94,2.16s0,0,0,0c-1.28,2-2.5,4.11-3.86,6.06l-.24.26,0,.05c-1.44,1.5-2.89,3-4.43,4.37a41.29,41.29,0,0,1-6.5,4.64.19.19,0,0,0,.14.34,11.51,11.51,0,0,0,3.09-1.41c-.09.07-.19.13-.27.2s0,.27.12.22a12.63,12.63,0,0,0,2.82-1.8,28.1,28.1,0,0,0,2.53-2.22l.08-.08a21.05,21.05,0,0,0,5.2-5.84c1-1.72,1.72-3.58,2.56-5.38.12-.25.25-.49.38-.74.46-.73.94-1.44,1.45-2.14a24.83,24.83,0,0,1,2.94-3.36c.31-.25.64-.46,1-.68a13.66,13.66,0,0,0,2.47-1.4A0,0,0,0,0,174.29,194.17Z"/><path class="cls-28" d="M195.52,172.71c-3.38,2.58-7.41,4-11.17,5.89a27.14,27.14,0,0,0-5.18,3.28c-.2.17-.38.37-.57.55s-.17.11-.22.1c-.48,0,.51-1.61.63-1.81.33-.56.67-1.12,1-1.67.58-.92,1.22-1.81,1.79-2.73l.3-.37a.09.09,0,0,0,0-.13l.18-.31s0-.08-.06,0q-.27.3-.51.6a23,23,0,0,0-4.55,5.6,27.27,27.27,0,0,0-2.49,5.5c-1.24,2-2.19,4-3.33,6.05a.47.47,0,0,0,.64.63c3.53-2,5.67-5.52,8.53-8.27s6.69-4.07,9.8-6.45a19.08,19.08,0,0,0,3.86-3.91c.63-.6,1.24-1.22,1.83-1.85C196.32,173,195.91,172.41,195.52,172.71Z"/><path class="cls-28" d="M197,168.07c-1.15.68-2.66.36-3.94.52a17.47,17.47,0,0,0-3.78.89,12.92,12.92,0,0,0-6,4,13.22,13.22,0,0,0-1.39,1.31,9.89,9.89,0,0,0-1.16,1.78s0,0,0,0a12.31,12.31,0,0,1,2.53-2.41,19.17,19.17,0,0,1,2.84-1.72,26.27,26.27,0,0,1,3.52-1.34q.87-.27,1.74-.51a4.56,4.56,0,0,1,.88-.23.33.33,0,0,0,.07.13,2.11,2.11,0,0,1-.18.24.42.42,0,0,0,.08.64c.7.45,1.68-.44,2.26-.78l3-1.76A.43.43,0,0,0,197,168.07Z"/><path class="cls-28" d="M198,170.73c-.3.69-.59,1.37-.85,2.07l0,0a11.1,11.1,0,0,0-1.28,1.37c-.62.66-1.25,1.32-1.87,2a.41.41,0,0,0-.12.34l-.46.48c-.18.19.09.45.29.29a2.94,2.94,0,0,1,.49-.32.37.37,0,0,0,.36-.06l.07,0a5.34,5.34,0,0,1-1.17,1.49c-.4.43-.78.88-1.19,1.3-.81.86-1.64,1.69-2.53,2.47a34.9,34.9,0,0,1-5.81,4.15.49.49,0,0,0,.49.84A47.3,47.3,0,0,0,193,181.6c2.26-2,4.31-4.44,4.92-7.44a.14.14,0,0,0-.25-.1l0,0c.13-.29.25-.57.36-.86a6,6,0,0,0,.56-2.36C198.54,170.6,198.1,170.48,198,170.73Z"/><path class="cls-1" d="M178.45,179l-.28,0,.12-.08s0-.08,0-.07l-.53.24c-.29.08-.57.19-.84.29a14.36,14.36,0,0,0-1.56.67c-.47.23-.92.48-1.37.74s-.89.4-1.34.62a48.75,48.75,0,0,0-4.68,2.63c-.6.38-1.18.77-1.76,1.18a27.8,27.8,0,0,0-6.14,4.08c-1.13.91-2.2,1.86-3.24,2.86-.57.54-1.16,1.07-1.78,1.55a9.33,9.33,0,0,0-1.14.69.19.19,0,0,0-.07.11,2.07,2.07,0,0,1-.25.15.1.1,0,0,0,.05.19,2.29,2.29,0,0,0,.36-.07,9.6,9.6,0,0,0-.92.54,0,0,0,0,0,0,0,18.37,18.37,0,0,0,4.53-1.2,42.88,42.88,0,0,0,4.33-1.66c.33-.15.66-.32,1-.49.51-.22,1-.46,1.5-.73.28-.16.54-.34.81-.52a7.34,7.34,0,0,0,.79-.49,23,23,0,0,0,2.51-2.11,22.58,22.58,0,0,0,4.1-5.09.25.25,0,0,0,0-.08c.49-.4,1-.78,1.49-1.16a37.75,37.75,0,0,0,3.68-1.91.14.14,0,0,0,0-.25,3.33,3.33,0,0,0,.75-.54A.1.1,0,0,0,178.45,179Z"/><path class="cls-22" d="M214.32,151.48c-3.36,1.13-6.85,1.92-10.3,2.73l-3.11.76-1.4.38a37.54,37.54,0,0,0-9,3.58,24.42,24.42,0,0,0-5.84,4.83,56.62,56.62,0,0,1-4.86,5.05c-.33.3-.67.58-1,.85l-.15.12a70.71,70.71,0,0,1-6.88,4.3l-.5.29-.69.4c-2.42,1.4-4.81,2.84-7.19,4.3q-8,4.94-15.81,10.25a.52.52,0,0,1-.76-.44c0-4.52,2.32-8.19,5.27-11.36.59-.64,1.22-1.26,1.85-1.86,1.31-1.24,2.68-2.4,4-3.52q1.73-1.47,3.35-3c.4-.38.79-.76,1.18-1.16.83-.82,1.64-1.67,2.44-2.54a76.7,76.7,0,0,1,6.8-6.93,39.83,39.83,0,0,1,15-7.67c.61-.17,1.22-.34,1.83-.48s1.22-.3,1.84-.43a86.42,86.42,0,0,1,12.09-1.59c.81.32,1.63.6,2.45.86a70.65,70.65,0,0,0,7.48,1.91Z"/><path class="cls-12" d="M188.63,158a9.92,9.92,0,0,0-1.48.59c-1.75.11-3.51-.47-5.28-.26a16.47,16.47,0,0,0-5,1.52,31.07,31.07,0,0,0-5.09,3.11l-.43.28a11.56,11.56,0,0,0-1,.69l-.1.06h0l-.12.09a.43.43,0,0,0-.14.24l-2.49,1.91a36.21,36.21,0,0,1-5.36,3.49.35.35,0,0,0,.36.61c.58-.29,1.15-.61,1.7-1a103,103,0,0,1,11.47-4.83c2.2-.84,4.39-1.71,6.53-2.71,1.17-.54,2.33-1.11,3.48-1.69a19.23,19.23,0,0,0,3.18-1.82C189,158.21,188.81,158,188.63,158Z"/><path class="cls-12" d="M182.52,162.37l0,0c.06-.09.14-.17.2-.25s-.11-.36-.26-.26a14.14,14.14,0,0,0-1.3,1.14c-1.91.93-3.75,2-5.6,3a19.77,19.77,0,0,0-5.47,3.88c-.55.61-1.07,1.25-1.62,1.86l-.46.3a.21.21,0,0,0-.07.29.6.6,0,0,1-.08.08,10.74,10.74,0,0,1-2.66,1.92,54.05,54.05,0,0,0-6,3,34.32,34.32,0,0,0-5.64,5.27c-.44.47.27,1.18.7.7,3.1-3.42,7.47-5.07,11.41-7.28a65.33,65.33,0,0,0,11.42-8.35c1-.87,1.93-1.78,2.87-2.7.71-.69,1.46-1.37,2.1-2.12l.59-.38C182.76,162.48,182.66,162.31,182.52,162.37Z"/><path class="cls-1" d="M219.61,150.07a6.1,6.1,0,0,0-2.86-1.28,13.79,13.79,0,0,0-3.26-.34,34.11,34.11,0,0,0-6.67.92,43.89,43.89,0,0,0-7.13,1.92,18.26,18.26,0,0,0-2.4,1.15l-.17.07a.84.84,0,0,0-.24.16,29.21,29.21,0,0,0-3.36,2.33c-2.34,1.87-4.52,3.89-6.67,6,0,0,0,.07,0,0q1.46-1,2.88-2a.14.14,0,0,0,.14.05c2.42-.64,4.74-1.7,7.1-2.54s4.7-1.59,7.07-2.31c4.62-1.39,9.31-2.57,14-3.74.38.09.76.18,1.14.3A.42.42,0,0,0,219.61,150.07Z"/><path class="cls-15" d="M218.69,152.69l-.53.33-.68.19-3-1.64-.08-.07-.12,0-2-.4a70.65,70.65,0,0,1-7.48-1.91c-.82-.26-1.64-.54-2.45-.86a34.26,34.26,0,0,1-5.8-2.85c-.8-.5-1.59-1-2.35-1.58-.44-.31-.86-.63-1.29-.95a106.41,106.41,0,0,1-9.65-8.86c-.9-.9-1.79-1.8-2.68-2.71l-.87-.91a108.48,108.48,0,0,1-8.07-9.34,63.49,63.49,0,0,1-4.86-7.38c-1.3-2.31-2.44-4.72-3.58-7.12-2.34-4.88-4.77-9.83-8.67-13.67a.51.51,0,0,1,.36-.86,72.22,72.22,0,0,1,19.59,4.64A75.58,75.58,0,0,1,203.69,117a65.66,65.66,0,0,1,10.39,15.49A31.15,31.15,0,0,1,217,142.56c.19,1.83.21,3.72.44,5.57a19.16,19.16,0,0,0,.34,2A11.36,11.36,0,0,0,218.69,152.69Z"/><path class="cls-28" d="M217.28,151.45l-.07-.06a.14.14,0,0,0,0-.1c-.14-5.52.11-11.73-2.91-16.6h0a20.77,20.77,0,0,0-2.52-5.11.73.73,0,0,0-.16-.15c-.21-.35-.41-.71-.63-1a36.78,36.78,0,0,0-2.93-4.28c-.61-1-1.24-2-1.91-3a36.5,36.5,0,0,0-3-3.9,24.62,24.62,0,0,0-3-2.74,67.1,67.1,0,0,0-8.5-7.75,53.14,53.14,0,0,0-6.77-4.33,60.84,60.84,0,0,0-8.56-4.53,40.93,40.93,0,0,0-4.61-1.66,54.6,54.6,0,0,0-7.85-2.58l-.86-.19h0a.41.41,0,0,0-.42-.08,42.84,42.84,0,0,0-6.59-.92l-.45-.07-.07-.07c-.48-.43-1.19.28-.71.71,2.83,2.53,4.46,6,6.23,9.28.51,1,1,1.88,1.62,2.78.19.66.37,1.31.56,2a.49.49,0,0,0,.61.35.5.5,0,0,0,.3-.23,18.44,18.44,0,0,0,4.28,3.84c1.8,1.19,3.72,2.2,5.55,3.37a63,63,0,0,1,5.36,3.84c1.25,1,2.46,2,3.65,3.12,1.95,2.72,4,5.36,6.21,7.91,1.76,2,3.56,4.06,5.46,6-1.77-.83-3.55-1.64-5.27-2.58a81.79,81.79,0,0,1-14.1-9.68,80.24,80.24,0,0,1-7.08-6.72s0,0,0,0c.41.49.84.95,1.26,1.42,0,0,0,.05,0,.08a74.39,74.39,0,0,0,13.19,16,86.14,86.14,0,0,0,16.92,12.08c1.69.92,3.42,1.78,5.17,2.59.88.4,1.78.78,2.68,1.13l1.3.49c.51.18,1,.23,1.55.37a.21.21,0,0,0,.25-.22c.09,0,.17.06.25.07h0c.29.09.58.18.88.25s.33-.24.14-.33a9.53,9.53,0,0,1-1.73-1.2c-.17-.16-.31-.35-.5-.5s-.5-.35-.74-.55a12.65,12.65,0,0,1-1.24-1.19c-.81-.9-1.54-1.87-2.28-2.82a44.11,44.11,0,0,0-3.15-3.78,5.13,5.13,0,0,0-.43-.58,7.8,7.8,0,0,0-1.22-1.07c-.55-.62-1.09-1.24-1.63-1.88-1.31-1.56-2.58-3.15-3.84-4.75a115.06,115.06,0,0,0-7.91-9.43,43.06,43.06,0,0,0-3.8-3.47c-.56-.66-1.13-1.32-1.72-2a48.12,48.12,0,0,0-4.72-4.42c-3.14-2.58-6.68-4.51-10-6.82a19.22,19.22,0,0,1-4.92-4.64.06.06,0,0,0-.1.06,13.89,13.89,0,0,0,1,1.57l-.29-.33c-.29-.34-.57-.69-.85-1a45.86,45.86,0,0,0-4.23-7c.58.45,1.14.91,1.7,1.37,1.22,1.5,2.18,3.24,3.27,4.8a26.68,26.68,0,0,0,7.08,6.81c.42.29,1-.4.55-.72-2.52-2-3.87-4.92-5.93-7.29a19.11,19.11,0,0,0-1.81-1.79c-.6-.71-1.24-1.4-1.9-2.05-.41-.59-.81-1.19-1.19-1.79a.42.42,0,0,0-.73,0l-.3-.24a5,5,0,0,0-.42-.36,33.4,33.4,0,0,1,3.79,1.21,18,18,0,0,1,3.34,1.82c.93.82,1.9,1.59,2.89,2.34a44.41,44.41,0,0,1,3.39,3.61c.14.22.27.45.4.67.9,1.56,1.81,3.06,2.83,4.55a.26.26,0,0,0,.44,0,16.3,16.3,0,0,0,3.12,3.51c.14.12.4,0,.27-.21-.61-.88-1.22-1.77-1.82-2.67a.31.31,0,0,0,0-.23,14,14,0,0,0-1.67-2.38c-1-1.65-2-3.33-3-5a19.4,19.4,0,0,0-4-4.67c.79.27,1.57.55,2.35.86a63.74,63.74,0,0,1,13.37,7.11c2.37,1.65,4.51,3.6,6.85,5.28,0,0,.06,0,.09,0a69.19,69.19,0,0,0,5.55,5.29,14.51,14.51,0,0,1,3.12,3.69h0c.58,2.38.79,4.87,1.14,7.29.48,3.29,1.09,6.73,3.14,9.45.17.22.61.18.59-.16a18.3,18.3,0,0,1,.74-5.93c.59.2.92.91,1.17,1.43.1.21.19.43.28.64.46,1.68.79,3.4,1.12,5.13a31.53,31.53,0,0,0,.84,3.45,8.24,8.24,0,0,0,1.4,3c.09.18.18.36.28.54s.65,0,.5-.29c-.89-2-.47-4.16-.42-6.24a16.59,16.59,0,0,0-.81-5.46c-.15-.47-.34-.93-.52-1.4s-.18-.77-.28-1.16a30.88,30.88,0,0,1,2.31,3.87,22.31,22.31,0,0,1,2.16,10.79,11.47,11.47,0,0,0,.85,5.56,8,8,0,0,0,1.45,2.11,5.47,5.47,0,0,0,2.06,1.25A.22.22,0,0,0,217.28,151.45ZM176,124.2q-.94-.84-1.89-1.71a.5.5,0,0,0-.25-.13h0c-.24-.3-.51-.57-.77-.86l-.77-.82a6.27,6.27,0,0,0-.88-.74s-.08,0-.08.07c-.5-.65-1-1.3-1.46-2a78.29,78.29,0,0,0,6.56,6.45Z"/><path class="cls-11" d="M223.35,136.35c0,.35-.09.7-.13,1.05l0-.68A.49.49,0,0,1,223.35,136.35Z"/><path class="cls-18" d="M272,200.13c-.23-.22-.51-.38-.75-.59s-.46-.4-.7-.59c-.42-.33-.83-.67-1.24-1a.14.14,0,0,0,0-.17c-.14-.3-.29-.59-.43-.89s-.34-.56-.5-.85a5.77,5.77,0,0,0-.59-.81c-.21-.25-.42-.49-.63-.75s-.47.06-.34.26a13.33,13.33,0,0,0,1.06,1.69c.2.25.38.53.59.77l.18.22c-.86-.74-1.7-1.51-2.48-2.33-.26-.27-.62.12-.4.4s.53.6.79.91l-.34-.19c-.52-.27-1-.51-1.58-.76a7.86,7.86,0,0,0-1.68-.67.14.14,0,0,0-.13.23,7.84,7.84,0,0,0,1.51.95c.53.3,1.05.6,1.59.87s1.28.62,1.94.9c.21.2.42.42.65.61a15.86,15.86,0,0,0,1.56,1.17c.28.18.56.33.85.48a7.8,7.8,0,0,0,.87.43C272,200.47,272.14,200.24,272,200.13Z"/><path class="cls-1" d="M283.22,196.48c-.32-.3-.65-.6-1-.88a3.68,3.68,0,0,0-.51-.37l-.07,0h0c-1.74-1.31-3.67-2.34-5.4-3.68a39.45,39.45,0,0,1-4.71-4.43,33.46,33.46,0,0,0-4.29-4.21,27.88,27.88,0,0,0-5.78-3.26,57.68,57.68,0,0,0-5.84-2.18h0l-.52-.21a.78.78,0,0,0-.3,0c-.2-.06-.4-.13-.61-.18h0l-.29-.13c-.15-.06-.25.19-.11.27,1.83,1.05,3.41,2.47,5.24,3.5,1,.56,2,1.05,3,1.7a24.54,24.54,0,0,1,2.58,2.09c1.64,1.49,3.22,3.07,4.75,4.68s2.74,3.18,4.73,4.12a36.84,36.84,0,0,0,7.09,2.42l.23.1a8.21,8.21,0,0,1,1.73.86C283.2,196.66,283.29,196.54,283.22,196.48Z"/><path class="cls-27" d="M278.47,181.19a12.19,12.19,0,0,0-2.09-1.09,3.42,3.42,0,0,0,.34.13s.06,0,0,0a39.18,39.18,0,0,0-5.79-3.91A18.37,18.37,0,0,0,265,173.5h0c-1.05-.46-2.12-.89-3.21-1.26a79.75,79.75,0,0,0-11.46-3.18,29.66,29.66,0,0,0-4.23-.55c-.73-.06-1.47-.11-2.21-.12-.49,0-1,0-1.48,0l-.22,0a8.75,8.75,0,0,0-1.68.12c-1.17.09-2.33.24-3.48.42-.24,0-.18.41.05.41,2.5,0,5,0,7.5.14,1.11.08,2.22.2,3.33.34-.38,0-.76-.08-1.14-.09a0,0,0,0,0,0,.05,17,17,0,0,1,1.75.15s0,.08,0,.09a14,14,0,0,1,1.43.19l.17,0s0,.08.06.08a.75.75,0,0,0,.15,0,.22.22,0,0,1,.12.15c.06.23-.37.27-.51.32-.66.19-1.3.41-1.94.63l-.35.07s-.06,0-.08.07l-.35.12-1.09.28c-.13,0-.11.26,0,.25a24.47,24.47,0,0,0,4.65-.81,39,39,0,0,1,4.71,0c.93.26,1.87.52,2.79.8,1.08.34,2.14.68,3.21,1l.12.06q.81.34,1.59.72a3.87,3.87,0,0,1,.94.54.39.39,0,0,0-.07.3,25.46,25.46,0,0,0-4.28-.15c-.6,0-1.19.05-1.79.13a5.84,5.84,0,0,0-1.31.31,14.18,14.18,0,0,0-3.2,1.13,12.27,12.27,0,0,1-2.1,0c-.24,0-.48-.06-.72-.11h0a10,10,0,0,1-1.3-.36c-.4-.15-.57.49-.18.64a9.22,9.22,0,0,0,3.29.65.27.27,0,0,0,.36.23,26.33,26.33,0,0,1,15-.33c.69.3,1.4.58,2.11.82a.37.37,0,0,0,.21,0l1.44.57c1,.4,1.9.92,2.88,1.31.22.12.45.24.67.38a.25.25,0,0,0,.25,0l.78.37a11.15,11.15,0,0,0,2.14.9C278.5,181.35,278.54,181.24,278.47,181.19Z"/><path class="cls-1" d="M268,190.74c-.35-.22-.7-.41-1-.63a6.51,6.51,0,0,0-1.22-1l-.48-.46a11.53,11.53,0,0,0-1.82-1.53.08.08,0,0,0,0,0c-1.75-1.56-3.64-2.92-5.3-4.59a65.52,65.52,0,0,0-4.5-4.77c-1.72-1.4-4.1-1.59-6.15-2.25-2.41-.77-4.74-1.78-7.12-2.65,0,0,0,0,0,0,.48.23,1,.44,1.47.66l-.72-.24h0c-.38-.19-.76-.39-1.15-.56,0,0,0,0,0,0a27,27,0,0,0,5.73,3.31c1.56.66,3.18,1.13,4.74,1.76l.92.47c.32.16.65.31,1,.45a11.26,11.26,0,0,1,1.84,1.29c.8.72,1.49,1.54,2.22,2.33A37.66,37.66,0,0,0,261,186.5c.95.72,1.92,1.42,2.91,2.07a13.5,13.5,0,0,0,3,1.8H267a3,3,0,0,0,1,.48C268,190.86,268.08,190.78,268,190.74Z"/><path class="cls-8" d="M248,295.44h0l0,0Zm0,0h0l0,0Z"/><path class="cls-9" d="M246.05,327.77q-.18-3-.34-6-.3-6-.55-11.93-.48-12.08-.65-24.14c-.24-16.1,0-32.19.51-48.29.06-2.1.2-4.22.18-6.32a8.81,8.81,0,0,0-1.17-4.91l-.12-.15c-.4-1.6-2.23-2.06-3.71-1.7a2.75,2.75,0,0,0-2.35,1.42c-.07.11,0,.2.12.21a9.82,9.82,0,0,0-1.19,4.8c-.33,7.13-.4,14.27-.48,21.4q-.24,21.57.21,43.15l.12,4.76c.29,4.73.37,9.47.42,14.22.08,1.25.2,2.5.31,3.76,0,.49.07,1,.09,1.48.12.22.49.11.52-.16a38.2,38.2,0,0,0,0-5.24c-.06-1.66-.11-3.32-.17-5q-.09-3.07-.16-6.15a2.43,2.43,0,0,0,.27,0,.05.05,0,0,0,0-.1l-.3-.08c0-1.3-.08-2.6-.11-3.9q-.24-10.27-.33-20.57-.17-20.46.26-40.91c0-1.91.07-3.82.1-5.73a13.74,13.74,0,0,1,.57-4.51,3.47,3.47,0,0,1,2.54-2.35,4.32,4.32,0,0,1,.88.2,4.26,4.26,0,0,1,2.61,3,14.58,14.58,0,0,1,.29,4.66c-.1,2-.2,4-.27,6q-.42,11.56-.55,23.14-.26,23.15.62,46.29.26,6.48.58,12.94.16,3.22.35,6.46a47.09,47.09,0,0,0,.55,6.39,16.82,16.82,0,0,1-4.63.4,3.72,3.72,0,0,1-3.45-3.4,22.77,22.77,0,0,1-.06-3.09c0-1.15,0-2.29,0-3.43s0-2-.06-3a4.79,4.79,0,0,0,1.38-.59.14.14,0,0,0-.07-.26,5.36,5.36,0,0,0-1.33.13v-.14a9.13,9.13,0,0,1-.35,2.38.55.55,0,0,1-.14.22c0,.71-.06,1.42-.08,2.12,0,1.3-.06,2.59-.08,3.88a8.74,8.74,0,0,0,.36,3.1c1.28,3.6,5.82,3.21,8.71,2a.3.3,0,0,0,.39-.25A46,46,0,0,0,246.05,327.77Z"/><path class="cls-9" d="M233.42,320.63a3.23,3.23,0,0,1-2.14-3c0-.15-.24-.19-.27,0a3.34,3.34,0,0,0,2.13,3.62l.27.1C233.41,321.11,233.41,320.87,233.42,320.63Z"/><path class="cls-9" d="M245.13,327.52q-.18-3.24-.35-6.46-.33-6.46-.58-12.94-.87-23.13-.62-46.29.13-11.56.55-23.14c.07-2,.17-4,.27-6a14.58,14.58,0,0,0-.29-4.66,4.26,4.26,0,0,0-2.61-3,4.32,4.32,0,0,0-.88-.2,3.47,3.47,0,0,0-2.54,2.35,13.74,13.74,0,0,0-.57,4.51c0,1.91-.06,3.82-.1,5.73q-.42,20.46-.26,40.91.09,10.29.33,20.57c0,1.3.08,2.6.11,3.9l.3.08a.05.05,0,0,1,0,.1,2.43,2.43,0,0,1-.27,0q.08,3.08.16,6.15c.06,1.66.11,3.32.17,5a38.2,38.2,0,0,1,0,5.24c0,.27-.4.38-.52.16,0,.32,0,.64,0,1v.14a5.36,5.36,0,0,1,1.33-.13.14.14,0,0,1,.07.26,4.79,4.79,0,0,1-1.38.59c0,1,.06,2,.06,3s0,2.28,0,3.43a22.77,22.77,0,0,0,.06,3.09,3.72,3.72,0,0,0,3.45,3.4,16.82,16.82,0,0,0,4.63-.4A47.09,47.09,0,0,1,245.13,327.52Z"/><path class="cls-18" d="M315.35,149.19c-.05,1.27-.09,2.55-.13,3.83h0c0-1.28.09-2.56.13-3.83Z"/><path class="cls-27" d="M269.77,132.42c-2.24.25-4.48.58-6.7,1-.67.13-1.36.27-2,.43a6.44,6.44,0,0,0,1-.93.2.2,0,0,0-.2-.33v0l0,0h0a3.21,3.21,0,0,1-.67.26c-.38,0-.77,0-1.16,0a39.52,39.52,0,0,0-6.83-1,31.3,31.3,0,0,0-7.24.11,16.85,16.85,0,0,0-6.45,2.07,9.12,9.12,0,0,0-3.49,4.22,20.1,20.1,0,0,0-1.13,3.36l-.1.31h0a.58.58,0,0,0-.17.36c-.05.16-.08.34-.13.51s-.08.27-.11.41l-.47,1.4a15.78,15.78,0,0,0-.53,1.6l0,.05a.14.14,0,0,0,0,.11c0,.1,0,.19,0,.28a.09.09,0,0,0,.17,0,2.85,2.85,0,0,0,.16-.3.13.13,0,0,0,.22,0,40.35,40.35,0,0,1,3.4-4.43l.16-.21c.4-.36.78-.74,1.17-1.07.81-.68,1.66-1.29,2.53-1.89s1.74-1.19,2.61-1.78a17.16,17.16,0,0,0,2.74-2,0,0,0,0,0,0,0l.3-.24.42-.29a11.77,11.77,0,0,1,1.5-.66,12.91,12.91,0,0,1,1.92-.5,14.68,14.68,0,0,0,2-.29s0,0,0,0h.25l.59-.06c2.15.19,4.28.56,6.43.68h0c-.72.36-1.46.69-2.21,1-1.46.58-3,1.05-4.45,1.53s-3,.95-4.44,1.54a10.53,10.53,0,0,0-3.83,2.42c-.08.09,0,.27.13.23.73-.25,1.43-.61,2.15-.9l2.21-.85c1.46-.56,3-1,4.46-1.49,1.23-.39,2.45-.81,3.65-1.28a43.45,43.45,0,0,0,5.71-1.46c2.19-.61,4.4-1.17,6.63-1.64A.09.09,0,0,0,269.77,132.42Zm-29.86,2.82s0,0,0,0c-1.46,1.4-2.11,3.53-3.07,5.27-.29.52-.6,1-.91,1.52l-.25.36c-.16.23-.32.45-.49.67l-.24.33c-.08.11-.17.16-.23.07.92-3.18,2-6.48,4.93-8.37.22-.14.46-.25.69-.37a3.65,3.65,0,0,0-.24.31Zm7.94-2.33a13.26,13.26,0,0,0-2.57,1.45c-.81.56-1.59,1.17-2.36,1.77l-1,.79c-.4.27-.81.55-1.22.81-.2.13-.52.27-.59-.07,0,0,0-.06,0-.1.34-.47.7-.93,1.08-1.37a14.46,14.46,0,0,1,1.59-1.54c.27-.22.53-.46.79-.69l.46-.21c.46-.21.92-.4,1.4-.58l.28-.1c.78-.13,1.58-.22,2.38-.28Z"/><path class="cls-27" d="M253.51,140.6a48.93,48.93,0,0,0-10,2.61c-1.63.56-3.23,1.18-4.82,1.84-.76.31-1.51.67-2.24,1s-1.6.94-2.42,1.41c-.11.06,0,.25.09.2.8-.29,1.63-.47,2.43-.78l2.4-.91q2.4-.94,4.83-1.81c3.24-1.16,6.58-2.07,9.79-3.3C253.69,140.84,253.69,140.58,253.51,140.6Z"/></svg>